<?xml version="1.0" encoding="utf-8"?>
<svg xmlns="http://www.w3.org/2000/svg" viewBox="0 0 500 500">
  <g transform="matrix(0.641823, 0, 0, 0.641823, 85.705025, 85.704857)" style="">
    <path style="fill:#FC6E51;" d="M447.709,101.85c-0.781-0.844-1.594-1.688-2.406-2.5c-14.404-14.405-38.889-22.343-68.918-22.343 c-44.701,0-93.604,17.452-134.157,47.857c-50.107,37.561-86.292,93.464-104.62,161.647c-16.296,60.607-51.45,108.182-78.074,137.414 C30.457,455.878,4.896,473.548,4.646,473.72c-3.297,2.266-5.062,6.172-4.562,10.141s3.172,7.328,6.937,8.688 c25.78,9.389,52.138,14.154,78.309,14.154c38.014,0,76.777-10.031,115.212-29.811c26.968-13.891,54.279-32.857,81.536-56.59 c-1.594,4.014-3.094,7.873-4.344,11.576c-1.438,4.203-0.109,8.859,3.328,11.688c3.436,2.812,8.264,3.203,12.123,0.984 c54.045-31.326,97.559-69.277,129.291-112.822c27.498-37.732,45.154-78.714,51.027-118.494 C480.3,167.268,470.894,126.676,447.709,101.85z"/>
    <path style="fill:#FFCE54;" d="M436.646,103.084c-0.078-1.156-0.156-2.203-0.25-3.016c-0.812-7.484-6.014-9.531-8.201-10.078 c-4.359-1.062-9.297-1.609-14.672-1.609c-23.436,0-51.467,9.983-74.996,26.686c-30.201,21.452-52.623,53.06-64.824,91.417 c-19.241,60.451-48.396,124.447-48.693,125.087c-1.688,3.703-1.141,8.031,1.438,11.188c2.046,2.516,5.109,3.922,8.265,3.922 c0.797,0,1.594-0.094,2.406-0.281c41.959-9.688,78.223-25.734,107.736-47.67c24.904-18.5,45.248-41.342,60.449-67.887 c28.139-49.106,31.451-98.636,31.576-117.666C436.912,108.552,436.771,105.131,436.646,103.084z"/>
    <path style="fill:#E6E9ED;" d="M446.537,26.197c-22.014-13.702-47.295-20.936-73.121-20.936c-23.139,0-46.123,5.844-66.449,16.89 c-20.985,11.39-38.756,28.186-51.443,48.575c-40.373,64.95-20.405,150.633,44.536,191.021 c22.029,13.701,47.311,20.936,73.121,20.936c23.154,0,46.139-5.844,66.465-16.889c20.969-11.406,38.764-28.202,51.436-48.591 C531.47,152.269,511.486,66.57,446.537,26.197z"/>
    <g>
      <path style="fill:#CCD1D9;" d="M376.728,5.308c-3.938,25.64-14.594,67.622-43.326,113.838 c-24.295,39.061-51.59,64.918-70.191,79.715c-4.547,3.625-8.812,6.78-12.702,9.499c3.297,6.297,7.077,12.375,11.343,18.155 c23.131-16.015,58.615-46.169,89.66-96.088c31.061-49.935,42.404-95.12,46.527-122.947C391.041,6.198,383.916,5.48,376.728,5.308z"/>
      <path style="fill:#CCD1D9;" d="M483.613,89.21c4.516-3.593,8.75-6.718,12.594-9.421c-3.281-6.312-7.047-12.39-11.312-18.187 c-23.139,16.03-58.574,46.185-89.588,96.042c-31.016,49.888-42.373,95.026-46.514,122.852c7.016,1.266,14.139,1.984,21.311,2.141 c0.703-4.656,1.641-9.857,2.875-15.514c5.047-23.234,16.156-59.138,40.451-98.199C437.709,129.864,465.005,104.006,483.613,89.21z"/>
    </g>
  </g>
</svg>