<?xml version="1.0" encoding="utf-8"?>
<svg height="800px" width="800px" version="1.1" id="Layer_1" xmlns="http://www.w3.org/2000/svg" viewBox="0 0 512 512" xmlns:bx="https://boxy-svg.com">
  <path d="M 109.09 94.174 L 125.683 110.767 L 109.09 127.36 L 92.497 110.767 Z" bx:shape="n-gon 109.09 110.767 16.593 16.593 4 0 1@40bdc1b0" style="stroke: rgb(0, 0, 0); fill: currentcolor;"/>
  <path style="fill:#FFDD09;" d="M 432.823 292.584 C 432.823 312.705 416.36 329.168 396.239 329.168 C 376.118 329.168 359.655 312.705 359.655 292.584 C 359.655 272.463 376.118 256 396.239 256 C 416.36 256 432.823 272.463 432.823 292.584"/>
  <path style="fill:#FD9808;" d="M 347.46 140.151 C 347.46 173.686 320.022 201.124 286.487 201.124 C 252.952 201.124 225.514 173.686 225.514 140.151 C 225.514 106.616 252.952 79.178 286.487 79.178 C 320.022 79.178 347.46 106.615 347.46 140.151"/>
  <path style="fill:#FFDD09;" d="M 329.168 140.151 C 329.168 173.686 305.998 201.124 277.341 201.124 C 248.684 201.124 225.514 173.686 225.514 140.151 C 225.514 106.616 248.683 79.177 277.341 79.177 C 305.999 79.177 329.168 106.615 329.168 140.151"/>
  <path style="fill:#FFFFFF;" d="M 287.706 201.124 C 289.535 201.124 290.755 201.124 292.584 201.124 C 265.756 198.685 245.025 172.466 245.025 140.151 C 245.025 107.835 265.756 82.226 292.584 79.177 C 290.755 79.177 289.535 79.177 287.706 79.177 C 254.171 79.177 226.733 106.615 226.733 140.15 C 226.733 173.685 254.171 201.124 287.706 201.124"/>
  <path style="fill:#FD9808;" d="M 298.681 323.071 C 298.681 383.435 249.293 432.823 188.929 432.823 C 128.565 432.823 79.177 383.435 79.177 323.071 C 79.177 262.707 128.565 213.319 188.929 213.319 C 249.293 213.319 298.681 262.707 298.681 323.071"/>
  <path style="fill:#FFDD09;" d="M 280.389 323.071 C 280.389 383.435 235.269 432.823 179.783 432.823 C 124.297 432.823 79.177 383.435 79.177 323.071 C 79.177 262.707 124.297 213.319 179.783 213.319 C 235.269 213.319 280.389 262.707 280.389 323.071"/>
  <path style="fill:#FFFFFF;" d="M 188.929 213.319 C 190.758 213.319 191.978 213.319 193.807 213.319 C 140.151 216.368 97.469 263.927 97.469 323.071 C 97.469 382.215 140.151 429.774 193.807 432.823 C 191.978 432.823 190.758 432.823 188.929 432.823 C 128.565 432.823 79.177 383.435 79.177 323.071 C 79.177 262.707 128.565 213.319 188.929 213.319"/>
  <g transform="matrix(0.714532, 0, 0, 0.714532, 73.794335, 73.794335)">
    <path style="fill:#1CD759;" d="M161.133,195.267c-17.92,0-34.987,3.413-51.2,9.387c-1.707,6.827-4.267,11.947-7.68,17.067 c-8.533,13.653,5.973,30.72,20.48,23.04c16.213-7.68,29.013-23.893,47.787-23.893c9.387,0,33.28-14.507,37.547-11.947 c18.773,11.947-4.267,55.467-18.773,40.96c-13.653-13.653-22.187,5.973-15.36,12.8c6.827,7.68,4.267,22.187-5.12,26.453 c-9.387,3.413-47.787-25.6-38.4-3.413c10.24,24.747-30.72,43.52,11.093,34.133c19.627-5.12,12.8,10.24,22.187,17.067 c11.093,8.533,11.947,7.68,30.72-0.853c21.333-10.24,13.653,5.12,20.48,15.36c11.947,18.773,42.667,36.693,58.88,11.947 c3.413-5.973,0-49.493,25.6-23.04h16.213C309.613,259.267,243.053,195.267,161.133,195.267"/>
    <path style="fill:#1CD759;" d="M186.733,408.6l-25.6-8.533h-25.6l-20.48-8.533L101.4,383l-34.133,8.533L50.2,400.067 l-17.067,17.067l-6.827,5.973c26.453,47.787,76.8,79.36,134.827,79.36c14.507,0,29.013-2.56,42.667-5.973v-19.627l17.067-17.067 l8.533-25.6h-42.667V408.6z"/>
  </g>
  <path d="M 188.929 438.92 C 124.907 438.92 73.08 387.093 73.08 323.071 C 73.08 259.049 124.907 207.222 188.929 207.222 C 252.951 207.222 304.778 259.049 304.778 323.071 C 304.778 387.093 252.951 438.92 188.929 438.92 Z M 188.929 219.416 C 131.614 219.416 85.274 265.756 85.274 323.071 C 85.274 380.386 131.614 426.725 188.929 426.725 C 246.244 426.725 292.584 380.386 292.584 323.071 C 292.584 265.756 246.244 219.416 188.929 219.416 Z"/>
  <path d="M 253.561 348.07 C 240.147 348.07 227.343 337.704 221.245 328.558 C 218.806 325.509 218.196 321.851 218.196 318.802 L 218.196 318.193 C 217.587 318.193 216.367 318.802 215.147 319.413 L 213.318 320.632 C 199.904 326.729 196.246 327.949 186.49 320.023 C 182.831 316.974 181.612 313.315 180.393 310.267 C 180.393 309.658 179.783 308.438 179.173 307.829 C 179.173 307.829 177.953 307.829 175.514 308.438 C 165.759 310.877 159.052 312.096 156.003 307.218 C 152.954 302.95 155.393 298.682 157.832 295.023 C 160.881 290.145 163.319 285.268 161.49 280.39 C 160.881 278.561 157.832 272.464 162.1 268.195 C 166.978 263.317 173.684 266.975 182.221 270.634 C 185.27 271.853 190.758 274.292 192.587 274.902 C 193.196 274.292 194.416 273.072 194.416 271.853 C 195.025 270.023 194.416 267.585 193.196 266.365 C 188.318 260.877 189.538 251.731 194.416 247.463 C 198.684 243.805 205.391 241.976 213.317 249.293 C 215.147 249.293 218.805 245.025 220.634 238.927 C 221.244 237.707 221.854 232.83 220.025 230.39 C 218.196 231 214.537 232.829 211.488 233.439 C 205.391 235.878 199.904 238.317 195.025 238.317 C 188.318 238.317 182.221 242.585 176.124 246.854 C 172.465 249.903 168.198 252.342 163.929 254.78 C 156.612 258.439 148.686 256.609 143.198 250.512 C 137.711 244.415 137.101 235.879 141.369 229.782 C 143.198 226.733 145.637 223.074 146.247 219.416 L 146.857 215.758 L 149.906 214.538 C 162.71 210.27 175.514 207.831 188.319 207.831 C 249.902 207.831 300.51 254.78 303.559 315.144 L 304.778 323.07 L 284.048 323.07 L 282.218 321.241 C 280.389 318.802 278.56 318.192 277.95 317.583 C 276.731 320.021 276.121 324.899 276.121 327.338 C 275.512 331.606 274.902 334.655 273.683 336.484 C 267.585 346.24 259.658 348.07 253.561 348.07 Z M 219.416 305.998 C 221.245 305.998 222.465 306.607 224.294 307.218 C 228.562 309.656 229.172 313.925 229.782 317.583 C 230.391 319.413 230.391 321.242 231.001 322.461 C 235.879 329.778 245.026 337.095 252.952 337.095 C 256.61 337.095 259.659 335.266 262.098 331.607 C 262.098 330.998 262.707 328.559 262.707 326.729 C 263.927 318.803 265.146 309.657 273.073 306.608 C 279.17 304.779 284.658 309.047 288.316 312.096 L 290.755 312.096 C 286.487 275.512 263.317 245.635 231.611 231.611 C 232.22 234.05 232.22 237.098 231.611 239.537 C 230.391 248.683 224.904 259.049 216.368 261.488 C 211.49 263.317 207.222 262.097 203.563 258.439 C 202.344 257.219 201.734 257.219 201.125 256.609 C 201.125 256.609 200.515 258.439 201.125 259.048 C 204.783 262.707 206.612 269.414 204.783 274.902 C 203.563 280.389 199.905 285.267 195.028 286.486 C 190.149 288.315 183.443 285.267 175.516 281.608 C 174.296 280.999 173.077 280.388 171.857 279.779 C 173.077 286.486 171.248 291.974 168.809 295.632 C 169.418 295.632 170.028 295.023 171.247 295.023 C 185.271 291.364 188.93 300.51 190.149 304.778 C 190.758 306.607 191.368 307.827 192.587 309.046 C 197.466 312.705 197.466 312.705 207.221 308.437 L 208.441 307.827 C 212.709 307.218 216.367 305.998 219.416 305.998 Z M 262.707 330.997 Z M 276.731 317.583 Z M 157.223 226.733 C 156.003 231.001 153.565 234.659 151.735 237.708 C 149.906 240.147 151.126 242.586 152.345 244.415 C 152.954 245.025 155.394 247.464 158.442 245.635 C 162.1 243.806 165.149 241.367 168.808 238.928 C 176.125 234.05 184.661 227.952 195.026 227.952 C 196.855 227.952 202.952 225.514 206.611 223.685 C 206.611 223.685 207.22 223.685 207.22 223.075 C 191.368 220.636 173.686 221.855 157.223 226.733 Z"/>
  <path d="M 188.929 438.92 C 146.857 438.92 107.835 415.75 87.103 378.557 C 85.884 376.118 86.494 373.069 88.323 371.24 L 93.201 366.972 L 104.786 355.387 C 105.395 354.778 106.005 354.778 106.615 354.167 L 118.81 348.07 C 119.419 348.07 119.419 347.46 120.03 347.46 L 144.419 341.363 C 146.248 340.754 147.468 341.363 149.297 341.972 L 158.443 347.46 L 171.857 352.948 L 188.929 352.948 C 189.539 352.948 190.149 352.948 190.758 353.557 L 209.05 359.654 C 211.489 360.264 213.318 362.703 213.318 365.142 L 213.318 377.337 L 237.708 377.337 C 239.537 377.337 241.366 378.557 242.586 379.776 C 243.806 381.605 243.806 383.434 243.196 385.263 L 237.098 403.555 C 237.098 404.165 236.489 405.384 235.879 405.994 L 225.513 416.969 L 225.513 428.554 C 225.513 430.992 223.684 433.432 221.245 434.651 C 210.27 437.091 199.904 438.92 188.929 438.92 Z M 100.518 377.337 C 119.419 407.824 152.955 426.725 188.929 426.725 C 196.855 426.725 205.392 425.506 213.318 423.676 L 213.318 414.53 C 213.318 412.701 213.928 411.481 215.147 410.262 L 226.123 399.287 L 229.171 390.141 L 207.221 390.141 C 203.563 390.141 201.124 387.703 201.124 384.044 L 201.124 370.02 L 187.71 365.752 L 170.638 365.752 C 170.028 365.752 168.809 365.752 168.199 365.143 L 153.565 359.046 C 152.956 359.046 152.956 359.046 152.956 358.436 L 145.639 353.558 L 124.298 359.046 L 113.323 364.533 L 100.518 377.337 Z"/>
  <path d="M 286.487 207.221 C 249.293 207.221 219.416 177.344 219.416 140.15 C 219.416 102.956 249.293 73.08 286.487 73.08 C 323.681 73.08 353.558 102.957 353.558 140.151 C 353.558 177.345 323.68 207.221 286.487 207.221 Z M 286.487 85.275 C 256 85.275 231.611 109.664 231.611 140.151 C 231.611 170.638 256 195.027 286.487 195.027 C 316.974 195.027 341.363 170.638 341.363 140.151 C 341.363 109.664 316.973 85.275 286.487 85.275 Z"/>
  <path d="M 396.239 335.265 C 372.459 335.265 353.558 316.364 353.558 292.584 C 353.558 268.804 372.459 249.903 396.239 249.903 C 420.019 249.903 438.92 268.804 438.92 292.584 C 438.92 316.364 420.019 335.265 396.239 335.265 Z M 396.239 262.097 C 379.167 262.097 365.752 275.511 365.752 292.584 C 365.752 309.656 379.166 323.071 396.239 323.071 C 413.311 323.071 426.726 309.657 426.726 292.584 C 426.725 275.512 413.311 262.097 396.239 262.097 Z"/>
  <path d="M 298.681 115.761 L 237.708 115.761 C 234.05 115.761 231.611 113.322 231.611 109.664 C 231.611 106.005 234.05 103.567 237.708 103.567 L 298.681 103.567 C 302.34 103.567 304.778 106.005 304.778 109.664 C 304.778 113.322 302.34 115.761 298.681 115.761 Z"/>
  <path d="M 286.487 182.832 L 237.708 182.832 C 234.05 182.832 231.611 180.393 231.611 176.735 C 231.611 173.076 234.05 170.638 237.708 170.638 L 286.487 170.638 C 290.145 170.638 292.584 173.076 292.584 176.735 C 292.584 180.393 290.145 182.832 286.487 182.832 Z"/>
  <path d="M 341.363 164.54 L 304.779 164.54 C 301.121 164.54 298.682 162.101 298.682 158.443 C 298.682 154.784 301.121 152.346 304.779 152.346 L 341.363 152.346 C 345.021 152.346 347.46 154.784 347.46 158.443 C 347.46 162.101 345.021 164.54 341.363 164.54 Z"/>
  <path d="M 341.363 134.053 L 323.071 134.053 C 319.413 134.053 316.974 131.614 316.974 127.956 C 316.974 124.297 319.413 121.859 323.071 121.859 L 341.363 121.859 C 345.021 121.859 347.46 124.297 347.46 127.956 C 347.46 131.614 345.021 134.053 341.363 134.053 Z"/>
  <path d="M 262.097 146.248 L 225.513 146.248 C 221.855 146.248 219.416 143.809 219.416 140.151 C 219.416 136.492 221.855 134.054 225.513 134.054 L 262.097 134.054 C 265.756 134.054 268.194 136.492 268.194 140.151 C 268.194 143.809 265.756 146.248 262.097 146.248 Z"/>
  <path d="M 384.044 286.487 L 365.752 286.487 C 362.094 286.487 359.655 284.048 359.655 280.39 C 359.655 276.731 362.094 274.293 365.752 274.293 L 384.044 274.293 C 387.703 274.293 390.141 276.731 390.141 280.39 C 390.141 284.048 387.703 286.487 384.044 286.487 Z"/>
  <path d="M 426.725 310.876 L 408.433 310.876 C 404.775 310.876 402.336 308.437 402.336 304.779 C 402.336 301.121 404.775 298.682 408.433 298.682 L 426.725 298.682 C 430.384 298.682 432.822 301.121 432.822 304.779 C 432.823 308.437 430.384 310.876 426.725 310.876 Z"/>
  <path d="M 109.664 136.492 L 82.835 109.664 L 109.664 82.835 L 136.492 109.664 L 109.664 136.492 Z M 99.908 109.664 L 109.664 119.419 L 119.419 109.664 L 109.664 99.908 L 99.908 109.664 Z"/>
  <path d="M 109.664 97.469 C 106.005 97.469 103.567 95.03 103.567 91.372 L 103.567 79.177 C 103.567 75.519 106.005 73.08 109.664 73.08 C 113.322 73.08 115.761 75.519 115.761 79.177 L 115.761 91.372 C 115.761 95.03 113.322 97.469 109.664 97.469 Z"/>
  <path d="M 140.151 115.761 L 127.956 115.761 C 124.297 115.761 121.859 113.322 121.859 109.664 C 121.859 106.005 124.297 103.567 127.956 103.567 L 140.151 103.567 C 143.809 103.567 146.248 106.005 146.248 109.664 C 146.248 113.322 143.809 115.761 140.151 115.761 Z"/>
  <path d="M 109.664 146.248 C 106.005 146.248 103.567 143.809 103.567 140.151 L 103.567 127.956 C 103.567 124.297 106.005 121.859 109.664 121.859 C 113.322 121.859 115.761 124.297 115.761 127.956 L 115.761 140.151 C 115.761 143.809 113.322 146.248 109.664 146.248 Z"/>
  <path d="M 91.372 115.761 L 79.177 115.761 C 75.519 115.761 73.08 113.322 73.08 109.664 C 73.08 106.005 75.519 103.567 79.177 103.567 L 91.372 103.567 C 95.03 103.567 97.469 106.005 97.469 109.664 C 97.469 113.322 95.03 115.761 91.372 115.761 Z"/>
  <ellipse style="stroke: rgb(0, 0, 0); paint-order: stroke; fill: rgb(255, 255, 255);" cx="412.936" cy="81.581" rx="6.002" ry="6.002"/>
  <ellipse style="stroke: rgb(0, 0, 0); paint-order: stroke; fill: rgb(255, 255, 255);" cx="372.286" cy="208.56" rx="6.002" ry="6.002"/>
  <ellipse style="stroke: rgb(0, 0, 0); paint-order: stroke; fill: rgb(255, 255, 255);" cx="425.063" cy="378.02" rx="6.002" ry="6.002"/>
  <ellipse style="stroke: rgb(0, 0, 0); paint-order: stroke; fill: rgb(255, 255, 255);" cx="305.029" cy="428.152" rx="6.002" ry="6.002"/>
  <ellipse style="stroke: rgb(0, 0, 0); paint-order: stroke; fill: rgb(255, 255, 255);" cx="163.106" cy="173.256" rx="6.002" ry="6.002"/>
</svg>