<?xml version="1.0" encoding="utf-8"?>
<svg width="128px" height="128px" viewBox="0 0 128 128" xmlns="http://www.w3.org/2000/svg" aria-hidden="true" role="img" class="iconify iconify--noto" preserveAspectRatio="xMidYMid meet">
  <g transform="matrix(1, 0, 0, 1, 7.167104, 0)">
    <g>
      <path d="M 104.739 79.098 L 111.539 79.056 L 111.673 64.318 L 115.972 64.385 C 115.972 64.385 115.838 80.152 115.838 81.239 C 115.838 82.335 115.153 83.422 114.199 83.556 C 113.246 83.69 105.735 83.69 105.735 83.69 L 104.739 79.098 Z" fill="#9a9a9a"/>
      <path d="M 107.683 59.634 C 107.583 62.946 109.565 66.175 114.007 66.133 C 118.448 66.091 119.987 63.407 120.079 60.103 C 120.163 57.125 118.281 53.436 113.798 53.562 C 109.741 53.679 107.767 56.874 107.683 59.634 Z" fill="#db0d2b"/>
    </g>
    <path d="M 109.858 60.521 C 111.405 61.19 111.472 59.408 112.317 58.229 C 113.17 57.041 114.592 56.581 113.798 55.619 C 113.304 55.026 111.681 54.465 110.092 56.523 C 109.005 57.92 108.553 59.952 109.858 60.521 L 109.858 60.521 Z" fill="#ffffff"/>
  </g>
  <path d="M 14.974 96.266 C 14.974 96.266 14.974 55.976 15.371 49.108 C 15.767 42.238 21.842 23.609 44.695 16.082 C 67.548 8.555 89.036 16.945 97.522 24.278 C 113.109 37.754 112.848 50.299 112.848 50.299 L 112.983 95.211 C 112.983 95.211 116.035 99.154 116.035 100.21 C 116.035 101.265 116.015 103.658 116.015 103.658 L 11.795 103.929 C 11.795 103.929 11.698 101.121 12.222 99.929 C 12.745 98.737 14.974 96.266 14.974 96.266 Z" fill="#cacaca"/>
  <path d="M 62.927 3.614 C 58.209 3.614 55.197 6.743 54.256 9.098 C 53.443 11.151 53.375 13.873 53.375 13.873 C 53.375 13.873 55.865 14.397 63.102 14.397 C 70.338 14.397 72.247 13.709 72.247 13.709 C 72.247 13.709 72.585 10.783 71.481 8.768 C 70.222 6.462 67.868 3.614 62.927 3.614 Z" fill="#db0a27"/>
  <path d="M 55.148 11.5 C 56.387 12.992 58.955 12.149 61.261 10.308 C 63.169 8.777 65.301 5.891 64.176 4.923 C 62.558 3.536 59.798 4.466 57.366 6.355 C 55.855 7.538 54.043 10.182 55.148 11.5 Z" fill="#ff4e23"/>
  <path d="M 56.446 10.347 C 57.211 10.957 58.276 9.853 59.721 8.642 C 60.942 7.625 62.762 6.568 62.056 5.707 C 61.339 4.834 59.43 5.629 58.054 6.734 C 56.833 7.693 55.255 9.398 56.446 10.347 Z" fill="#fffdfd"/>
  <path d="M 12.038 100.821 C 11.563 101.653 11.321 115.449 12.464 116.311 C 13.607 117.172 35.414 116.456 64.234 116.456 C 93.056 116.456 114.136 116.311 115.143 115.022 C 116.586 113.163 116.519 100.723 116.084 100.006 C 115.25 98.612 89.18 99.822 64.09 99.968 C 38.271 100.104 12.783 99.502 12.038 100.821 Z" fill="#9a9a9a"/>
  <path d="M 17.482 103.978 C 16.475 104.404 16.339 112.3 17.482 112.581 C 18.877 112.93 50.343 112.668 63.537 112.668 C 76.732 112.668 109.409 113.152 110.697 112.009 C 111.986 110.866 111.869 104.617 111.007 103.61 C 110.144 102.603 76.422 103.407 63.799 103.407 C 51.177 103.407 19.545 103.087 17.482 103.978 Z" fill="#858585"/>
  <path d="M 20.069 48.904 C 19.778 49.912 19.643 93.07 20.069 93.36 C 20.495 93.651 107.258 93.933 108.12 93.07 C 108.983 92.208 108.41 49.621 108.266 48.758 C 108.12 47.896 63.663 46.899 63.663 46.899 L 20.069 48.904 Z" fill="#6f7178"/>
  <path d="M 23.063 52.12 C 22.897 52.566 23.15 90.368 23.556 90.783 C 23.973 91.2 104.952 90.619 105.369 90.29 C 105.785 89.96 105.698 52.169 105.369 51.878 C 105.039 51.577 23.227 51.655 23.063 52.12 Z" fill="#3a3839"/>
  <path d="M 64.341 16.935 C 44.908 16.761 33.021 25.644 27.605 32.832 C 22.191 40.02 19.226 46.656 20.059 48.904 C 20.282 49.514 34.32 48.962 62.695 49.078 C 91.069 49.195 107.791 49.621 108.255 48.758 C 108.73 47.896 106.792 38.141 96.243 29.064 C 87.775 21.759 77.768 17.052 64.341 16.935 Z" fill="#ffdb8b"/>
  <path d="M 23.208 46.114 C 23.208 46.114 32.828 19.124 63.441 19.385 C 96.969 19.676 103.771 45.92 103.771 45.92 L 23.208 46.114 Z" fill="#ffaf29"/>
  <path d="M 37.749 32.822 C 31.965 38.073 29.437 43.499 29.437 43.499 C 29.437 43.499 51.002 43.943 51.06 43.614 C 51.128 43.197 37.749 32.822 37.749 32.822 Z" fill="#ffd61c"/>
  <path d="M 51.117 24.868 C 47.223 26.129 43.9 27.92 41.121 29.907 C 44.782 33.239 54.906 40.97 56.281 41.948 C 57.919 43.111 58.461 43.741 58.829 43.517 C 59.13 43.343 58.316 41.812 58.054 41.183 C 57.599 40.069 52.562 28.841 51.117 24.868 Z" fill="#ffd61c"/>
  <path d="M 69.321 23.542 C 67.326 23.232 64.836 22.941 62.627 22.961 C 59.934 22.979 58.103 23.252 55.778 23.716 C 55.778 23.716 63.411 42.597 63.577 43.053 C 63.75 43.508 64.138 43.973 64.351 43.053 C 64.554 42.142 69.321 23.542 69.321 23.542 Z" fill="#ffd61c"/>
  <g fill="#ffd61c" transform="matrix(0.968766, 0, 0, 0.968766, 8.792105, -0.910319)">
    <path d="M70.67 46.13c.14.31 21.56.13 21.56.13s-3.06-5.83-9.48-11.41c0-.01-12.34 10.69-12.08 11.28z"/>
    <path d="M78.96 31.72c-3.26-2.28-7.13-4.32-11.67-5.64c-1.27 4.8-4.05 16.43-4.33 17.9c-.11.55-.5 1.72-.23 1.94c.28.23 1.29-.42 2.16-1.26c.99-.96 14.07-12.94 14.07-12.94z"/>
  </g>
  <path d="M 49.064 71.282 C 48.89 62.147 51.234 56.867 52.435 54.784 L 31.472 54.813 C 31.472 54.813 26.298 61.255 26.211 70.605 C 26.124 79.953 31.112 88.033 31.112 88.033 L 52.338 87.946 C 51.321 85.813 49.239 80.35 49.064 71.282 Z" fill="#ffffff"/>
  <g fill="#ffffff" transform="matrix(0.968766, 0, 0, 0.968766, 8.792105, -0.910319)">
    <path d="M70.17 74.52c.3-8.71-1.83-14.6-2.95-17.06l-19.89.03c-1.22 2.91-3.4 9.21-3.22 16.87c.19 8.35 2.38 14.95 3.29 17.36l20.51-.08c.69-2.68 1.96-8.65 2.26-17.12z"/>
    <path d="M91.71 57.43l-21.75.03c1.29 3.21 3.4 9.78 3 17.64c-.41 7.91-1.83 14.01-2.51 16.52l20.61-.09s5.25-6.37 5.72-16.3c.46-9.93-5.07-17.8-5.07-17.8z"/>
  </g>
  <path d="M 35.579 88.033 L 45.159 87.984 C 45.159 87.984 44.424 85.291 40.781 85.387 C 37.061 85.504 35.579 88.033 35.579 88.033 Z" fill="#fab037"/>
  <path d="M 61.184 87.926 L 68.527 87.887 C 68.527 87.887 68.458 85.669 64.864 85.717 C 61.765 85.755 61.309 87.673 61.184 87.926 Z" fill="#ffd429"/>
  <path d="M 84.869 87.829 L 93.366 87.78 C 93.366 87.78 93.802 85.358 91.613 85.165 C 89.753 85 89.297 86.734 89.297 86.734 C 89.297 86.734 88.89 85.484 87.272 85.455 C 85.325 85.417 84.783 87.538 84.869 87.829 Z" fill="#a75fb7"/>
  <path d="M 83.126 54.746 L 94.277 54.726 C 94.277 54.726 94.344 58.194 89.995 58.281 C 83.795 58.407 83.126 54.746 83.126 54.746 Z" fill="#febf21"/>
  <path d="M 60.438 54.765 C 60.438 54.765 59.73 57.158 60.225 57.623 C 60.806 58.156 68.614 58.263 69.156 57.603 C 69.699 56.935 69.02 54.755 69.02 54.755 L 60.438 54.765 Z" fill="#5b6467"/>
  <path d="M 35.23 54.794 L 46.371 54.775 C 46.371 54.775 46.478 57.613 41.469 57.672 C 35.792 57.748 35.23 54.794 35.23 54.794 Z" fill="#4e9226"/>
  <path d="M 58.82 63.619 C 58.403 63.648 57.783 61.885 57.037 62.05 C 56.291 62.214 55.255 62.418 55.468 67.224 C 55.681 72.028 56.049 72.436 56.998 72.396 C 57.948 72.358 59.401 69.587 59.401 69.587 C 59.401 69.587 60.418 69.151 61.126 69.102 C 61.832 69.064 62.336 69.704 63.208 69.994 C 64.08 70.285 65.32 70.323 65.32 70.323 C 65.32 70.323 62.385 72.803 61.386 75.99 C 60.389 79.178 60.35 82.317 60.602 82.521 C 60.854 82.723 68.42 82.811 68.711 82.607 C 69.002 82.404 68.585 73.84 70.116 71.156 C 71.646 68.473 73.71 65.247 73.71 65.247 C 73.71 65.247 72.925 63.135 72.266 62.893 C 71.608 62.641 70.203 63.677 68.458 63.6 C 66.725 63.513 64.691 61.788 63.663 61.488 C 61.919 60.975 60.059 63.532 58.82 63.619 Z" fill="#ff2b26"/>
  <path d="M 32.682 63.415 C 32.266 63.446 31.685 62.041 30.919 61.992 C 30.038 61.934 29.388 62.07 29.33 66.865 C 29.281 71.573 29.931 72.542 30.881 72.503 C 31.829 72.465 33.274 69.519 33.274 69.519 C 33.274 69.519 34.049 69.035 34.775 69.277 C 35.443 69.5 35.967 69.936 36.984 70.081 C 37.894 70.207 38.921 70.363 38.921 70.363 C 38.921 70.363 36.257 72.755 35.259 75.932 C 34.271 79.12 34.222 82.259 34.475 82.461 C 34.726 82.665 42.293 82.752 42.584 82.549 C 42.873 82.346 42.641 74.072 44.172 71.379 C 45.703 68.687 47.592 65.179 47.592 65.179 C 47.592 65.179 46.806 63.067 46.149 62.825 C 45.49 62.573 43.765 63.397 42.031 63.309 C 40.297 63.222 38.408 61.633 37.341 61.479 C 35.365 61.188 33.922 63.339 32.682 63.415 Z" fill="#ff2b26"/>
  <path d="M 85.189 62.931 C 84.773 62.96 84.037 61.479 83.3 61.643 C 82.554 61.808 81.741 62.012 81.731 66.816 C 81.721 70.836 82.312 71.941 83.262 71.99 C 84.773 72.057 85.577 69.393 85.577 69.393 C 85.577 69.393 86.632 69.016 87.331 68.977 C 88.037 68.938 88.59 69.306 89.462 69.597 C 90.334 69.888 91.409 70.004 91.409 70.004 C 91.409 70.004 88.628 72.406 87.64 75.593 C 86.652 78.781 86.603 81.919 86.856 82.123 C 87.107 82.326 94.674 82.414 94.965 82.21 C 95.255 82.006 94.887 73.85 96.417 71.166 C 97.948 68.483 100.002 65.848 100.002 65.266 C 100.002 64.685 99.033 62.516 98.364 62.263 C 97.706 62.012 96.466 63.029 94.732 62.951 C 92.998 62.864 90.914 61.246 89.888 60.946 C 88.144 60.432 86.439 62.844 85.189 62.931 Z" fill="#ff2b26"/>
  <g style="" transform="matrix(1.280135, 0, 0, 1.280135, -17.672531, 58.682026)">
    <g transform="matrix(1.834373, 0, 0, 1.834373, 38.509434, 20.934399)" style="">
      <rect fill="#919191" x="10.795" y="6.355" width="2.992" height="2.992" style=""/>
      <rect fill="#00cf85" x="13.787" y="6.355" width="2.992" height="2.992" style=""/>
      <rect fill="#00cf85" x="10.795" y="9.347" width="2.992" height="2.992" style=""/>
      <rect fill="#fdcc04" x="13.787" y="9.347" width="2.992" height="2.992" style=""/>
    </g>
    <g transform="matrix(0.272869, 0, 0, 0.272869, 22.352983, 29.721487)">
      <rect fill="#919191" x="46.412" y="10.633" width="20" height="20"/>
      <rect fill="#00cf85" x="66.412" y="10.633" width="20" height="20"/>
      <rect fill="#00cf85" x="46.412" y="30.633" width="20" height="20"/>
      <rect fill="#fdcc04" x="66.412" y="30.633" width="20" height="20"/>
      <path d="M 56.412 20.633 L 76.412 40.633" stroke-width="3" stroke="#f00"/>
      <path d="M 76.412 20.633 L 56.412 40.633" stroke-width="3" stroke="#f00"/>
    </g>
    <g transform="matrix(0.272869, 0, 0, 0.272869, 81.667725, 32.622906)">
      <g>
        <rect x="0" y="0" width="20" height="20" fill="#919191"/>
        <rect x="20" y="0" width="20" height="20" fill="#00cf85"/>
        <rect x="0" y="20" width="20" height="20" fill="#00cf85"/>
        <rect x="20" y="20" width="20" height="20" fill="#fdcc04"/>
        <circle cx="10" cy="10" r="4" fill="#fff"/>
        <circle cx="30" cy="10" r="4" fill="#fff"/>
        <circle cx="10" cy="30" r="4" fill="#fff"/>
        <circle cx="30" cy="30" r="4" fill="#fff"/>
        <path d="M 10 10 l 20 0 l -20 20 l 20 0" stroke-width="3" stroke="#fff" style="fill: none;"/>
      </g>
    </g>
  </g>
</svg>