<?xml version="1.0" encoding="utf-8"?>
<svg width="100" height="100" viewBox="-50 -50 100 100" fill="none" xmlns="http://www.w3.org/2000/svg">
  <g style="" transform="matrix(1.679195, 0, 0, 1.679195, 0, 4.270403)">
    <g style="" transform="matrix(1.536251, 0, 0, 1.536251, 6.799448, -19.991863)">
      <circle rx="15" ry="15" cx="-4.426" cy="11.358" style="stroke: rgb(0, 0, 0);" r="15"/>
      <g stroke-linecap="round" transform="matrix(1, 0, 0, 1, -4.426001, 11.358)">
        <line x1="0.000" y1="15.000" x2="-8.817" y2="-12.135" style="stroke: rgb(0, 0, 0);"/>
        <line x1="-8.817" y1="-12.135" x2="14.266" y2="4.635" style="stroke: rgb(0, 0, 0);"/>
        <line x1="14.266" y1="4.635" x2="-14.266" y2="4.635" style="stroke: rgb(0, 0, 0);"/>
        <line x1="-14.266" y1="4.635" x2="8.817" y2="-12.135" style="stroke: rgb(0, 0, 0);"/>
        <line x1="8.817" y1="-12.135" x2="0.000" y2="15.000" style="stroke: rgb(0, 0, 0);"/>
      </g>
    </g>
    <g transform="matrix(1.092412, 0, 0, 1.092412, -15.061084, -30.417143)" style="">
      <rect fill="#919191" x="10.795" y="6.355" width="2.992" height="2.992" style=""/>
      <rect fill="#00cf85" x="13.787" y="6.355" width="2.992" height="2.992" style=""/>
      <rect fill="#00cf85" x="10.795" y="9.347" width="2.992" height="2.992" style=""/>
      <rect fill="#fdcc04" x="13.787" y="9.347" width="2.992" height="2.992" style=""/>
    </g>
    <g transform="matrix(1, 0, 0, 1, -0.258018, 0)">
      <g transform="matrix(0.1625, 0, 0, 0.1625, -26.711187, -12.602974)">
        <rect fill="#919191" x="46.412" y="10.633" width="20" height="20"/>
        <rect fill="#00cf85" x="66.412" y="10.633" width="20" height="20"/>
        <rect fill="#00cf85" x="46.412" y="30.633" width="20" height="20"/>
        <rect fill="#fdcc04" x="66.412" y="30.633" width="20" height="20"/>
        <path d="M 56.412 20.633 L 76.412 40.633" stroke-width="3" stroke="#f00"/>
        <path d="M 76.412 20.633 L 56.412 40.633" stroke-width="3" stroke="#f00"/>
      </g>
      <g transform="matrix(0.1625, 0, 0, 0.1625, 13.185274, -10.875113)">
        <rect fill="#919191" x="0" y="0" width="20" height="20"/>
        <rect fill="#00cf85" x="20" y="0" width="20" height="20"/>
        <rect fill="#00cf85" x="0" y="20" width="20" height="20"/>
        <rect fill="#fdcc04" x="20" y="20" width="20" height="20"/>
        <circle fill="#fff" cx="10" cy="10" r="4"/>
        <circle fill="#fff" cx="30" cy="10" r="4"/>
        <circle fill="#fff" cx="10" cy="30" r="4"/>
        <circle fill="#fff" cx="30" cy="30" r="4"/>
        <path d="M 10 10 l 20 0 l -20 20 l 20 0" stroke-width="3" stroke="#fff"/>
      </g>
    </g>
  </g>
  <path style="fill: rgb(255, 88, 24); fill-opacity: 0.9;" d="M -52.34 33.446 C -49.1 30.996 -45.582 26.727 -45.819 19.692 C -45.819 19.692 -46.57 26.173 -41.432 29.77 C -39.644 31.022 -38.498 29.164 -37.993 24.198 C -37.682 21.139 -41.99 21.889 -37.044 13.052 C -35.84 10.9 -36.828 10.94 -34.318 19.929 C -33.733 22.025 -32.665 20.128 -31.116 14.238 C -30.566 12.145 -30.921 10.011 -32.183 7.835 C -34.075 4.573 -29.134 9.671 -25.899 18.981 C -24.757 22.267 -24.678 25.745 -25.662 29.415 C -25.976 30.586 -25.581 31.732 -24.476 32.853 C -23.81 33.529 -22.861 33.49 -21.631 32.735 C -21.01 32.354 -20.852 31.642 -21.156 30.6 C -22.388 26.378 -22.072 21.991 -20.208 17.439 C -20.046 17.043 -19.809 17.399 -19.496 18.506 C -18.818 20.902 -18.849 25.86 -17.48 28.11 C -15.69 31.052 -18.276 30.385 -15.109 23.605 C -13.984 21.196 -14.814 14.398 -16.414 11.511 C -17.648 9.285 -16.146 11.34 -11.908 17.676 C -9.653 21.047 -8.941 25.79 -13.33 30.245 C -14.323 31.253 -14.679 33.11 -12.026 34.394 C -10.989 34.896 -9.487 33.711 -8.232 33.446 C -7.069 33.2 -7.583 31.857 -7.876 29.889 C -8.138 28.128 -8.217 26.35 -8.114 24.553 C -7.862 20.149 -5.253 16.592 -0.288 13.882 C -0.288 13.882 -1.37 19.21 -2.066 19.929 C -5.92 23.912 -2.996 32.805 3.863 22.182 C 4.435 21.296 4.198 20.268 3.15 19.099 C 1.646 17.422 1.646 15.169 3.15 12.341 C 3.893 10.943 3.814 9.362 2.913 7.598 C 2.028 5.865 2.976 7.564 5.759 12.696 C 6.269 13.637 6.19 14.704 5.522 15.898 C 4.65 17.457 5.401 19.077 7.775 20.759 C 9.855 22.233 9.539 24.762 6.826 28.348 C 5.723 29.806 5.92 31.624 7.419 33.802 C 8.174 34.9 9.439 34.979 11.213 34.039 C 12.495 33.36 13.207 32.095 13.347 30.245 C 13.44 29.021 13.519 27.795 13.585 26.569 C 13.766 23.211 12.619 20.049 10.146 17.084 C 9.364 16.147 10.431 16.739 13.347 18.862 C 16.339 21.04 17.604 24.518 17.142 29.296 C 17.051 30.242 17.327 31.151 17.972 32.023 C 18.47 32.696 19.26 32.973 20.343 32.853 C 21.289 32.748 21.921 32.037 22.24 30.719 C 22.529 29.526 22.608 28.3 22.477 27.043 C 21.944 21.931 23.051 16.911 25.797 11.985 C 25.993 11.633 26.072 12.028 26.034 13.171 C 25.967 15.186 26.007 17.201 26.153 19.218 C 26.247 20.518 25.931 21.783 25.204 23.012 C 24.814 23.671 24.893 24.501 25.442 25.502 C 25.872 26.286 26.504 26.918 27.339 27.399 C 28 27.78 28.712 27.503 29.473 26.569 C 29.932 26.006 30.209 25.334 30.303 24.553 C 30.416 23.611 30.377 22.662 30.184 21.708 C 29.794 19.778 29.438 17.841 29.117 15.898 C 28.943 14.842 28.864 13.775 28.88 12.696 C 28.897 11.544 28.304 10.556 27.102 9.732 C 26.162 9.087 25.213 8.455 24.256 7.835 C 22.853 6.926 24.513 7.124 29.236 8.428 C 31.255 8.985 32.362 10.764 32.556 13.764 C 32.712 16.184 33.503 18.476 34.927 20.641 C 36.278 22.695 36.08 25.145 34.334 27.992 C 32.893 30.341 32.498 33.068 33.149 36.173 C 33.497 37.834 34.999 38.625 37.654 38.545 C 39.166 38.499 39.996 37.235 40.144 34.75 C 40.236 33.2 39.841 31.698 38.959 30.245 C 38.436 29.384 38.001 28.474 37.654 27.518 C 36.896 25.429 37.094 23.216 38.247 20.878 C 39.256 18.832 38.9 16.58 37.18 14.119 C 36.111 12.59 37.613 13.697 41.686 17.439 C 43.201 18.831 43.121 20.886 41.449 23.605 C 40.339 25.409 40.853 27.465 42.99 29.77 C 43.707 30.543 44.735 30.306 46.073 29.059 C 47.083 28.118 47.636 26.853 47.733 25.265 C 47.895 22.611 47.658 19.963 47.021 17.321 C 46.576 15.476 46.537 13.579 46.903 11.629 C 46.985 11.195 47.182 11.59 47.496 12.815 C 47.948 14.576 49.173 15.92 51.171 16.846 C 52.407 17.419 52.803 16.115 52.357 12.934 C 52.147 11.435 51.001 10.447 48.918 9.969 C 47.523 9.649 48.946 9.491 53.187 9.495 C 55.567 9.497 56.831 11.513 56.981 15.542 C 57.084 18.31 56.412 20.998 54.965 23.605 C 53.789 25.723 53.75 27.383 52.238 29.296 C 50.235 31.831 49.643 35.546 51.172 39.73 C 52.23 42.625 53.297 44.957 56.27 46.726 C 57.391 47.393 58.142 48.46 58.523 49.927 L -53.763 50.402 L -51.154 44.117 C -49.771 43.999 -51.905 41.627 -51.628 38.189 C -51.487 36.445 -51.093 34.943 -52.34 33.446 Z"/>
  <path style="fill: rgb(255, 251, 0); fill-opacity: 0.82;" d="M -49.85 37.477 L -47.834 31.193 C -47.834 33.92 -46.886 35.383 -44.989 35.58 C -44.238 35.658 -43.487 35.579 -42.736 35.343 C -41.908 35.083 -41.473 34.332 -41.432 33.09 C -41.386 31.686 -41.623 30.817 -42.143 30.482 C -43.041 29.904 -42.211 30.576 -39.653 32.497 C -38.888 33.071 -38.77 34.02 -39.297 35.343 C -39.575 36.042 -39.536 36.793 -39.179 37.596 C -38.883 38.262 -38.171 38.42 -37.045 38.07 C -36.29 37.835 -35.816 37.203 -35.622 36.173 C -35.439 35.199 -35.359 34.211 -35.385 33.209 C -35.417 31.982 -35.733 30.797 -36.333 29.652 C -36.88 28.608 -36.129 29.517 -34.08 32.379 C -33.518 33.163 -32.965 33.954 -32.42 34.75 C -31.495 36.101 -29.875 36.338 -27.559 35.462 C -26.252 34.968 -25.66 33.703 -25.78 31.667 C -25.854 30.419 -25.458 31.605 -24.595 35.225 C -24.325 36.356 -24.997 37.304 -26.61 38.07 C -27.284 38.39 -27.916 38.785 -28.508 39.256 C -29.127 39.749 -29.088 40.539 -28.389 41.627 C -27.825 42.505 -26.876 42.94 -25.543 42.932 C -24.617 42.926 -23.906 42.333 -23.409 41.153 C -23.089 40.392 -22.852 39.602 -22.698 38.782 C -22.566 38.078 -22.487 37.367 -22.461 36.647 C -22.432 35.847 -21.997 35.175 -21.156 34.632 C -20.352 34.113 -19.759 33.362 -19.378 32.379 C -18.821 30.941 -18.86 29.4 -19.496 27.755 C -20.105 26.18 -19.512 27.761 -17.718 32.497 C -17.239 33.76 -17.714 35.025 -19.141 36.292 C -20.134 37.174 -19.621 38.399 -17.599 39.967 C -16.328 40.953 -14.905 40.202 -13.331 37.715 C -12.716 36.744 -12.637 35.598 -13.094 34.276 C -13.446 33.256 -13.604 32.189 -13.568 31.075 C -13.53 29.896 -13.253 28.75 -12.738 27.636 C -12.393 26.889 -11.721 26.415 -10.722 26.213 C -10.44 26.156 -10.519 26.433 -10.959 27.043 C -12.29 28.888 -11.974 31.141 -10.011 33.802 C -9.203 34.897 -9.124 36.32 -9.774 38.07 C -10.249 39.348 -9.577 40.533 -7.758 41.627 C -6.941 42.118 -6.032 42.039 -5.031 41.39 C -4.076 40.771 -3.681 39.704 -3.845 38.189 C -4.011 36.652 -4.13 35.11 -4.201 33.565 C -4.278 31.889 -3.843 30.268 -2.897 28.703 C -2.289 27.697 -1.498 26.828 -0.525 26.095 C 0.788 25.106 1.065 23.485 0.305 21.233 C -0.092 20.058 0.541 21.125 2.202 24.435 C 2.897 25.82 2.383 27.283 0.661 28.822 C 0.173 29.258 0.054 30.009 0.305 31.075 C 0.514 31.961 1.264 32.474 2.558 32.616 C 3.384 32.707 4.135 32.351 4.811 31.549 C 5.838 30.331 6.035 28.75 5.403 26.806 C 4.988 25.53 4.672 24.226 4.455 22.893 C 4.293 21.896 4.806 21.027 5.996 20.285 C 6.546 19.942 7.06 19.547 7.538 19.099 C 8.122 18.552 8.873 18.275 9.79 18.269 C 10.494 18.264 9.94 18.699 8.13 19.573 C 5.561 20.813 5.759 23.659 8.723 28.11 C 9.433 29.176 9.63 30.44 9.316 31.905 C 8.983 33.46 8.271 34.883 7.182 36.173 C 6.261 37.264 6.064 38.686 6.589 40.442 C 6.954 41.661 8.1 42.215 10.028 42.102 C 11.494 42.016 12.838 41.423 14.059 40.323 C 15.303 39.202 15.857 37.621 15.719 35.58 C 15.643 34.458 15.446 33.352 15.126 32.26 C 14.634 30.581 13.883 29 12.873 27.518 C 12.156 26.466 13.184 27.217 15.956 29.77 C 17.218 30.933 18.048 32.435 18.446 34.276 C 18.827 36.04 19.578 37.7 20.699 39.256 C 21.646 40.571 23.227 40.215 25.442 38.189 C 26.164 37.529 26.401 36.58 26.153 35.343 C 25.943 34.297 25.943 33.23 26.153 32.142 C 26.425 30.735 25.832 29.431 24.375 28.229 C 23.313 27.353 22.443 26.286 21.766 25.028 C 21.252 24.072 20.659 23.163 19.987 22.3 C 19.005 21.039 19.242 19.458 20.699 17.558 C 21.063 17.083 20.984 17.676 20.462 19.336 C 19.786 21.485 21.565 22.869 25.797 23.486 C 27.045 23.668 27.717 24.735 27.813 26.688 C 27.908 28.623 28.303 30.52 28.999 32.379 C 29.702 34.255 30.452 36.113 31.252 37.952 C 31.586 38.719 31.309 39.628 30.422 40.679 C 29.433 41.85 30.224 43.234 32.793 44.829 C 33.483 45.257 34.273 44.981 35.164 43.999 C 35.795 43.303 36.033 42.394 35.876 41.272 C 35.667 39.78 35.549 38.278 35.52 36.766 C 35.493 35.341 35.018 33.997 34.097 32.735 C 33.536 31.966 33.615 31.017 34.334 29.889 C 35.088 28.707 35.997 27.64 37.061 26.688 C 37.648 26.163 37.411 26.914 36.35 28.94 C 35.468 30.624 36.14 32.403 38.366 34.276 C 39.938 35.598 40.333 37.614 39.551 40.323 C 39.223 41.461 39.578 42.568 40.619 43.643 C 41.584 44.639 42.73 43.968 44.057 41.627 C 44.879 40.176 44.721 38.517 43.583 36.647 C 42.954 35.614 42.203 34.665 41.33 33.802 C 40.599 33.08 40.204 32.131 40.144 30.956 C 40.095 30 40.846 30.593 42.397 32.735 C 43.476 34.224 45.096 35.094 47.258 35.343 C 48.728 35.512 49.004 36.975 48.088 39.73 C 47.803 40.586 48.594 41.021 50.46 41.034 C 52.725 41.05 54.267 42.71 55.084 46.014 C 55.447 47.483 55.961 48.906 56.626 50.283 L -55.66 50.639 L -54.949 45.184 L -53.407 40.204 L -49.85 37.477 Z"/>
</svg>