<?xml version="1.0" encoding="utf-8"?>
<svg width="200px" height="200px" viewBox="0 0 200 200" fill="none" xmlns="http://www.w3.org/2000/svg">
  <g style="" transform="matrix(1.350657, 0, 0, 1.401842, -34.00798, -36.508545)">
    <g id="Layer_1" style="" transform="matrix(1.141828, 0, 0, 1.141828, 78.846085, 74.538429)">
      <g id="SVGRepo_bgCarrier" stroke-width="0" transform="matrix(0.150391, 0, 0, 0.150391, 1.245361, -18.497326)"/>
      <g id="SVGRepo_tracerCarrier" stroke-linecap="round" stroke-linejoin="round" transform="matrix(0.150391, 0, 0, 0.150391, 1.245361, -18.497326)"/>
      <g id="SVGRepo_iconCarrier" transform="matrix(0.150391, 0, 0, 0.150391, 1.245361, -18.497326)">
        <g>
          <path style="fill:#CCCCCC;" d="M111.749,247.328c0,9.818-7.96,17.777-17.781,17.777H47.523c-9.82,0-17.781-7.958-17.781-17.777l0,0 c0-9.817,7.96-17.775,17.781-17.775h46.445C103.789,229.554,111.749,237.513,111.749,247.328L111.749,247.328z"/>
          <path style="fill:#CCCCCC;" d="M435.862,247.328c0,9.818-7.96,17.777-17.781,17.777h-46.446c-9.82,0-17.78-7.958-17.78-17.777l0,0 c0-9.817,7.959-17.775,17.78-17.775h46.446C427.901,229.554,435.862,237.513,435.862,247.328L435.862,247.328z"/>
        </g>
        <path style="fill:#D4EBE9;" d="M194.715,175.315c7.776,0,14.087,6.411,14.088,14.32l0.017,38.659c0,7.914-6.305,14.32-14.082,14.318 l-38.035-0.011c-7.776-0.003-14.089-6.417-14.095-14.329l-0.015-38.662c-0.001-7.905,6.308-14.313,14.088-14.313L194.715,175.315z"/>
        <path style="fill:#316638;" d="M373.075,157.709l83.927-84.036c10.733-10.746,10.484-28.478-0.551-39.526 c-11.034-11.05-28.744-11.298-39.476-0.552l-83.925,84.037c-29.463-13.647-65.136-8.712-88.88,15.063L89.696,287.368 c-6.666,6.674-6.527,17.633,0.308,24.478l89.109,89.225c6.836,6.845,17.78,6.985,24.446,0.309l154.47-154.673 C381.777,222.929,386.706,187.209,373.075,157.709z"/>
        <path style="opacity:0.1;enable-background:new ;" d="M375.78,74.843l-42.731,42.789c-10.598-4.91-22.349-7.506-33.983-7.506 c-20.867,0-40.362,8.014-54.896,22.568L89.698,287.367c-3.297,3.3-5.082,7.905-4.898,12.634c0.162,4.15,2.766,7.811,6.635,9.323 c1.236,0.484,2.526,0.719,3.804,0.719c2.724,0,5.398-1.066,7.395-3.066l141.535-141.721c14.535-14.553,34.03-22.568,54.897-22.568 c9.364,0,19.019,1.726,27.922,4.993c1.173,0.431,2.39,0.639,3.597,0.639c2.726,0,5.4-1.067,7.396-3.066l54.069-54.142L375.78,74.843 z"/>
        <polygon style="fill:#FFE060;" points="146.68,230.309 260.543,344.32 341.606,263.151 227.745,149.139 "/>
        <path style="fill:#ACEBE9;" d="M158.525,224.07c5.501,5.499,5.426,14.494-0.167,20.087l-27.33,27.347 c-5.594,5.598-14.586,5.668-20.082,0.168l-26.889-26.897c-5.497-5.5-5.422-14.496,0.168-20.093l27.333-27.348 c5.59-5.592,14.584-5.662,20.086-0.162L158.525,224.07z"/>
        <path style="fill:#B3B3B3;" d="M125.094,504.163c-4.726,0-8.795-3.349-9.707-7.993L65.294,241.374 c-0.574-2.906,0.187-5.917,2.066-8.206c1.881-2.288,4.682-3.614,7.641-3.614h315.601c2.959,0,5.765,1.326,7.642,3.614 c1.881,2.287,2.637,5.299,2.066,8.206L350.214,496.17c-0.912,4.645-4.98,7.993-9.706,7.993H125.094z"/>
        <path d="M78.24,307.223l-1.183-6.018C77.208,303.24,77.6,305.26,78.24,307.223z"/>
        <polygon style="fill:#CCCCCC;" points="356.629,463.546 365.978,415.995 99.625,415.995 108.976,463.546 "/>
        <path style="opacity:0.1;enable-background:new ;" d="M158.979,496.17l-50.093-254.796c-0.574-2.906,0.187-5.917,2.066-8.206 c1.881-2.288,4.682-3.614,7.641-3.614H75c-2.958,0-5.761,1.326-7.641,3.614c-1.879,2.287-2.638,5.299-2.066,8.206l50.095,254.796 c0.912,4.645,4.981,7.993,9.707,7.993h43.592C163.961,504.163,159.892,500.814,158.979,496.17z"/>
        <path style="fill:#FFE060;" d="M425.586,105.129c-3.762,3.766-10.129,3.495-14.223-0.604l-25.2-25.233 c-4.095-4.1-4.367-10.474-0.604-14.241l54.486-54.557c3.762-3.766,10.129-3.498,14.223,0.603l25.202,25.233 c4.093,4.1,4.362,10.476,0.602,14.242L425.586,105.129z"/>
        <g>
          <path style="fill:#FFFFFF;" d="M364.762,186.164c-6.796-8.149-8.183-12.593-7.228-23.16c-8.147,6.797-12.592,8.184-23.16,7.229 c6.798,8.146,8.186,12.592,7.229,23.159C349.75,186.595,354.194,185.207,364.762,186.164z"/>
          <circle style="fill:#FFFFFF;" cx="351.952" cy="206.921" r="7.569"/>
        </g>
        <path d="M401.903,128.843c1.53,1.529,3.534,2.291,5.538,2.291c2.007,0,4.015-0.766,5.545-2.299l72.633-72.726 c6.803-6.813,6.534-18.17-0.602-25.317L459.814,5.56C456.286,2.026,451.473,0,446.605,0c-4.613,0-8.912,1.761-12.105,4.956 L331.243,108.349c-32.022-12.467-68.623-5.222-92.619,18.807l-40.543,40.595c-1.096-0.173-2.217-0.273-3.362-0.273l-38.037-0.018 c-5.88,0-11.401,2.32-15.547,6.532c-4.103,4.167-6.366,9.696-6.377,15.573c-3.737-2.783-8.247-4.31-13.011-4.31 c-5.931,0-11.518,2.322-15.733,6.538l-27.336,27.35c-0.811,0.812-1.54,1.676-2.197,2.574H47.523 c-14.126,0-25.618,11.489-25.618,25.611c0,7.556,3.291,14.356,8.513,19.047c-5.641,8.07-8.969,17.868-8.969,28.439 c0,27.465,22.351,49.809,49.825,49.809c2.118,0,4.204-0.143,6.252-0.404l30.171,153.459c1.63,8.298,8.946,14.32,17.397,14.32 h215.412c8.45,0,15.766-6.023,17.395-14.318l30.174-153.46c2.05,0.261,4.136,0.404,6.255,0.404 c27.474,0,49.826-22.344,49.826-49.809c0-10.571-3.328-20.369-8.97-28.439c5.222-4.692,8.513-11.492,8.513-19.047 c0-14.123-11.492-25.611-25.618-25.611h-35.077c7.218-19.65,7.254-41.853-0.653-62.208l7.177-7.189 c3.058-3.063,3.054-8.025-0.009-11.083c-3.062-3.057-8.024-3.056-11.083,0.009l-14.766,14.789l2.29,4.958 c9.118,19.733,8.792,42.052,0.09,60.722h-54.747l-72.481-72.578l10.894-10.908c20.651-20.68,52.819-26.097,80.041-13.49l4.97,2.301 l44.024-44.082l28.954,28.984l-5.808,5.815C398.837,120.823,398.84,125.785,401.903,128.843z M152.304,184.988 c1.177-1.195,2.73-1.853,4.375-1.853l26.027,0.013l-26.991,27.026l-5.281-5.285l-0.005-15.278 C150.43,187.857,151.095,186.216,152.304,184.988z M117.1,202.874c1.253-1.254,2.904-1.945,4.647-1.945 c1.657,0,3.204,0.633,4.353,1.782l18.993,19.006H98.267L117.1,202.874z M47.523,237.39h9.877c-0.211,1.81-0.159,3.66,0.203,5.495 l2.827,14.383H47.523c-5.483,0-9.944-4.46-9.944-9.94C37.58,241.849,42.041,237.39,47.523,237.39z M71.275,328.951 c-18.831,0-34.151-15.313-34.151-34.136c0-8.376,3.049-16.04,8.076-21.984c0.766,0.069,1.54,0.11,2.324,0.11h15.99l10.981,55.851 C73.434,328.894,72.362,328.951,71.275,328.951z M340.508,496.327H125.094c-0.98,0-1.828-0.701-2.018-1.67l-4.576-23.274h228.598 l-4.577,23.276C342.334,495.625,341.486,496.327,340.508,496.327z M407.997,242.888c0.363-1.837,0.415-3.687,0.203-5.497h9.879 c5.483,0,9.944,4.459,9.944,9.938c0,5.48-4.462,9.94-9.944,9.94h-12.91L407.997,242.888z M418.081,272.942 c0.784,0,1.558-0.041,2.325-0.11c5.027,5.943,8.076,13.608,8.076,21.984c0,18.823-15.32,34.136-34.152,34.136 c-1.087,0-2.16-0.057-3.221-0.158l10.981-55.851h15.992V272.942z M390.601,237.39c1.281,0,2.266,1.218,2.019,2.47l-33.089,168.298 H200.627c-4.329,0-7.837,3.508-7.837,7.837s3.508,7.837,7.837,7.837H356.45l-6.267,31.878H115.421l-6.267-31.878h52.811 c4.329,0,7.837-3.508,7.837-7.837s-3.508-7.837-7.837-7.837h-55.893l-33.09-168.302c-0.248-1.249,0.741-2.465,2.018-2.465h315.601 V237.39z M289.151,221.717H166.67c-0.045-0.066-0.082-0.139-0.127-0.205l61.203-61.282L289.151,221.717z M445.59,16.033 c0.869-0.874,2.436-0.097,3.134,0.602l25.201,25.233c1.077,1.079,1.207,2.562,0.603,3.167l-6.815,6.823L438.76,22.871L445.59,16.033 z M391.709,73.754c-1.077-1.078-1.208-2.56-0.604-3.165l36.581-36.629l28.952,28.988l-36.6,36.647 c-0.869,0.866-2.433,0.09-3.128-0.607L391.709,73.754z"/>
      </g>
    </g>
    <g transform="matrix(1, 0, 0, 1, 0.565283, -26.037872)">
      <g id="svg-1" transform="matrix(-0.077841, -0.403347, 0.403347, -0.077841, 32.778095, 122.421631)" style="transform-origin: 17.0157px 27.0892px;">
        <g id="group-1" stroke-width="0" transform="matrix(0.125, 0, 0, 0.125, -14.984125, -4.910634)"/>
        <g id="group-2" stroke-linecap="round" stroke-linejoin="round" transform="matrix(0.125, 0, 0, 0.125, -14.984125, -4.910634)"/>
        <g id="group-3" transform="matrix(0.125, 0, 0, 0.125, -14.984125, -4.910634)">
          <path style="fill:#871B00;" d="M90.946,309.594c17.145,88.447,84.533,191.958,165.052,191.958 c79.82,0,146.737-101.722,164.595-189.651l-164.824-60.35L90.946,309.594z"/>
          <path style="fill:#FF5764;" d="M183.005,134.364c-56.946,20.587-96.278,66.818-96.278,134.167c0,15.523,2.101,32.317,6.013,49.53 c11.212-7.441,20.199-17.133,37.108-17.133c27.43,0,34.942,25.517,63.065,25.53c28.124-0.013,35.635-25.53,63.065-25.53 c27.438,0,34.004,25.531,63.084,25.531c29.08,0,33.537-25.531,63.085-25.531h0.071c17.895,0,26.591,9.357,37.125,16.741 c3.856-17.076,5.926-33.733,5.926-49.138c0-67.889-39.966-114.321-97.654-134.658L183.005,134.364z"/>
          <path style="fill:#9AE523;" d="M255.961,146.307v-0.019c-0.172-0.121-37.571-30.714-37.221-68.139 c0.36-37.437,37.06-67.561,37.221-67.695v-0.01v0.015V10.45v0.011c0.309,0.256,39.189,30.781,38.837,68.145 C294.448,116.123,255.961,146.307,255.961,146.307z"/>
          <g>
            <path style="fill:#1A8400;" d="M352.202,50.227l0.008-0.008l-0.003,0.003c-0.174-0.016-33.433-3.284-59.927,11.123 c1.625,5.517,2.574,11.3,2.518,17.26c-0.336,36.073-35.913,65.352-38.652,67.554c0.006,0.064,0.01,0.108,0.012,0.113l-0.014,0.014 c0,0,48.558,5.871,75.334-20.411C358.147,99.703,352.24,50.627,352.202,50.227z"/>
            <path style="fill:#1A8400;" d="M255.849,146.198c-2.159-1.777-37.45-31.684-37.109-68.049c0.053-5.537,0.916-10.909,2.324-16.053 c-26.699-15.27-61.095-11.891-61.272-11.874l-0.007-0.007l0.01,0.01l0.002,0.002c-0.038,0.4-5.944,49.475,20.724,75.648 c26.776,26.281,75.334,20.411,75.334,20.411l-0.014-0.014C255.842,146.268,255.845,146.238,255.849,146.198z"/>
          </g>
          <g>
            <polygon style="fill:#9AE523;" points="352.214,50.215 352.21,50.219 352.203,50.226 "/>
            <polygon style="fill:#9AE523;" points="352.214,50.215 352.21,50.219 352.203,50.226 "/>
          </g>
          <g fill="#000" stroke-width="1">
            <path d="M234.736,467.07c-1.704,0-3.431-0.417-5.029-1.297c-26.185-14.412-51.144-38.949-72.183-70.96 c-3.169-4.822-1.83-11.3,2.993-14.471c4.822-3.172,11.3-1.829,14.471,2.993c19.177,29.176,41.583,51.352,64.798,64.13 c5.055,2.783,6.898,9.136,4.115,14.193C241.996,465.115,238.421,467.07,234.736,467.07z"/>
            <path d="M150.373,372.405c-3.756,0-7.374-2.029-9.229-5.6l-0.08-0.157c-2.674-5.115-0.719-11.473,4.396-14.147 c5.112-2.673,11.403-0.742,14.077,4.374l0.109,0.208c2.661,5.12,0.69,11.471-4.43,14.132 C153.661,372.023,152.004,372.405,150.373,372.405z"/>
            <path d="M131.658,280.808c-5.77,0-10.449-4.678-10.449-10.449v-14.235c0-5.771,4.679-10.449,10.449-10.449 s10.449,4.678,10.449,10.449v14.235C142.107,276.13,137.428,280.808,131.658,280.808z"/>
            <path d="M193.829,262c-5.77,0-10.449-4.678-10.449-10.449v-14.234c0-5.771,4.679-10.449,10.449-10.449s10.449,4.678,10.449,10.449 v14.234C204.278,257.322,199.599,262,193.829,262z"/>
            <path d="M255.999,280.808c-5.77,0-10.449-4.678-10.449-10.449v-14.235c0-5.771,4.679-10.449,10.449-10.449 s10.449,4.678,10.449,10.449v14.235C266.448,276.13,261.769,280.808,255.999,280.808z"/>
            <path d="M318.17,262c-5.77,0-10.449-4.678-10.449-10.449v-14.234c0-5.771,4.679-10.449,10.449-10.449s10.449,4.678,10.449,10.449 v14.234C328.619,257.322,323.94,262,318.17,262z"/>
            <path d="M380.341,280.808c-5.77,0-10.449-4.678-10.449-10.449v-14.235c0-5.771,4.679-10.449,10.449-10.449 s10.449,4.678,10.449,10.449v14.235C390.79,276.13,386.111,280.808,380.341,280.808z"/>
            <path d="M161.437,203.455c-5.77,0-10.449-4.678-10.449-10.449v-14.234c0-5.771,4.679-10.449,10.449-10.449 s10.449,4.678,10.449,10.449v14.234C171.886,198.777,167.207,203.455,161.437,203.455z"/>
            <path d="M223.608,222.263c-5.77,0-10.449-4.678-10.449-10.449V197.58c0-5.771,4.679-10.449,10.449-10.449 c5.77,0,10.449,4.678,10.449,10.449v14.235C234.057,217.585,229.378,222.263,223.608,222.263z"/>
            <path d="M285.779,203.455c-5.77,0-10.449-4.678-10.449-10.449v-14.234c0-5.771,4.679-10.449,10.449-10.449 s10.449,4.678,10.449,10.449v14.234C296.228,198.777,291.549,203.455,285.779,203.455z"/>
            <path d="M347.95,222.263c-5.77,0-10.449-4.678-10.449-10.449V197.58c0-5.771,4.679-10.449,10.449-10.449s10.449,4.678,10.449,10.449 v14.235C358.398,217.585,353.719,222.263,347.95,222.263z"/>
            <path d="M256.965,74.507c-0.836,0-1.684-0.101-2.532-0.311c-5.6-1.394-9.01-7.063-7.616-12.664l0.059-0.234 c1.394-5.6,7.069-9.007,12.663-7.616c5.6,1.394,9.01,7.063,7.616,12.664l-0.059,0.234C265.914,71.331,261.651,74.507,256.965,74.507 z"/>
            <path d="M435.72,268.531c0-35.1-9.866-65.879-29.323-91.483c-15.638-20.576-37.37-37.118-63.338-48.336 c23.838-28.416,20.282-72.471,19.571-79.242c-0.17-2.362-1.142-4.681-2.916-6.514c-1.799-1.858-4.123-2.905-6.514-3.132v-0.003 c-1.316-0.125-28.876-2.6-55.1,7.401c-10.937-24.033-31.002-41.175-35.211-44.597C261.044,0.992,258.619,0,255.961,0 c-2.629,0-5.029,0.972-6.866,2.575c-2.548,2.142-23.002,19.874-33.946,45.117c-25.127-10.058-51.415-8.308-55.973-7.906 c-2.336,0.137-4.64,1.056-6.488,2.766c-2.025,1.876-3.143,4.374-3.322,6.936c-0.709,6.758-4.264,50.813,19.575,79.226 c-26.21,11.322-48.117,28.079-63.782,48.918c-19.163,25.493-28.881,56.076-28.881,90.897c0,13.493,1.504,27.944,4.439,43.054 c-0.009-0.001-0.019-0.001-0.028-0.002c9.208,47.498,31.37,96.201,60.806,133.618c15.977,20.311,33.357,36.352,51.657,47.679 c20.494,12.687,41.64,19.12,62.847,19.12c40.19,0,79.511-22.753,113.714-65.801c29.255-36.82,51.533-85.012,61.121-132.22 l-0.02-0.001C434.065,297.998,435.72,282.733,435.72,268.531z M342.311,60.363c0.227,14.204-1.672,41.88-18.153,58.055 c-11.71,11.494-28.893,15.806-42.896,17.277c11.4-13.733,23.768-33.9,23.983-56.991c0.037-3.911-0.299-7.739-0.918-11.475 C318.166,61.649,333.1,60.461,342.311,60.363z M256.137,24.626c7.987,7.737,20.884,22.229,26.01,39.229 c0.063,0.25,0.13,0.498,0.211,0.745c1.288,4.493,2.035,9.153,1.991,13.908c-0.151,16.273-9.107,31.357-17.901,42.28V98.44 c0-5.771-4.679-10.449-10.449-10.449s-10.449,4.678-10.449,10.449v21.607c-8.306-10.922-16.511-25.794-16.361-41.798 c0.043-4.405,0.702-8.724,1.806-12.897c0.006-0.02,0.01-0.041,0.018-0.061C235.692,47.649,248.325,32.612,256.137,24.626z M169.69,60.365c9.543,0.104,25.24,1.373,39.478,7.485c-0.525,3.331-0.843,6.732-0.877,10.201 c-0.218,23.277,11.888,43.759,23.106,57.708c-14.123-1.404-31.663-5.666-43.559-17.342C171.375,102.26,169.469,74.577,169.69,60.365 z M186.557,144.191c0.225-0.082,0.438-0.18,0.654-0.275c19.51,11.331,42.639,13.389,56.807,13.388c5.76,0,10.029-0.337,11.98-0.528 c1.951,0.19,6.218,0.529,11.981,0.528c14.157,0,37.258-2.055,56.755-13.358c57.258,20.419,90.087,65.79,90.087,124.584 c0,9.784-0.878,20.185-2.617,31.063c-7.496-4.862-16.869-9.116-30.056-9.116c-18.339,0-29.307,8.292-38.121,14.955 c-7.815,5.908-13.988,10.575-24.964,10.575c-11.331,0-17.962-4.863-26.359-11.02c-9.271-6.801-19.784-14.51-36.724-14.51 c-17.014,0-27.756,7.771-37.236,14.626c-8.419,6.09-15.067,10.899-25.826,10.903c-10.767-0.004-17.415-4.814-25.834-10.903 c-9.477-6.855-20.221-14.626-37.235-14.626c-12.984,0-22.191,4.526-29.962,9.702c-1.802-11.09-2.711-21.687-2.711-31.651 C97.177,210.046,129.754,164.725,186.557,144.191z M353.352,433.2c-29.669,37.339-64.241,57.903-97.352,57.903 c-33.407,0-68.238-20.89-98.079-58.823c-23.989-30.493-43.372-70.607-53.358-109.774c0.303-0.222,0.608-0.444,0.908-0.664 c7.976-5.848,14.275-10.467,24.379-10.467c10.249,0,16.753,4.704,24.987,10.661c9.631,6.966,20.545,14.86,38.081,14.868 c17.528-0.007,28.444-7.902,38.074-14.869c8.235-5.956,14.738-10.661,24.987-10.661c10.099,0,16.395,4.617,24.367,10.465 c9.153,6.712,20.545,15.066,38.717,15.066c17.988,0,28.843-8.208,37.567-14.803c7.929-5.993,14.19-10.728,25.589-10.728 c11.25,0,17.509,4.666,25.359,10.597C397.527,361.714,377.728,402.52,353.352,433.2z"/>
          </g>
        </g>
      </g>
      <g id="group-4" transform="matrix(0.127864, -0.362777, 0.362777, 0.127864, 41.548748, 123.371582)" style="transform-origin: 17.0157px 27.0892px;">
        <g id="group-5" stroke-width="0" transform="matrix(0.125, 0, 0, 0.125, -14.984125, -4.910634)"/>
        <g id="group-6" stroke-linecap="round" stroke-linejoin="round" transform="matrix(0.125, 0, 0, 0.125, -14.984125, -4.910634)"/>
        <g id="group-7" transform="matrix(0.125, 0, 0, 0.125, -14.984125, -4.910634)">
          <path style="fill:#871B00;" d="M90.946,309.594c17.145,88.447,84.533,191.958,165.052,191.958 c79.82,0,146.737-101.722,164.595-189.651l-164.824-60.35L90.946,309.594z"/>
          <path style="fill:#FF5764;" d="M183.005,134.364c-56.946,20.587-96.278,66.818-96.278,134.167c0,15.523,2.101,32.317,6.013,49.53 c11.212-7.441,20.199-17.133,37.108-17.133c27.43,0,34.942,25.517,63.065,25.53c28.124-0.013,35.635-25.53,63.065-25.53 c27.438,0,34.004,25.531,63.084,25.531c29.08,0,33.537-25.531,63.085-25.531h0.071c17.895,0,26.591,9.357,37.125,16.741 c3.856-17.076,5.926-33.733,5.926-49.138c0-67.889-39.966-114.321-97.654-134.658L183.005,134.364z"/>
          <path style="fill:#9AE523;" d="M255.961,146.307v-0.019c-0.172-0.121-37.571-30.714-37.221-68.139 c0.36-37.437,37.06-67.561,37.221-67.695v-0.01v0.015V10.45v0.011c0.309,0.256,39.189,30.781,38.837,68.145 C294.448,116.123,255.961,146.307,255.961,146.307z"/>
          <g>
            <path style="fill:#1A8400;" d="M352.202,50.227l0.008-0.008l-0.003,0.003c-0.174-0.016-33.433-3.284-59.927,11.123 c1.625,5.517,2.574,11.3,2.518,17.26c-0.336,36.073-35.913,65.352-38.652,67.554c0.006,0.064,0.01,0.108,0.012,0.113l-0.014,0.014 c0,0,48.558,5.871,75.334-20.411C358.147,99.703,352.24,50.627,352.202,50.227z"/>
            <path style="fill:#1A8400;" d="M255.849,146.198c-2.159-1.777-37.45-31.684-37.109-68.049c0.053-5.537,0.916-10.909,2.324-16.053 c-26.699-15.27-61.095-11.891-61.272-11.874l-0.007-0.007l0.01,0.01l0.002,0.002c-0.038,0.4-5.944,49.475,20.724,75.648 c26.776,26.281,75.334,20.411,75.334,20.411l-0.014-0.014C255.842,146.268,255.845,146.238,255.849,146.198z"/>
          </g>
          <g>
            <polygon style="fill:#9AE523;" points="352.214,50.215 352.21,50.219 352.203,50.226 "/>
            <polygon style="fill:#9AE523;" points="352.214,50.215 352.21,50.219 352.203,50.226 "/>
          </g>
          <g fill="#000" stroke-width="1">
            <path d="M234.736,467.07c-1.704,0-3.431-0.417-5.029-1.297c-26.185-14.412-51.144-38.949-72.183-70.96 c-3.169-4.822-1.83-11.3,2.993-14.471c4.822-3.172,11.3-1.829,14.471,2.993c19.177,29.176,41.583,51.352,64.798,64.13 c5.055,2.783,6.898,9.136,4.115,14.193C241.996,465.115,238.421,467.07,234.736,467.07z"/>
            <path d="M150.373,372.405c-3.756,0-7.374-2.029-9.229-5.6l-0.08-0.157c-2.674-5.115-0.719-11.473,4.396-14.147 c5.112-2.673,11.403-0.742,14.077,4.374l0.109,0.208c2.661,5.12,0.69,11.471-4.43,14.132 C153.661,372.023,152.004,372.405,150.373,372.405z"/>
            <path d="M131.658,280.808c-5.77,0-10.449-4.678-10.449-10.449v-14.235c0-5.771,4.679-10.449,10.449-10.449 s10.449,4.678,10.449,10.449v14.235C142.107,276.13,137.428,280.808,131.658,280.808z"/>
            <path d="M193.829,262c-5.77,0-10.449-4.678-10.449-10.449v-14.234c0-5.771,4.679-10.449,10.449-10.449s10.449,4.678,10.449,10.449 v14.234C204.278,257.322,199.599,262,193.829,262z"/>
            <path d="M255.999,280.808c-5.77,0-10.449-4.678-10.449-10.449v-14.235c0-5.771,4.679-10.449,10.449-10.449 s10.449,4.678,10.449,10.449v14.235C266.448,276.13,261.769,280.808,255.999,280.808z"/>
            <path d="M318.17,262c-5.77,0-10.449-4.678-10.449-10.449v-14.234c0-5.771,4.679-10.449,10.449-10.449s10.449,4.678,10.449,10.449 v14.234C328.619,257.322,323.94,262,318.17,262z"/>
            <path d="M380.341,280.808c-5.77,0-10.449-4.678-10.449-10.449v-14.235c0-5.771,4.679-10.449,10.449-10.449 s10.449,4.678,10.449,10.449v14.235C390.79,276.13,386.111,280.808,380.341,280.808z"/>
            <path d="M161.437,203.455c-5.77,0-10.449-4.678-10.449-10.449v-14.234c0-5.771,4.679-10.449,10.449-10.449 s10.449,4.678,10.449,10.449v14.234C171.886,198.777,167.207,203.455,161.437,203.455z"/>
            <path d="M223.608,222.263c-5.77,0-10.449-4.678-10.449-10.449V197.58c0-5.771,4.679-10.449,10.449-10.449 c5.77,0,10.449,4.678,10.449,10.449v14.235C234.057,217.585,229.378,222.263,223.608,222.263z"/>
            <path d="M285.779,203.455c-5.77,0-10.449-4.678-10.449-10.449v-14.234c0-5.771,4.679-10.449,10.449-10.449 s10.449,4.678,10.449,10.449v14.234C296.228,198.777,291.549,203.455,285.779,203.455z"/>
            <path d="M347.95,222.263c-5.77,0-10.449-4.678-10.449-10.449V197.58c0-5.771,4.679-10.449,10.449-10.449s10.449,4.678,10.449,10.449 v14.235C358.398,217.585,353.719,222.263,347.95,222.263z"/>
            <path d="M256.965,74.507c-0.836,0-1.684-0.101-2.532-0.311c-5.6-1.394-9.01-7.063-7.616-12.664l0.059-0.234 c1.394-5.6,7.069-9.007,12.663-7.616c5.6,1.394,9.01,7.063,7.616,12.664l-0.059,0.234C265.914,71.331,261.651,74.507,256.965,74.507 z"/>
            <path d="M435.72,268.531c0-35.1-9.866-65.879-29.323-91.483c-15.638-20.576-37.37-37.118-63.338-48.336 c23.838-28.416,20.282-72.471,19.571-79.242c-0.17-2.362-1.142-4.681-2.916-6.514c-1.799-1.858-4.123-2.905-6.514-3.132v-0.003 c-1.316-0.125-28.876-2.6-55.1,7.401c-10.937-24.033-31.002-41.175-35.211-44.597C261.044,0.992,258.619,0,255.961,0 c-2.629,0-5.029,0.972-6.866,2.575c-2.548,2.142-23.002,19.874-33.946,45.117c-25.127-10.058-51.415-8.308-55.973-7.906 c-2.336,0.137-4.64,1.056-6.488,2.766c-2.025,1.876-3.143,4.374-3.322,6.936c-0.709,6.758-4.264,50.813,19.575,79.226 c-26.21,11.322-48.117,28.079-63.782,48.918c-19.163,25.493-28.881,56.076-28.881,90.897c0,13.493,1.504,27.944,4.439,43.054 c-0.009-0.001-0.019-0.001-0.028-0.002c9.208,47.498,31.37,96.201,60.806,133.618c15.977,20.311,33.357,36.352,51.657,47.679 c20.494,12.687,41.64,19.12,62.847,19.12c40.19,0,79.511-22.753,113.714-65.801c29.255-36.82,51.533-85.012,61.121-132.22 l-0.02-0.001C434.065,297.998,435.72,282.733,435.72,268.531z M342.311,60.363c0.227,14.204-1.672,41.88-18.153,58.055 c-11.71,11.494-28.893,15.806-42.896,17.277c11.4-13.733,23.768-33.9,23.983-56.991c0.037-3.911-0.299-7.739-0.918-11.475 C318.166,61.649,333.1,60.461,342.311,60.363z M256.137,24.626c7.987,7.737,20.884,22.229,26.01,39.229 c0.063,0.25,0.13,0.498,0.211,0.745c1.288,4.493,2.035,9.153,1.991,13.908c-0.151,16.273-9.107,31.357-17.901,42.28V98.44 c0-5.771-4.679-10.449-10.449-10.449s-10.449,4.678-10.449,10.449v21.607c-8.306-10.922-16.511-25.794-16.361-41.798 c0.043-4.405,0.702-8.724,1.806-12.897c0.006-0.02,0.01-0.041,0.018-0.061C235.692,47.649,248.325,32.612,256.137,24.626z M169.69,60.365c9.543,0.104,25.24,1.373,39.478,7.485c-0.525,3.331-0.843,6.732-0.877,10.201 c-0.218,23.277,11.888,43.759,23.106,57.708c-14.123-1.404-31.663-5.666-43.559-17.342C171.375,102.26,169.469,74.577,169.69,60.365 z M186.557,144.191c0.225-0.082,0.438-0.18,0.654-0.275c19.51,11.331,42.639,13.389,56.807,13.388c5.76,0,10.029-0.337,11.98-0.528 c1.951,0.19,6.218,0.529,11.981,0.528c14.157,0,37.258-2.055,56.755-13.358c57.258,20.419,90.087,65.79,90.087,124.584 c0,9.784-0.878,20.185-2.617,31.063c-7.496-4.862-16.869-9.116-30.056-9.116c-18.339,0-29.307,8.292-38.121,14.955 c-7.815,5.908-13.988,10.575-24.964,10.575c-11.331,0-17.962-4.863-26.359-11.02c-9.271-6.801-19.784-14.51-36.724-14.51 c-17.014,0-27.756,7.771-37.236,14.626c-8.419,6.09-15.067,10.899-25.826,10.903c-10.767-0.004-17.415-4.814-25.834-10.903 c-9.477-6.855-20.221-14.626-37.235-14.626c-12.984,0-22.191,4.526-29.962,9.702c-1.802-11.09-2.711-21.687-2.711-31.651 C97.177,210.046,129.754,164.725,186.557,144.191z M353.352,433.2c-29.669,37.339-64.241,57.903-97.352,57.903 c-33.407,0-68.238-20.89-98.079-58.823c-23.989-30.493-43.372-70.607-53.358-109.774c0.303-0.222,0.608-0.444,0.908-0.664 c7.976-5.848,14.275-10.467,24.379-10.467c10.249,0,16.753,4.704,24.987,10.661c9.631,6.966,20.545,14.86,38.081,14.868 c17.528-0.007,28.444-7.902,38.074-14.869c8.235-5.956,14.738-10.661,24.987-10.661c10.099,0,16.395,4.617,24.367,10.465 c9.153,6.712,20.545,15.066,38.717,15.066c17.988,0,28.843-8.208,37.567-14.803c7.929-5.993,14.19-10.728,25.589-10.728 c11.25,0,17.509,4.666,25.359,10.597C397.527,361.714,377.728,402.52,353.352,433.2z"/>
          </g>
        </g>
      </g>
      <g id="group-8" transform="matrix(0.395231, 0, 0, 0.395231, 79.916695, 136.104065)" style="">
        <g id="group-9" stroke-width="0" transform="matrix(0.125, 0, 0, 0.125, -14.984125, -4.910634)"/>
        <g id="group-10" stroke-linecap="round" stroke-linejoin="round" transform="matrix(0.125, 0, 0, 0.125, -14.984125, -4.910634)"/>
        <g id="group-11" transform="matrix(0.125, 0, 0, 0.125, -14.984125, -4.910634)">
          <path style="fill:#871B00;" d="M90.946,309.594c17.145,88.447,84.533,191.958,165.052,191.958 c79.82,0,146.737-101.722,164.595-189.651l-164.824-60.35L90.946,309.594z"/>
          <path style="fill:#FF5764;" d="M183.005,134.364c-56.946,20.587-96.278,66.818-96.278,134.167c0,15.523,2.101,32.317,6.013,49.53 c11.212-7.441,20.199-17.133,37.108-17.133c27.43,0,34.942,25.517,63.065,25.53c28.124-0.013,35.635-25.53,63.065-25.53 c27.438,0,34.004,25.531,63.084,25.531c29.08,0,33.537-25.531,63.085-25.531h0.071c17.895,0,26.591,9.357,37.125,16.741 c3.856-17.076,5.926-33.733,5.926-49.138c0-67.889-39.966-114.321-97.654-134.658L183.005,134.364z"/>
          <path style="fill:#9AE523;" d="M255.961,146.307v-0.019c-0.172-0.121-37.571-30.714-37.221-68.139 c0.36-37.437,37.06-67.561,37.221-67.695v-0.01v0.015V10.45v0.011c0.309,0.256,39.189,30.781,38.837,68.145 C294.448,116.123,255.961,146.307,255.961,146.307z"/>
          <g>
            <path style="fill:#1A8400;" d="M352.202,50.227l0.008-0.008l-0.003,0.003c-0.174-0.016-33.433-3.284-59.927,11.123 c1.625,5.517,2.574,11.3,2.518,17.26c-0.336,36.073-35.913,65.352-38.652,67.554c0.006,0.064,0.01,0.108,0.012,0.113l-0.014,0.014 c0,0,48.558,5.871,75.334-20.411C358.147,99.703,352.24,50.627,352.202,50.227z"/>
            <path style="fill:#1A8400;" d="M255.849,146.198c-2.159-1.777-37.45-31.684-37.109-68.049c0.053-5.537,0.916-10.909,2.324-16.053 c-26.699-15.27-61.095-11.891-61.272-11.874l-0.007-0.007l0.01,0.01l0.002,0.002c-0.038,0.4-5.944,49.475,20.724,75.648 c26.776,26.281,75.334,20.411,75.334,20.411l-0.014-0.014C255.842,146.268,255.845,146.238,255.849,146.198z"/>
          </g>
          <g>
            <polygon style="fill:#9AE523;" points="352.214,50.215 352.21,50.219 352.203,50.226 "/>
            <polygon style="fill:#9AE523;" points="352.214,50.215 352.21,50.219 352.203,50.226 "/>
          </g>
          <g fill="#000" stroke-width="1">
            <path d="M234.736,467.07c-1.704,0-3.431-0.417-5.029-1.297c-26.185-14.412-51.144-38.949-72.183-70.96 c-3.169-4.822-1.83-11.3,2.993-14.471c4.822-3.172,11.3-1.829,14.471,2.993c19.177,29.176,41.583,51.352,64.798,64.13 c5.055,2.783,6.898,9.136,4.115,14.193C241.996,465.115,238.421,467.07,234.736,467.07z"/>
            <path d="M150.373,372.405c-3.756,0-7.374-2.029-9.229-5.6l-0.08-0.157c-2.674-5.115-0.719-11.473,4.396-14.147 c5.112-2.673,11.403-0.742,14.077,4.374l0.109,0.208c2.661,5.12,0.69,11.471-4.43,14.132 C153.661,372.023,152.004,372.405,150.373,372.405z"/>
            <path d="M131.658,280.808c-5.77,0-10.449-4.678-10.449-10.449v-14.235c0-5.771,4.679-10.449,10.449-10.449 s10.449,4.678,10.449,10.449v14.235C142.107,276.13,137.428,280.808,131.658,280.808z"/>
            <path d="M193.829,262c-5.77,0-10.449-4.678-10.449-10.449v-14.234c0-5.771,4.679-10.449,10.449-10.449s10.449,4.678,10.449,10.449 v14.234C204.278,257.322,199.599,262,193.829,262z"/>
            <path d="M255.999,280.808c-5.77,0-10.449-4.678-10.449-10.449v-14.235c0-5.771,4.679-10.449,10.449-10.449 s10.449,4.678,10.449,10.449v14.235C266.448,276.13,261.769,280.808,255.999,280.808z"/>
            <path d="M318.17,262c-5.77,0-10.449-4.678-10.449-10.449v-14.234c0-5.771,4.679-10.449,10.449-10.449s10.449,4.678,10.449,10.449 v14.234C328.619,257.322,323.94,262,318.17,262z"/>
            <path d="M380.341,280.808c-5.77,0-10.449-4.678-10.449-10.449v-14.235c0-5.771,4.679-10.449,10.449-10.449 s10.449,4.678,10.449,10.449v14.235C390.79,276.13,386.111,280.808,380.341,280.808z"/>
            <path d="M161.437,203.455c-5.77,0-10.449-4.678-10.449-10.449v-14.234c0-5.771,4.679-10.449,10.449-10.449 s10.449,4.678,10.449,10.449v14.234C171.886,198.777,167.207,203.455,161.437,203.455z"/>
            <path d="M223.608,222.263c-5.77,0-10.449-4.678-10.449-10.449V197.58c0-5.771,4.679-10.449,10.449-10.449 c5.77,0,10.449,4.678,10.449,10.449v14.235C234.057,217.585,229.378,222.263,223.608,222.263z"/>
            <path d="M285.779,203.455c-5.77,0-10.449-4.678-10.449-10.449v-14.234c0-5.771,4.679-10.449,10.449-10.449 s10.449,4.678,10.449,10.449v14.234C296.228,198.777,291.549,203.455,285.779,203.455z"/>
            <path d="M347.95,222.263c-5.77,0-10.449-4.678-10.449-10.449V197.58c0-5.771,4.679-10.449,10.449-10.449s10.449,4.678,10.449,10.449 v14.235C358.398,217.585,353.719,222.263,347.95,222.263z"/>
            <path d="M256.965,74.507c-0.836,0-1.684-0.101-2.532-0.311c-5.6-1.394-9.01-7.063-7.616-12.664l0.059-0.234 c1.394-5.6,7.069-9.007,12.663-7.616c5.6,1.394,9.01,7.063,7.616,12.664l-0.059,0.234C265.914,71.331,261.651,74.507,256.965,74.507 z"/>
            <path d="M435.72,268.531c0-35.1-9.866-65.879-29.323-91.483c-15.638-20.576-37.37-37.118-63.338-48.336 c23.838-28.416,20.282-72.471,19.571-79.242c-0.17-2.362-1.142-4.681-2.916-6.514c-1.799-1.858-4.123-2.905-6.514-3.132v-0.003 c-1.316-0.125-28.876-2.6-55.1,7.401c-10.937-24.033-31.002-41.175-35.211-44.597C261.044,0.992,258.619,0,255.961,0 c-2.629,0-5.029,0.972-6.866,2.575c-2.548,2.142-23.002,19.874-33.946,45.117c-25.127-10.058-51.415-8.308-55.973-7.906 c-2.336,0.137-4.64,1.056-6.488,2.766c-2.025,1.876-3.143,4.374-3.322,6.936c-0.709,6.758-4.264,50.813,19.575,79.226 c-26.21,11.322-48.117,28.079-63.782,48.918c-19.163,25.493-28.881,56.076-28.881,90.897c0,13.493,1.504,27.944,4.439,43.054 c-0.009-0.001-0.019-0.001-0.028-0.002c9.208,47.498,31.37,96.201,60.806,133.618c15.977,20.311,33.357,36.352,51.657,47.679 c20.494,12.687,41.64,19.12,62.847,19.12c40.19,0,79.511-22.753,113.714-65.801c29.255-36.82,51.533-85.012,61.121-132.22 l-0.02-0.001C434.065,297.998,435.72,282.733,435.72,268.531z M342.311,60.363c0.227,14.204-1.672,41.88-18.153,58.055 c-11.71,11.494-28.893,15.806-42.896,17.277c11.4-13.733,23.768-33.9,23.983-56.991c0.037-3.911-0.299-7.739-0.918-11.475 C318.166,61.649,333.1,60.461,342.311,60.363z M256.137,24.626c7.987,7.737,20.884,22.229,26.01,39.229 c0.063,0.25,0.13,0.498,0.211,0.745c1.288,4.493,2.035,9.153,1.991,13.908c-0.151,16.273-9.107,31.357-17.901,42.28V98.44 c0-5.771-4.679-10.449-10.449-10.449s-10.449,4.678-10.449,10.449v21.607c-8.306-10.922-16.511-25.794-16.361-41.798 c0.043-4.405,0.702-8.724,1.806-12.897c0.006-0.02,0.01-0.041,0.018-0.061C235.692,47.649,248.325,32.612,256.137,24.626z M169.69,60.365c9.543,0.104,25.24,1.373,39.478,7.485c-0.525,3.331-0.843,6.732-0.877,10.201 c-0.218,23.277,11.888,43.759,23.106,57.708c-14.123-1.404-31.663-5.666-43.559-17.342C171.375,102.26,169.469,74.577,169.69,60.365 z M186.557,144.191c0.225-0.082,0.438-0.18,0.654-0.275c19.51,11.331,42.639,13.389,56.807,13.388c5.76,0,10.029-0.337,11.98-0.528 c1.951,0.19,6.218,0.529,11.981,0.528c14.157,0,37.258-2.055,56.755-13.358c57.258,20.419,90.087,65.79,90.087,124.584 c0,9.784-0.878,20.185-2.617,31.063c-7.496-4.862-16.869-9.116-30.056-9.116c-18.339,0-29.307,8.292-38.121,14.955 c-7.815,5.908-13.988,10.575-24.964,10.575c-11.331,0-17.962-4.863-26.359-11.02c-9.271-6.801-19.784-14.51-36.724-14.51 c-17.014,0-27.756,7.771-37.236,14.626c-8.419,6.09-15.067,10.899-25.826,10.903c-10.767-0.004-17.415-4.814-25.834-10.903 c-9.477-6.855-20.221-14.626-37.235-14.626c-12.984,0-22.191,4.526-29.962,9.702c-1.802-11.09-2.711-21.687-2.711-31.651 C97.177,210.046,129.754,164.725,186.557,144.191z M353.352,433.2c-29.669,37.339-64.241,57.903-97.352,57.903 c-33.407,0-68.238-20.89-98.079-58.823c-23.989-30.493-43.372-70.607-53.358-109.774c0.303-0.222,0.608-0.444,0.908-0.664 c7.976-5.848,14.275-10.467,24.379-10.467c10.249,0,16.753,4.704,24.987,10.661c9.631,6.966,20.545,14.86,38.081,14.868 c17.528-0.007,28.444-7.902,38.074-14.869c8.235-5.956,14.738-10.661,24.987-10.661c10.099,0,16.395,4.617,24.367,10.465 c9.153,6.712,20.545,15.066,38.717,15.066c17.988,0,28.843-8.208,37.567-14.803c7.929-5.993,14.19-10.728,25.589-10.728 c11.25,0,17.509,4.666,25.359,10.597C397.527,361.714,377.728,402.52,353.352,433.2z"/>
          </g>
        </g>
      </g>
      <g id="group-12" transform="matrix(0.12571, 0.325495, -0.325495, 0.12571, 58.549351, 122.310783)" style="transform-origin: 17.0157px 27.0892px;">
        <g id="group-13" stroke-width="0" transform="matrix(0.125, 0, 0, 0.125, -14.984125, -4.910634)"/>
        <g id="group-14" stroke-linecap="round" stroke-linejoin="round" transform="matrix(0.125, 0, 0, 0.125, -14.984125, -4.910634)"/>
        <g id="group-15" transform="matrix(0.125, 0, 0, 0.125, -14.984125, -4.910634)">
          <path style="fill:#871B00;" d="M90.946,309.594c17.145,88.447,84.533,191.958,165.052,191.958 c79.82,0,146.737-101.722,164.595-189.651l-164.824-60.35L90.946,309.594z"/>
          <path style="fill:#FF5764;" d="M183.005,134.364c-56.946,20.587-96.278,66.818-96.278,134.167c0,15.523,2.101,32.317,6.013,49.53 c11.212-7.441,20.199-17.133,37.108-17.133c27.43,0,34.942,25.517,63.065,25.53c28.124-0.013,35.635-25.53,63.065-25.53 c27.438,0,34.004,25.531,63.084,25.531c29.08,0,33.537-25.531,63.085-25.531h0.071c17.895,0,26.591,9.357,37.125,16.741 c3.856-17.076,5.926-33.733,5.926-49.138c0-67.889-39.966-114.321-97.654-134.658L183.005,134.364z"/>
          <path style="fill:#9AE523;" d="M255.961,146.307v-0.019c-0.172-0.121-37.571-30.714-37.221-68.139 c0.36-37.437,37.06-67.561,37.221-67.695v-0.01v0.015V10.45v0.011c0.309,0.256,39.189,30.781,38.837,68.145 C294.448,116.123,255.961,146.307,255.961,146.307z"/>
          <g>
            <path style="fill:#1A8400;" d="M352.202,50.227l0.008-0.008l-0.003,0.003c-0.174-0.016-33.433-3.284-59.927,11.123 c1.625,5.517,2.574,11.3,2.518,17.26c-0.336,36.073-35.913,65.352-38.652,67.554c0.006,0.064,0.01,0.108,0.012,0.113l-0.014,0.014 c0,0,48.558,5.871,75.334-20.411C358.147,99.703,352.24,50.627,352.202,50.227z"/>
            <path style="fill:#1A8400;" d="M255.849,146.198c-2.159-1.777-37.45-31.684-37.109-68.049c0.053-5.537,0.916-10.909,2.324-16.053 c-26.699-15.27-61.095-11.891-61.272-11.874l-0.007-0.007l0.01,0.01l0.002,0.002c-0.038,0.4-5.944,49.475,20.724,75.648 c26.776,26.281,75.334,20.411,75.334,20.411l-0.014-0.014C255.842,146.268,255.845,146.238,255.849,146.198z"/>
          </g>
          <g>
            <polygon style="fill:#9AE523;" points="352.214,50.215 352.21,50.219 352.203,50.226 "/>
            <polygon style="fill:#9AE523;" points="352.214,50.215 352.21,50.219 352.203,50.226 "/>
          </g>
          <g fill="#000" stroke-width="1">
            <path d="M234.736,467.07c-1.704,0-3.431-0.417-5.029-1.297c-26.185-14.412-51.144-38.949-72.183-70.96 c-3.169-4.822-1.83-11.3,2.993-14.471c4.822-3.172,11.3-1.829,14.471,2.993c19.177,29.176,41.583,51.352,64.798,64.13 c5.055,2.783,6.898,9.136,4.115,14.193C241.996,465.115,238.421,467.07,234.736,467.07z"/>
            <path d="M150.373,372.405c-3.756,0-7.374-2.029-9.229-5.6l-0.08-0.157c-2.674-5.115-0.719-11.473,4.396-14.147 c5.112-2.673,11.403-0.742,14.077,4.374l0.109,0.208c2.661,5.12,0.69,11.471-4.43,14.132 C153.661,372.023,152.004,372.405,150.373,372.405z"/>
            <path d="M131.658,280.808c-5.77,0-10.449-4.678-10.449-10.449v-14.235c0-5.771,4.679-10.449,10.449-10.449 s10.449,4.678,10.449,10.449v14.235C142.107,276.13,137.428,280.808,131.658,280.808z"/>
            <path d="M193.829,262c-5.77,0-10.449-4.678-10.449-10.449v-14.234c0-5.771,4.679-10.449,10.449-10.449s10.449,4.678,10.449,10.449 v14.234C204.278,257.322,199.599,262,193.829,262z"/>
            <path d="M255.999,280.808c-5.77,0-10.449-4.678-10.449-10.449v-14.235c0-5.771,4.679-10.449,10.449-10.449 s10.449,4.678,10.449,10.449v14.235C266.448,276.13,261.769,280.808,255.999,280.808z"/>
            <path d="M318.17,262c-5.77,0-10.449-4.678-10.449-10.449v-14.234c0-5.771,4.679-10.449,10.449-10.449s10.449,4.678,10.449,10.449 v14.234C328.619,257.322,323.94,262,318.17,262z"/>
            <path d="M380.341,280.808c-5.77,0-10.449-4.678-10.449-10.449v-14.235c0-5.771,4.679-10.449,10.449-10.449 s10.449,4.678,10.449,10.449v14.235C390.79,276.13,386.111,280.808,380.341,280.808z"/>
            <path d="M161.437,203.455c-5.77,0-10.449-4.678-10.449-10.449v-14.234c0-5.771,4.679-10.449,10.449-10.449 s10.449,4.678,10.449,10.449v14.234C171.886,198.777,167.207,203.455,161.437,203.455z"/>
            <path d="M223.608,222.263c-5.77,0-10.449-4.678-10.449-10.449V197.58c0-5.771,4.679-10.449,10.449-10.449 c5.77,0,10.449,4.678,10.449,10.449v14.235C234.057,217.585,229.378,222.263,223.608,222.263z"/>
            <path d="M285.779,203.455c-5.77,0-10.449-4.678-10.449-10.449v-14.234c0-5.771,4.679-10.449,10.449-10.449 s10.449,4.678,10.449,10.449v14.234C296.228,198.777,291.549,203.455,285.779,203.455z"/>
            <path d="M347.95,222.263c-5.77,0-10.449-4.678-10.449-10.449V197.58c0-5.771,4.679-10.449,10.449-10.449s10.449,4.678,10.449,10.449 v14.235C358.398,217.585,353.719,222.263,347.95,222.263z"/>
            <path d="M256.965,74.507c-0.836,0-1.684-0.101-2.532-0.311c-5.6-1.394-9.01-7.063-7.616-12.664l0.059-0.234 c1.394-5.6,7.069-9.007,12.663-7.616c5.6,1.394,9.01,7.063,7.616,12.664l-0.059,0.234C265.914,71.331,261.651,74.507,256.965,74.507 z"/>
            <path d="M435.72,268.531c0-35.1-9.866-65.879-29.323-91.483c-15.638-20.576-37.37-37.118-63.338-48.336 c23.838-28.416,20.282-72.471,19.571-79.242c-0.17-2.362-1.142-4.681-2.916-6.514c-1.799-1.858-4.123-2.905-6.514-3.132v-0.003 c-1.316-0.125-28.876-2.6-55.1,7.401c-10.937-24.033-31.002-41.175-35.211-44.597C261.044,0.992,258.619,0,255.961,0 c-2.629,0-5.029,0.972-6.866,2.575c-2.548,2.142-23.002,19.874-33.946,45.117c-25.127-10.058-51.415-8.308-55.973-7.906 c-2.336,0.137-4.64,1.056-6.488,2.766c-2.025,1.876-3.143,4.374-3.322,6.936c-0.709,6.758-4.264,50.813,19.575,79.226 c-26.21,11.322-48.117,28.079-63.782,48.918c-19.163,25.493-28.881,56.076-28.881,90.897c0,13.493,1.504,27.944,4.439,43.054 c-0.009-0.001-0.019-0.001-0.028-0.002c9.208,47.498,31.37,96.201,60.806,133.618c15.977,20.311,33.357,36.352,51.657,47.679 c20.494,12.687,41.64,19.12,62.847,19.12c40.19,0,79.511-22.753,113.714-65.801c29.255-36.82,51.533-85.012,61.121-132.22 l-0.02-0.001C434.065,297.998,435.72,282.733,435.72,268.531z M342.311,60.363c0.227,14.204-1.672,41.88-18.153,58.055 c-11.71,11.494-28.893,15.806-42.896,17.277c11.4-13.733,23.768-33.9,23.983-56.991c0.037-3.911-0.299-7.739-0.918-11.475 C318.166,61.649,333.1,60.461,342.311,60.363z M256.137,24.626c7.987,7.737,20.884,22.229,26.01,39.229 c0.063,0.25,0.13,0.498,0.211,0.745c1.288,4.493,2.035,9.153,1.991,13.908c-0.151,16.273-9.107,31.357-17.901,42.28V98.44 c0-5.771-4.679-10.449-10.449-10.449s-10.449,4.678-10.449,10.449v21.607c-8.306-10.922-16.511-25.794-16.361-41.798 c0.043-4.405,0.702-8.724,1.806-12.897c0.006-0.02,0.01-0.041,0.018-0.061C235.692,47.649,248.325,32.612,256.137,24.626z M169.69,60.365c9.543,0.104,25.24,1.373,39.478,7.485c-0.525,3.331-0.843,6.732-0.877,10.201 c-0.218,23.277,11.888,43.759,23.106,57.708c-14.123-1.404-31.663-5.666-43.559-17.342C171.375,102.26,169.469,74.577,169.69,60.365 z M186.557,144.191c0.225-0.082,0.438-0.18,0.654-0.275c19.51,11.331,42.639,13.389,56.807,13.388c5.76,0,10.029-0.337,11.98-0.528 c1.951,0.19,6.218,0.529,11.981,0.528c14.157,0,37.258-2.055,56.755-13.358c57.258,20.419,90.087,65.79,90.087,124.584 c0,9.784-0.878,20.185-2.617,31.063c-7.496-4.862-16.869-9.116-30.056-9.116c-18.339,0-29.307,8.292-38.121,14.955 c-7.815,5.908-13.988,10.575-24.964,10.575c-11.331,0-17.962-4.863-26.359-11.02c-9.271-6.801-19.784-14.51-36.724-14.51 c-17.014,0-27.756,7.771-37.236,14.626c-8.419,6.09-15.067,10.899-25.826,10.903c-10.767-0.004-17.415-4.814-25.834-10.903 c-9.477-6.855-20.221-14.626-37.235-14.626c-12.984,0-22.191,4.526-29.962,9.702c-1.802-11.09-2.711-21.687-2.711-31.651 C97.177,210.046,129.754,164.725,186.557,144.191z M353.352,433.2c-29.669,37.339-64.241,57.903-97.352,57.903 c-33.407,0-68.238-20.89-98.079-58.823c-23.989-30.493-43.372-70.607-53.358-109.774c0.303-0.222,0.608-0.444,0.908-0.664 c7.976-5.848,14.275-10.467,24.379-10.467c10.249,0,16.753,4.704,24.987,10.661c9.631,6.966,20.545,14.86,38.081,14.868 c17.528-0.007,28.444-7.902,38.074-14.869c8.235-5.956,14.738-10.661,24.987-10.661c10.099,0,16.395,4.617,24.367,10.465 c9.153,6.712,20.545,15.066,38.717,15.066c17.988,0,28.843-8.208,37.567-14.803c7.929-5.993,14.19-10.728,25.589-10.728 c11.25,0,17.509,4.666,25.359,10.597C397.527,361.714,377.728,402.52,353.352,433.2z"/>
          </g>
        </g>
      </g>
      <g>
        <path style="fill: rgb(189, 189, 189); transform-box: fill-box; transform-origin: 50% 50%;" d="M 101.416 150.536 C 102.008 150.536 102.492 151.128 102.492 151.719 C 102.492 152.042 102.384 152.203 102.168 152.418 C 101.954 152.633 101.685 152.687 101.416 152.687 L 96.63 152.687 L 91.79 152.687 L 35.809 152.687 C 35.218 152.687 34.734 152.311 34.734 151.719 C 34.734 151.45 34.841 151.074 35.056 150.912 C 35.271 150.697 35.54 150.536 35.809 150.536 L 101.416 150.536 Z"/>
        <g id="svg-2" transform="matrix(1.101574, 0, 0, 1.20727, 62.306164, 111.35202)" style="">
          <g id="group-16" stroke-width="0" transform="matrix(0.125, 0, 0, 0.125, -26.274578, 6.905657)"/>
          <g id="group-17" stroke-linecap="round" stroke-linejoin="round" transform="matrix(0.125, 0, 0, 0.125, -26.274578, 6.905657)"/>
          <g id="group-18" transform="matrix(0.125, 0, 0, 0.125, -26.274578, 6.905657)">
            <path style="fill:#E0E0E0;" d="M495.6,216.4l-46,74.8c-7.2,11.2-23.6,20.8-36.8,20.8H99.6c-13.2,0-29.6-9.6-36.8-20.8l-46-74.4 L495.6,216.4z"/>
            <path d="M412.8,316H99.6c-14.4,0-32.4-10-40-22.8l-46-74.4c-1.2-2-0.4-4.4,1.2-5.6c2-1.2,4.4-0.4,5.6,1.2l46,74.4 c6.4,10.4,21.6,18.8,33.2,18.8h313.2c11.6,0,26.8-8.8,33.2-18.8l46-74.8c1.2-2,3.6-2.4,5.6-1.2c2,1.2,2.4,3.6,1.2,5.6l-46,74.8 C444.8,306,426.8,316,412.8,316z"/>
            <path d="M500,220h-36c-2.4,0-4-1.6-4-4s1.6-4,4-4h36c2,0,2.4-0.4,2.8-0.8c1.2-1.2,1.2-1.6,1.2-2.4c0-2.4-2-4.8-4-4.8H12 c-0.8,0-1.6,0.8-2.8,1.6c-0.8,0.8-1.2,2-1.2,3.2c0,2.8,3.2,3.2,4,3.2h416c2.4,0,4,1.6,4,4s-1.6,4-4,4H12c-6.8,0-12-4.8-12-11.2 c0-3.2,1.2-6.8,3.6-8.8c1.6-2,4.8-4,8.4-4h488c6.4,0,12,6,12,12.8c0,4-2,6.4-3.6,8C505.6,220,501.2,220,500,220z"/>
          </g>
        </g>
      </g>
    </g>
  </g>
  <g id="group-19" stroke-width="0" transform="matrix(2.653303, 0, 0, 2.653303, 95.046211, 13.341861)" style=""/>
  <g id="group-20" stroke-linecap="round" stroke-linejoin="round" transform="matrix(2.653303, 0, 0, 2.653303, 95.046211, 13.341861)" style=""/>
  <g id="group-21" transform="matrix(2.653303, 0, 0, 2.653303, 63.198769, 13.341861)" style="">
    <path d="M16.1315 3.71436C14.4172 3.71436 12.9029 4.57721 12 5.8915C11.0972 4.57721 9.58289 3.71436 7.86861 3.71436C5.10289 3.71436 2.85718 5.96007 2.85718 8.72578C2.85718 14.8344 12 20.3258 12 20.3258C12 20.3258 21.1429 14.8344 21.1429 8.72578C21.1429 5.96007 18.8972 3.71436 16.1315 3.71436Z" fill="url(#paint0_radial)"/>
    <path opacity="0.5" d="M18.2056 4.16016C20.9485 8.53158 18.4228 14.2687 15.3885 15.8973C12.0399 17.6973 9.74847 16.8516 5.00562 14.1602C7.70847 17.743 11.9999 20.3202 11.9999 20.3202C11.9999 20.3202 21.1428 14.8287 21.1428 8.72016C21.1428 6.6973 19.937 4.94873 18.2056 4.16016Z" fill="url(#paint1_radial)"/>
    <path opacity="0.5" d="M16.1315 3.71436C14.4172 3.71436 12.9029 4.57721 12 5.8915C11.0972 4.57721 9.58289 3.71436 7.86861 3.71436C5.10289 3.71436 2.85718 5.96007 2.85718 8.72578C2.85718 14.8344 12 20.3258 12 20.3258C12 20.3258 21.1429 14.8344 21.1429 8.72578C21.1429 5.96007 18.8972 3.71436 16.1315 3.71436Z" fill="url(#paint2_radial)"/>
    <path opacity="0.5" d="M16.1315 3.71436C14.4172 3.71436 12.9029 4.57721 12 5.8915C11.0972 4.57721 9.58289 3.71436 7.86861 3.71436C5.10289 3.71436 2.85718 5.96007 2.85718 8.72578C2.85718 14.8344 12 20.3258 12 20.3258C12 20.3258 21.1429 14.8344 21.1429 8.72578C21.1429 5.96007 18.8972 3.71436 16.1315 3.71436Z" fill="url(#paint3_radial)"/>
    <path opacity="0.24" d="M10.7486 5.74883C11.2514 6.93169 10.1371 8.5374 8.25714 9.33169C6.37714 10.126 4.45143 9.8174 3.94857 8.64026C3.44571 7.46312 4.56 5.85169 6.44 5.0574C8.32 4.26312 10.2457 4.56597 10.7486 5.74883Z" fill="url(#paint4_radial)"/>
    <path opacity="0.24" d="M16.8742 4.78885C17.5885 5.57742 17.1485 7.13742 15.8971 8.26885C14.6456 9.40028 13.0513 9.68028 12.3371 8.8917C11.6228 8.10313 12.0628 6.54313 13.3142 5.41171C14.5656 4.28028 16.1599 4.00028 16.8742 4.78885Z" fill="url(#paint5_radial)"/>
    <path opacity="0.32" d="M16.2229 5.04578C18.7372 5.90293 21.1372 9.61721 17.0801 14.2458C14.6515 17.0172 12.0001 18.4172 8.62866 17.8686C10.4515 19.3886 12.0058 20.3258 12.0058 20.3258C12.0058 20.3258 21.1487 14.8344 21.1487 8.72578C21.1429 5.96007 18.8972 3.71436 16.1315 3.71436C14.4172 3.71436 12.9029 4.57721 12.0001 5.8915C12.0001 5.8915 14.3829 4.41721 16.2229 5.04578Z" fill="url(#paint6_linear)"/>
    <defs>
      <radialGradient id="paint0_radial" cx="0" cy="0" r="1" gradientUnits="userSpaceOnUse" gradientTransform="translate(9.38479 8.34769) rotate(-29.408) scale(14.3064 11.3486)">
        <stop offset="0.2479" stop-color="#FF0000"/>
        <stop offset="0.8639" stop-color="#C20000"/>
      </radialGradient>
      <radialGradient id="paint1_radial" cx="0" cy="0" r="1" gradientUnits="userSpaceOnUse" gradientTransform="translate(9.7385 7.47018) rotate(-29.408) scale(12.3173 9.77078)">
        <stop offset="0.2479" stop-color="#FF0000"/>
        <stop offset="1" stop-color="#C20000"/>
      </radialGradient>
      <radialGradient id="paint2_radial" cx="0" cy="0" r="1" gradientUnits="userSpaceOnUse" gradientTransform="translate(9.38479 8.34769) rotate(-29.408) scale(14.3064 11.3486)">
        <stop stop-color="white" stop-opacity="0.25"/>
        <stop offset="1" stop-color="white" stop-opacity="0"/>
      </radialGradient>
      <radialGradient id="paint3_radial" cx="0" cy="0" r="1" gradientUnits="userSpaceOnUse" gradientTransform="translate(14.5277 13.2044) rotate(-26.296) scale(10.4431 5.16038)">
        <stop stop-color="#BD2719" stop-opacity="0.25"/>
        <stop offset="1" stop-color="#BD2719" stop-opacity="0"/>
      </radialGradient>
      <radialGradient id="paint4_radial" cx="0" cy="0" r="1" gradientUnits="userSpaceOnUse" gradientTransform="translate(7.34746 7.19453) rotate(-21.6908) scale(3.71252 2.30616)">
        <stop stop-color="white"/>
        <stop offset="1" stop-color="white" stop-opacity="0"/>
      </radialGradient>
      <radialGradient id="paint5_radial" cx="0" cy="0" r="1" gradientUnits="userSpaceOnUse" gradientTransform="translate(14.6004 6.84619) rotate(-40.7634) scale(3.07376 1.9095)">
        <stop stop-color="white"/>
        <stop offset="1" stop-color="white" stop-opacity="0"/>
      </radialGradient>
      <linearGradient id="paint6_linear" x1="13.8868" y1="26.8498" x2="15.6583" y2="2.96408" gradientUnits="userSpaceOnUse">
        <stop stop-color="#860805"/>
        <stop offset="1" stop-color="#BD2719" stop-opacity="0"/>
      </linearGradient>
    </defs>
  </g>
</svg>