<?xml version="1.0" encoding="utf-8"?>
<svg xmlns="http://www.w3.org/2000/svg" viewBox="-250 -250 500 500" width="500" height="500">
  <defs>
    <linearGradient id="g1" x1="0" x2="0" y1="0" y2="1">
      <stop offset="0" stop-color="#E9B308"/>
      <stop offset="1" stop-color="#FFE72F"/>
    </linearGradient>
  </defs>
  <g transform="matrix(1, 0, 0, 1, -401.55494, -171.540912)">
    <g transform="matrix(0.444444, 0, 0, 0.444444, 211.20493, 186.260914)" style="">
      <circle cx="45" cy="45" r="45" style="fill:#5f9c49"/>
      <path d="M71.9 36H54V18.1c0-5-4-9.1-9-9.1s-9 4.1-9 9.1V36H18.1c-5 0-9.1 4-9.1 9s4.1 9 9.1 9H36v17.9c0 5 4 9.1 9 9.1s9-4.1 9-9.1V54h17.9c5 0 9.1-4 9.1-9s-4.1-9-9.1-9z" style="fill:#fff"/>
    </g>
    <g transform="matrix(0.444444, 0, 0, 0.444444, 251.204961, 186.260914)" style="">
      <circle cx="45" cy="45" r="45" style="fill:black"/>
      <path d="M 71.9 36 L 18.1 36 C 13.1 36 9 40 9 45 C 9 50 13.1 54 18.1 54 L 71.9 54 C 76.9 54 81 50 81 45 C 81 40 76.9 36 71.9 36 Z" style="fill:#fff"/>
    </g>
    <g transform="matrix(0.444444, 0, 0, 0.444444, 211.20493, 226.26093)" style="">
      <circle cx="45" cy="45" r="45" style="fill:black"/>
      <path d="m57.2 45 12.2-12.2c3.4-3.4 3.4-8.9.1-12.3s-8.9-3.4-12.3 0L45 32.8 32.8 20.6c-3.4-3.4-8.9-3.4-12.3 0s-3.4 8.9 0 12.3L32.8 45 20.6 57.2c-3.4 3.4-3.4 8.9 0 12.3s8.9 3.4 12.3-.1L45 57.2l12.2 12.2c3.4 3.4 8.9 3.4 12.3.1 3.4-3.4 3.4-8.9-.1-12.3L57.2 45z" style="fill:#fff"/>
    </g>
    <g transform="matrix(0.444444, 0, 0, 0.444444, 251.204961, 226.26093)" style="">
      <circle cx="45" cy="45" r="45" style="fill:black"/>
      <path class="st0" d="M71.9 36H18.1c-5 0-9.1 4-9.1 9s4.1 9 9.1 9H72c5 0 9.1-4 9.1-9s-4.2-9-9.2-9z" style="fill: rgb(255, 255, 255);"/>
      <circle class="st0" cx="45" cy="18" r="9" style="fill: rgb(255, 255, 255);"/>
      <circle class="st0" cx="45" cy="72" r="9" style="fill: rgb(255, 255, 255);"/>
    </g>
  </g>
  <path fill="#59d185" d="M 104.792 -125.07 C 104.792 -122.62 102.803 -120.63 100.348 -120.63 L 87.014 -120.63 C 84.561 -120.63 82.57 -122.62 82.57 -125.07 L 82.57 -138.41 C 82.57 -140.86 84.561 -142.85 87.014 -142.85 L 100.348 -142.85 C 102.803 -142.85 104.792 -140.86 104.792 -138.41 L 104.792 -125.07 Z M 133.681 -125.07 C 133.681 -122.62 131.692 -120.63 129.237 -120.63 L 115.903 -120.63 C 113.45 -120.63 111.459 -122.62 111.459 -125.07 L 111.459 -138.41 C 111.459 -140.86 113.45 -142.85 115.903 -142.85 L 129.237 -142.85 C 131.692 -142.85 133.681 -140.86 133.681 -138.41 L 133.681 -125.07 Z M 162.57 -125.07 C 162.57 -122.62 160.581 -120.63 158.126 -120.63 L 144.792 -120.63 C 142.339 -120.63 140.348 -122.62 140.348 -125.07 L 140.348 -138.41 C 140.348 -140.86 142.339 -142.85 144.792 -142.85 L 158.126 -142.85 C 160.581 -142.85 162.57 -140.86 162.57 -138.41 L 162.57 -125.07 Z M 104.792 -96.183 C 104.792 -93.73 102.803 -91.739 100.348 -91.739 L 87.014 -91.739 C 84.561 -91.739 82.57 -93.73 82.57 -96.183 L 82.57 -109.52 C 82.57 -111.97 84.561 -113.96 87.014 -113.96 L 100.348 -113.96 C 102.803 -113.96 104.792 -111.97 104.792 -109.52 L 104.792 -96.183 Z M 133.681 -96.183 C 133.681 -93.73 131.692 -91.739 129.237 -91.739 L 115.903 -91.739 C 113.45 -91.739 111.459 -93.73 111.459 -96.183 L 111.459 -109.52 C 111.459 -111.97 113.45 -113.96 115.903 -113.96 L 129.237 -113.96 C 131.692 -113.96 133.681 -111.97 133.681 -109.52 L 133.681 -96.183 Z M 162.57 -96.183 C 162.57 -93.73 160.581 -91.739 158.126 -91.739 L 144.792 -91.739 C 142.339 -91.739 140.348 -93.73 140.348 -96.183 L 140.348 -109.52 C 140.348 -111.97 142.339 -113.96 144.792 -113.96 L 158.126 -113.96 C 160.581 -113.96 162.57 -111.97 162.57 -109.52 L 162.57 -96.183 Z M 104.792 -67.294 C 104.792 -64.841 102.803 -62.85 100.348 -62.85 L 87.014 -62.85 C 84.561 -62.85 82.57 -64.841 82.57 -67.294 L 82.57 -80.628 C 82.57 -83.083 84.561 -85.072 87.014 -85.072 L 100.348 -85.072 C 102.803 -85.072 104.792 -83.083 104.792 -80.628 L 104.792 -67.294 Z M 133.681 -67.294 C 133.681 -64.841 131.692 -62.85 129.237 -62.85 L 115.903 -62.85 C 113.45 -62.85 111.459 -64.841 111.459 -67.294 L 111.459 -80.628 C 111.459 -83.083 113.45 -85.072 115.903 -85.072 L 129.237 -85.072 C 131.692 -85.072 133.681 -83.083 133.681 -80.628 L 133.681 -67.294 Z M 162.57 -67.294 C 162.57 -64.841 160.581 -62.85 158.126 -62.85 L 144.792 -62.85 C 142.339 -62.85 140.348 -64.841 140.348 -67.294 L 140.348 -80.628 C 140.348 -83.083 142.339 -85.072 144.792 -85.072 L 158.126 -85.072 C 160.581 -85.072 162.57 -83.083 162.57 -80.628 L 162.57 -67.294 Z"/>
  <g transform="matrix(1.37931, 0, 0, 1.37931, -155.635471, -36.614804)">
    <path d="M 223.449 72.112 L 179.949 72.112 C 175.947 72.112 172.699 75.36 172.699 79.362 L 172.699 122.862 C 172.699 126.864 175.947 130.112 179.949 130.112 L 223.449 130.112 C 227.451 130.112 230.699 126.864 230.699 122.862 L 230.699 79.362 C 230.699 75.36 227.451 72.112 223.449 72.112 Z M 203.149 75.012 L 214.024 75.012 L 214.024 85.887 L 203.149 85.887 L 203.149 75.012 Z M 175.599 79.362 C 175.599 76.965 177.553 75.012 179.949 75.012 L 200.249 75.012 L 200.249 85.887 L 175.599 85.887 L 175.599 79.362 Z M 175.599 88.787 L 214.024 88.787 L 214.024 99.662 L 175.599 99.662 L 175.599 88.787 Z M 200.249 102.562 L 200.249 113.437 L 189.374 113.437 L 189.374 102.562 L 200.249 102.562 Z M 186.474 127.212 L 179.949 127.212 C 177.553 127.212 175.599 125.258 175.599 122.862 L 175.599 116.337 L 186.474 116.337 L 186.474 127.212 Z M 186.474 113.437 L 175.599 113.437 L 175.599 102.562 L 186.474 102.562 L 186.474 113.437 Z M 227.799 122.862 C 227.799 125.258 225.846 127.212 223.449 127.212 L 189.374 127.212 L 189.374 116.337 L 227.799 116.337 L 227.799 122.862 Z M 227.799 113.437 L 203.149 113.437 L 203.149 102.562 L 227.799 102.562 L 227.799 113.437 Z M 227.799 99.662 L 216.924 99.662 L 216.924 88.787 L 227.799 88.787 L 227.799 99.662 Z M 227.799 85.887 L 216.924 85.887 L 216.924 75.012 L 223.449 75.012 C 225.846 75.012 227.799 76.965 227.799 79.362 L 227.799 85.887 Z" fill="black"/>
    <path d="M 186.474 116.337 L 186.474 127.212 L 179.949 127.212 C 177.553 127.212 175.599 125.258 175.599 122.862 L 175.599 116.337 L 186.474 116.337 Z" fill="white"/>
    <path d="M 200.249 102.562 L 189.374 102.562 L 189.374 113.437 L 200.249 113.437 L 200.249 102.562 Z" fill="white"/>
    <path d="M 227.799 88.787 L 216.924 88.787 L 216.924 99.662 L 227.799 99.662 L 227.799 88.787 Z" fill="white"/>
    <path d="M 214.024 75.012 L 203.149 75.012 L 203.149 85.887 L 214.024 85.887 L 214.024 75.012 Z" fill="white"/>
    <path d="M 227.799 79.362 L 227.799 85.887 L 216.924 85.887 L 216.924 75.012 L 223.449 75.012 C 225.846 75.012 227.799 76.965 227.799 79.362 Z" fill="#BC70C4"/>
    <path d="M 186.474 102.562 L 175.599 102.562 L 175.599 113.437 L 186.474 113.437 L 186.474 102.562 Z" fill="#BC70C4"/>
    <path d="M 227.799 116.337 L 227.799 122.862 C 227.799 125.258 225.846 127.212 223.449 127.212 L 189.374 127.212 L 189.374 116.337 L 227.799 116.337 Z" fill="#BC70C4"/>
    <path d="M 227.799 102.562 L 203.149 102.562 L 203.149 113.437 L 227.799 113.437 L 227.799 102.562 Z" fill="#BC70C4"/>
    <path d="M 214.024 88.787 L 175.599 88.787 L 175.599 99.662 L 214.024 99.662 L 214.024 88.787 Z" fill="#BC70C4"/>
    <path d="M 200.249 75.012 L 200.249 85.887 L 175.599 85.887 L 175.599 79.362 C 175.599 76.965 177.553 75.012 179.949 75.012 L 200.249 75.012 Z" fill="#BC70C4"/>
  </g>
  <g transform="matrix(1, 0, 0, 1, -225.301, -137.188998)">
    <path d="M 349.764 107.082 L 349.764 122.202 L 370.572 122.202 L 370.572 101.624 L 355.222 101.624 C 353.775 101.624 352.384 102.2 351.362 103.222 C 350.34 104.245 349.764 105.636 349.764 107.082 Z" fill="white"/>
    <path d="M 400.085 172.699 L 415.38 172.699 C 415.735 172.694 416.085 172.657 416.431 172.588 C 417.471 172.367 418.429 171.851 419.185 171.096 C 420.207 170.073 420.783 168.687 420.783 167.241 L 420.783 151.904 L 400.085 151.904 L 400.085 172.699 Z" fill="white"/>
    <path d="M 395.88 151.904 L 374.791 151.904 L 374.791 172.699 L 395.88 172.699 L 395.88 151.904 Z" fill="white"/>
    <path d="M 420.824 126.421 L 400.085 126.421 L 400.085 147.51 L 420.824 147.51 L 420.824 126.421 Z" fill="white"/>
    <path d="M 395.88 101.624 L 374.791 101.624 L 374.791 122.202 L 395.88 122.202 L 395.88 101.624 Z" fill="white"/>
    <path d="M 370.572 126.421 L 349.764 126.421 L 349.764 147.51 L 370.572 147.51 L 370.572 126.421 Z" fill="white"/>
    <path d="M 423.445 101.343 C 423.049 100.809 422.602 100.316 422.1 99.879 C 420.419 98.285 418.231 97.332 415.919 97.189 C 415.717 97.189 415.528 97.189 415.33 97.189 L 355.222 97.189 C 355.019 97.189 354.83 97.189 354.632 97.189 C 352.108 97.332 349.736 98.437 348.004 100.275 C 346.268 102.112 345.301 104.54 345.301 107.068 L 345.301 167.255 C 345.306 169.88 346.351 172.399 348.207 174.255 C 350.063 176.111 352.582 177.157 355.208 177.161 L 415.394 177.161 C 418.024 177.152 420.539 176.107 422.395 174.246 C 424.251 172.385 425.296 169.866 425.301 167.241 L 425.301 107.082 C 425.296 105.023 424.647 103.015 423.445 101.343 Z M 370.572 147.496 L 349.764 147.496 L 349.764 126.421 L 370.572 126.421 L 370.572 147.496 Z M 370.572 122.202 L 349.764 122.202 L 349.764 107.082 C 349.764 105.636 350.34 104.245 351.362 103.222 C 352.384 102.2 353.775 101.624 355.222 101.624 L 370.572 101.624 L 370.572 122.202 Z M 395.88 172.699 L 374.763 172.699 L 374.763 151.904 L 395.88 151.904 L 395.88 172.699 Z M 395.88 122.202 L 374.763 122.202 L 374.763 101.624 L 395.88 101.624 L 395.88 122.202 Z M 420.838 167.241 C 420.834 168.687 420.262 170.073 419.24 171.1 C 418.471 171.86 417.494 172.376 416.431 172.588 C 416.067 172.662 415.698 172.699 415.33 172.699 L 400.085 172.699 L 400.085 151.904 L 420.838 151.904 L 420.838 167.241 Z M 420.838 147.496 L 400.085 147.496 L 400.085 126.421 L 420.838 126.421 L 420.838 147.496 Z" fill="black"/>
  </g>
  <g transform="matrix(1, 0, 0, 1, -247.196004, -257.36701)">
    <path d="M 305.063 379.4 L 278.179 379.4 L 310.572 411.793 L 310.572 384.909 C 310.581 384.186 310.443 383.462 310.167 382.79 C 309.895 382.122 309.49 381.51 308.974 380.998 C 308.463 380.482 307.85 380.077 307.182 379.805 C 306.51 379.529 305.787 379.391 305.063 379.4 Z" fill="#6493E6"/>
    <path d="M 310.521 445.02 L 310.521 417.68 L 277.723 450.478 L 305.063 450.478 C 305.787 450.488 306.51 450.363 307.187 450.101 C 308.182 449.677 309.029 448.968 309.619 448.065 C 310.213 447.157 310.526 446.098 310.521 445.02 Z" fill="#6493E6"/>
    <path d="M 239.443 384.853 L 239.443 411.83 L 271.878 379.4 L 244.901 379.4 C 243.459 379.418 242.082 379.999 241.064 381.021 C 240.042 382.039 239.462 383.416 239.443 384.853 Z" fill="#6493E6"/>
    <path d="M 239.443 445.02 C 239.443 446.467 240.019 447.853 241.041 448.88 C 242.064 449.903 243.45 450.478 244.901 450.478 L 272.279 450.478 L 239.443 417.638 L 239.443 445.02 Z" fill="#6493E6"/>
    <path d="M 274.996 382.601 L 259.769 397.828 L 274.996 413.055 L 290.219 397.828 L 274.996 382.601 Z" fill="white"/>
    <path d="M 274.996 416.422 L 259.769 431.649 L 274.996 446.872 L 290.223 431.649 L 274.996 416.422 Z" fill="white"/>
    <path d="M 305.063 374.937 L 244.901 374.937 C 242.271 374.937 239.747 375.978 237.891 377.839 C 236.03 379.695 234.985 382.214 234.98 384.844 L 234.98 445.034 C 234.985 447.66 236.026 450.174 237.886 452.035 C 239.742 453.891 242.257 454.937 244.887 454.937 L 305.077 454.937 C 307.703 454.932 310.222 453.882 312.078 452.026 C 313.934 450.165 314.98 447.646 314.98 445.02 L 314.98 384.853 C 314.98 382.223 313.934 379.704 312.074 377.843 C 310.213 375.987 307.693 374.941 305.063 374.937 Z M 274.996 382.597 L 290.223 397.828 L 274.996 413.055 L 259.764 397.828 L 274.996 382.597 Z M 239.443 384.853 C 239.462 383.416 240.042 382.039 241.064 381.021 C 242.082 379.999 243.459 379.418 244.901 379.4 L 271.878 379.4 L 239.443 411.83 L 239.443 384.853 Z M 272.279 450.478 L 244.901 450.478 C 243.45 450.478 242.064 449.903 241.041 448.875 C 240.019 447.853 239.443 446.467 239.443 445.02 L 239.443 417.638 L 272.279 450.478 Z M 274.968 446.872 L 259.778 431.659 L 274.996 416.496 L 290.223 431.659 L 274.996 446.872 L 274.968 446.872 Z M 310.494 445.02 C 310.503 446.098 310.194 447.153 309.605 448.056 C 309.015 448.963 308.177 449.672 307.187 450.101 C 306.514 450.382 305.791 450.524 305.063 450.529 L 277.723 450.529 L 310.521 417.735 L 310.494 445.02 Z M 310.494 411.793 L 278.128 379.4 L 305.008 379.4 C 306.454 379.4 307.845 379.971 308.868 380.998 C 309.89 382.021 310.466 383.407 310.466 384.853 L 310.494 411.793 Z" fill="black"/>
    <path d="M 305.063 379.4 C 306.51 379.4 307.896 379.971 308.923 380.998 C 309.946 382.021 310.521 383.407 310.521 384.853 L 310.521 411.738 L 310.521 384.853 C 310.521 383.407 309.946 382.021 308.923 380.998 C 307.896 379.971 306.51 379.4 305.063 379.4 Z" fill="black"/>
    <path d="M 310.521 445.02 C 310.526 446.098 310.213 447.157 309.619 448.065 C 309.029 448.968 308.182 449.677 307.187 450.101 C 308.172 449.682 309.015 448.977 309.605 448.088 C 310.199 447.194 310.517 446.144 310.521 445.071 L 310.521 417.68 L 310.521 445.02 Z" fill="black"/>
    <path d="M 271.878 379.4 L 239.443 411.83 L 271.878 379.4 L 244.901 379.4 C 244.04 379.405 243.197 379.616 242.437 380.017 C 243.197 379.616 244.04 379.405 244.901 379.4 L 271.878 379.4 Z" fill="black"/>
    <path d="M 239.443 417.638 L 272.279 450.478 L 239.443 417.638 Z" fill="black"/>
    <path d="M 275.01 413.055 L 290.237 397.828 L 275.01 382.597 L 290.223 397.828 L 275.01 413.055 Z" fill="black"/>
    <path d="M 290.223 431.645 L 275.01 416.431 L 290.223 431.645 L 275.01 446.872 L 290.223 431.645 Z" fill="black"/>
  </g>
  <g transform="matrix(1, 0, 0, 1, -260.649023, -223.146031)">
    <rect fill="#919191" x="140.649" y="321.706" width="40" height="40"/>
    <rect fill="#00cf85" x="180.649" y="321.706" width="40" height="40"/>
    <rect fill="#00cf85" x="140.649" y="361.706" width="40" height="40"/>
    <rect fill="#fdcc04" x="180.649" y="361.706" width="40" height="40"/>
  </g>
  <g transform="matrix(2, 0, 0, 2, -775.255998, -917.142048)">
    <rect fill="#919191" x="292.453" y="411.211" width="20" height="20"/>
    <rect fill="#00cf85" x="312.453" y="411.211" width="20" height="20"/>
    <rect fill="#00cf85" x="292.453" y="431.211" width="20" height="20"/>
    <rect fill="#fdcc04" x="312.453" y="431.211" width="20" height="20"/>
    <path d="M 302.453 421.211 L 322.453 441.211" stroke-width="3" stroke="#f00"/>
    <path d="M 322.453 421.211 L 302.453 441.211" stroke-width="3" stroke="#f00"/>
  </g>
  <g transform="matrix(1, 0, 0, 1, -254.054998, -485.048014)">
    <rect fill="#919191" x="241.835" y="287.478" width="40" height="40"/>
    <rect fill="#00cf85" x="281.835" y="287.478" width="40" height="40"/>
    <rect fill="#00cf85" x="241.835" y="327.478" width="40" height="40"/>
    <rect fill="#fdcc04" x="281.835" y="327.478" width="40" height="40"/>
    <circle fill="#fff" cx="261.835" cy="307.478" r="8"/>
    <circle fill="#fff" cx="301.835" cy="307.478" r="8"/>
    <circle fill="#fff" cx="261.835" cy="347.478" r="8"/>
    <circle fill="#fff" cx="301.835" cy="347.478" r="8"/>
    <path d="M 261.835 307.478 L 301.835 307.478 L 261.835 347.478 L 301.835 347.478" stroke-width="3" stroke="#fff" style="fill: none;"/>
  </g>
  <g transform="matrix(1, 0, 0, 1, -453.121012, -342.305)">
    <path d="M 333.121 163.745 L 413.121 163.745 L 373.121 243.745 L 333.121 163.745 Z" fill="url(#g1)"/>
    <text text-anchor="middle" x="371.121" y="207.745" class="t" style="white-space: pre; fill: rgb(55, 65, 81); font-family: sans-serif; font-style: italic; font-weight: 900; line-height: normal; perspective-origin: 13.7674px 14.6875px; font-size: 32px;">T</text>
  </g>
  <g transform="matrix(1, 0, 0, 1, -135.576999, -70.8985)">
    <path d="M 150.247 58.072 L 150.233 58.072 L 150.233 58.086 L 150.247 58.086 L 150.247 58.072 Z" fill="#7FA768"/>
    <path d="M 150.233 60.116 L 150.233 107.791 L 167.533 107.791 C 170.13 107.791 172.241 105.707 172.241 103.137 L 172.241 83.86 L 172.241 60.224 L 150.233 60.116 Z" fill="#6AAA64"/>
    <path d="M 171.475 39.387 L 171.475 56.176 L 150.26 56.081 L 150.355 34.84 L 166.928 34.84 C 169.43 34.84 171.475 36.885 171.475 39.387 Z" fill="white"/>
    <path d="M 147.408 84.506 L 147.408 107.764 L 124.365 107.764 L 124.365 84.398 L 147.408 84.506 Z" fill="#6AAA64"/>
    <path d="M 147.731 58.624 L 147.61 82.743 L 123.517 82.609 L 123.624 58.529 L 147.731 58.624 Z" fill="#D1B036"/>
    <path d="M 146.319 34.84 L 146.224 56.054 L 124.984 55.973 L 124.984 34.84 L 146.319 34.84 Z" fill="white"/>
    <path d="M 122.67 84.277 L 122.67 107.886 L 104.079 107.886 C 101.308 107.886 99.048 105.626 99.048 102.855 L 99.048 84.277 L 122.67 84.277 Z" fill="#6AAA64"/>
    <path d="M 120.934 60.116 L 120.826 81.331 L 99.545 81.331 L 99.545 60.116 L 120.934 60.116 Z" fill="white"/>
    <path d="M 120.948 34.84 L 120.948 56.081 L 99.545 56.081 L 99.545 39.387 C 99.545 36.885 101.589 34.84 104.106 34.84 L 120.948 34.84 Z" fill="white"/>
    <path d="M 166.994 30.898 L 104.172 30.898 C 99.437 30.898 95.577 34.745 95.577 39.481 L 95.577 102.303 C 95.577 107.038 99.437 110.899 104.172 110.899 L 166.994 110.899 C 171.73 110.899 175.577 107.038 175.577 102.303 L 175.577 39.481 C 175.577 34.76 171.73 30.898 166.994 30.898 Z M 150.301 58.179 L 150.314 58.179 L 150.314 58.193 L 150.301 58.193 L 150.301 58.179 Z M 99.625 60.224 L 121.015 60.224 L 120.907 81.439 L 99.625 81.439 L 99.625 60.224 Z M 121.015 106.876 L 104.172 106.876 C 101.657 106.876 99.613 104.832 99.613 102.317 L 99.613 85.46 L 121.015 85.46 L 121.015 106.876 Z M 121.015 56.188 L 99.625 56.188 L 99.625 39.481 C 99.625 36.978 101.67 34.934 104.186 34.934 L 121.029 34.934 L 121.029 56.188 L 121.015 56.188 Z M 146.265 106.876 L 125.05 106.876 L 125.05 85.367 L 146.265 85.475 L 146.265 106.876 Z M 146.158 81.425 L 124.943 81.317 L 125.037 60.104 L 146.265 60.184 L 146.158 81.425 Z M 146.292 56.161 L 125.05 56.081 L 125.05 34.934 L 146.386 34.934 L 146.292 56.161 Z M 171.541 102.317 C 171.541 104.832 169.497 106.876 166.994 106.876 L 150.301 106.876 L 150.301 85.46 L 171.541 85.46 L 171.541 102.317 Z M 171.541 81.425 L 150.206 81.425 L 150.301 60.211 L 171.541 60.305 L 171.541 81.425 Z M 171.541 56.283 L 150.328 56.188 L 150.421 34.948 L 166.994 34.948 C 169.497 34.948 171.541 36.993 171.541 39.495 L 171.541 56.283 Z" fill="black"/>
  </g>
</svg>