<?xml version="1.0" encoding="utf-8"?>
<svg width="180px" height="180px" viewBox="0 0 180 180" fill="none" xmlns="http://www.w3.org/2000/svg" xmlns:bx="https://boxy-svg.com">
  <g transform="matrix(1, 0, 0, 1, -30.137257, -30.137257)">
    <g style="" transform="matrix(1.075555, 0, 0, 1.075555, -13.599872, -13.599872)">
      <g style="" transform="matrix(0.618417, 0, 0, 0.618417, 68.6849, 68.6849)">
        <circle cx="45" cy="45" r="45" style="fill:#5f9c49"/>
        <path d="M71.9 36H54V18.1c0-5-4-9.1-9-9.1s-9 4.1-9 9.1V36H18.1c-5 0-9.1 4-9.1 9s4.1 9 9.1 9H36v17.9c0 5 4 9.1 9 9.1s9-4.1 9-9.1V54h17.9c5 0 9.1-4 9.1-9s-4.1-9-9.1-9z" style="fill:#fff"/>
      </g>
      <g transform="matrix(0.618417, 0, 0, 0.618417, 124.342456, 68.6849)" style="">
        <circle cx="45" cy="45" r="45" style="fill:black"/>
        <path d="M 71.9 36 L 18.1 36 C 13.1 36 9 40 9 45 C 9 50 13.1 54 18.1 54 L 71.9 54 C 76.9 54 81 50 81 45 C 81 40 76.9 36 71.9 36 Z" style="fill:#fff"/>
      </g>
      <g transform="matrix(0.618417, 0, 0, 0.618417, 68.6849, 124.342456)" style="">
        <circle cx="45" cy="45" r="45" style="fill:black"/>
        <path d="m57.2 45 12.2-12.2c3.4-3.4 3.4-8.9.1-12.3s-8.9-3.4-12.3 0L45 32.8 32.8 20.6c-3.4-3.4-8.9-3.4-12.3 0s-3.4 8.9 0 12.3L32.8 45 20.6 57.2c-3.4 3.4-3.4 8.9 0 12.3s8.9 3.4 12.3-.1L45 57.2l12.2 12.2c3.4 3.4 8.9 3.4 12.3.1 3.4-3.4 3.4-8.9-.1-12.3L57.2 45z" style="fill:#fff"/>
      </g>
      <g transform="matrix(0.618417, 0, 0, 0.618417, 124.342456, 124.342456)" style="">
        <circle cx="45" cy="45" r="45" style="fill:black"/>
        <style>.st0{fill:#fff}</style>
        <path class="st0" d="M71.9 36H18.1c-5 0-9.1 4-9.1 9s4.1 9 9.1 9H72c5 0 9.1-4 9.1-9s-4.2-9-9.2-9z"/>
        <circle class="st0" cx="45" cy="18" r="9"/>
        <circle class="st0" cx="45" cy="72" r="9"/>
      </g>
    </g>
  </g>
  <g style="" transform="matrix(1.224384, 0, 0, 1.224384, -20.194561, -20.193945)">
    <path d="M 90 37.594 L 103.622 76.783 L 145.102 77.628 L 112.041 102.694 L 124.055 142.405 L 90 118.707 L 55.945 142.405 L 67.959 102.694 L 34.898 77.628 L 76.378 76.783 Z" bx:shape="star 90 95.532 57.938 57.938 0.4 5 1@06099e12" style="stroke: rgb(0, 0, 0); fill: rgb(229, 217, 95);"/>
    <text style="fill: rgb(51, 51, 51); font-family: Arial, sans-serif; font-size: 40px; font-weight: 700; white-space: pre;" x="67.754" y="110.862">20</text>
  </g>
</svg>