<?xml version="1.0" encoding="utf-8"?>
<svg width="81" height="81" viewBox="3 1 60 60" fill="none" xmlns="http://www.w3.org/2000/svg">
  <text style="fill: rgb(51, 51, 51); font-family: Arial; font-size: 15.5px; white-space: pre;" x="20.07" y="54.356">500</text>
  <g transform="matrix(0.174537, 0, 0, 0.174537, 17.295515, 10.123627)" style="">
    <g transform="matrix(1.004948, 0, 0, 1.004948, -0.467352, 0.073998)" style="">
      <circle cx="45" cy="45" r="45" style="fill:#5f9c49"/>
      <path d="M71.9 36H54V18.1c0-5-4-9.1-9-9.1s-9 4.1-9 9.1V36H18.1c-5 0-9.1 4-9.1 9s4.1 9 9.1 9H36v17.9c0 5 4 9.1 9 9.1s9-4.1 9-9.1V54h17.9c5 0 9.1-4 9.1-9s-4.1-9-9.1-9z" style="fill:#fff"/>
    </g>
    <g transform="matrix(1.004948, 0, 0, 1.004948, 89.977976, 0.073998)" style="">
      <circle cx="45" cy="45" r="45" style="fill:black"/>
      <path d="M 71.9 36 L 18.1 36 C 13.1 36 9 40 9 45 C 9 50 13.1 54 18.1 54 L 71.9 54 C 76.9 54 81 50 81 45 C 81 40 76.9 36 71.9 36 Z" style="fill:#fff"/>
    </g>
    <g transform="matrix(1.004948, 0, 0, 1.004948, -0.467352, 90.519365)" style="">
      <circle cx="45" cy="45" r="45" style="fill:black"/>
      <path d="m57.2 45 12.2-12.2c3.4-3.4 3.4-8.9.1-12.3s-8.9-3.4-12.3 0L45 32.8 32.8 20.6c-3.4-3.4-8.9-3.4-12.3 0s-3.4 8.9 0 12.3L32.8 45 20.6 57.2c-3.4 3.4-3.4 8.9 0 12.3s8.9 3.4 12.3-.1L45 57.2l12.2 12.2c3.4 3.4 8.9 3.4 12.3.1 3.4-3.4 3.4-8.9-.1-12.3L57.2 45z" style="fill:#fff"/>
    </g>
    <g transform="matrix(1.004948, 0, 0, 1.004948, 89.977976, 90.519365)" style="">
      <circle cx="45" cy="45" r="45" style="fill:black"/>
      <path class="st0" d="M71.9 36H18.1c-5 0-9.1 4-9.1 9s4.1 9 9.1 9H72c5 0 9.1-4 9.1-9s-4.2-9-9.2-9z" style="fill: rgb(255, 255, 255);"/>
      <circle class="st0" cx="45" cy="18" r="9" style="fill: rgb(255, 255, 255);"/>
      <circle class="st0" cx="45" cy="72" r="9" style="fill: rgb(255, 255, 255);"/>
    </g>
  </g>
</svg>