<?xml version="1.0" encoding="utf-8"?>
<svg width="81" height="81" viewBox="3 1 60 60" fill="none" xmlns="http://www.w3.org/2000/svg">
  <text style="fill: rgb(51, 51, 51); font-family: Arial; font-size: 5px; white-space: pre;" x="27.167" y="28.593">WED</text>
  <g style="stroke: rgb(0, 0, 0); fill: rgb(0, 0, 0);" transform="matrix(0.068429, 0, 0, 0.068429, 12.46747, 9.570835)">
    <g>
      <g>
        <path d="M4.549,110.703v430.77c0,32.059,26.082,58.141,58.14,58.141h474.737c32.057,0,58.139-26.082,58.139-58.141v-430.77 c0-32.059-26.082-58.14-58.139-58.14h-59.838V21.92c0-11.83-9.59-21.42-21.42-21.42s-21.42,9.59-21.42,21.42v30.642H165.366 V21.92c0-11.83-9.59-21.42-21.42-21.42s-21.42,9.59-21.42,21.42v30.642H62.689C30.63,52.563,4.549,78.645,4.549,110.703z M552.725,541.473c0,8.449-6.85,15.301-15.299,15.301H62.688c-8.45,0-15.3-6.852-15.3-15.301V207.399h505.336V541.473 L552.725,541.473z M143.946,141.266c11.83,0,21.42-9.59,21.42-21.42V95.403h269.382v24.443c0,11.83,9.59,21.42,21.42,21.42 s21.42-9.59,21.42-21.42V95.403h59.838c8.449,0,15.299,6.85,15.299,15.3v53.856H47.389v-53.856c0-8.451,6.85-15.3,15.3-15.3 h59.836v24.443C122.526,131.676,132.115,141.266,143.946,141.266z"/>
        <path d="M537.426,600.113H62.688c-32.334,0-58.64-26.306-58.64-58.641v-430.77c0-32.334,26.306-58.64,58.641-58.641h59.336V21.92 c0-12.087,9.833-21.92,21.92-21.92s21.92,9.833,21.92,21.92v30.142h268.382V21.92c0-12.087,9.833-21.92,21.92-21.92 s21.92,9.833,21.92,21.92v30.143h59.338c32.333,0,58.639,26.306,58.639,58.64v430.77 C596.064,573.808,569.759,600.113,537.426,600.113z M62.689,53.062c-31.783,0-57.641,25.858-57.641,57.641v430.77 c0,31.783,25.857,57.641,57.64,57.641h474.737c31.782,0,57.639-25.857,57.639-57.641v-430.77c0-31.783-25.856-57.64-57.639-57.64 h-60.338V21.92c0-11.536-9.385-20.92-20.92-20.92s-20.92,9.385-20.92,20.92v31.142H164.866V21.92 c0-11.536-9.385-20.92-20.92-20.92s-20.92,9.385-20.92,20.92v31.142H62.689z M537.426,557.273H62.688 c-8.712,0-15.8-7.088-15.8-15.801V206.899h506.336v334.574C553.225,550.186,546.138,557.273,537.426,557.273z M47.889,207.899 v333.574c0,8.161,6.639,14.801,14.8,14.801h474.737c8.16,0,14.799-6.64,14.799-14.801V207.899H47.889z M553.225,165.059H46.889 v-54.356c0-8.712,7.088-15.8,15.8-15.8h60.336v24.943c0.001,11.535,9.386,20.92,20.921,20.92c11.535,0,20.92-9.385,20.92-20.92 V94.903h270.382v24.943c0,11.535,9.385,20.92,20.92,20.92s20.92-9.385,20.92-20.92V94.903h60.338 c8.712,0,15.799,7.088,15.799,15.8V165.059z M47.889,164.059h504.336v-53.356c0-8.161-6.639-14.8-14.799-14.8h-59.338v23.943 c0,12.087-9.833,21.92-21.92,21.92s-21.92-9.833-21.92-21.92V95.903H165.866v23.943c0,12.087-9.833,21.92-21.92,21.92 c-12.086,0-21.92-9.833-21.921-21.92V95.903H62.688c-8.161,0-14.8,6.639-14.8,14.8V164.059z"/>
      </g>
    </g>
  </g>
  <g transform="matrix(0.576752, 0, 0, 0.576752, 14.015342, 23.86095)" style="">
    <path d="M 19.802 13.855 L 19.802 19.437 L 27.481 19.437 L 27.481 11.843 L 21.816 11.843 C 21.282 11.843 20.769 12.054 20.392 12.433 C 20.014 12.81 19.802 13.321 19.802 13.855 Z" fill="white" style=""/>
    <path d="M 38.373 38.07 L 44.017 38.07 C 44.148 38.069 44.277 38.057 44.405 38.031 C 44.789 37.95 45.142 37.758 45.421 37.481 C 45.798 37.103 46.011 36.592 46.011 36.058 L 46.011 30.398 L 38.373 30.398 L 38.373 38.07 Z" fill="white" style=""/>
    <path d="M 36.821 30.398 L 29.038 30.398 L 29.038 38.07 L 36.821 38.07 L 36.821 30.398 Z" fill="white" style=""/>
    <path d="M 46.026 20.994 L 38.373 20.994 L 38.373 28.777 L 46.026 28.777 L 46.026 20.994 Z" fill="white" style=""/>
    <path d="M 36.821 11.843 L 29.038 11.843 L 29.038 19.437 L 36.821 19.437 L 36.821 11.843 Z" fill="white" style=""/>
    <path d="M 27.481 20.994 L 19.802 20.994 L 19.802 28.777 L 27.481 28.777 L 27.481 20.994 Z" fill="white" style=""/>
    <path d="M 46.993 11.737 C 46.847 11.54 46.681 11.36 46.497 11.197 C 45.877 10.609 45.069 10.259 44.216 10.206 C 44.141 10.206 44.072 10.206 43.998 10.206 L 21.816 10.206 C 21.741 10.206 21.672 10.206 21.597 10.206 C 20.667 10.259 19.792 10.667 19.151 11.343 C 18.512 12.021 18.155 12.919 18.155 13.852 L 18.155 36.063 C 18.157 37.032 18.543 37.96 19.227 38.647 C 19.912 39.332 20.842 39.717 21.811 39.717 L 44.022 39.717 C 44.993 39.716 45.921 39.328 46.606 38.643 C 47.291 37.956 47.677 37.027 47.678 36.058 L 47.678 13.855 C 47.677 13.095 47.437 12.356 46.993 11.737 Z M 27.481 28.771 L 19.802 28.771 L 19.802 20.994 L 27.481 20.994 L 27.481 28.771 Z M 27.481 19.437 L 19.802 19.437 L 19.802 13.855 C 19.802 13.321 20.014 12.81 20.392 12.433 C 20.769 12.055 21.282 11.843 21.816 11.843 L 27.481 11.843 L 27.481 19.437 Z M 36.821 38.072 L 29.028 38.072 L 29.028 30.398 L 36.821 30.398 L 36.821 38.072 Z M 36.821 19.437 L 29.028 19.437 L 29.028 11.843 L 36.821 11.843 L 36.821 19.437 Z M 46.031 36.058 C 46.03 36.592 45.817 37.103 45.441 37.481 C 45.156 37.763 44.796 37.953 44.405 38.031 C 44.27 38.057 44.134 38.07 43.998 38.072 L 38.373 38.072 L 38.373 30.398 L 46.031 30.398 L 46.031 36.058 Z M 46.031 28.771 L 38.373 28.771 L 38.373 20.994 L 46.031 20.994 L 46.031 28.771 Z" fill="black" style=""/>
  </g>
</svg>