<?xml version="1.0" encoding="utf-8"?>
<svg width="800px" height="800px" viewBox="0 0 16 16" xmlns="http://www.w3.org/2000/svg" fill="#000000" class="bi bi-stopwatch-fill">
  <path d="M 6.5 0 C 6.115 0 5.875 0.417 6.067 0.75 C 6.156 0.905 7 1 7 1 L 7 2.07 C 1.666 2.841 -0.833 9.097 2.502 13.331 C 3.829 15.016 5.855 16 8 16 C 13.389 16 16.756 10.166 14.062 5.5 C 13.839 5.115 13.581 4.752 13.29 4.416 C 13.294 4.412 13.299 4.408 13.303 4.404 L 13.657 4.05 L 14.01 4.404 C 14.277 4.681 14.744 4.564 14.85 4.194 C 14.901 4.017 14.85 3.825 14.717 3.697 L 13.303 2.282 C 13.036 2.005 12.569 2.122 12.463 2.492 C 12.412 2.669 12.463 2.861 12.596 2.989 L 12.95 3.343 L 12.596 3.697 C 12.592 3.701 12.588 3.705 12.584 3.709 C 11.572 2.83 10.327 2.261 9 2.071 L 9 1 L 9.5 1 C 9.885 1 10.125 0.583 9.933 0.25 C 9.844 0.095 9.679 0 9.5 0 L 6.5 0 Z"/>
  <path style="fill:#00ff33" d="M 0.013 0 C 0.014 0 0.015 0.001 0.015 0.002 L 0.015 0.013 C 0.015 0.014 0.014 0.015 0.013 0.015 L 0.002 0.015 C 0.001 0.015 0 0.014 0 0.013 L 0 0.002 C 0 0.001 0.001 0 0.002 0 L 0.013 0 Z M 0.013 0.03 C 0.014 0.03 0.015 0.03 0.015 0.032 L 0.015 0.042 C 0.015 0.043 0.014 0.044 0.013 0.044 L 0.002 0.044 C 0.001 0.044 0 0.043 0 0.042 L 0 0.032 C 0 0.03 0.001 0.03 0.002 0.03 L 0.013 0.03 Z" fill-rule="evenodd"/>
  <g transform="matrix(0.155874, 0, 0, 0.155874, 2.859247, 7.836616)" style="">
    <path d="M 19.802 13.855 L 19.802 19.437 L 27.481 19.437 L 27.481 11.843 L 21.816 11.843 C 21.282 11.843 20.769 12.054 20.392 12.433 C 20.014 12.81 19.802 13.321 19.802 13.855 Z" fill="white" style=""/>
    <path d="M 38.373 38.07 L 44.017 38.07 C 44.148 38.069 44.277 38.057 44.405 38.031 C 44.789 37.95 45.142 37.758 45.421 37.481 C 45.798 37.103 46.011 36.592 46.011 36.058 L 46.011 30.398 L 38.373 30.398 L 38.373 38.07 Z" fill="white" style=""/>
    <path d="M 36.821 30.398 L 29.038 30.398 L 29.038 38.07 L 36.821 38.07 L 36.821 30.398 Z" fill="white" style=""/>
    <path d="M 46.026 20.994 L 38.373 20.994 L 38.373 28.777 L 46.026 28.777 L 46.026 20.994 Z" fill="white" style=""/>
    <path d="M 36.821 11.843 L 29.038 11.843 L 29.038 19.437 L 36.821 19.437 L 36.821 11.843 Z" fill="white" style=""/>
    <path d="M 27.481 20.994 L 19.802 20.994 L 19.802 28.777 L 27.481 28.777 L 27.481 20.994 Z" fill="white" style=""/>
    <path d="M 46.993 11.737 C 46.847 11.54 46.681 11.36 46.497 11.197 C 45.877 10.609 45.069 10.259 44.216 10.206 C 44.141 10.206 44.072 10.206 43.998 10.206 L 21.816 10.206 C 21.741 10.206 21.672 10.206 21.597 10.206 C 20.667 10.259 19.792 10.667 19.151 11.343 C 18.512 12.021 18.155 12.919 18.155 13.852 L 18.155 36.063 C 18.157 37.032 18.543 37.96 19.227 38.647 C 19.912 39.332 20.842 39.717 21.811 39.717 L 44.022 39.717 C 44.993 39.716 45.921 39.328 46.606 38.643 C 47.291 37.956 47.677 37.027 47.678 36.058 L 47.678 13.855 C 47.677 13.095 47.437 12.356 46.993 11.737 Z M 27.481 28.771 L 19.802 28.771 L 19.802 20.994 L 27.481 20.994 L 27.481 28.771 Z M 27.481 19.437 L 19.802 19.437 L 19.802 13.855 C 19.802 13.321 20.014 12.81 20.392 12.433 C 20.769 12.055 21.282 11.843 21.816 11.843 L 27.481 11.843 L 27.481 19.437 Z M 36.821 38.072 L 29.028 38.072 L 29.028 30.398 L 36.821 30.398 L 36.821 38.072 Z M 36.821 19.437 L 29.028 19.437 L 29.028 11.843 L 36.821 11.843 L 36.821 19.437 Z M 46.031 36.058 C 46.03 36.592 45.817 37.103 45.441 37.481 C 45.156 37.763 44.796 37.953 44.405 38.031 C 44.27 38.057 44.134 38.07 43.998 38.072 L 38.373 38.072 L 38.373 30.398 L 46.031 30.398 L 46.031 36.058 Z M 46.031 28.771 L 38.373 28.771 L 38.373 20.994 L 46.031 20.994 L 46.031 28.771 Z" fill="black" style=""/>
  </g>
  <path style="fill: rgb(51, 51, 51);" d="M 8.255 5.535 C 8.297 5.535 8.297 5.578 8.297 5.62 L 8.297 6.087 C 8.297 6.129 8.297 6.172 8.255 6.172 L 7.788 6.172 C 7.746 6.172 7.703 6.129 7.703 6.087 L 7.703 5.62 C 7.703 5.578 7.746 5.535 7.788 5.535 L 8.255 5.535 Z M 8.255 6.808 C 8.297 6.808 8.297 6.85 8.297 6.893 L 8.297 7.359 C 8.297 7.402 8.297 7.444 8.255 7.444 L 7.788 7.444 C 7.746 7.444 7.703 7.402 7.703 7.359 L 7.703 6.893 C 7.703 6.85 7.746 6.808 7.788 6.808 L 8.255 6.808 Z" fill-rule="evenodd"/>
  <path style="fill: rgb(51, 51, 51);" d="M 10.461 6.214 C 10.461 6.257 10.461 6.299 10.503 6.299 L 10.588 6.384 C 10.63 6.426 10.673 6.426 10.673 6.384 L 10.842 6.299 C 10.842 6.257 10.885 6.214 10.885 6.172 L 10.885 5.111 C 10.885 5.111 10.842 5.069 10.842 5.111 L 10.503 5.408 C 10.461 5.451 10.461 5.493 10.461 5.535 L 10.461 6.214 Z M 9.4 6.384 C 9.4 6.341 9.443 6.341 9.485 6.341 L 10.333 6.341 C 10.376 6.341 10.418 6.341 10.418 6.384 L 10.545 6.469 C 10.545 6.511 10.545 6.511 10.545 6.553 L 10.418 6.638 C 10.418 6.638 10.376 6.681 10.333 6.681 L 9.485 6.681 C 9.485 6.681 9.443 6.638 9.4 6.638 L 9.315 6.553 C 9.273 6.511 9.273 6.511 9.315 6.469 L 9.4 6.384 Z M 9.146 6.638 C 9.146 6.596 9.188 6.596 9.23 6.638 L 9.358 6.723 C 9.358 6.723 9.4 6.766 9.4 6.808 L 9.4 7.487 C 9.4 7.529 9.358 7.571 9.358 7.571 L 9.018 7.868 C 8.976 7.911 8.976 7.911 8.976 7.868 L 8.976 6.808 C 8.976 6.766 8.976 6.723 9.018 6.723 L 9.146 6.638 Z M 10.376 7.614 C 10.376 7.614 10.418 7.614 10.461 7.656 L 10.842 7.996 C 10.842 7.996 10.842 8.038 10.8 8.038 L 9.061 8.038 C 9.018 8.038 9.018 7.996 9.018 7.996 L 9.4 7.656 C 9.4 7.614 9.443 7.614 9.485 7.614 L 10.376 7.614 Z M 10.376 5.366 C 10.376 5.366 10.418 5.366 10.461 5.323 L 10.842 5.026 C 10.842 4.984 10.842 4.984 10.8 4.984 L 9.061 4.984 C 9.018 4.984 9.018 4.984 9.018 5.026 L 9.4 5.366 C 9.4 5.366 9.443 5.366 9.485 5.366 L 10.376 5.366 Z M 10.461 6.808 C 10.461 6.766 10.503 6.723 10.503 6.723 L 10.588 6.638 C 10.63 6.596 10.673 6.596 10.715 6.638 L 10.842 6.723 C 10.842 6.723 10.885 6.766 10.885 6.808 L 10.885 7.868 C 10.885 7.911 10.885 7.911 10.842 7.868 L 10.503 7.571 C 10.461 7.571 10.461 7.529 10.461 7.487 L 10.461 6.808 Z M 9.358 5.451 C 9.358 5.451 9.4 5.493 9.4 5.535 L 9.4 6.214 C 9.4 6.214 9.358 6.257 9.358 6.299 L 9.23 6.384 C 9.23 6.426 9.188 6.426 9.146 6.426 L 9.018 6.299 C 8.976 6.257 8.976 6.214 8.976 6.214 L 8.976 5.154 C 8.976 5.111 8.976 5.111 9.018 5.111 L 9.358 5.451 Z" fill-rule="evenodd"/>
  <path style="fill: rgb(51, 51, 51);" d="M 13.006 6.214 C 13.006 6.257 13.048 6.299 13.048 6.299 L 13.175 6.384 C 13.175 6.426 13.218 6.426 13.26 6.384 L 13.387 6.299 C 13.43 6.257 13.43 6.214 13.43 6.172 L 13.43 5.111 C 13.43 5.111 13.43 5.069 13.387 5.111 L 13.048 5.408 C 13.048 5.451 13.006 5.493 13.006 5.535 L 13.006 6.214 Z M 11.945 6.384 C 11.988 6.341 12.03 6.341 12.072 6.341 L 12.878 6.341 C 12.921 6.341 12.963 6.341 13.006 6.384 L 13.09 6.469 C 13.133 6.511 13.133 6.511 13.09 6.553 L 13.006 6.638 C 12.963 6.638 12.921 6.681 12.878 6.681 L 12.072 6.681 C 12.03 6.681 11.988 6.638 11.945 6.638 L 11.86 6.553 C 11.818 6.511 11.818 6.511 11.86 6.469 L 11.945 6.384 Z M 11.691 6.638 C 11.733 6.596 11.775 6.596 11.818 6.638 L 11.903 6.723 C 11.945 6.723 11.945 6.766 11.945 6.808 L 11.945 7.487 C 11.945 7.529 11.945 7.571 11.903 7.571 L 11.563 7.868 C 11.563 7.911 11.521 7.911 11.521 7.868 L 11.521 6.808 C 11.521 6.766 11.563 6.723 11.563 6.723 L 11.691 6.638 Z M 12.921 7.614 C 12.963 7.614 13.006 7.614 13.048 7.656 L 13.387 7.996 C 13.43 7.996 13.43 8.038 13.387 8.038 L 11.606 8.038 C 11.563 8.038 11.563 7.996 11.606 7.996 L 11.945 7.656 C 11.988 7.614 12.03 7.614 12.03 7.614 L 12.921 7.614 Z M 12.921 5.366 C 12.963 5.366 13.006 5.366 13.048 5.323 L 13.387 5.026 C 13.43 4.984 13.43 4.984 13.387 4.984 L 11.606 4.984 C 11.563 4.984 11.563 4.984 11.606 5.026 L 11.945 5.366 C 11.988 5.366 12.03 5.366 12.03 5.366 L 12.921 5.366 Z M 13.048 6.808 C 13.048 6.766 13.048 6.723 13.09 6.723 L 13.175 6.638 C 13.218 6.596 13.26 6.596 13.26 6.638 L 13.387 6.723 C 13.43 6.723 13.43 6.766 13.43 6.808 L 13.43 7.868 C 13.43 7.911 13.43 7.911 13.387 7.868 L 13.09 7.571 C 13.048 7.571 13.006 7.529 13.006 7.487 L 13.048 6.808 Z M 11.903 5.451 C 11.945 5.451 11.945 5.493 11.945 5.535 L 11.945 6.214 C 11.945 6.214 11.945 6.257 11.903 6.299 L 11.818 6.384 C 11.775 6.426 11.733 6.426 11.733 6.426 L 11.563 6.299 C 11.563 6.257 11.521 6.214 11.521 6.214 L 11.521 5.154 C 11.521 5.111 11.563 5.111 11.563 5.111 L 11.903 5.451 Z" fill-rule="evenodd"/>
  <path style="fill: rgb(51, 51, 51);" d="M 4.056 6.214 C 4.056 6.257 4.056 6.299 4.098 6.299 L 4.183 6.384 C 4.225 6.426 4.268 6.426 4.268 6.384 L 4.437 6.299 C 4.437 6.257 4.48 6.214 4.48 6.172 L 4.48 5.111 C 4.48 5.111 4.437 5.069 4.437 5.111 L 4.098 5.408 C 4.056 5.451 4.056 5.493 4.056 5.535 L 4.056 6.214 Z M 2.995 6.384 C 2.995 6.341 3.038 6.341 3.08 6.341 L 3.928 6.341 C 3.971 6.341 4.013 6.341 4.013 6.384 L 4.14 6.469 C 4.14 6.511 4.14 6.511 4.14 6.553 L 4.013 6.638 C 4.013 6.638 3.971 6.681 3.928 6.681 L 3.08 6.681 C 3.08 6.681 3.038 6.638 2.995 6.638 L 2.91 6.553 C 2.868 6.511 2.868 6.511 2.868 6.469 L 2.995 6.384 Z M 2.741 6.638 C 2.741 6.596 2.783 6.596 2.825 6.638 L 2.953 6.723 C 2.953 6.723 2.995 6.766 2.995 6.808 L 2.995 7.487 C 2.995 7.529 2.953 7.571 2.953 7.571 L 2.613 7.868 C 2.571 7.911 2.571 7.911 2.571 7.868 L 2.571 6.808 C 2.571 6.766 2.571 6.723 2.613 6.723 L 2.741 6.638 Z M 3.971 7.614 C 3.971 7.614 4.013 7.614 4.056 7.656 L 4.437 7.996 C 4.437 7.996 4.437 8.038 4.395 8.038 L 2.613 8.038 C 2.613 8.038 2.613 7.996 2.613 7.996 L 2.953 7.656 C 2.995 7.614 3.038 7.614 3.08 7.614 L 3.971 7.614 Z M 3.971 5.366 C 3.971 5.366 4.013 5.366 4.056 5.366 L 4.437 5.026 C 4.437 4.984 4.437 4.984 4.395 4.984 L 2.656 4.984 C 2.613 4.984 2.613 4.984 2.613 5.026 L 2.953 5.366 C 2.995 5.366 3.038 5.366 3.08 5.366 L 3.971 5.366 Z M 4.056 6.808 C 4.056 6.766 4.098 6.723 4.098 6.723 L 4.183 6.638 C 4.225 6.596 4.268 6.596 4.31 6.638 L 4.437 6.723 C 4.437 6.723 4.48 6.766 4.48 6.808 L 4.48 7.868 C 4.48 7.911 4.437 7.911 4.437 7.868 L 4.098 7.571 C 4.056 7.571 4.056 7.529 4.056 7.487 L 4.056 6.808 Z M 2.953 5.451 C 2.953 5.451 2.995 5.493 2.995 5.535 L 2.995 6.214 C 2.995 6.214 2.953 6.257 2.953 6.299 L 2.825 6.384 C 2.825 6.426 2.783 6.426 2.741 6.426 L 2.613 6.299 C 2.571 6.257 2.571 6.214 2.571 6.214 L 2.571 5.154 C 2.571 5.111 2.571 5.111 2.613 5.111 L 2.953 5.451 Z" fill-rule="evenodd"/>
  <path style="fill:#00ff33" d="M 13.007 6.249 C 13.007 6.292 13.007 6.335 13.05 6.378 L 13.136 6.464 C 13.179 6.464 13.222 6.464 13.222 6.464 L 13.351 6.335 C 13.394 6.335 13.437 6.292 13.437 6.249 L 13.437 5.172 C 13.437 5.129 13.394 5.129 13.394 5.129 L 13.05 5.474 C 13.007 5.474 13.007 5.517 13.007 5.56 L 13.007 6.249 Z M 11.672 6.679 C 11.672 6.679 11.715 6.679 11.758 6.679 L 11.844 6.765 C 11.887 6.808 11.887 6.851 11.887 6.851 L 11.887 7.54 C 11.887 7.583 11.887 7.626 11.844 7.669 L 11.543 7.971 C 11.5 8.014 11.5 7.971 11.5 7.971 L 11.5 6.894 C 11.5 6.851 11.5 6.808 11.543 6.765 L 11.672 6.679 Z M 12.878 7.669 C 12.921 7.669 12.964 7.712 13.007 7.712 L 13.351 8.057 C 13.394 8.1 13.394 8.1 13.351 8.1 L 11.543 8.1 C 11.543 8.1 11.5 8.1 11.543 8.057 L 11.887 7.712 C 11.931 7.712 11.974 7.669 12.017 7.669 L 12.878 7.669 Z M 12.878 5.431 C 12.921 5.431 12.964 5.431 13.007 5.388 L 13.351 5.043 C 13.394 5.043 13.394 5 13.351 5 L 11.543 5 C 11.543 5 11.5 5.043 11.543 5.043 L 11.887 5.388 C 11.931 5.431 11.974 5.431 12.017 5.431 L 12.878 5.431 Z M 13.007 6.894 C 13.007 6.851 13.007 6.808 13.05 6.765 L 13.136 6.679 C 13.179 6.679 13.222 6.679 13.222 6.679 L 13.351 6.765 C 13.394 6.808 13.437 6.851 13.437 6.851 L 13.437 7.928 C 13.437 7.971 13.394 7.971 13.394 7.971 L 13.05 7.669 C 13.007 7.626 13.007 7.583 13.007 7.583 L 13.007 6.894 Z M 11.844 5.474 C 11.887 5.517 11.887 5.56 11.887 5.56 L 11.887 6.249 C 11.887 6.292 11.887 6.335 11.844 6.335 L 11.758 6.464 C 11.715 6.507 11.672 6.507 11.672 6.464 L 11.543 6.335 C 11.5 6.335 11.5 6.292 11.5 6.249 L 11.5 5.172 C 11.5 5.172 11.5 5.129 11.543 5.172 L 11.844 5.474 Z" fill-rule="evenodd"/>
  <path style="fill:#00ff33" d="M 10.507 6.249 C 10.507 6.292 10.507 6.335 10.55 6.378 L 10.636 6.464 C 10.679 6.464 10.722 6.464 10.722 6.464 L 10.851 6.335 C 10.894 6.335 10.937 6.292 10.937 6.249 L 10.937 5.172 C 10.937 5.129 10.894 5.129 10.894 5.129 L 10.55 5.474 C 10.507 5.474 10.507 5.517 10.507 5.56 L 10.507 6.249 Z M 9.172 6.679 C 9.172 6.679 9.215 6.679 9.258 6.679 L 9.344 6.765 C 9.387 6.808 9.387 6.851 9.387 6.851 L 9.387 7.54 C 9.387 7.583 9.387 7.626 9.344 7.669 L 9.043 7.971 C 9 8.014 9 7.971 9 7.971 L 9 6.894 C 9 6.851 9 6.808 9.043 6.765 L 9.172 6.679 Z M 10.378 7.669 C 10.421 7.669 10.464 7.712 10.507 7.712 L 10.851 8.057 C 10.894 8.1 10.894 8.1 10.851 8.1 L 9.043 8.1 C 9.043 8.1 9 8.1 9.043 8.057 L 9.387 7.712 C 9.431 7.712 9.474 7.669 9.517 7.669 L 10.378 7.669 Z M 10.378 5.431 C 10.421 5.431 10.464 5.431 10.507 5.388 L 10.851 5.043 C 10.894 5.043 10.894 5 10.851 5 L 9.043 5 C 9.043 5 9 5.043 9.043 5.043 L 9.387 5.388 C 9.431 5.431 9.474 5.431 9.517 5.431 L 10.378 5.431 Z M 10.507 6.894 C 10.507 6.851 10.507 6.808 10.55 6.765 L 10.636 6.679 C 10.679 6.679 10.722 6.679 10.722 6.679 L 10.851 6.765 C 10.894 6.808 10.937 6.851 10.937 6.851 L 10.937 7.928 C 10.937 7.971 10.894 7.971 10.894 7.971 L 10.55 7.669 C 10.507 7.626 10.507 7.583 10.507 7.583 L 10.507 6.894 Z M 9.344 5.474 C 9.387 5.517 9.387 5.56 9.387 5.56 L 9.387 6.249 C 9.387 6.292 9.387 6.335 9.344 6.335 L 9.258 6.464 C 9.215 6.507 9.172 6.507 9.172 6.464 L 9.043 6.335 C 9 6.335 9 6.292 9 6.249 L 9 5.172 C 9 5.172 9 5.129 9.043 5.172 L 9.344 5.474 Z" fill-rule="evenodd"/>
  <path style="fill:#00ff33" d="M 4.107 6.249 C 4.107 6.292 4.107 6.335 4.15 6.378 L 4.236 6.464 C 4.279 6.464 4.322 6.464 4.322 6.464 L 4.451 6.335 C 4.494 6.335 4.537 6.292 4.537 6.249 L 4.537 5.172 C 4.537 5.129 4.494 5.129 4.494 5.129 L 4.15 5.474 C 4.107 5.474 4.107 5.517 4.107 5.56 L 4.107 6.249 Z M 2.772 6.679 C 2.772 6.679 2.815 6.679 2.858 6.679 L 2.944 6.765 C 2.987 6.808 2.987 6.851 2.987 6.851 L 2.987 7.54 C 2.987 7.583 2.987 7.626 2.944 7.669 L 2.643 7.971 C 2.6 8.014 2.6 7.971 2.6 7.971 L 2.6 6.894 C 2.6 6.851 2.6 6.808 2.643 6.765 L 2.772 6.679 Z M 3.978 7.669 C 4.021 7.669 4.064 7.712 4.107 7.712 L 4.451 8.057 C 4.494 8.1 4.494 8.1 4.451 8.1 L 2.643 8.1 C 2.643 8.1 2.6 8.1 2.643 8.057 L 2.987 7.712 C 3.031 7.712 3.074 7.669 3.117 7.669 L 3.978 7.669 Z M 3.978 5.431 C 4.021 5.431 4.064 5.431 4.107 5.388 L 4.451 5.043 C 4.494 5.043 4.494 5 4.451 5 L 2.643 5 C 2.643 5 2.6 5.043 2.643 5.043 L 2.987 5.388 C 3.031 5.431 3.074 5.431 3.117 5.431 L 3.978 5.431 Z M 4.107 6.894 C 4.107 6.851 4.107 6.808 4.15 6.765 L 4.236 6.679 C 4.279 6.679 4.322 6.679 4.322 6.679 L 4.451 6.765 C 4.494 6.808 4.537 6.851 4.537 6.851 L 4.537 7.928 C 4.537 7.971 4.494 7.971 4.494 7.971 L 4.15 7.669 C 4.107 7.626 4.107 7.583 4.107 7.583 L 4.107 6.894 Z M 2.944 5.474 C 2.987 5.517 2.987 5.56 2.987 5.56 L 2.987 6.249 C 2.987 6.292 2.987 6.335 2.944 6.335 L 2.858 6.464 C 2.815 6.507 2.772 6.507 2.772 6.464 L 2.643 6.335 C 2.6 6.335 2.6 6.292 2.6 6.249 L 2.6 5.172 C 2.6 5.172 2.6 5.129 2.643 5.172 L 2.944 5.474 Z" fill-rule="evenodd"/>
  <path style="fill:#00ff33" d="M 8.21 5.535 C 8.254 5.535 8.297 5.578 8.297 5.621 L 8.297 6.096 C 8.297 6.14 8.254 6.183 8.21 6.183 L 7.735 6.183 C 7.692 6.183 7.649 6.14 7.649 6.096 L 7.649 5.621 C 7.649 5.578 7.692 5.535 7.735 5.535 L 8.21 5.535 Z M 8.21 6.83 C 8.254 6.83 8.297 6.874 8.297 6.917 L 8.297 7.392 C 8.297 7.435 8.254 7.435 8.21 7.435 L 7.735 7.435 C 7.692 7.435 7.649 7.435 7.649 7.392 L 7.649 6.917 C 7.649 6.874 7.692 6.83 7.735 6.83 L 8.21 6.83 Z" fill-rule="evenodd"/>
  <path style="fill: rgb(51, 51, 51); stroke-width: 1;" d="M 6.558 6.277 C 6.558 6.31 6.577 6.355 6.601 6.378 L 6.699 6.47 C 6.722 6.493 6.763 6.493 6.788 6.473 L 6.932 6.359 C 6.957 6.338 6.978 6.294 6.978 6.261 L 6.98 5.193 C 6.98 5.159 6.96 5.151 6.936 5.173 L 6.599 5.487 C 6.575 5.509 6.555 5.555 6.555 5.588 L 6.558 6.277 Z M 5.481 6.451 C 5.504 6.428 5.55 6.409 5.584 6.409 L 6.43 6.401 C 6.463 6.4 6.51 6.419 6.533 6.441 L 6.639 6.544 C 6.663 6.566 6.662 6.603 6.637 6.625 L 6.538 6.708 C 6.512 6.729 6.465 6.747 6.433 6.747 L 5.6 6.749 C 5.568 6.749 5.519 6.732 5.495 6.711 L 5.392 6.625 C 5.367 6.604 5.365 6.567 5.389 6.544 L 5.481 6.451 Z M 5.229 6.7 C 5.256 6.68 5.298 6.68 5.325 6.699 L 5.434 6.783 C 5.461 6.804 5.481 6.847 5.481 6.879 L 5.48 7.564 C 5.48 7.598 5.461 7.643 5.436 7.665 L 5.104 7.97 C 5.08 7.992 5.06 7.983 5.06 7.95 L 5.06 6.892 C 5.06 6.859 5.081 6.816 5.107 6.796 L 5.229 6.7 Z M 6.459 7.691 C 6.492 7.691 6.538 7.71 6.563 7.732 L 6.929 8.067 C 6.954 8.089 6.946 8.107 6.913 8.107 L 5.134 8.108 C 5.101 8.108 5.094 8.09 5.118 8.067 L 5.473 7.731 C 5.497 7.708 5.543 7.69 5.577 7.69 L 6.459 7.691 Z M 6.459 5.452 C 6.492 5.452 6.538 5.434 6.563 5.411 L 6.929 5.078 C 6.954 5.055 6.946 5.037 6.913 5.037 L 5.135 5.037 C 5.102 5.037 5.095 5.056 5.118 5.078 L 5.473 5.412 C 5.497 5.434 5.543 5.453 5.577 5.453 L 6.459 5.452 Z M 6.566 6.885 C 6.566 6.852 6.587 6.808 6.612 6.787 L 6.707 6.706 C 6.733 6.685 6.776 6.683 6.803 6.702 L 6.927 6.787 C 6.955 6.805 6.977 6.847 6.977 6.881 L 6.986 7.939 C 6.986 7.972 6.965 7.981 6.941 7.96 L 6.606 7.668 C 6.581 7.647 6.56 7.602 6.561 7.569 L 6.566 6.885 Z M 5.438 5.5 C 5.462 5.522 5.482 5.567 5.482 5.6 L 5.482 6.266 C 5.482 6.299 5.462 6.344 5.439 6.367 L 5.329 6.476 C 5.306 6.499 5.266 6.501 5.24 6.48 L 5.107 6.371 C 5.081 6.349 5.06 6.305 5.06 6.272 L 5.06 5.209 C 5.06 5.177 5.08 5.168 5.104 5.19 L 5.438 5.5 Z" fill-rule="evenodd"/>
  <path style="fill: rgb(0, 255, 51); stroke-width: 1;" d="M 6.498 6.242 C 6.498 6.284 6.54 6.327 6.583 6.369 L 6.667 6.454 C 6.71 6.496 6.752 6.496 6.752 6.454 L 6.921 6.369 C 6.964 6.327 6.964 6.284 6.964 6.242 L 6.964 5.098 C 6.964 5.056 6.964 5.056 6.921 5.056 L 6.54 5.395 C 6.54 5.437 6.498 5.479 6.498 5.522 L 6.498 6.242 Z M 6.54 6.92 C 6.54 6.877 6.54 6.835 6.583 6.793 L 6.667 6.708 C 6.71 6.708 6.752 6.708 6.794 6.708 L 6.921 6.793 C 6.964 6.835 6.964 6.877 6.964 6.92 L 6.964 8.063 C 6.964 8.106 6.964 8.106 6.921 8.063 L 6.583 7.767 C 6.54 7.724 6.498 7.682 6.498 7.64 L 6.54 6.92 Z" fill-rule="evenodd"/>
</svg>