<svg xmlns="http://www.w3.org/2000/svg" height="50" width="50" viewBox="4 4 40 40" class="h-10 md:h-8 inline">
    <path fill="#59d185" d="M16 14a2 2 0 0 1-2 2H8a2 2 0 0 1-2-2V8a2 2 0 0 1 2-2h6a2 2 0 0 1 2 2zm13 0a2 2 0 0 1-2 2h-6a2 2 0 0 1-2-2V8a2 2 0 0 1 2-2h6a2 2 0 0 1 2 2zm13 0a2 2 0 0 1-2 2h-6a2 2 0 0 1-2-2V8a2 2 0 0 1 2-2h6a2 2 0 0 1 2 2zM16 27a2 2 0 0 1-2 2H8a2 2 0 0 1-2-2v-6a2 2 0 0 1 2-2h6a2 2 0 0 1 2 2zm13 0a2 2 0 0 1-2 2h-6a2 2 0 0 1-2-2v-6a2 2 0 0 1 2-2h6a2 2 0 0 1 2 2zm13 0a2 2 0 0 1-2 2h-6a2 2 0 0 1-2-2v-6a2 2 0 0 1 2-2h6a2 2 0 0 1 2 2zM16 40a2 2 0 0 1-2 2H8a2 2 0 0 1-2-2v-6a2 2 0 0 1 2-2h6a2 2 0 0 1 2 2zm13 0a2 2 0 0 1-2 2h-6a2 2 0 0 1-2-2v-6a2 2 0 0 1 2-2h6a2 2 0 0 1 2 2zm13 0a2 2 0 0 1-2 2h-6a2 2 0 0 1-2-2v-6a2 2 0 0 1 2-2h6a2 2 0 0 1 2 2z"></path>
</svg>