<?xml version="1.0" encoding="utf-8"?>
<svg xmlns="http://www.w3.org/2000/svg" height="50" width="50" viewBox="4 4 40 40" class="h-10 md:h-8 inline">
  <path fill="#59d185" d="M16 14a2 2 0 0 1-2 2H8a2 2 0 0 1-2-2V8a2 2 0 0 1 2-2h6a2 2 0 0 1 2 2zm13 0a2 2 0 0 1-2 2h-6a2 2 0 0 1-2-2V8a2 2 0 0 1 2-2h6a2 2 0 0 1 2 2zm13 0a2 2 0 0 1-2 2h-6a2 2 0 0 1-2-2V8a2 2 0 0 1 2-2h6a2 2 0 0 1 2 2zM16 27a2 2 0 0 1-2 2H8a2 2 0 0 1-2-2v-6a2 2 0 0 1 2-2h6a2 2 0 0 1 2 2zm13 0a2 2 0 0 1-2 2h-6a2 2 0 0 1-2-2v-6a2 2 0 0 1 2-2h6a2 2 0 0 1 2 2zm13 0a2 2 0 0 1-2 2h-6a2 2 0 0 1-2-2v-6a2 2 0 0 1 2-2h6a2 2 0 0 1 2 2zM16 40a2 2 0 0 1-2 2H8a2 2 0 0 1-2-2v-6a2 2 0 0 1 2-2h6a2 2 0 0 1 2 2zm13 0a2 2 0 0 1-2 2h-6a2 2 0 0 1-2-2v-6a2 2 0 0 1 2-2h6a2 2 0 0 1 2 2zm13 0a2 2 0 0 1-2 2h-6a2 2 0 0 1-2-2v-6a2 2 0 0 1 2-2h6a2 2 0 0 1 2 2z"/>
  <g id="SVGRepo_bgCarrier" stroke-width="0" transform="matrix(0.242605, 0, 0, 0.242605, 24.052904, 24.088329)" style=""/>
  <g id="SVGRepo_tracerCarrier" stroke-linecap="round" stroke-linejoin="round" transform="matrix(0.242605, 0, 0, 0.242605, 24.052904, 24.088329)" style=""/>
  <g id="SVGRepo_iconCarrier" transform="matrix(0.565529, 0, 0, 0.565529, 13.820226, 13.820477)" style="">
    <path fill="#662113" d="M7.754 7.754C4.068 11.44 1.64 16.37.843 21.335l13.822 13.822c4.965-.797 9.895-3.225 13.581-6.911s6.114-8.616 6.911-13.581L21.335.843C16.37 1.64 11.44 4.068 7.754 7.754zm25.615-5.123C30.707 1.152 27.634.51 24.472.564l10.965 10.964c.053-3.162-.589-6.235-2.068-8.897zM2.631 33.369c2.662 1.479 5.736 2.121 8.898 2.067L.564 24.472c-.054 3.161.588 6.235 2.067 8.897z"/>
    <path fill="#E1E8ED" d="M22.828 11.757l-2.414 2.414l-.707-.707a.999.999 0 1 0-1.414 1.414l.707.708L15.586 19l-.707-.707a.999.999 0 1 0-1.414 1.414l.707.707l-2.414 2.414l-.707-.707a.999.999 0 1 0-1.414 1.414l.707.707l-1 1a1 1 0 1 0 1.414 1.415l1-1l.707.707a.999.999 0 1 0 1.414-1.414l-.707-.707l2.414-2.414l.707.707a.999.999 0 1 0 1.414-1.414L17 20.414L20.414 17l.707.707a.999.999 0 1 0 1.414-1.414l-.707-.707l2.414-2.414l.707.707a1 1 0 1 0 1.414-1.414l-.707-.707l1-1a1 1 0 0 0-1.415-1.414l-1 1l-.707-.707a.999.999 0 1 0-1.414 1.414l.708.706zM.564 24.472l10.965 10.965a22.247 22.247 0 0 0 3.136-.279L.843 21.335a22.261 22.261 0 0 0-.279 3.137zM24.472.564c-1.04.018-2.088.111-3.136.279l13.822 13.822a22.26 22.26 0 0 0 .279-3.136L24.472.564z"/>
  </g>
</svg>