<svg id="my-svg" width="400" height="400" viewBox="-1000 -1000 2000 2000" xmlns="http://www.w3.org/2000/svg">
    <defs>
        <radialGradient id="rect-gradient">
            <stop offset="0" stop-color="#ff8e33" stop-opacity="0.5"></stop>
            <stop offset="1" stop-color="#ca6600" stop-opacity="0.5"></stop>
        </radialGradient>
        <radialGradient id="beam-0">
            <stop offset="0" stop-color="#ff8e33" stop-opacity="0.9"></stop>
            <stop offset="1" stop-color="#ca6600" stop-opacity="0.9"></stop>
        </radialGradient>
        <radialGradient id="beam-1">
            <stop offset="0" stop-color="#ff8e33" stop-opacity="0.3"></stop>
            <stop offset="1" stop-color="#ca6600" stop-opacity="0.3"></stop>
        </radialGradient>
        <radialGradient id="beam-2">
            <stop offset="0" stop-color="#91d5ff" stop-opacity="0"></stop>
            <stop offset="0.3" stop-color="#91d5ff" stop-opacity="0.1"></stop>
            <stop offset="0.5" stop-color="#91d5ff" stop-opacity="0.4"></stop>
            <stop offset="1" stop-color="#91d5ff" stop-opacity="0"></stop>
        </radialGradient>
        <radialGradient id="beam-3">
            <stop offset="0" stop-color="#ff8e33" stop-opacity="0.1"></stop>
            <stop offset="1" stop-color="#ca6600" stop-opacity="0.1"></stop>
        </radialGradient>
        <radialGradient id="rg-1">
            <stop offset="0" stop-color="#fffff2"></stop>
            <stop offset="0.7" stop-color="#FCFBC7"></stop>
            <stop offset="1" stop-color="#ffbe8a"></stop>
        </radialGradient>
        <radialGradient id="rg-2">
            <stop offset="0" stop-color="#fffff2" stop-opacity="1"></stop>
            <stop offset="1" stop-color="#D0772F" stop-opacity="0"></stop>
        </radialGradient>
    </defs>
    <path id="rectangles" fill="url(#rect-gradient)" fill-rule="evenodd" d=" M -950 -950 l 1900 0 l 0 1900 l -1900 0 z M -940 -940 l 1880 0 l 0 1880 l -1880 0 z M -814.2855 -814.2855 l 1628.571 0 l 0 1628.571 l -1628.571 0 z M -804.2855 -804.2855 l 1608.571 0 l 0 1608.571 l -1608.571 0 z M -712.5 -712.5 l 1425 0 l 0 1425 l -1425 0 z M -702.5 -702.5 l 1405 0 l 0 1405 l -1405 0 z M -633.3335 -633.3335 l 1266.667 0 l 0 1266.667 l -1266.667 0 z M -623.3335 -623.3335 l 1246.667 0 l 0 1246.667 l -1246.667 0 z M -570 -570 l 1140 0 l 0 1140 l -1140 0 z M -560 -560 l 1120 0 l 0 1120 l -1120 0 z M -518.182 -518.182 l 1036.364 0 l 0 1036.364 l -1036.364 0 z M -508.182 -508.182 l 1016.364 0 l 0 1016.364 l -1016.364 0 z M -475 -475 l 950 0 l 0 950 l -950 0 z M -465 -465 l 930 0 l 0 930 l -930 0 z M -438.4615 -438.4615 l 876.923 0 l 0 876.923 l -876.923 0 z M -428.4615 -428.4615 l 856.923 0 l 0 856.923 l -856.923 0 z M -407.143 -407.143 l 814.286 0 l 0 814.286 l -814.286 0 z M -397.143 -397.143 l 794.286 0 l 0 794.286 l -794.286 0 z M -380 -380 l 760 0 l 0 760 l -760 0 z M -370 -370 l 740 0 l 0 740 l -740 0 z M -356.25 -356.25 l 712.5 0 l 0 712.5 l -712.5 0 z M -346.25 -346.25 l 692.5 0 l 0 692.5 l -692.5 0 z M -335.294 -335.294 l 670.588 0 l 0 670.588 l -670.588 0 z M -325.294 -325.294 l 650.588 0 l 0 650.588 l -650.588 0 z M -316.6665 -316.6665 l 633.333 0 l 0 633.333 l -633.333 0 z M -306.6665 -306.6665 l 613.333 0 l 0 613.333 l -613.333 0 z M -300 -300 l 600 0 l 0 600 l -600 0 z M -290 -290 l 580 0 l 0 580 l -580 0 z M -285 -285 l 570 0 l 0 570 l -570 0 z M -275 -275 l 550 0 l 0 550 l -550 0 z M -271.4285 -271.4285 l 542.857 0 l 0 542.857 l -542.857 0 z M -261.4285 -261.4285 l 522.857 0 l 0 522.857 l -522.857 0 z M -259.091 -259.091 l 518.182 0 l 0 518.182 l -518.182 0 z M -249.091 -249.091 l 498.182 0 l 0 498.182 l -498.182 0 z"/>
    <g fill="url(#beam-0)">
        <path d="M 900.404 1000 L -900.404 -1000 L -1000 -1000 L 1000 1000 z"/>
        <path d="M 185.339 1000 L -185.339 -1000 L -240.079 -1000 L 240.079 1000 z"/>
        <path d="M 105.104 1000 L -105.104 -1000 L -158.384 -1000 L 158.384 1000 z"/>
        <path d="M -476.976 1000 L 476.976 -1000 L 414.214 -1000 L -414.214 1000 z"/>
        <path d="M -577.35 1000 L 577.35 -1000 L 509.525 -1000 L -509.525 1000 z"/>
        <path d="M 1000 -900.404 L -1000 900.404 L -1000 1000 L 1000 -1000 z"/>
        <path d="M 1000 -185.339 L -1000 185.339 L -1000 240.079 L 1000 -240.079 z"/>
        <path d="M 1000 -105.104 L -1000 105.104 L -1000 158.384 L 1000 -158.384 z"/>
        <path d="M 1000 476.976 L -1000 -476.976 L -1000 -414.214 L 1000 414.214 z"/>
        <path d="M 1000 577.35 L -1000 -577.35 L -1000 -509.525 L 1000 509.525 z"/>
    </g>
    <g fill="url(#beam-1)">
        <path d="M 767.327 1000 L -767.327 -1000 L -854.081 -1000 L 854.081 1000 z"/>
        <path d="M 649.408 1000 L -649.408 -1000 L -726.543 -1000 L 726.543 1000 z"/>
        <path d="M 26.186 1000 L -26.186 -1000 L -78.702 -1000 L 78.702 1000 z"/>
        <path d="M -52.408 1000 L 52.408 -1000 L 0 -1000 L 0 1000 z"/>
        <path d="M -687.281 1000 L 687.281 -1000 L 612.801 -1000 L -612.801 1000 z"/>
        <path d="M -809.784 1000 L 809.784 -1000 L 726.543 -1000 L -726.543 1000 z"/>
        <path d="M 1000 -767.327 L -1000 767.327 L -1000 854.081 L 1000 -854.081 z"/>
        <path d="M 1000 -649.408 L -1000 649.408 L -1000 726.543 L 1000 -726.543 z"/>
        <path d="M 1000 -26.186 L -1000 26.186 L -1000 78.702 L 1000 -78.702 z"/>
        <path d="M 1000 52.408 L -1000 -52.408 L -1000 0 L 1000 0 z"/>
        <path d="M 1000 687.281 L -1000 -687.281 L -1000 -612.801 L 1000 612.801 z"/>
        <path d="M 1000 809.784 L -1000 -809.784 L -1000 -726.543 L 1000 726.543 z"/>
    </g>
    <g fill="url(#beam-2)">
        <path d="M 445.229 1000 L -445.229 -1000 L -509.525 -1000 L 509.525 1000 z"/>
        <path d="M 267.949 1000 L -267.949 -1000 L -324.92 -1000 L 324.92 1000 z"/>
        <path d="M -212.557 1000 L 212.557 -1000 L 158.384 -1000 L -158.384 1000 z"/>
        <path d="M -383.864 1000 L 383.864 -1000 L 324.92 -1000 L -324.92 1000 z"/>
        <path d="M 1000 -445.229 L -1000 445.229 L -1000 509.525 L 1000 -509.525 z"/>
        <path d="M 1000 -267.949 L -1000 267.949 L -1000 324.92 L 1000 -324.92 z"/>
        <path d="M 1000 212.557 L -1000 -212.557 L -1000 -158.384 L 1000 158.384 z"/>
        <path d="M 1000 383.864 L -1000 -383.864 L -1000 -324.92 L 1000 324.92 z"/>
    </g>
    <g fill="url(#beam-3)">
        <path d="M 542.956 1000 L -542.956 -1000 L -612.801 -1000 L 612.801 1000 z"/>
        <path d="M 354.119 1000 L -354.119 -1000 L -414.214 -1000 L 414.214 1000 z"/>
        <path d="M -131.652 1000 L 131.652 -1000 L 78.702 -1000 L -78.702 1000 z"/>
        <path d="M -296.213 1000 L 296.213 -1000 L 240.079 -1000 L -240.079 1000 z"/>
        <path d="M -948.965 1000 L 948.965 -1000 L 854.081 -1000 L -854.081 1000 z"/>
        <path d="M 1000 -542.956 L -1000 542.956 L -1000 612.801 L 1000 -612.801 z"/>
        <path d="M 1000 -354.119 L -1000 354.119 L -1000 414.214 L 1000 -414.214 z"/>
        <path d="M 1000 131.652 L -1000 -131.652 L -1000 -78.702 L 1000 78.702 z"/>
        <path d="M 1000 296.213 L -1000 -296.213 L -1000 -240.079 L 1000 240.079 z"/>
        <path d="M 1000 948.965 L -1000 -948.965 L -1000 -854.081 L 1000 854.081 z"/>
    </g>
    <circle fill="url(#rg-2)" cx="0" cy="0" r="225"/>
    <path fill="url(#rg-1)" d="M 102.09 0 L 48.383 3.044 L 100.311 12.672 L 52.272 9.971 L 118.16 30.338 L 45.62 14.823 L 110.62 43.798 L 42.272 19.892 L 95.593 52.553 L 39.594 25.127 L 93.563 67.977 L 36.974 30.588 L 86.686 81.403 L 33.203 35.358 L 65.935 79.701 L 30.235 41.615 L 53.636 84.516 L 24.118 43.87 L 43.803 93.086 L 17.399 43.944 L 37.96 116.83 L 11.661 45.416 L 20.3 106.416 L 6.666 52.766 L 6.667 105.975 L 0 48.369 L -7.259 115.38 L -6.115 48.406 L -21.536 112.898 L -13.118 51.093 L -34.659 106.669 L -16.878 42.628 L -43.207 91.819 L -23.837 43.359 L -58.382 91.996 L -27.632 38.032 L -76.77 92.799 L -36.999 39.4 L -83.886 78.774 L -39.501 32.678 L -81.47 59.191 L -43.298 27.478 L -90.561 49.786 L -49.284 23.191 L -110.091 43.588 L -46.555 15.127 L -118.772 30.495 L -52.783 10.069 L -117.751 14.875 L -52.91 3.329 L -105.147 0 L -51.047 -3.212 L -120.807 -15.261 L -47.609 -9.082 L -99.186 -25.467 L -43.477 -14.127 L -94.535 -37.429 L -44.326 -20.858 L -101.318 -55.7 L -40.228 -25.53 L -81.309 -59.075 L -41.867 -34.635 L -85.214 -80.022 L -36.259 -38.612 L -70.346 -85.034 L -31.564 -43.444 L -60.024 -94.582 L -25.432 -46.261 L -44.55 -94.673 L -17.712 -44.737 L -30.949 -95.252 L -12.933 -50.37 L -20.132 -105.537 L -5.732 -45.371 L -7.09 -112.694 L 0 -47.266 L 6.534 -103.85 L 5.934 -46.971 L 19.175 -100.52 L 13.479 -52.498 L 30.924 -95.175 L 17.841 -45.061 L 47.313 -100.545 L 24.677 -44.887 L 56.263 -88.657 L 29.979 -41.262 L 76.883 -92.936 L 34.693 -36.945 L 82.237 -77.225 L 39.834 -32.954 L 94.372 -68.565 L 39.204 -24.88 L 101.392 -55.741 L 44.764 -21.065 L 113.7 -45.017 L 42.854 -13.924 L 100.55 -25.817 L 50.792 -9.689 L 117.835 -14.886 L 52.059 -3.275 z"/>
</svg>