<?xml version="1.0" encoding="utf-8"?>
<svg width="128px" height="128px" viewBox="0 0 128 128" xmlns="http://www.w3.org/2000/svg" aria-hidden="true" role="img" class="iconify iconify--noto" preserveAspectRatio="xMidYMid meet">
  <g transform="matrix(1, 0, 0, 1, -1.765268, -0.933373)">
    <g transform="matrix(0.29557, 0, 0, 0.29557, 39.591106, 26.444786)" style="">
      <g id="SVGRepo_bgCarrier" stroke-width="0" transform="matrix(1.726103, 0, 0, 1.726103, 58.260715, 11.394577)" style=""/>
      <g id="SVGRepo_tracerCarrier" stroke-linecap="round" stroke-linejoin="round" transform="matrix(1.726103, 0, 0, 1.726103, 58.260715, 11.394577)" style=""/>
      <g id="SVGRepo_iconCarrier" transform="matrix(1.726103, 0, 0, 1.726103, 58.260715, 11.394577)" style="">
        <path d="M36.9 22.7l2.5-18.6C37 3.5 34.6 2 32 2c-2.6 0-5 1.5-7.5 2.2c-2.5.6-5.3.5-7.5 1.8s-3.6 3.8-5.4 5.6C9.8 13.4 7.3 14.8 6 17c-1.3 2.2-1.2 5-1.9 7.5C3.5 27 2 29.4 2 32c0 2.6 1.5 5 2.2 7.5c.6 2.5.5 5.3 1.8 7.5s3.8 3.6 5.6 5.4c1.8 1.8 3.1 4.3 5.4 5.6c2.2 1.3 5 1.2 7.5 1.9c2.5.6 4.9 2.1 7.5 2.1c2.6 0 5-1.5 7.5-2.2c2.5-.7 5.3-.6 7.5-1.9c2.2-1.3 3.6-3.8 5.4-5.6c1.8-1.8 4.3-3.1 5.6-5.4c1.3-2.2 1.2-5 1.9-7.5c.6-2.4 2.1-4.8 2.1-7.4c0-2.6-2.1-8.1-2.1-8.1l-23-1.2" fill="#dda85f"/>
        <path d="M59.4 22.4c-1 .3-2.4.2-3.9-.4c-2.1-.8-3.4-2.5-3.8-4.5c-1 .3-3.4 0-5-1c-2.4-1.5-2.9-5.7-2.9-5.7c-2.7-.8-4.7-4-4.4-6.7c-2.2-.6-5-.5-7.4-.5c-2.4 0-4.6 1.4-6.8 2c-2.3.6-4.9.5-6.9 1.7s-3.3 3.5-4.9 5.1c-1.7 1.7-4 2.9-5.1 4.9c-1.2 2-1.1 4.6-1.7 6.9c-.6 2.2-2 4.4-2 6.8c0 2.4 1.4 4.6 2 6.8c.6 2.3.5 4.9 1.7 6.9s3.5 3.3 5.1 4.9c1.7 1.7 2.9 4 4.9 5.1c2 1.2 4.6 1.1 6.9 1.7c2.2.6 4.4 2 6.8 2c2.4 0 4.6-1.4 6.8-2c2.3-.6 4.9-.5 6.9-1.7s3.3-3.5 4.9-5.1c1.7-1.7 4-2.9 5.1-4.9c1.2-2 1.1-4.6 1.7-6.9c.6-2.2 3-4 3.3-6.4c.8-3.9-1.2-8.3-1.3-9" fill="#f2cb7d"/>
        <g fill="#dda85f">
          <path d="M50.1 10.8l-1.4 1.4l-1.3-1.4l1.3-1.3z"/>
          <path d="M55.8 17.8l-.6.7l-.7-.7l.7-.7z"/>
          <path d="M50.8 13.2l-.7.7l-.7-.7l.7-.7z"/>
          <path d="M44.6 7.1l-.7.7l-.7-.7l.7-.7z"/>
          <path d="M57.2 20.3l-.7.7l-.7-.7l.7-.7z"/>
          <path d="M57.8 17.8l-.7.7l-.7-.7l.7-.7z"/>
        </g>
        <path d="M11.8 20.6c-1 1.7.5 4.8 2.5 5.7c2.9 1.2 4.6 1.4 6.4-1.7c.6-1.1 1.4-4 1.1-4.7c-.4-1-2.1-3-3.2-3c-3.1.1-6.1 2.5-6.8 3.7" fill="#6d4934"/>
        <path d="M12.3 20.6c-.7 1.2 1.1 4.8 3.5 4.5c3.3-.4 3-7.2 1.6-7.2c-2.4 0-4.6 1.8-5.1 2.7" fill="#a37f6a"/>
        <path d="M45.2 39.1c1.4-.4 2.4-2.9 1.8-4.4c-.9-2.3-1.8-3.3-4.4-2.6c-.9.3-3 1.4-3.2 1.9c-.3.8-.5 2.8.1 3.4c1.7 1.7 4.7 2 5.7 1.7" fill="#6d4934"/>
        <path d="M43.8 36.7c1.1-.3 2.8-3.7 1-3.9c-3.1-.5-5.5 1-5.2 2.7c.3 1.7 3.4 1.4 4.2 1.2" fill="#a37f6a"/>
        <path d="M24.9 44.5c-.3-1.2-2.5-2.1-3.9-1.5c-2 .8-2.9 1.5-2.2 3.8c.2.8 1.2 2.6 1.7 2.7c.7.3 2.4.4 2.9-.1c1.5-1.4 1.7-4 1.5-4.9" fill="#6d4934"/>
        <path d="M23.2 43.6c-.2-.9-4.4.4-4 2c.8 2.7.8 3.1 1.6 3c1.5-.4 2.5-4.3 2.4-5" fill="#a37f6a"/>
        <path d="M51.1 25.5c-1.2.3-2.1 2.5-1.5 3.9c.8 2 2.7 2.3 4.8 1.2c1.8-.9 1.9-4.1 1.4-4.7c-1.5-1.5-3.8-.6-4.7-.4" fill="#6d4934"/>
        <path d="M50.6 26.6c-.6.7-1.1 3.5.4 3.1c2.7-.8 4.6-3.5 3.4-3.9c-1.5-.5-3.1 0-3.8.8" fill="#a37f6a"/>
        <path fill="#6d4934" d="M22.74 16.112l1.98-1.98l1.98 1.98l-1.98 1.98z"/>
        <g fill="#dda85f">
          <path d="M14.706 33.483l1.979-1.98l1.98 1.979l-1.979 1.98z"/>
          <path d="M34.698 44.811l1.98-1.98l1.98 1.98l-1.98 1.98z"/>
          <path d="M32.038 39.289l2.687-2.687l2.687 2.687l-2.687 2.687z"/>
          <path d="M24.696 9.827l2.687-2.687l2.687 2.687l-2.687 2.687z"/>
        </g>
        <g fill="#6d4934">
          <path d="M41.122 46.347l1.98-1.98l1.98 1.98l-1.98 1.98z"/>
          <path d="M49.076 35.215l1.98-1.98l1.98 1.98l-1.98 1.98z"/>
          <path d="M41.812 24.637l.99-.99l.99.99l-.99.99z"/>
          <path d="M13.726 38.266l.99-.99l.99.99l-.99.99z"/>
        </g>
      </g>
    </g>
    <g id="_x32_" style="" transform="matrix(0.390781, 0, 0, 0.390781, 25.706152, 31.30175)">
      <g id="group-3" transform="matrix(0.390625, 0, 0, 0.390625, -10.747017, -29.13772)">
        <g>
          <g id="Layer_1" style="transform-origin: 134.219px 353.805px;" transform="matrix(0.457653, 0, 0, 0.457653, 155.720306, -58.892265)">
            <g id="group-1" stroke-width="0" transform="matrix(2.558978, 0, 0, 2.558978, -520.878418, -301.293396)"/>
            <g id="group-2" stroke-linecap="round" stroke-linejoin="round" transform="matrix(2.558978, 0, 0, 2.558978, -520.878418, -301.293396)"/>
            <g id="group-4" transform="matrix(2.558978, 0, 0, 2.558978, -520.878418, -301.293396)">
              <g>
                <g>
                  <path d="M280.069,0C175.516,0,90.294,84.355,88.887,188.58L40.731,327.056h48.137v103.184h93.414V512h219.545V338.607 c20.245-16.76,37.064-37.758,48.903-61.125c13.628-26.9,20.538-55.929,20.538-86.282C471.269,85.773,385.497,0,280.069,0z M420.57,192.3c-0.009,1.167-0.032,2.332-0.069,3.494c-0.85,26.611-15.351,50.213-38.79,63.137 c-11.577,6.385-24.193,9.57-36.782,9.57c-13.236,0-26.442-3.518-38.398-10.541l-97.618-57.337 c-23.312-13.691-37.295-38.023-37.405-65.087c-0.109-26.911,13.578-51.208,36.616-64.994 c22.509-13.468,48.313-20.313,74.649-19.824c76.561,1.451,138.376,64.959,137.796,141.572V192.3z"/>
                </g>
              </g>
            </g>
          </g>
        </g>
      </g>
    </g>
  </g>
</svg>