<?xml version="1.0" encoding="utf-8"?>
<svg width="128px" height="128px" viewBox="0 0 128 128" xmlns="http://www.w3.org/2000/svg" aria-hidden="true" role="img" class="iconify iconify--noto" preserveAspectRatio="xMidYMid meet">
  <g id="H1" style="" transform="matrix(0.366431, 0, 0, 0.366431, -0.304398, 92.006203)">
    <g id="SVGRepo_bgCarrier" stroke-width="0" transform="matrix(1.5625, 0, 0, 1.5625, 99.268211, -201.615723)"/>
    <g id="SVGRepo_tracerCarrier" stroke-linecap="round" stroke-linejoin="round" transform="matrix(1.5625, 0, 0, 1.5625, 99.268211, -201.615723)"/>
    <g id="SVGRepo_iconCarrier" transform="matrix(1.5625, 0, 0, 1.5625, 99.268211, -201.615723)">
      <path d="M 81.146 145.463 C 85.246 143.563 90.046 145.363 91.946 149.363 C 93.846 153.363 92.046 158.263 88.046 160.163 C 83.946 162.063 79.146 160.263 77.246 156.263 C 75.246 152.163 77.046 147.363 81.146 145.463 Z M 78.446 127.563 L 62.346 108.363 C 61.746 107.663 61.046 106.963 60.146 106.363 C 58.946 105.463 57.646 104.863 56.246 104.563 L 55.946 104.463 C 55.846 104.463 55.646 104.363 55.546 104.363 L 42.846 101.563 L 45.546 86.463 C 46.046 83.763 44.246 81.063 41.446 80.563 C 38.746 80.063 36.046 81.863 35.546 84.663 L 32.046 104.563 C 31.746 106.263 32.346 108.063 33.746 109.363 C 34.346 109.863 34.946 110.163 35.646 110.363 L 40.346 111.863 L 33.846 113.363 L 19.146 102.963 C 16.846 101.363 13.746 101.863 12.146 104.163 C 10.546 106.463 11.046 109.563 13.346 111.163 L 29.846 122.763 C 30.346 123.063 30.846 123.363 31.446 123.563 C 32.146 123.763 32.946 123.763 33.646 123.663 L 52.246 121.363 L 63.346 134.563 L 59.946 133.663 C 58.946 133.363 57.846 133.563 56.846 134.063 L 42.846 142.063 C 40.946 143.163 40.246 145.663 41.346 147.563 C 42.446 149.463 44.946 150.163 46.846 149.063 L 59.446 141.863 L 67.846 144.163 L 52.546 165.863 C 51.246 167.663 51.746 170.163 53.546 171.463 C 55.346 172.763 57.846 172.263 59.146 170.463 L 79.146 142.163 C 82.346 137.763 81.846 131.763 78.446 127.563 Z"/>
      <path style="" d=" M-63,191.9h11.2V82.3h30.5V67H-63V191.9z"/>
      <path style="transform-box: fill-box; transform-origin: 50% 50%;" d="M 118.862 67 L 130.062 67 L 130.062 176.6 L 160.562 176.6 L 160.562 191.9 L 118.862 191.9 L 118.862 67 Z" transform="matrix(-1, 0, 0, -1, 0.000005, 0.000017)"/>
      <path style="stroke: rgb(0, 0, 0); fill: none;" d="M -24.231 72.386 C -21.968 75.78 -17.503 77.653 -13.217 77.653 C -12.378 77.653 -8.484 78.187 -7.95 77.653 C -6.302 76.005 -3.188 76.242 -1.725 74.78 C 1.493 71.562 7.251 69.991 13.598 69.991"/>
      <path style="stroke: rgb(0, 0, 0); fill: none;" d="M 26.047 69.034 C 27.263 70.249 33.8 70.858 35.145 69.513 C 38.41 66.248 42.912 62.225 46.158 58.978 C 47.85 57.287 50.817 57.193 52.383 55.626 C 52.623 55.387 53.58 55.866 53.82 55.626 C 55.172 54.274 58.834 54.669 61.481 54.669 C 61.935 54.669 64.065 54.38 64.354 54.669 C 65.168 55.483 68.329 54.813 69.143 55.626 C 71.022 57.505 75.573 57.747 77.283 59.457 C 78.187 60.361 81.396 59.74 82.55 60.894 C 83.625 61.969 86.875 62.346 87.817 63.288 C 89.7 65.171 93.777 66.853 95.479 68.555 C 96.74 69.817 100.121 68.888 101.225 69.991 C 105.057 73.824 114.415 74.78 121.815 74.78"/>
    </g>
  </g>
</svg>