<svg id="my-svg" width="400" height="400" viewBox="-1000 -1000 2000 2000" xmlns="http://www.w3.org/2000/svg" xmlns:xlink="http://www.w3.org/1999/xlink">
    <defs>
        <radialGradient id="rg-1">
            <stop offset="0%" stop-color="#9edfff"></stop>
            <stop offset="100%" stop-color="#ffffff"></stop>
        </radialGradient>
        <radialGradient id="rg-2">
            <stop offset="0%" stop-color="#ffbdfb"></stop>
            <stop offset="100%" stop-color="#ffffff"></stop>
        </radialGradient>
        <radialGradient id="rg-3">
            <stop offset="0%" stop-color="#fcffbd"></stop>
            <stop offset="100%" stop-color="#ffffff"></stop>
        </radialGradient>
    </defs>
    <g stroke="#fff" stroke-width="1">
        <path d="M 257.743 -23.328 L 867.82 -71.834 a 6.682 6.682 0 0 0 -1.205 -13.31 z" fill="url(#rg-2)"/>>
        <path d="M 28.568 -0.685 L 922.199 -13.109 a 9.007 9.007 0 0 0 -0.432 -18.008 z" fill="url(#rg-1)"/>>
        <path d="M -405.927 839.218 L -471.419 954.177 a 8.9 8.9 0 0 0 16.024 7.751 z" fill="url(#rg-1)"/>>
        <path d="M 291.922 -281.742 L 428.91 -409.57 a 3.154 3.154 0 0 0 -4.381 -4.539 z" fill="url(#rg-2)"/>>
        <path d="M 381.785 73.804 L 1029.407 206.609 a 7.472 7.472 0 0 0 2.836 -14.673 z" fill="url(#rg-2)"/>>
        <path d="M -300.027 256.798 L -510.245 429.19 a 5.725 5.725 0 0 0 7.446 8.699 z" fill="url(#rg-2)"/>>
        <path d="M 2.132 71.718 L 26.196 958.965 a 2.307 2.307 0 0 0 4.613 -0.137 z" fill="url(#rg-3)"/>>
        <path d="M 84.365 115.913 L 290.84 410.864 a 6.63 6.63 0 0 0 10.722 -7.804 z" fill="url(#rg-3)"/>>
        <path d="M 224.586 66.273 L 927.264 280.014 a 6.127 6.127 0 0 0 3.468 -11.752 z" fill="url(#rg-2)"/>>
        <path d="M -59.001 -419.012 L -191.964 -1384.488 a 2.955 2.955 0 0 0 -5.853 0.824 z" fill="url(#rg-3)"/>>
        <path d="M 223.7 525.979 L 429.38 1025.574 a 6.256 6.256 0 0 0 11.514 -4.897 z" fill="url(#rg-2)"/>>
        <path d="M 336.954 -43.674 L 405.045 -47.586 a 4.873 4.873 0 0 0 -1.253 -9.665 z" fill="url(#rg-2)"/>>
        <path d="M 34.655 15.795 L 282.339 133.28 a 4.181 4.181 0 0 0 3.468 -7.608 z" fill="url(#rg-2)"/>>
        <path d="M -85.643 -30.86 L -1119.212 -405.34 a 1.932 1.932 0 0 0 -1.31 3.635 z" fill="url(#rg-3)"/>>
        <path d="M 105.854 86.597 L 968.287 801.43 a 7.199 7.199 0 0 0 9.116 -11.144 z" fill="url(#rg-2)"/>>
        <path d="M -7.609 1.324 L -216.708 33.311 a 4.338 4.338 0 0 0 1.487 8.547 z" fill="url(#rg-1)"/>>
        <path d="M -162.531 -38.344 L -1194.247 -283.781 a 1.983 1.983 0 0 0 -0.91 3.859 z" fill="url(#rg-1)"/>>
        <path d="M -57.793 131.518 L -352.647 794.913 a 3.055 3.055 0 0 0 5.594 2.458 z" fill="url(#rg-3)"/>>
        <path d="M -908.432 469.976 L -1136.859 585.91 a 1.991 1.991 0 0 0 1.83 3.537 z" fill="url(#rg-1)"/>>
        <path d="M -1195.775 586.085 L -1261.996 607.643 a 9.786 9.786 0 0 0 8.614 17.575 z" fill="url(#rg-1)"/>>
        <path d="M 108.806 -1254.239 L 126.924 -1398.103 a 5.617 5.617 0 0 0 -11.191 -0.971 z" fill="url(#rg-2)"/>>
        <path d="M -36.21 225.221 L -72.764 397.269 a 8.781 8.781 0 0 0 17.339 2.788 z" fill="url(#rg-2)"/>>
        <path d="M 107.959 66.051 L 553.762 339.718 a 0.781 0.781 0 0 0 0.815 -1.332 z" fill="url(#rg-3)"/>>
        <path d="M -55.637 -226.778 L -216.417 -910.29 a 6.714 6.714 0 0 0 -13.04 3.199 z" fill="url(#rg-2)"/>>
        <path d="M 966.196 -271.237 L 995.79 -278.359 a 1.141 1.141 0 0 0 -0.617 -2.196 z" fill="url(#rg-3)"/>>
        <path d="M 647.499 -185.769 L 1154.025 -326.761 a 4.164 4.164 0 0 0 -2.296 -8.004 z" fill="url(#rg-2)"/>>
        <path d="M -280.274 -164.793 L -1189.733 -708.242 a 7.51 7.51 0 0 0 -7.613 12.947 z" fill="url(#rg-2)"/>>
        <path d="M 572.607 608.051 L 783.572 835.001 a 2.006 2.006 0 0 0 2.92 -2.75 z" fill="url(#rg-3)"/>>
        <path d="M -43 4.456 L -736.909 72.603 a 3.735 3.735 0 0 0 0.77 7.429 z" fill="url(#rg-2)"/>>
        <path d="M 491.436 -51.545 L 1044.932 -109.406 a 0.192 0.192 0 0 0 -0.04 -0.381 z" fill="url(#rg-3)"/>>
        <path d="M -686.862 -319.286 L -749.446 -349.951 a 1.426 1.426 0 0 0 -1.202 2.586 z" fill="url(#rg-3)"/>>
        <path d="M -10.193 5.157 L -625.604 307.06 a 8.458 8.458 0 0 0 7.637 15.094 z" fill="url(#rg-3)"/>>
        <path d="M -245.446 735.193 L -296.603 863.648 a 7.846 7.846 0 0 0 14.885 4.969 z" fill="url(#rg-2)"/>>
        <path d="M -35.733 -74.912 L -486.398 -1021.609 a 0.819 0.819 0 0 0 -1.478 0.705 z" fill="url(#rg-3)"/>>
        <path d="M 405.568 -345.648 L 1010.193 -857.914 a 2.306 2.306 0 0 0 -2.992 -3.51 z" fill="url(#rg-3)"/>>
        <path d="M -297.194 -194.273 L -1051.68 -690.535 a 2.564 2.564 0 0 0 -2.806 4.293 z" fill="url(#rg-1)"/>>
        <path d="M -73.963 -395.436 L -99.459 -583.446 a 9.505 9.505 0 0 0 -18.687 3.495 z" fill="url(#rg-3)"/>>
        <path d="M -544.462 215.169 L -984.056 378.797 a 9.391 9.391 0 0 0 6.903 17.468 z" fill="url(#rg-2)"/>>
        <path d="M 131.431 -57.475 L 627.77 -265.352 a 8.406 8.406 0 0 0 -6.736 -15.403 z" fill="url(#rg-2)"/>>
        <path d="M -93.784 415.941 L -133.982 550.528 a 9.611 9.611 0 0 0 18.751 4.228 z" fill="url(#rg-2)"/>>
        <path d="M 125.182 422.023 L 379.638 1294.246 a 4.089 4.089 0 0 0 7.841 -2.326 z" fill="url(#rg-3)"/>>
        <path d="M -10.439 -99.978 L -75.445 -816.419 a 9.75 9.75 0 0 0 -19.395 2.025 z" fill="url(#rg-3)"/>>
        <path d="M -716.887 -437.207 L -783.129 -486.183 a 7.322 7.322 0 0 0 -7.624 12.502 z" fill="url(#rg-1)"/>>
        <path d="M 60.248 -15.408 L 670.249 -164.475 a 6.717 6.717 0 0 0 -3.328 -13.014 z" fill="url(#rg-3)"/>>
        <path d="M -789.752 91.324 L -1295.501 142.423 a 7.336 7.336 0 0 0 1.685 14.575 z" fill="url(#rg-2)"/>>
        <path d="M 378.377 212.006 L 740.981 416.111 a 0.818 0.818 0 0 0 0.799 -1.427 z" fill="url(#rg-1)"/>>
        <path d="M -31.345 16.381 L -1190.998 618.815 a 3.193 3.193 0 0 0 2.957 5.659 z" fill="url(#rg-3)"/>>
        <path d="M 631.801 252.518 L 1208.244 486.179 a 3.036 3.036 0 0 0 2.253 -5.638 z" fill="url(#rg-1)"/>>
        <path d="M -76.952 -77.599 L -328.095 -334.735 a 2.732 2.732 0 0 0 -3.879 3.847 z" fill="url(#rg-1)"/>>
        <path d="M -255.669 1.978 L -1026.669 -1.413 a 9.356 9.356 0 0 0 0.145 18.712 z" fill="url(#rg-1)"/>>
        <path d="M 17.656 -1.536 L 581.075 -41.81 a 8.712 8.712 0 0 0 -1.51 -17.359 z" fill="url(#rg-2)"/>>
        <path d="M 32.001 -1199.81 L 40.719 -1405.841 a 3.222 3.222 0 0 0 -6.441 -0.172 z" fill="url(#rg-3)"/>>
        <path d="M -925.253 -27.204 L -1118.559 -40.764 a 7.873 7.873 0 0 0 -0.463 15.739 z" fill="url(#rg-2)"/>>
        <path d="M -313.57 619.466 L -353.655 679.825 a 8.505 8.505 0 0 0 15.176 7.682 z" fill="url(#rg-3)"/>>
        <path d="M -591.848 -254.875 L -1008.166 -435.834 a 1.537 1.537 0 0 0 -1.216 2.824 z" fill="url(#rg-1)"/>>
        <path d="M 613.042 235.418 L 719.327 277.194 a 0.897 0.897 0 0 0 0.643 -1.674 z" fill="url(#rg-1)"/>>
        <path d="M 560.621 53.162 L 1152.615 109.939 a 0.637 0.637 0 0 0 0.12 -1.268 z" fill="url(#rg-3)"/>>
        <path d="M 392.702 -72.771 L 1381.06 -252.523 a 3.342 3.342 0 0 0 -1.218 -6.573 z" fill="url(#rg-2)"/>>
        <path d="M -797.542 -260.818 L -974.118 -324.38 a 5.529 5.529 0 0 0 -3.437 10.511 z" fill="url(#rg-2)"/>>
        <path d="M 102.669 481.309 L 235.229 1133.401 a 6.395 6.395 0 0 0 12.508 -2.668 z" fill="url(#rg-3)"/>>
        <path d="M -486.173 763.037 L -562.774 878.531 a 2.542 2.542 0 0 0 4.287 2.732 z" fill="url(#rg-1)"/>>
        <path d="M 409.507 814.282 L 488.364 985.138 a 6.315 6.315 0 0 0 11.283 -5.674 z" fill="url(#rg-3)"/>>
        <path d="M 271.526 132.765 L 902.715 444.88 a 3.134 3.134 0 0 0 2.753 -5.63 z" fill="url(#rg-2)"/>>
        <path d="M 694.577 -98.708 L 1198.938 -165.153 a 5.178 5.178 0 0 0 -1.457 -10.254 z" fill="url(#rg-3)"/>>
        <path d="M -52.941 -116.397 L -575.307 -1277.773 a 5.335 5.335 0 0 0 -9.713 4.418 z" fill="url(#rg-1)"/>>
        <path d="M 521.718 325.03 L 1115.962 698.822 a 3.038 3.038 0 0 0 3.213 -5.157 z" fill="url(#rg-2)"/>>
        <path d="M -65.749 593.396 L -159.902 1390.355 a 5.814 5.814 0 0 0 11.558 1.281 z" fill="url(#rg-2)"/>>
        <path d="M 233.746 -6.557 L 599.119 -6.884 a 9.918 9.918 0 0 0 -0.556 -19.829 z" fill="url(#rg-1)"/>>
        <path d="M 292.64 -533.065 L 676.036 -1228.614 a 1.363 1.363 0 0 0 -2.39 -1.312 z" fill="url(#rg-1)"/>>
        <path d="M -766.227 627.083 L -851.098 686.553 a 7.73 7.73 0 0 0 9.792 11.964 z" fill="url(#rg-2)"/>>
        <path d="M 411.924 328.724 L 971.023 775.539 a 0.502 0.502 0 0 0 0.627 -0.785 z" fill="url(#rg-1)"/>>
        <path d="M -39.325 74.278 L -661.521 1243.191 a 2.954 2.954 0 0 0 5.221 2.764 z" fill="url(#rg-2)"/>>
        <path d="M -82.773 754.291 L -111.45 938.788 a 8.381 8.381 0 0 0 16.663 1.828 z" fill="url(#rg-3)"/>>
        <path d="M 71.049 455.109 L 76.549 507.238 a 2.606 2.606 0 0 0 5.15 -0.804 z" fill="url(#rg-2)"/>>
        <path d="M 172.284 152.372 L 523.611 469.12 a 4.516 4.516 0 0 0 5.983 -6.765 z" fill="url(#rg-2)"/>>
        <path d="M 401.788 -566.42 L 529.868 -732.804 a 8.201 8.201 0 0 0 -13.379 -9.49 z" fill="url(#rg-3)"/>>
        <path d="M -0.226 0.778 L -34.684 100.869 a 5.098 5.098 0 0 0 9.789 2.851 z" fill="url(#rg-2)"/>>
        <path d="M -371.325 -705.921 L -472.047 -901.312 a 1.821 1.821 0 0 0 -3.223 1.696 z" fill="url(#rg-2)"/>>
        <path d="M 92.599 544.314 L 116.698 689.619 a 0.611 0.611 0 0 0 1.205 -0.205 z" fill="url(#rg-3)"/>>
        <path d="M 26.635 -4.919 L 200.608 -29.546 a 7.38 7.38 0 0 0 -2.681 -14.515 z" fill="url(#rg-1)"/>>
        <path d="M 219.984 -21.238 L 307.176 -29.585 a 0.071 0.071 0 0 0 -0.014 -0.141 z" fill="url(#rg-2)"/>>
        <path d="M 907.367 858.216 L 904.995 862.318 a 4.61 4.61 0 0 0 6.335 -6.698 z" fill="url(#rg-3)"/>>
        <path d="M -1055.834 -789.517 L -1069.411 -807.843 a 6.546 6.546 0 0 0 -7.841 10.485 z" fill="url(#rg-1)"/>>
        <path d="M -223.785 216.022 L -562.607 533.122 a 7.172 7.172 0 0 0 9.962 10.32 z" fill="url(#rg-2)"/>>
        <path d="M 48.127 188.074 L 222.075 898.416 a 7.578 7.578 0 0 0 14.684 -3.757 z" fill="url(#rg-3)"/>>
        <path d="M -5.417 7.973 L -338.09 495.375 a 1.27 1.27 0 0 0 2.101 1.428 z" fill="url(#rg-3)"/>>
        <path d="M -144.508 157.555 L -710.093 767.777 a 4.346 4.346 0 0 0 6.405 5.875 z" fill="url(#rg-2)"/>>
        <path d="M 454.35 342.573 L 705.699 544.514 a 9.922 9.922 0 0 0 11.947 -15.845 z" fill="url(#rg-1)"/>>
        <path d="M -1330.906 -226.91 L -1329.847 -234.085 a 7.251 7.251 0 0 0 -2.437 14.295 z" fill="url(#rg-1)"/>>
        <path d="M -11.588 -32.126 L -434.948 -1217.001 a 3.786 3.786 0 0 0 -7.123 2.569 z" fill="url(#rg-2)"/>>
        <path d="M -171.47 -218.024 L -699.496 -894.598 a 3.207 3.207 0 0 0 -5.041 3.965 z" fill="url(#rg-2)"/>>
        <path d="M 580.387 -577.564 L 651.068 -635.641 a 8.691 8.691 0 0 0 -12.261 -12.321 z" fill="url(#rg-1)"/>>
        <path d="M -325.545 200.138 L -1052.407 642.274 a 4.025 4.025 0 0 0 4.216 6.857 z" fill="url(#rg-2)"/>>
        <path d="M 343.216 -750.575 L 428.238 -935.106 a 0.582 0.582 0 0 0 -1.059 -0.484 z" fill="url(#rg-2)"/>>
        <path d="M 52.011 -244.74 L 96.982 -445.568 a 2.241 2.241 0 0 0 -4.385 -0.932 z" fill="url(#rg-3)"/>>
        <path d="M 277.215 -381.907 L 386.157 -526.845 a 3.023 3.023 0 0 0 -4.893 -3.551 z" fill="url(#rg-2)"/>>
        <path d="M 512.265 -264.842 L 851.588 -438.506 a 1.569 1.569 0 0 0 -1.441 -2.787 z" fill="url(#rg-2)"/>>
        <path d="M 12.951 -438.397 L 30.443 -794.437 a 6.971 6.971 0 0 0 -13.936 -0.412 z" fill="url(#rg-1)"/>>
        <path d="M 882.709 369.691 L 960.049 406.391 a 3.974 3.974 0 0 0 3.071 -7.332 z" fill="url(#rg-3)"/>>
        <path d="M -829.291 -531.094 L -917.916 -597.594 a 8.205 8.205 0 0 0 -8.85 13.819 z" fill="url(#rg-3)"/>>
        <path d="M 100.608 -231.42 L 512.83 -1168.214 a 4.548 4.548 0 0 0 -8.342 -3.627 z" fill="url(#rg-2)"/>>
        <path d="M 73.933 -947.249 L 99.262 -1161.291 a 8.598 8.598 0 0 0 -17.143 -1.338 z" fill="url(#rg-2)"/>>
        <path d="M -431.985 -102.67 L -1192.051 -288.22 a 4.772 4.772 0 0 0 -2.207 9.285 z" fill="url(#rg-1)"/>>
        <path d="M -5.001 15.847 L -274.358 862.937 a 1.927 1.927 0 0 0 3.675 1.16 z" fill="url(#rg-3)"/>>
        <path d="M 299.152 -49.01 L 760.257 -121.018 a 3.488 3.488 0 0 0 -1.128 -6.885 z" fill="url(#rg-3)"/>>
        <path d="M 1041.011 -447.331 L 1222.288 -519.388 a 5.365 5.365 0 0 0 -4.236 -9.858 z" fill="url(#rg-1)"/>>
        <path d="M 237.702 -93.548 L 1273.526 -498.637 a 2.382 2.382 0 0 0 -1.744 -4.433 z" fill="url(#rg-2)"/>>
        <path d="M -565.919 -247.406 L -854.992 -374.018 a 0.217 0.217 0 0 0 -0.173 0.397 z" fill="url(#rg-3)"/>>
        <path d="M 67.546 -208.382 L 149.598 -457.561 a 1.218 1.218 0 0 0 -2.318 -0.751 z" fill="url(#rg-1)"/>>
        <path d="M -425.897 -336.658 L -574.524 -463.451 a 7.302 7.302 0 0 0 -9.057 11.457 z" fill="url(#rg-3)"/>>
        <path d="M -140.012 249.416 L -367.46 641.981 a 6.171 6.171 0 0 0 10.762 6.042 z" fill="url(#rg-3)"/>>
        <path d="M -21.674 39.544 L -116.8 192.69 a 9.81 9.81 0 0 0 17.206 9.43 z" fill="url(#rg-1)"/>>
        <path d="M 551.638 -1024.341 L 559.915 -1030.157 a 4.53 4.53 0 0 0 -7.977 -4.296 z" fill="url(#rg-2)"/>>
        <path d="M 842.054 -298.558 L 935.322 -329.209 a 2.279 2.279 0 0 0 -1.523 -4.295 z" fill="url(#rg-1)"/>>
        <path d="M -73.452 -388.431 L -112.136 -607.323 a 2.662 2.662 0 0 0 -5.231 0.989 z" fill="url(#rg-1)"/>>
        <path d="M 113.315 64.387 L 906.33 518.397 a 2.964 2.964 0 0 0 2.929 -5.155 z" fill="url(#rg-3)"/>>
        <path d="M 163.473 234.027 L 423.284 610.185 a 2.413 2.413 0 0 0 3.956 -2.764 z" fill="url(#rg-1)"/>>
        <path d="M 2.965 -159.878 L 7.406 -187.757 a 3.923 3.923 0 0 0 -7.845 -0.145 z" fill="url(#rg-2)"/>>
        <path d="M 140.045 104.343 L 874.406 659.875 a 6.726 6.726 0 0 0 8.037 -10.787 z" fill="url(#rg-1)"/>>
        <path d="M -1009.983 -461.364 L -1057.969 -490.361 a 6.437 6.437 0 0 0 -5.349 11.71 z" fill="url(#rg-2)"/>>
        <path d="M -750.749 735.756 L -844.244 821.143 a 4.457 4.457 0 0 0 6.24 6.367 z" fill="url(#rg-3)"/>>
        <path d="M -176.503 773.742 L -206.299 874.864 a 6.56 6.56 0 0 0 12.792 2.918 z" fill="url(#rg-2)"/>>
        <path d="M -198.721 -158.941 L -861.137 -698.088 a 7.289 7.289 0 0 0 -9.106 11.385 z" fill="url(#rg-1)"/>>
        <path d="M 238.291 51.527 L 1257.903 276.302 a 4.201 4.201 0 0 0 1.776 -8.212 z" fill="url(#rg-2)"/>>
        <path d="M 8.128 1.552 L 1229.183 238.568 a 3.77 3.77 0 0 0 1.414 -7.407 z" fill="url(#rg-1)"/>>
        <path d="M -650.217 35.168 L -691.277 36.012 a 1.375 1.375 0 0 0 0.149 2.747 z" fill="url(#rg-3)"/>>
        <path d="M 45.974 -136.338 L 159.166 -457.779 a 4.547 4.547 0 0 0 -8.617 -2.906 z" fill="url(#rg-1)"/>>
        <path d="M -380.76 -111.247 L -742.82 -220.475 a 3.307 3.307 0 0 0 -1.855 6.349 z" fill="url(#rg-1)"/>>
        <path d="M 222.855 -87.681 L 749.683 -286.201 a 8.149 8.149 0 0 0 -5.967 -15.166 z" fill="url(#rg-3)"/>>
        <path d="M 44.911 -125.72 L 192.05 -520.183 a 5.862 5.862 0 0 0 -11.041 -3.944 z" fill="url(#rg-2)"/>>
        <path d="M 209.504 -192.826 L 849.838 -772.219 a 7.332 7.332 0 0 0 -9.931 -10.79 z" fill="url(#rg-2)"/>>
        <path d="M -221.204 224.853 L -310.267 314.916 a 0.329 0.329 0 0 0 0.469 0.461 z" fill="url(#rg-1)"/>>
        <path d="M 4.633 134.694 L 7.111 270.372 a 2.186 2.186 0 0 0 4.37 -0.15 z" fill="url(#rg-2)"/>>
        <path d="M -299.678 -94.72 L -733.796 -232.854 a 0.879 0.879 0 0 0 -0.53 1.676 z" fill="url(#rg-3)"/>>
        <path d="M 555.885 -472.692 L 736.899 -613.997 a 9.612 9.612 0 0 0 -12.454 -14.646 z" fill="url(#rg-1)"/>>
        <path d="M -279.889 -500.598 L -388.784 -701.477 a 2.984 2.984 0 0 0 -5.21 2.913 z" fill="url(#rg-3)"/>>
        <path d="M -231.54 149.113 L -599.543 379.667 a 5.417 5.417 0 0 0 5.866 9.108 z" fill="url(#rg-3)"/>>
        <path d="M 84.768 -89.087 L 507.651 -521.479 a 8.298 8.298 0 0 0 -12.022 -11.439 z" fill="url(#rg-1)"/>>
        <path d="M -73.828 74.468 L -720.391 715.786 a 7.64 7.64 0 0 0 10.852 10.758 z" fill="url(#rg-2)"/>>
        <path d="M 327.171 -89.565 L 402.189 -102.115 a 7.703 7.703 0 0 0 -4.068 -14.86 z" fill="url(#rg-1)"/>>
        <path d="M 811.24 466.491 L 841.7 493.838 a 8.523 8.523 0 0 0 8.497 -14.777 z" fill="url(#rg-1)"/>>
        <path d="M 16.301 1.147 L 607.183 51.974 a 9.227 9.227 0 0 0 1.295 -18.408 z" fill="url(#rg-2)"/>>
        <path d="M 252.99 336.934 L 403.115 543.016 a 3.69 3.69 0 0 0 5.901 -4.431 z" fill="url(#rg-3)"/>>
        <path d="M -239.968 -353.82 L -429.2 -649.322 a 9.255 9.255 0 0 0 -15.32 10.39 z" fill="url(#rg-2)"/>>
        <path d="M -456.151 17.676 L -584.912 18.932 a 3.73 3.73 0 0 0 0.289 7.455 z" fill="url(#rg-1)"/>>
        <path d="M 471.4 148.599 L 708.455 231.223 a 7.532 7.532 0 0 0 4.529 -14.367 z" fill="url(#rg-3)"/>>
        <path d="M 627.808 -341.562 L 1138.642 -609.172 a 9.059 9.059 0 0 0 -8.659 -15.916 z" fill="url(#rg-3)"/>>
        <path d="M -420.075 -34.165 L -536.27 -51.805 a 8.163 8.163 0 0 0 -1.323 16.272 z" fill="url(#rg-2)"/>>
        <path d="M 791.82 450.497 L 1034.918 597.095 a 7.205 7.205 0 0 0 7.126 -12.525 z" fill="url(#rg-2)"/>>
        <path d="M -22.705 49.225 L -285.164 608.145 a 4.229 4.229 0 0 0 7.68 3.542 z" fill="url(#rg-1)"/>>
        <path d="M 383.874 -1230.526 L 417.763 -1339.088 a 0.02 0.02 0 0 0 -0.039 -0.012 z" fill="url(#rg-2)"/>>
        <path d="M -347.898 -89.208 L -874.554 -227.104 a 2.763 2.763 0 0 0 -1.372 5.352 z" fill="url(#rg-1)"/>>
        <path d="M 63.903 38.917 L 1157.286 707.908 a 2.667 2.667 0 0 0 2.775 -4.556 z" fill="url(#rg-2)"/>>
        <path d="M -810.996 260.038 L -884.855 273.675 a 9.566 9.566 0 0 0 5.842 18.219 z" fill="url(#rg-1)"/>>
        <path d="M 21.7 17.54 L 1075.678 882.129 a 9.855 9.855 0 0 0 12.389 -15.328 z" fill="url(#rg-2)"/>>
        <path d="M 61.132 -124.174 L 135.265 -262.466 a 5.428 5.428 0 0 0 -9.74 -4.795 z" fill="url(#rg-1)"/>>
        <path d="M -174.652 -211.496 L -474.956 -583.247 a 5.156 5.156 0 0 0 -7.951 6.566 z" fill="url(#rg-1)"/>>
        <path d="M -602.418 -299.924 L -1073.274 -536.437 a 1.871 1.871 0 0 0 -1.668 3.35 z" fill="url(#rg-3)"/>>
        <path d="M 411.486 624.162 L 499.608 758.761 a 0.513 0.513 0 0 0 0.857 -0.565 z" fill="url(#rg-3)"/>>
        <path d="M -510.313 -341.571 L -1148.26 -771.575 a 2.495 2.495 0 0 0 -2.776 4.147 z" fill="url(#rg-3)"/>>
        <path d="M 57.803 786.676 L 88.056 1292.472 a 6.893 6.893 0 0 0 13.748 -1.01 z" fill="url(#rg-3)"/>>
        <path d="M -226.258 225.111 L -894.762 889.537 a 0.489 0.489 0 0 0 0.689 0.693 z" fill="url(#rg-1)"/>>
        <path d="M -54.184 -83.691 L -65.271 -112.795 a 6.51 6.51 0 0 0 -10.93 7.076 z" fill="url(#rg-3)"/>>
        <path d="M 8.254 3.562 L 175.87 76.396 a 0.469 0.469 0 0 0 0.372 -0.862 z" fill="url(#rg-2)"/>>
        <path d="M -112.041 3.278 L -667.044 16.442 a 3.07 3.07 0 0 0 0.18 6.137 z" fill="url(#rg-3)"/>>
        <path d="M -330.109 -985.488 L -364.935 -1091.952 a 0.793 0.793 0 0 0 -1.504 0.504 z" fill="url(#rg-2)"/>>
        <path d="M 273.094 -686.584 L 295.701 -724.736 a 6.907 6.907 0 0 0 -12.835 -5.105 z" fill="url(#rg-3)"/>>
        <path d="M 2.196 100.736 L 1.53 373.39 a 6.606 6.606 0 0 0 13.209 -0.288 z" fill="url(#rg-3)"/>>
        <path d="M 277.477 91.009 L 1239.676 416.455 a 9.366 9.366 0 0 0 5.838 -17.798 z" fill="url(#rg-3)"/>>
        <path d="M 55.293 -155.526 L 267.437 -747.246 a 1.674 1.674 0 0 0 -3.154 -1.121 z" fill="url(#rg-2)"/>>
        <path d="M 223.463 -90.338 L 376.598 -148.604 a 3.376 3.376 0 0 0 -2.53 -6.26 z" fill="url(#rg-3)"/>>
        <path d="M -1.38 -1.245 L -478.628 -440.953 a 6.694 6.694 0 0 0 -8.969 9.939 z" fill="url(#rg-1)"/>>
        <path d="M -66.774 -170.43 L -359.948 -925.291 a 2.402 2.402 0 0 0 -4.473 1.753 z" fill="url(#rg-1)"/>>
        <path d="M 471.624 -844.517 L 512.419 -909.167 a 4.095 4.095 0 0 0 -7.151 -3.994 z" fill="url(#rg-1)"/>>
        <path d="M 52.192 -404.769 L 167.838 -1244.074 a 7.364 7.364 0 0 0 -14.607 -1.883 z" fill="url(#rg-1)"/>>
        <path d="M -45.813 181.291 L -166.611 635.222 a 5.903 5.903 0 0 0 11.446 2.893 z" fill="url(#rg-2)"/>>
        <path d="M -167.553 749.345 L -308.851 1340.416 a 8.915 8.915 0 0 0 17.4 3.891 z" fill="url(#rg-1)"/>>
        <path d="M -761.884 373.033 L -967.726 471.71 a 1.893 1.893 0 0 0 1.665 3.4 z" fill="url(#rg-3)"/>>
        <path d="M 36.303 75.785 L 52.1 110.684 a 0.83 0.83 0 0 0 1.497 -0.717 z" fill="url(#rg-1)"/>>
        <path d="M -609.94 638.623 L -847.491 875.866 a 7.928 7.928 0 0 0 11.467 10.952 z" fill="url(#rg-3)"/>>
        <path d="M -80.491 -32.124 L -598.075 -243.802 a 4.75 4.75 0 0 0 -3.521 8.823 z" fill="url(#rg-3)"/>>
        <path d="M -273.987 805.275 L -436.504 1252.658 a 9.749 9.749 0 0 0 18.459 6.281 z" fill="url(#rg-1)"/>>
        <path d="M -149.908 -724.706 L -199.118 -989.725 a 5.494 5.494 0 0 0 -10.759 2.226 z" fill="url(#rg-2)"/>>
        <path d="M -565.677 228.525 L -1138.4 451.706 a 7.593 7.593 0 0 0 5.688 14.081 z" fill="url(#rg-2)"/>>
        <path d="M 28.755 595.456 L 32.66 700.438 a 1.163 1.163 0 0 0 2.324 -0.112 z" fill="url(#rg-3)"/>>
        <path d="M -115.228 -287.224 L -459.441 -1158.881 a 5.084 5.084 0 0 0 -9.436 3.786 z" fill="url(#rg-1)"/>>
        <path d="M -51.253 245.254 L -187.153 884.193 a 2.326 2.326 0 0 0 4.553 0.952 z" fill="url(#rg-2)"/>>
        <path d="M -25.042 11.097 L -264.971 115.887 a 1.399 1.399 0 0 0 1.134 2.558 z" fill="url(#rg-3)"/>>
        <path d="M 4.485 -6.752 L 441.038 -661.804 a 1.182 1.182 0 0 0 -1.969 -1.308 z" fill="url(#rg-2)"/>>
        <path d="M 162.786 -140.747 L 736.711 -625.898 a 8.375 8.375 0 0 0 -10.955 -12.67 z" fill="url(#rg-2)"/>>
        <path d="M -71.791 1080.661 L -95.001 1373.502 a 3.747 3.747 0 0 0 7.478 0.497 z" fill="url(#rg-2)"/>>
        <path d="M 208.867 -224.825 L 776.467 -821.615 a 9.647 9.647 0 0 0 -14.135 -13.132 z" fill="url(#rg-2)"/>>
        <path d="M -291.463 -288.297 L -633.475 -640.354 a 9.782 9.782 0 0 0 -13.758 13.909 z" fill="url(#rg-2)"/>>
        <path d="M 867.779 262.188 L 1332.786 405.951 a 3.127 3.127 0 0 0 1.809 -5.987 z" fill="url(#rg-2)"/>>
        <path d="M -52.786 -65.789 L -279.792 -351.113 a 1.501 1.501 0 0 0 -2.342 1.879 z" fill="url(#rg-1)"/>>
        <path d="M 155.679 -402.818 L 474.287 -1212.4 a 5.339 5.339 0 0 0 -9.96 -3.849 z" fill="url(#rg-1)"/>>
        <path d="M -498.826 -127.431 L -760.9 -201.719 a 7.11 7.11 0 0 0 -3.52 13.777 z" fill="url(#rg-3)"/>>
        <path d="M 343.914 -142.809 L 971.275 -394.02 a 8.588 8.588 0 0 0 -6.587 -15.862 z" fill="url(#rg-3)"/>>
        <path d="M 195.451 51.09 L 796.261 213.879 a 5.553 5.553 0 0 0 2.808 -10.744 z" fill="url(#rg-1)"/>>
        <path d="M 442.934 -846.627 L 559.691 -1051.812 a 8.338 8.338 0 0 0 -14.776 -7.73 z" fill="url(#rg-1)"/>>
        <path d="M -3.685 18.282 L -93.432 433.467 a 5.945 5.945 0 0 0 11.656 2.349 z" fill="url(#rg-1)"/>>
        <path d="M 430.619 849.817 L 477.444 963.438 a 9.588 9.588 0 0 0 17.105 -8.667 z" fill="url(#rg-3)"/>>
        <path d="M 34.704 10.737 L 1051.672 335.698 a 9.877 9.877 0 0 0 5.838 -18.871 z" fill="url(#rg-3)"/>>
        <path d="M -371.213 -643.786 L -482.747 -849.458 a 6.116 6.116 0 0 0 -10.596 6.11 z" fill="url(#rg-2)"/>>
        <path d="M 236.111 263.789 L 588.43 663.323 a 3.944 3.944 0 0 0 5.878 -5.261 z" fill="url(#rg-1)"/>>
        <path d="M 497.785 -337.748 L 748.115 -505.732 a 1.543 1.543 0 0 0 -1.732 -2.553 z" fill="url(#rg-1)"/>>
        <path d="M 154.67 369.09 L 413.629 1004.474 a 6.737 6.737 0 0 0 12.426 -5.207 z" fill="url(#rg-3)"/>>
        <path d="M -2.373 1.078 L -1023.611 457.864 a 6.422 6.422 0 0 0 5.311 11.694 z" fill="url(#rg-3)"/>>
        <path d="M 909.262 357.355 L 1050.648 421.72 a 8.188 8.188 0 0 0 5.99 -15.241 z" fill="url(#rg-2)"/>>
        <path d="M 111.573 652.905 L 112.572 678.661 a 3.354 3.354 0 0 0 6.613 -1.13 z" fill="url(#rg-1)"/>>
        <path d="M 787.643 558.477 L 873.417 620.367 a 0.874 0.874 0 0 0 1.011 -1.426 z" fill="url(#rg-2)"/>>
        <path d="M 119.575 40.184 L 232.609 85.273 a 6.734 6.734 0 0 0 4.29 -12.766 z" fill="url(#rg-2)"/>>
        <path d="M -83.121 218.331 L -426.472 1113.643 a 2.333 2.333 0 0 0 4.36 1.66 z" fill="url(#rg-3)"/>>
        <path d="M 538.673 109.173 L 808.402 165.537 a 1.664 1.664 0 0 0 0.661 -3.262 z" fill="url(#rg-1)"/>>
        <path d="M 135.432 56.125 L 831.627 354.926 a 9.501 9.501 0 0 0 7.275 -17.554 z" fill="url(#rg-1)"/>>
        <path d="M -7.864 241.952 L -13.669 348.514 a 2.341 2.341 0 0 0 4.679 0.152 z" fill="url(#rg-2)"/>>
        <path d="M -98.926 157.074 L -415.588 653.922 a 3.168 3.168 0 0 0 5.362 3.377 z" fill="url(#rg-1)"/>>
        <path d="M -225.584 432.349 L -255.119 474.922 a 6.491 6.491 0 0 0 11.51 6.005 z" fill="url(#rg-1)"/>>
        <path d="M 13.568 515.746 L 30.991 1284.92 a 2.81 2.81 0 0 0 5.617 -0.148 z" fill="url(#rg-3)"/>>
        <path d="M -457.94 -36.048 L -1017.58 -83.656 a 3.544 3.544 0 0 0 -0.556 7.067 z" fill="url(#rg-1)"/>>
        <path d="M -340.704 250.699 L -1100.677 809.485 a 0.339 0.339 0 0 0 0.402 0.546 z" fill="url(#rg-2)"/>>
        <path d="M 54.955 -13.847 L 1135.288 -277.651 a 8.142 8.142 0 0 0 -3.979 -15.791 z" fill="url(#rg-2)"/>>
        <path d="M -16.41 510.228 L -35.776 1047.62 a 2.081 2.081 0 0 0 4.159 0.134 z" fill="url(#rg-3)"/>>
        <path d="M -102.306 27.52 L -1211.531 321.604 a 4.147 4.147 0 0 0 2.154 8.009 z" fill="url(#rg-2)"/>>
        <path d="M -130.777 200.648 L -519.12 785.643 a 5.916 5.916 0 0 0 9.912 6.46 z" fill="url(#rg-2)"/>>
        <path d="M -499.773 142.376 L -1305.328 362.878 a 8.642 8.642 0 0 0 4.735 16.622 z" fill="url(#rg-3)"/>>
        <path d="M 115.748 -1129.095 L 146.236 -1379.145 a 4.83 4.83 0 0 0 -9.609 -0.985 z" fill="url(#rg-3)"/>>
        <path d="M 2.251 129.262 L -1.075 455.213 a 9.001 9.001 0 0 0 17.998 -0.313 z" fill="url(#rg-3)"/>>
        <path d="M 27.934 54.275 L 437.324 854.253 a 2.082 2.082 0 0 0 3.703 -1.906 z" fill="url(#rg-2)"/>>
        <path d="M 637.331 204.234 L 1004.193 328.895 a 6.761 6.761 0 0 0 4.126 -12.876 z" fill="url(#rg-1)"/>>
        <path d="M -176.115 -33.581 L -956.628 -187.548 a 5.053 5.053 0 0 0 -1.893 9.926 z" fill="url(#rg-1)"/>>
        <path d="M 222.145 -119.012 L 263.51 -136.832 a 3.826 3.826 0 0 0 -3.613 -6.744 z" fill="url(#rg-1)"/>>
        <path d="M -304.857 -260.633 L -855.098 -739.162 a 6.163 6.163 0 0 0 -8.009 9.368 z" fill="url(#rg-2)"/>>
        <path d="M -315.945 -119.613 L -739.556 -280.294 a 0.287 0.287 0 0 0 -0.203 0.537 z" fill="url(#rg-2)"/>>
        <path d="M -515.757 283.579 L -685.012 372.968 a 3.218 3.218 0 0 0 3.101 5.639 z" fill="url(#rg-1)"/>>
        <path d="M -779.807 -295.331 L -1291.747 -495.156 a 5.556 5.556 0 0 0 -3.935 10.391 z" fill="url(#rg-2)"/>>
        <path d="M 381.083 -410.117 L 805.053 -856.606 a 6.659 6.659 0 0 0 -9.756 -9.066 z" fill="url(#rg-2)"/>>
        <path d="M 325.106 -272.485 L 466.515 -383.855 a 5.48 5.48 0 0 0 -7.04 -8.4 z" fill="url(#rg-2)"/>>
        <path d="M 799.474 -158.364 L 848.194 -162.999 a 4.921 4.921 0 0 0 -1.912 -9.654 z" fill="url(#rg-2)"/>>
        <path d="M -122.197 -250.652 L -275.21 -571.892 a 3.232 3.232 0 0 0 -5.81 2.832 z" fill="url(#rg-3)"/>>
        <path d="M 608.602 929.439 L 740.672 1147.478 a 8.953 8.953 0 0 0 14.981 -9.81 z" fill="url(#rg-1)"/>>
        <path d="M -521.392 -176.951 L -863.264 -299.421 a 6.103 6.103 0 0 0 -3.922 11.558 z" fill="url(#rg-3)"/>>
        <path d="M -159.816 -192.92 L -546.528 -661.008 a 0.812 0.812 0 0 0 -1.25 1.036 z" fill="url(#rg-1)"/>>
        <path d="M -573.29 46.734 L -1091.673 85.702 a 3.279 3.279 0 0 0 0.533 6.536 z" fill="url(#rg-3)"/>>
        <path d="M -48.532 21.386 L -841.624 362.051 a 8.069 8.069 0 0 0 6.508 14.768 z" fill="url(#rg-1)"/>>
        <path d="M 141.029 209.542 L 373.147 565.808 a 6.356 6.356 0 0 0 10.546 -7.098 z" fill="url(#rg-3)"/>>
        <path d="M -11.787 -20.492 L -499.253 -868.333 a 0.17 0.17 0 0 0 -0.295 0.17 z" fill="url(#rg-2)"/>>
        <path d="M -89.719 24.042 L -745.534 197.408 a 2.296 2.296 0 0 0 1.189 4.436 z" fill="url(#rg-3)"/>>
        <path d="M 535.773 -106.268 L 960.772 -185.452 a 5.015 5.015 0 0 0 -1.951 -9.839 z" fill="url(#rg-3)"/>>
        <path d="M -847.026 -946.258 L -893.674 -1000.906 a 1.69 1.69 0 0 0 -2.519 2.255 z" fill="url(#rg-1)"/>>
    </g>
    <g stroke="#fff" stroke-width="1" fill="#fff">
        <circle cx="91.123" cy="555.812" r="1.771"/>
        <circle cx="652.979" cy="557.15" r="0.13"/>
        <circle cx="785.733" cy="480.63" r="1.65"/>
        <circle cx="631.477" cy="412.683" r="0.308"/>
        <circle cx="224.23" cy="-910.725" r="2.315"/>
        <circle cx="-633.207" cy="-313.92" r="0.26"/>
        <circle cx="-56.124" cy="-38.608" r="1.95"/>
        <circle cx="-794.546" cy="-741.88" r="1.719"/>
        <circle cx="-894.293" cy="892.801" r="0.336"/>
        <circle cx="-160.336" cy="422.198" r="0.386"/>
        <circle cx="-831.2" cy="-874.493" r="2.373"/>
        <circle cx="-401.688" cy="48.541" r="1.565"/>
        <circle cx="-330.872" cy="266.266" r="1.028"/>
        <circle cx="-639.596" cy="935.13" r="2.193"/>
        <circle cx="414.669" cy="-198.662" r="0.457"/>
        <circle cx="-994.061" cy="-264.807" r="1.69"/>
        <circle cx="50.163" cy="-207.091" r="2.498"/>
        <circle cx="-703.29" cy="988.849" r="1.57"/>
        <circle cx="-704.099" cy="-721.064" r="1.458"/>
        <circle cx="725.16" cy="-75.646" r="2.01"/>
        <circle cx="-484.384" cy="-330.584" r="1.093"/>
        <circle cx="-191.966" cy="-206.871" r="0.742"/>
        <circle cx="-944.119" cy="-776.628" r="0.988"/>
        <circle cx="-812.921" cy="-55.186" r="1.481"/>
        <circle cx="242.643" cy="-723.136" r="0.165"/>
        <circle cx="36.44" cy="537.087" r="2.263"/>
        <circle cx="747.784" cy="76.728" r="1.544"/>
        <circle cx="642.931" cy="-241.779" r="2.006"/>
        <circle cx="-940.305" cy="116.75" r="1.065"/>
        <circle cx="377.559" cy="62.415" r="0.823"/>
        <circle cx="-360.341" cy="-504.808" r="0.407"/>
        <circle cx="963.043" cy="-431.578" r="0.704"/>
        <circle cx="387.477" cy="322.432" r="1.537"/>
        <circle cx="547.634" cy="-765.271" r="1.795"/>
        <circle cx="-855.573" cy="-941.79" r="1.95"/>
        <circle cx="801.976" cy="-807.82" r="1.464"/>
        <circle cx="208.254" cy="-948.966" r="0.281"/>
        <circle cx="-272.952" cy="-886.472" r="0.591"/>
        <circle cx="-420.689" cy="-270.69" r="1.536"/>
        <circle cx="-878.396" cy="-568.777" r="2.25"/>
        <circle cx="-424.353" cy="795.827" r="1.727"/>
        <circle cx="206.243" cy="-602.706" r="0.323"/>
        <circle cx="275.395" cy="-42.847" r="2.067"/>
        <circle cx="-367.464" cy="-100.055" r="0.598"/>
        <circle cx="-557.3" cy="775.38" r="1.865"/>
        <circle cx="-120.758" cy="-604.938" r="2.381"/>
        <circle cx="13.615" cy="489.29" r="0.855"/>
        <circle cx="902.681" cy="92.528" r="1.369"/>
        <circle cx="-739.144" cy="-210.119" r="0.968"/>
        <circle cx="-505.225" cy="576.259" r="0.353"/>
        <circle cx="-534.129" cy="-700.876" r="2.265"/>
        <circle cx="747.845" cy="182.692" r="0.409"/>
        <circle cx="-220.42" cy="940.764" r="0.716"/>
        <circle cx="893.45" cy="996.835" r="2.357"/>
        <circle cx="198.011" cy="526.041" r="1.81"/>
        <circle cx="-73.61" cy="-235.186" r="1.124"/>
        <circle cx="-372.999" cy="-892.82" r="2.394"/>
        <circle cx="-552.901" cy="536.679" r="0.099"/>
        <circle cx="-220.173" cy="-857.013" r="1.554"/>
        <circle cx="-642.612" cy="641.24" r="1.716"/>
        <circle cx="-724.975" cy="-482.357" r="0.576"/>
        <circle cx="117.951" cy="-27.62" r="1.66"/>
        <circle cx="-912.084" cy="-652.664" r="2.101"/>
        <circle cx="-501.309" cy="-602.532" r="2.286"/>
        <circle cx="-108.239" cy="538.595" r="0.013"/>
        <circle cx="-124.359" cy="541.877" r="1.672"/>
        <circle cx="-404.621" cy="-619.932" r="0.954"/>
        <circle cx="782.717" cy="102.465" r="1.207"/>
        <circle cx="34.38" cy="112.922" r="0.716"/>
        <circle cx="952.436" cy="674.161" r="0.949"/>
        <circle cx="-449.261" cy="40.411" r="1.737"/>
        <circle cx="-319.896" cy="-673.336" r="1.656"/>
        <circle cx="307.33" cy="-102.621" r="1.899"/>
        <circle cx="-214.225" cy="314.617" r="1.289"/>
        <circle cx="-357.782" cy="-443.361" r="1.789"/>
        <circle cx="677.011" cy="-641.919" r="0.802"/>
        <circle cx="-585.024" cy="104.527" r="1.708"/>
        <circle cx="192.375" cy="-720.881" r="1.305"/>
        <circle cx="-489.063" cy="-442.878" r="2.143"/>
        <circle cx="510.081" cy="-557.577" r="0.014"/>
        <circle cx="-425.26" cy="81.959" r="2.043"/>
        <circle cx="378.707" cy="-337.057" r="0.681"/>
        <circle cx="399.747" cy="-794.461" r="1.989"/>
        <circle cx="82.235" cy="144.159" r="0.439"/>
        <circle cx="92.023" cy="797.163" r="0.028"/>
        <circle cx="726.248" cy="747.724" r="1.719"/>
        <circle cx="712.886" cy="834.868" r="2.098"/>
        <circle cx="895.399" cy="472.059" r="0.527"/>
        <circle cx="-484.115" cy="-567.587" r="1.303"/>
        <circle cx="-623.826" cy="-179.115" r="2.042"/>
        <circle cx="-826.898" cy="-20.089" r="1.236"/>
        <circle cx="428.095" cy="641.585" r="2.367"/>
        <circle cx="-167.368" cy="-381.801" r="0.159"/>
        <circle cx="-832.239" cy="-608.309" r="1.975"/>
        <circle cx="-586.632" cy="258.636" r="1.081"/>
        <circle cx="-72.346" cy="558.144" r="2.258"/>
        <circle cx="-999.799" cy="282.303" r="2.421"/>
        <circle cx="225.748" cy="-125.904" r="1.72"/>
        <circle cx="-735.782" cy="821.033" r="0.348"/>
        <circle cx="109.476" cy="998.108" r="0.773"/>
    </g>
</svg>