<?xml version="1.0" encoding="utf-8"?>
<svg fill="#000000" width="800px" height="800px" viewBox="0 0 256 256" xmlns="http://www.w3.org/2000/svg">
  <path style="fill:#00ff33" d="M 15.737 13.686 C 15.737 13.956 15.898 14.325 16.094 14.51 L 16.885 15.257 C 17.081 15.442 17.412 15.455 17.621 15.287 L 18.786 14.352 C 18.996 14.183 19.167 13.828 19.167 13.557 L 19.176 4.84 C 19.177 4.57 19.018 4.5 18.82 4.684 L 16.077 7.241 C 15.879 7.425 15.72 7.794 15.721 8.062 L 15.737 13.686 Z M 4.909 17.138 C 5.122 16.972 5.469 16.97 5.684 17.134 L 6.575 17.813 C 6.79 17.976 6.963 18.328 6.963 18.598 L 6.953 24.189 C 6.953 24.459 6.791 24.824 6.592 25.008 L 3.888 27.488 C 3.689 27.67 3.528 27.599 3.528 27.328 L 3.528 18.706 C 3.528 18.436 3.701 18.082 3.913 17.915 L 4.909 17.138 Z M 14.932 25.219 C 15.202 25.219 15.583 25.367 15.782 25.549 L 18.766 28.278 C 18.965 28.46 18.908 28.607 18.637 28.608 L 4.128 28.619 C 3.858 28.619 3.799 28.469 3.995 28.283 L 6.893 25.545 C 7.09 25.359 7.468 25.209 7.739 25.209 L 14.932 25.219 Z M 14.932 6.96 C 15.202 6.96 15.583 6.812 15.782 6.63 L 18.766 3.901 C 18.965 3.719 18.908 3.572 18.638 3.572 L 4.139 3.572 C 3.869 3.572 3.809 3.722 4.005 3.907 L 6.894 6.635 C 7.09 6.82 7.468 6.97 7.739 6.97 L 14.932 6.96 Z M 15.804 18.644 C 15.806 18.373 15.975 18.014 16.183 17.839 L 16.96 17.188 C 17.167 17.014 17.517 16.997 17.74 17.149 L 18.756 17.839 C 18.98 17.992 19.162 18.334 19.165 18.605 L 19.227 27.237 C 19.229 27.506 19.066 27.582 18.861 27.405 L 16.132 25.029 C 15.928 24.851 15.764 24.489 15.766 24.217 L 15.804 18.644 Z M 6.609 7.347 C 6.807 7.531 6.967 7.898 6.967 8.169 L 6.967 13.593 C 6.967 13.864 6.811 14.236 6.619 14.425 L 5.719 15.31 C 5.527 15.499 5.203 15.514 4.994 15.341 L 3.905 14.445 C 3.697 14.274 3.528 13.915 3.528 13.647 L 3.528 4.981 C 3.528 4.711 3.689 4.643 3.886 4.825 L 6.609 7.347 Z" fill-rule="evenodd" />
  <path style="fill:#00ff33" d="M 31.71 13.273 C 31.711 13.567 31.888 13.97 32.105 14.172 L 32.977 14.986 C 33.193 15.188 33.557 15.203 33.788 15.019 L 35.074 13.999 C 35.305 13.815 35.494 13.427 35.494 13.132 L 35.505 3.623 C 35.505 3.329 35.329 3.253 35.111 3.453 L 32.085 6.243 C 31.868 6.444 31.692 6.845 31.693 7.138 L 31.71 13.273 Z M 31.784 18.681 C 31.786 18.386 31.973 17.993 32.202 17.803 L 33.059 17.093 C 33.288 16.904 33.674 16.885 33.92 17.05 L 35.04 17.803 C 35.287 17.97 35.489 18.343 35.491 18.639 L 35.56 28.053 C 35.562 28.348 35.382 28.431 35.156 28.236 L 32.147 25.646 C 31.921 25.451 31.74 25.057 31.743 24.76 L 31.784 18.681 Z" fill-rule="evenodd" />
  <path style="fill:#00ff33" d="M 58.309 13.341 C 58.31 13.61 58.469 13.978 58.666 14.163 L 59.455 14.908 C 59.651 15.093 59.981 15.106 60.19 14.938 L 61.353 14.004 C 61.562 13.836 61.733 13.481 61.733 13.211 L 61.742 4.511 C 61.743 4.241 61.583 4.171 61.387 4.355 L 58.648 6.907 C 58.451 7.091 58.292 7.459 58.293 7.727 L 58.309 13.341 Z M 49.546 14.762 C 49.737 14.571 50.11 14.415 50.38 14.412 L 57.27 14.345 C 57.54 14.342 57.916 14.492 58.11 14.679 L 58.974 15.512 C 59.168 15.699 59.158 15.992 58.953 16.166 L 58.15 16.845 C 57.944 17.02 57.558 17.161 57.29 17.162 L 50.518 17.182 C 50.249 17.182 49.863 17.042 49.656 16.869 L 48.825 16.171 C 48.618 15.997 48.604 15.702 48.795 15.512 L 49.546 14.762 Z M 47.502 16.786 C 47.714 16.62 48.06 16.618 48.275 16.782 L 49.164 17.459 C 49.378 17.623 49.552 17.973 49.551 18.242 L 49.542 23.823 C 49.541 24.092 49.381 24.457 49.182 24.64 L 46.482 27.116 C 46.284 27.298 46.123 27.227 46.123 26.957 L 46.123 18.35 C 46.123 18.081 46.295 17.727 46.508 17.562 L 47.502 16.786 Z M 57.506 24.851 C 57.775 24.852 58.156 25 58.354 25.181 L 61.333 27.905 C 61.531 28.086 61.474 28.234 61.204 28.234 L 46.722 28.245 C 46.452 28.245 46.393 28.095 46.589 27.91 L 49.482 25.177 C 49.678 24.991 50.056 24.841 50.326 24.842 L 57.506 24.851 Z M 57.506 6.627 C 57.775 6.627 58.156 6.479 58.354 6.297 L 61.333 3.574 C 61.531 3.392 61.474 3.245 61.205 3.245 L 46.733 3.245 C 46.463 3.245 46.404 3.395 46.599 3.579 L 49.483 6.303 C 49.679 6.488 50.056 6.637 50.326 6.637 L 57.506 6.627 Z" fill-rule="evenodd"/>
  <path style="fill:#00ff33" d="M 79.072 13.7 C 79.073 13.969 79.233 14.337 79.429 14.522 L 80.218 15.267 C 80.414 15.452 80.744 15.465 80.953 15.297 L 82.116 14.363 C 82.326 14.195 82.496 13.84 82.497 13.57 L 82.506 4.87 C 82.506 4.6 82.347 4.53 82.15 4.714 L 79.412 7.266 C 79.215 7.45 79.056 7.818 79.057 8.086 L 79.072 13.7 Z M 70.31 15.121 C 70.5 14.93 70.873 14.774 71.144 14.771 L 78.033 14.704 C 78.303 14.701 78.68 14.851 78.874 15.038 L 79.738 15.871 C 79.932 16.058 79.922 16.351 79.716 16.525 L 78.913 17.204 C 78.708 17.379 78.321 17.52 78.053 17.521 L 71.282 17.541 C 71.013 17.541 70.627 17.401 70.42 17.228 L 69.588 16.53 C 69.381 16.356 69.368 16.061 69.559 15.871 L 70.31 15.121 Z M 78.269 25.21 C 78.539 25.211 78.919 25.359 79.118 25.54 L 82.096 28.264 C 82.295 28.445 82.237 28.593 81.968 28.593 L 67.486 28.604 C 67.216 28.604 67.157 28.454 67.353 28.269 L 70.246 25.536 C 70.442 25.35 70.819 25.2 71.09 25.201 L 78.269 25.21 Z M 78.269 6.986 C 78.539 6.986 78.919 6.838 79.118 6.656 L 82.096 3.933 C 82.295 3.751 82.238 3.604 81.968 3.604 L 67.497 3.604 C 67.227 3.604 67.168 3.754 67.363 3.938 L 70.247 6.662 C 70.442 6.847 70.819 6.996 71.09 6.996 L 78.269 6.986 Z M 79.139 18.648 C 79.141 18.378 79.31 18.019 79.518 17.845 L 80.293 17.195 C 80.5 17.021 80.85 17.004 81.073 17.156 L 82.086 17.845 C 82.309 17.997 82.492 18.338 82.494 18.609 L 82.556 27.224 C 82.558 27.494 82.395 27.569 82.191 27.392 L 79.467 25.02 C 79.263 24.843 79.1 24.482 79.102 24.21 L 79.139 18.648 Z" fill-rule="evenodd"/>
  <path style="fill:#00ff33" d="M 103.662 13.177 C 103.663 13.471 103.837 13.874 104.052 14.076 L 104.914 14.89 C 105.129 15.092 105.489 15.107 105.717 14.923 L 106.988 13.902 C 107.217 13.718 107.403 13.331 107.404 13.036 L 107.414 3.528 C 107.415 3.233 107.24 3.157 107.025 3.357 L 104.033 6.147 C 103.818 6.347 103.644 6.749 103.645 7.042 L 103.662 13.177 Z M 94.086 14.73 C 94.294 14.522 94.702 14.351 94.997 14.348 L 102.526 14.275 C 102.821 14.272 103.233 14.435 103.445 14.64 L 104.389 15.55 C 104.601 15.754 104.59 16.075 104.365 16.265 L 103.488 17.007 C 103.263 17.198 102.841 17.353 102.548 17.354 L 95.148 17.375 C 94.854 17.376 94.432 17.223 94.206 17.033 L 93.298 16.27 C 93.071 16.08 93.057 15.758 93.265 15.55 L 94.086 14.73 Z M 103.735 18.585 C 103.737 18.29 103.922 17.897 104.148 17.707 L 104.996 16.997 C 105.222 16.807 105.604 16.788 105.848 16.954 L 106.955 17.707 C 107.199 17.873 107.399 18.246 107.401 18.542 L 107.469 27.957 C 107.471 28.252 107.293 28.334 107.07 28.14 L 104.093 25.549 C 103.871 25.355 103.692 24.96 103.694 24.664 L 103.735 18.585 Z M 93.706 6.263 C 93.921 6.463 94.097 6.863 94.097 7.158 L 94.097 13.076 C 94.097 13.37 93.926 13.776 93.717 13.983 L 92.735 14.948 C 92.525 15.154 92.172 15.17 91.944 14.982 L 90.757 14.005 C 90.529 13.818 90.345 13.427 90.345 13.134 L 90.345 3.682 C 90.345 3.388 90.521 3.312 90.736 3.511 L 93.706 6.263 Z" fill-rule="evenodd"/>
  <path style="fill:#00ff33" d="M 116.892 14.941 C 117.083 14.75 117.456 14.594 117.726 14.591 L 124.616 14.524 C 124.886 14.521 125.262 14.671 125.456 14.858 L 126.32 15.691 C 126.514 15.878 126.504 16.171 126.299 16.345 L 125.496 17.024 C 125.29 17.199 124.904 17.34 124.636 17.341 L 117.864 17.361 C 117.595 17.361 117.209 17.221 117.002 17.048 L 116.171 16.35 C 115.964 16.176 115.95 15.881 116.141 15.691 L 116.892 14.941 Z M 124.852 25.03 C 125.121 25.031 125.502 25.179 125.7 25.36 L 128.679 28.084 C 128.877 28.265 128.82 28.413 128.55 28.413 L 114.068 28.424 C 113.798 28.424 113.739 28.274 113.935 28.089 L 116.828 25.356 C 117.024 25.17 117.402 25.02 117.672 25.021 L 124.852 25.03 Z M 124.852 6.806 C 125.121 6.806 125.502 6.658 125.7 6.476 L 128.679 3.753 C 128.877 3.571 128.82 3.424 128.551 3.424 L 114.079 3.424 C 113.809 3.424 113.75 3.574 113.945 3.758 L 116.829 6.482 C 117.025 6.667 117.402 6.816 117.672 6.816 L 124.852 6.806 Z M 125.722 18.468 C 125.723 18.198 125.893 17.839 126.1 17.665 L 126.875 17.015 C 127.083 16.841 127.432 16.824 127.655 16.976 L 128.668 17.665 C 128.892 17.817 129.075 18.158 129.076 18.429 L 129.139 27.044 C 129.141 27.314 128.978 27.389 128.773 27.212 L 126.05 24.84 C 125.846 24.663 125.682 24.302 125.684 24.03 L 125.722 18.468 Z M 116.544 7.192 C 116.742 7.375 116.902 7.742 116.902 8.012 L 116.902 13.427 C 116.902 13.696 116.746 14.068 116.554 14.257 L 115.656 15.14 C 115.464 15.328 115.14 15.343 114.932 15.171 L 113.846 14.277 C 113.638 14.106 113.469 13.748 113.469 13.48 L 113.469 4.831 C 113.469 4.561 113.63 4.492 113.827 4.675 L 116.544 7.192 Z" fill-rule="evenodd"/>
  <path style="fill:#00ff33" d="M 139.289 15.479 C 139.48 15.288 139.853 15.132 140.123 15.129 L 147.013 15.062 C 147.283 15.059 147.659 15.209 147.853 15.396 L 148.717 16.229 C 148.911 16.416 148.901 16.709 148.696 16.883 L 147.893 17.562 C 147.687 17.737 147.301 17.878 147.033 17.879 L 140.261 17.899 C 139.992 17.899 139.606 17.759 139.399 17.586 L 138.568 16.888 C 138.361 16.714 138.347 16.419 138.538 16.229 L 139.289 15.479 Z M 137.245 17.503 C 137.457 17.337 137.803 17.335 138.018 17.499 L 138.907 18.176 C 139.121 18.34 139.295 18.69 139.294 18.959 L 139.285 24.54 C 139.284 24.809 139.124 25.174 138.925 25.357 L 136.225 27.833 C 136.027 28.015 135.866 27.944 135.866 27.674 L 135.866 19.067 C 135.866 18.798 136.038 18.444 136.251 18.279 L 137.245 17.503 Z M 147.249 25.568 C 147.518 25.569 147.899 25.717 148.097 25.898 L 151.076 28.622 C 151.274 28.803 151.217 28.951 150.947 28.951 L 136.465 28.962 C 136.195 28.962 136.136 28.812 136.332 28.627 L 139.225 25.894 C 139.421 25.708 139.799 25.558 140.069 25.559 L 147.249 25.568 Z M 147.249 7.344 C 147.518 7.344 147.899 7.196 148.097 7.014 L 151.076 4.291 C 151.274 4.109 151.217 3.962 150.948 3.962 L 136.476 3.962 C 136.206 3.962 136.147 4.112 136.342 4.296 L 139.226 7.02 C 139.422 7.205 139.799 7.354 140.069 7.354 L 147.249 7.344 Z M 148.119 19.006 C 148.12 18.736 148.29 18.377 148.497 18.203 L 149.272 17.553 C 149.48 17.379 149.829 17.362 150.052 17.514 L 151.065 18.203 C 151.289 18.355 151.472 18.696 151.473 18.967 L 151.536 27.582 C 151.538 27.852 151.375 27.927 151.17 27.75 L 148.447 25.378 C 148.243 25.201 148.079 24.84 148.081 24.568 L 148.119 19.006 Z M 138.941 7.73 C 139.139 7.913 139.299 8.28 139.299 8.55 L 139.299 13.965 C 139.299 14.234 139.143 14.606 138.951 14.795 L 138.053 15.678 C 137.861 15.866 137.537 15.881 137.329 15.709 L 136.243 14.815 C 136.035 14.644 135.866 14.286 135.866 14.018 L 135.866 5.369 C 135.866 5.099 136.027 5.03 136.224 5.213 L 138.941 7.73 Z" fill-rule="evenodd"/>
  <path style="fill:#00ff33" d="M 168.312 14.91 C 168.313 15.192 168.48 15.577 168.686 15.771 L 169.512 16.551 C 169.717 16.745 170.062 16.758 170.281 16.583 L 171.498 15.605 C 171.718 15.429 171.896 15.058 171.896 14.775 L 171.906 5.668 C 171.907 5.386 171.74 5.313 171.534 5.505 L 168.667 8.177 C 168.461 8.368 168.295 8.754 168.296 9.034 L 168.312 14.91 Z M 167.471 7.883 C 167.754 7.883 168.152 7.728 168.36 7.538 L 171.477 4.687 C 171.685 4.497 171.625 4.343 171.343 4.343 L 156.195 4.343 C 155.913 4.343 155.851 4.5 156.056 4.693 L 159.074 7.544 C 159.279 7.737 159.673 7.893 159.957 7.893 L 167.471 7.883 Z M 168.382 20.09 C 168.384 19.807 168.561 19.431 168.778 19.249 L 169.59 18.569 C 169.807 18.387 170.172 18.369 170.406 18.528 L 171.467 19.249 C 171.701 19.408 171.892 19.766 171.894 20.049 L 171.959 29.067 C 171.961 29.349 171.79 29.428 171.577 29.242 L 168.725 26.76 C 168.512 26.575 168.341 26.197 168.343 25.912 L 168.382 20.09 Z" fill-rule="evenodd"/>
  <path style="fill:#00ff33" d="M 189.084 14.237 C 189.085 14.506 189.244 14.874 189.441 15.059 L 190.23 15.804 C 190.426 15.989 190.756 16.002 190.965 15.834 L 192.128 14.9 C 192.337 14.732 192.508 14.377 192.508 14.107 L 192.517 5.407 C 192.518 5.137 192.358 5.067 192.162 5.251 L 189.423 7.803 C 189.226 7.987 189.067 8.355 189.068 8.623 L 189.084 14.237 Z M 180.321 15.658 C 180.512 15.467 180.885 15.311 181.155 15.308 L 188.045 15.241 C 188.315 15.238 188.691 15.388 188.885 15.575 L 189.749 16.408 C 189.943 16.595 189.933 16.888 189.728 17.062 L 188.925 17.741 C 188.719 17.916 188.333 18.057 188.065 18.058 L 181.293 18.078 C 181.024 18.078 180.638 17.938 180.431 17.765 L 179.6 17.067 C 179.393 16.893 179.379 16.598 179.57 16.408 L 180.321 15.658 Z M 178.277 17.682 C 178.489 17.516 178.835 17.514 179.05 17.678 L 179.939 18.355 C 180.153 18.519 180.327 18.869 180.326 19.138 L 180.317 24.719 C 180.316 24.988 180.156 25.353 179.957 25.536 L 177.257 28.012 C 177.059 28.194 176.898 28.123 176.898 27.853 L 176.898 19.246 C 176.898 18.977 177.07 18.623 177.283 18.458 L 178.277 17.682 Z M 188.281 25.747 C 188.55 25.748 188.931 25.896 189.129 26.077 L 192.108 28.801 C 192.306 28.982 192.249 29.13 191.979 29.13 L 177.497 29.141 C 177.227 29.141 177.168 28.991 177.364 28.806 L 180.257 26.073 C 180.453 25.887 180.831 25.737 181.101 25.738 L 188.281 25.747 Z M 188.281 7.523 C 188.55 7.523 188.931 7.375 189.129 7.193 L 192.108 4.47 C 192.306 4.288 192.249 4.141 191.98 4.141 L 177.508 4.141 C 177.238 4.141 177.179 4.291 177.374 4.475 L 180.258 7.199 C 180.454 7.384 180.831 7.533 181.101 7.533 L 188.281 7.523 Z M 189.151 19.185 C 189.152 18.915 189.322 18.556 189.529 18.382 L 190.304 17.732 C 190.512 17.558 190.861 17.541 191.084 17.693 L 192.097 18.382 C 192.321 18.534 192.504 18.875 192.505 19.146 L 192.568 27.761 C 192.57 28.031 192.407 28.106 192.202 27.929 L 189.479 25.557 C 189.275 25.38 189.111 25.019 189.113 24.747 L 189.151 19.185 Z M 179.973 7.909 C 180.171 8.092 180.331 8.459 180.331 8.729 L 180.331 14.144 C 180.331 14.413 180.175 14.785 179.983 14.974 L 179.085 15.857 C 178.893 16.045 178.569 16.06 178.361 15.888 L 177.275 14.994 C 177.067 14.823 176.898 14.465 176.898 14.197 L 176.898 5.548 C 176.898 5.278 177.059 5.209 177.256 5.392 L 179.973 7.909 Z" fill-rule="evenodd"/>
  <path style="fill:#00ff33" d="M 209.689 13.7 C 209.69 13.969 209.849 14.337 210.046 14.522 L 210.835 15.267 C 211.031 15.452 211.361 15.465 211.57 15.297 L 212.733 14.363 C 212.942 14.195 213.113 13.84 213.113 13.57 L 213.122 4.87 C 213.123 4.6 212.963 4.53 212.767 4.714 L 210.028 7.266 C 209.831 7.45 209.672 7.818 209.673 8.086 L 209.689 13.7 Z M 200.926 15.121 C 201.117 14.93 201.49 14.774 201.76 14.771 L 208.65 14.704 C 208.92 14.701 209.296 14.851 209.49 15.038 L 210.354 15.871 C 210.548 16.058 210.538 16.351 210.333 16.525 L 209.53 17.204 C 209.324 17.379 208.938 17.52 208.67 17.521 L 201.898 17.541 C 201.629 17.541 201.243 17.401 201.036 17.228 L 200.205 16.53 C 199.998 16.356 199.984 16.061 200.175 15.871 L 200.926 15.121 Z M 208.886 25.21 C 209.155 25.211 209.536 25.359 209.734 25.54 L 212.713 28.264 C 212.911 28.445 212.854 28.593 212.584 28.593 L 198.102 28.604 C 197.832 28.604 197.773 28.454 197.969 28.269 L 200.862 25.536 C 201.058 25.35 201.436 25.2 201.706 25.201 L 208.886 25.21 Z M 208.886 6.986 C 209.155 6.986 209.536 6.838 209.734 6.656 L 212.713 3.933 C 212.911 3.751 212.854 3.604 212.585 3.604 L 198.113 3.604 C 197.843 3.604 197.784 3.754 197.979 3.938 L 200.863 6.662 C 201.059 6.847 201.436 6.996 201.706 6.996 L 208.886 6.986 Z M 209.756 18.648 C 209.757 18.378 209.927 18.019 210.134 17.845 L 210.909 17.195 C 211.117 17.021 211.466 17.004 211.689 17.156 L 212.702 17.845 C 212.926 17.997 213.109 18.338 213.11 18.609 L 213.173 27.224 C 213.175 27.494 213.012 27.569 212.807 27.392 L 210.084 25.02 C 209.88 24.843 209.716 24.482 209.718 24.21 L 209.756 18.648 Z M 200.578 7.372 C 200.776 7.555 200.936 7.922 200.936 8.192 L 200.936 13.607 C 200.936 13.876 200.78 14.248 200.588 14.437 L 199.69 15.32 C 199.498 15.508 199.174 15.523 198.966 15.351 L 197.88 14.457 C 197.672 14.286 197.503 13.928 197.503 13.66 L 197.503 5.011 C 197.503 4.741 197.664 4.672 197.861 4.855 L 200.578 7.372 Z" fill-rule="evenodd"/>
  <path style="fill:#00ff33" d="M 207.261 37.239 C 207.618 37.239 207.907 37.528 207.907 37.885 L 207.907 41.692 C 207.907 42.048 207.618 42.338 207.261 42.338 L 203.414 42.338 C 203.058 42.338 202.769 42.048 202.769 41.692 L 202.769 37.885 C 202.769 37.528 203.058 37.239 203.414 37.239 L 207.261 37.239 Z M 207.261 47.564 C 207.618 47.564 207.907 47.853 207.907 48.21 L 207.907 52.017 C 207.907 52.374 207.618 52.663 207.261 52.663 L 203.414 52.663 C 203.058 52.663 202.769 52.374 202.769 52.017 L 202.769 48.21 C 202.769 47.853 203.058 47.564 203.414 47.564 L 207.261 47.564 Z" fill-rule="evenodd" />
</svg>