<?xml version="1.0" encoding="utf-8"?>
<svg width="81" height="81" viewBox="3 1 60 60" fill="none" xmlns="http://www.w3.org/2000/svg">
  <text style="fill: rgb(51, 51, 51); font-family: Arial; font-size: 15.5px; white-space: pre;" x="23.483" y="54.356">1K</text>
  <g style="" transform="matrix(0.857455, 0, 0, 0.857455, 1.104815, 4.159988)">
    <path d="M 50.992 6.967 L 23.403 6.967 C 20.865 6.967 18.805 9.027 18.805 11.565 L 18.805 39.154 C 18.805 41.692 20.865 43.752 23.403 43.752 L 50.992 43.752 C 53.53 43.752 55.59 41.692 55.59 39.154 L 55.59 11.565 C 55.59 9.027 53.53 6.967 50.992 6.967 Z M 38.117 8.806 L 45.014 8.806 L 45.014 15.704 L 38.117 15.704 L 38.117 8.806 Z M 20.644 11.565 C 20.644 10.045 21.883 8.806 23.403 8.806 L 36.278 8.806 L 36.278 15.704 L 20.644 15.704 L 20.644 11.565 Z M 20.644 17.543 L 45.014 17.543 L 45.014 24.44 L 20.644 24.44 L 20.644 17.543 Z M 36.278 26.279 L 36.278 33.176 L 29.381 33.176 L 29.381 26.279 L 36.278 26.279 Z M 27.541 41.913 L 23.403 41.913 C 21.883 41.913 20.644 40.674 20.644 39.154 L 20.644 35.016 L 27.541 35.016 L 27.541 41.913 Z M 27.541 33.176 L 20.644 33.176 L 20.644 26.279 L 27.541 26.279 L 27.541 33.176 Z M 53.751 39.154 C 53.751 40.674 52.512 41.913 50.992 41.913 L 29.381 41.913 L 29.381 35.016 L 53.751 35.016 L 53.751 39.154 Z M 53.751 33.176 L 38.117 33.176 L 38.117 26.279 L 53.751 26.279 L 53.751 33.176 Z M 53.751 24.44 L 46.854 24.44 L 46.854 17.543 L 53.751 17.543 L 53.751 24.44 Z M 53.751 15.704 L 46.854 15.704 L 46.854 8.806 L 50.992 8.806 C 52.512 8.806 53.751 10.045 53.751 11.565 L 53.751 15.704 Z" fill="black" style=""/>
    <path d="M 27.541 35.016 L 27.541 41.913 L 23.403 41.913 C 21.883 41.913 20.644 40.674 20.644 39.154 L 20.644 35.016 L 27.541 35.016 Z" fill="white" style=""/>
    <path d="M 36.278 26.279 L 29.381 26.279 L 29.381 33.176 L 36.278 33.176 L 36.278 26.279 Z" fill="white" style=""/>
    <path d="M 53.751 17.543 L 46.854 17.543 L 46.854 24.44 L 53.751 24.44 L 53.751 17.543 Z" fill="white" style=""/>
    <path d="M 45.014 8.806 L 38.117 8.806 L 38.117 15.704 L 45.014 15.704 L 45.014 8.806 Z" fill="white" style=""/>
    <path d="M 53.751 11.565 L 53.751 15.704 L 46.854 15.704 L 46.854 8.806 L 50.992 8.806 C 52.512 8.806 53.751 10.045 53.751 11.565 Z" fill="#BC70C4" style=""/>
    <path d="M 27.541 26.279 L 20.644 26.279 L 20.644 33.176 L 27.541 33.176 L 27.541 26.279 Z" fill="#BC70C4" style=""/>
    <path d="M 53.751 35.016 L 53.751 39.154 C 53.751 40.674 52.512 41.913 50.992 41.913 L 29.381 41.913 L 29.381 35.016 L 53.751 35.016 Z" fill="#BC70C4" style=""/>
    <path d="M 53.751 26.279 L 38.117 26.279 L 38.117 33.176 L 53.751 33.176 L 53.751 26.279 Z" fill="#BC70C4" style=""/>
    <path d="M 45.014 17.543 L 20.644 17.543 L 20.644 24.44 L 45.014 24.44 L 45.014 17.543 Z" fill="#BC70C4" style=""/>
    <path d="M 36.278 8.806 L 36.278 15.704 L 20.644 15.704 L 20.644 11.565 C 20.644 10.045 21.883 8.806 23.403 8.806 L 36.278 8.806 Z" fill="#BC70C4" style=""/>
  </g>
</svg>