<?xml version="1.0" encoding="utf-8"?>
<svg width="81" height="81" viewBox="3 1 60 60" fill="none" xmlns="http://www.w3.org/2000/svg">
  <a transform="matrix(0.768801, 0, 0, 0.768801, 9.429328, 6.712576)" style="">
    <path d="M 37.677 17.797 L 37.671 17.797 L 37.671 17.804 L 37.677 17.804 L 37.677 17.797 Z" fill="#7FA768" style=""/>
    <path d="M 37.671 18.775 L 37.671 41.584 L 45.947 41.584 C 47.189 41.584 48.199 40.586 48.199 39.357 L 48.199 30.134 L 48.199 18.827 L 37.671 18.775 Z" style="fill: #6AAA64;"/>
    <path d="M 47.833 8.858 L 47.833 16.89 L 37.684 16.845 L 37.729 6.682 L 45.657 6.682 C 46.854 6.682 47.833 7.661 47.833 8.858 Z" fill="white" style=""/>
    <path d="M 36.319 30.444 L 36.319 41.571 L 25.295 41.571 L 25.295 30.392 L 36.319 30.444 Z" style="fill: #6AAA64;"/>
    <path d="M 36.474 18.061 L 36.415 29.6 L 24.889 29.536 L 24.941 18.016 L 36.474 18.061 Z" style="fill: #D1B036;"/>
    <path d="M 35.798 6.682 L 35.753 16.831 L 25.591 16.793 L 25.591 6.682 L 35.798 6.682 Z" fill="white" style=""/>
    <path d="M 24.483 30.334 L 24.483 41.629 L 15.589 41.629 C 14.264 41.629 13.182 40.548 13.182 39.222 L 13.182 30.334 L 24.483 30.334 Z" style="fill: #6AAA64;"/>
    <path d="M 23.653 18.775 L 23.602 28.925 L 13.421 28.925 L 13.421 18.775 L 23.653 18.775 Z" fill="white" style=""/>
    <path d="M 23.66 6.682 L 23.66 16.845 L 13.421 16.845 L 13.421 8.858 C 13.421 7.661 14.399 6.682 15.603 6.682 L 23.66 6.682 Z" fill="white" style=""/>
    <path d="M 45.69 4.797 L 15.634 4.797 C 13.369 4.797 11.522 6.637 11.522 8.903 L 11.522 38.959 C 11.522 41.223 13.369 43.071 15.634 43.071 L 45.69 43.071 C 47.955 43.071 49.796 41.223 49.796 38.959 L 49.796 8.903 C 49.796 6.644 47.955 4.797 45.69 4.797 Z M 37.703 17.848 L 37.709 17.848 L 37.709 17.855 L 37.703 17.855 L 37.703 17.848 Z M 13.459 18.827 L 23.692 18.827 L 23.641 28.977 L 13.459 28.977 L 13.459 18.827 Z M 23.692 41.146 L 15.634 41.146 C 14.431 41.146 13.453 40.168 13.453 38.964 L 13.453 30.901 L 23.692 30.901 L 23.692 41.146 Z M 23.692 16.896 L 13.459 16.896 L 13.459 8.903 C 13.459 7.706 14.437 6.728 15.641 6.728 L 23.698 6.728 L 23.698 16.896 L 23.692 16.896 Z M 35.772 41.146 L 25.623 41.146 L 25.623 30.856 L 35.772 30.907 L 35.772 41.146 Z M 35.72 28.97 L 25.571 28.918 L 25.616 18.769 L 35.772 18.808 L 35.72 28.97 Z M 35.785 16.883 L 25.623 16.845 L 25.623 6.728 L 35.83 6.728 L 35.785 16.883 Z M 47.865 38.964 C 47.865 40.168 46.887 41.146 45.69 41.146 L 37.703 41.146 L 37.703 30.901 L 47.865 30.901 L 47.865 38.964 Z M 47.865 28.97 L 37.657 28.97 L 37.703 18.82 L 47.865 18.865 L 47.865 28.97 Z M 47.865 16.941 L 37.716 16.896 L 37.761 6.734 L 45.69 6.734 C 46.887 6.734 47.865 7.712 47.865 8.909 L 47.865 16.941 Z" fill="black" style=""/>
  </a>
  <text style="fill: rgb(51, 51, 51); font-family: Arial; font-size: 15.5px; white-space: pre;" x="24.38" y="54.356">10</text>
</svg>