<?xml version="1.0" encoding="utf-8"?>
<svg width="128px" height="128px" viewBox="0 0 128 128" xmlns="http://www.w3.org/2000/svg" aria-hidden="true" role="img" class="iconify iconify--noto" preserveAspectRatio="xMidYMid meet" xmlns:bx="https://boxy-svg.com">
  <path style="fill: rgb(48, 95, 35);" d="M -2.728 91.119 L 5.205 89.136 C 7.849 88.034 10.714 87.814 13.799 88.475 C 22.475 90.334 31.124 88.351 39.745 82.526 C 51.697 74.45 65.414 69.988 80.897 69.139 C 87.065 68.801 93.29 67.919 99.572 66.495 C 105.708 65.104 111.988 65.49 118.412 67.652 C 122.059 68.88 125.585 70.422 128.989 72.279 C 131.087 73.424 133.236 74.47 135.435 75.419 C 147.927 80.81 146.384 98.34 130.807 128.011 L -7.356 128.837 L -2.728 91.119 Z"/>
  <path style="fill: rgb(196, 255, 197); stroke: rgb(129, 216, 137); stroke-miterlimit: 1; stroke-linecap: round; transform-box: fill-box; transform-origin: 50% 50%;" d="M 103.454 77.336 C 108.83 77.558 121.632 71.587 114.438 69.544 C 107.721 67.636 100.783 68.403 93.621 71.843 C 89.681 73.736 85.424 73.693 80.85 71.715 C 76.956 70.032 68.57 69.649 64.374 73.887 C 63.26 75.012 61.813 76.843 62.587 78.867 C 65.441 86.329 92.43 76.879 103.454 77.336 Z" transform="matrix(-1, 0, 0, -1, 0.000007, 0.000015)"/>
  <ellipse style="stroke-miterlimit: 1; stroke-linecap: round;" cx="109.885" cy="73.227" rx="0.898" ry="0.369"/>
  <line style="fill: rgb(216, 216, 216); stroke: rgb(184, 184, 184); stroke-linecap: round;" x1="109.842" y1="73.15" x2="109.842" y2="60.77"/>
  <path d="M 52.881 31.18 L 54.753 36.308 L 51.01 36.308 L 52.881 31.18 Z" bx:shape="triangle 51.01 31.18 3.743 5.128 0.5 0 1@cc9337b3" style="fill: rgb(255, 0, 0); transform-box: fill-box; transform-origin: 50% 50%;" transform="matrix(0, -1, 1, 0, 54.440052, 28.664)"/>
  <path style="fill: rgb(156, 185, 154);" d="M -31.98 133.519 L -21.404 126.248 C -18.98 125.201 -1.241 115.175 2.064 111.043 C 6.354 105.679 33.734 106.45 41.233 104.433 C 50.34 101.984 58.328 96.97 65.196 89.393 C 67.631 86.707 71.101 85.661 75.608 86.253 C 78.158 86.588 80.692 86.147 83.21 84.931 C 90.63 81.348 97.626 85.7 104.199 97.987 C 112.627 113.741 98.965 125.255 63.213 132.528 C 44.586 136.317 -12.816 137.97 -31.98 133.519 Z"/>
  <g transform="matrix(0.298616, 0, 0, 0.298616, 31.432175, 40.695663)" style="">
    <path d="M 99.244 60.736 C 99.33 52.289 92.52 45.393 84.073 45.393 C 81.746 45.393 79.591 45.91 77.608 46.772 C 78.815 44.617 79.505 42.118 79.505 39.532 C 79.591 31.084 72.781 24.189 64.42 24.103 C 55.973 24.016 49.077 30.826 49.077 39.273 C 49.077 41.514 49.508 43.669 50.37 45.566 C 49.163 45.221 47.871 45.048 46.491 45.048 C 38.044 44.962 31.148 51.772 31.148 60.219 C 31.148 65.908 34.165 70.821 38.734 73.493 C 35.544 76.251 33.476 80.303 33.476 84.871 C 33.39 93.318 40.113 100.214 48.56 100.3 C 54.421 100.3 59.593 97.025 62.179 92.198 C 62.61 91.422 62.955 90.56 63.214 89.698 C 63.731 89.957 64.248 90.043 64.765 90.129 C 65.282 91.681 66.058 93.232 67.092 94.525 C 69.851 98.145 74.247 100.473 79.074 100.559 C 87.521 100.645 94.417 93.836 94.417 85.388 C 94.417 81.165 92.779 77.372 90.021 74.614 C 95.451 72.2 99.157 66.942 99.244 60.736 Z" fill="#148d13" style=""/>
    <path d="M 67.351 92.543 L 69.506 126.59 L 60.8 126.504 L 62.438 90.215 C 62.869 89.44 63.214 88.578 63.472 87.716 C 63.989 87.974 64.506 88.06 65.024 88.147 C 65.541 89.698 66.317 91.163 67.351 92.543 Z" fill="#65320b" style=""/>
  </g>
  <g transform="matrix(0.298616, 0, 0, 0.405044, -8.644985, 39.373398)" style="">
    <path d="M 99.244 60.736 C 99.33 52.289 92.52 45.393 84.073 45.393 C 81.746 45.393 79.591 45.91 77.608 46.772 C 78.815 44.617 79.505 42.118 79.505 39.532 C 79.591 31.084 72.781 24.189 64.42 24.103 C 55.973 24.016 49.077 30.826 49.077 39.273 C 49.077 41.514 49.508 43.669 50.37 45.566 C 49.163 45.221 47.871 45.048 46.491 45.048 C 38.044 44.962 31.148 51.772 31.148 60.219 C 31.148 65.908 34.165 70.821 38.734 73.493 C 35.544 76.251 33.476 80.303 33.476 84.871 C 33.39 93.318 40.113 100.214 48.56 100.3 C 54.421 100.3 59.593 97.025 62.179 92.198 C 62.61 91.422 62.955 90.56 63.214 89.698 C 63.731 89.957 64.248 90.043 64.765 90.129 C 65.282 91.681 66.058 93.232 67.092 94.525 C 69.851 98.145 74.247 100.473 79.074 100.559 C 87.521 100.645 94.417 93.836 94.417 85.388 C 94.417 81.165 92.779 77.372 90.021 74.614 C 95.451 72.2 99.157 66.942 99.244 60.736 Z" fill="#148d13" style=""/>
    <path d="M 67.351 92.543 L 69.506 126.59 L 60.8 126.504 L 62.438 90.215 C 62.869 89.44 63.214 88.578 63.472 87.716 C 63.989 87.974 64.506 88.06 65.024 88.147 C 65.541 89.698 66.317 91.163 67.351 92.543 Z" fill="#65320b" style=""/>
  </g>
  <g id="SVGRepo_bgCarrier" stroke-width="0" transform="matrix(0.046181, 0, 0, 0.046181, 21.475525, 47.119781)" style=""/>
  <g id="SVGRepo_tracerCarrier" stroke-linecap="round" stroke-linejoin="round" transform="matrix(0.046181, 0, 0, 0.046181, 21.475525, 47.119781)" style=""/>
  <g id="SVGRepo_iconCarrier" transform="matrix(0.04618, 0, 0, 0.04618, 89.730598, 81.495216)" style="">
    <path d="M797.776435 485.703927c-13.92145-142.308157-107.504532-124.519637-105.957704-126.066465 25.522659-27.069486 49.498489-98.996979 31.70997-144.628399-28.616314-76.567976-107.504532-38.670695-133.02719-29.389728-37.897281 13.148036-51.818731 38.670695-54.138973 32.483384-7.734139-21.655589-14.694864-36.350453-31.70997-69.607251C456.700906 56.459215 390.187311 34.803625 353.063444 70.380665c-89.716012 85.848943-2.320242 249.039275-7.734139 246.719033-54.138973-29.389728-106.731118 23.202417-118.332326 93.583081-8.507553 53.365559 0 142.308157 58.779456 158.549849 38.670695 10.827795 58.779456-3.093656 58.779456-3.093655s-6.187311 61.873112 29.389728 93.583081c34.803625 30.936556 91.26284-47.951662 91.26284-47.951661 93.583082 144.628399 220.422961 117.558912 262.187311 91.26284 66.513595-40.217523 77.34139-147.722054 70.380665-217.329306z" fill="#148d13"/>
    <path d="M421.897281 991.516616c12.374622-28.616314 31.70997-436.205438 22.429003-439.299093-9.280967-3.093656-71.154079 4.640483-141.534743-68.060423-0.773414-0.773414 71.154079 44.084592 118.332326 44.084592 8.507553 0-68.060423-83.528701-48.725075-262.960725 0-0.773414 13.92145 109.824773 34.803625 182.52568 20.108761 68.833837 47.951662 100.543807 51.818731 97.450151 51.818731-45.63142 78.888218-137.667674 78.888218-188.712991 0-1.546828 18.561934 36.350453 4.640483 89.716012-17.015106 62.646526-75.794562 100.543807-65.740181 105.18429 72.700906 31.70997 139.214502 40.217523 159.323263 20.108761 1.546828-1.546828-18.561934 25.522659-80.435046 18.561934-39.444109-4.640483-78.888218-25.522659-77.34139-23.975831 8.507553 8.507553 13.92145 267.601208 118.332327 428.471299l-174.791541-3.093656z" fill="#824522"/>
  </g>
  <g id="group-1" stroke-width="0" transform="matrix(2.245251, 0, 0, 2.245252, 60.021328, 4.98479)" style=""/>
  <g id="group-2" stroke-linecap="round" stroke-linejoin="round" transform="matrix(2.245251, 0, 0, 2.245252, 60.021328, 4.98479)" style=""/>
  <text style="font-family: Arial, sans-serif; font-size: 36.4px; white-space: pre;" x="65.97" y="48.842">3</text>
  <ellipse style="fill: none; stroke: rgb(0, 0, 0);" cx="76.105" cy="36.26" rx="22.476" ry="22.476"/>
</svg>