<?xml version="1.0" encoding="utf-8"?>
<svg width="81" height="81" viewBox="3 1 60 60" fill="none" xmlns="http://www.w3.org/2000/svg">
  <g transform="matrix(0.825932, 0, 0, 0.825932, 0.870761, 2.918382)">
    <path style="fill:#FFC82D;" d="M 7.719 55.61 C 8.998 56.929 11.11 57.649 13.39 57.324 C 15.671 57 17.498 55.72 18.359 54.097 C 17.08 52.779 14.968 52.059 12.688 52.383 C 10.407 52.707 8.58 53.987 7.719 55.61 Z"/>
    <path style="fill:#FFC82D;" d="M 2.193 45.394 C 2.797 46.814 4.234 48.016 6.119 48.451 C 8.003 48.887 9.822 48.436 10.987 47.425 C 10.383 46.005 8.946 44.803 7.062 44.367 C 5.177 43.932 3.358 44.383 2.193 45.394 Z"/>
    <path style="fill:#FFC82D;" d="M 0.327 35.285 C 0.443 36.659 1.327 38.082 2.806 38.978 C 4.284 39.875 5.955 40.001 7.227 39.468 C 7.111 38.093 6.227 36.671 4.748 35.774 C 3.27 34.877 1.599 34.751 0.327 35.285 Z"/>
    <path style="fill:#FFC82D;" d="M 2.093 25.002 C 1.687 26.187 1.903 27.694 2.805 28.98 C 3.708 30.266 5.051 30.98 6.304 31.001 C 6.71 29.816 6.494 28.309 5.592 27.024 C 4.689 25.738 3.345 25.023 2.093 25.002 Z"/>
    <path style="fill:#FFC82D;" d="M 5.186 18.408 C 4.635 19.331 4.55 20.632 5.079 21.87 C 5.608 23.109 6.609 23.946 7.656 24.186 C 8.206 23.263 8.292 21.962 7.762 20.723 C 7.233 19.485 6.233 18.648 5.186 18.408 Z"/>
    <path style="fill:#FFE431;" d="M 18.372 9.749 C 17.026 9.512 15.439 10.001 14.207 11.191 C 12.975 12.382 12.433 13.951 12.623 15.304 C 13.969 15.54 15.555 15.052 16.787 13.861 C 18.02 12.671 18.562 11.102 18.372 9.749 Z"/>
    <path style="fill:#FFE431;" d="M 20.073 48.426 C 19.749 46.145 18.469 44.318 16.846 43.457 C 15.528 44.737 14.808 46.848 15.132 49.129 C 15.171 49.403 15.224 49.669 15.29 49.929 C 14.604 49.305 13.952 48.639 13.338 47.933 C 12.963 47.501 12.606 47.056 12.265 46.6 C 13.097 45.854 13.748 44.781 14.044 43.499 C 14.479 41.614 14.029 39.796 13.017 38.631 C 11.598 39.235 10.396 40.671 9.96 42.556 C 9.945 42.622 9.934 42.687 9.921 42.752 C 9.355 41.587 8.886 40.378 8.518 39.137 C 9.443 38.738 10.306 38.004 10.921 36.989 C 11.817 35.51 11.943 33.84 11.41 32.568 C 10.036 32.684 8.613 33.568 7.717 35.046 C 7.709 35.06 7.702 35.073 7.694 35.087 C 7.592 34.198 7.54 33.301 7.54 32.398 C 7.54 31.996 7.554 31.596 7.574 31.196 C 8.468 31.186 9.424 30.892 10.282 30.289 C 11.568 29.386 12.283 28.043 12.304 26.79 C 11.119 26.384 9.612 26.6 8.326 27.503 C 8.211 27.583 8.103 27.669 7.997 27.756 C 8.209 26.685 8.494 25.632 8.852 24.604 C 9.562 24.711 10.352 24.62 11.118 24.292 C 12.356 23.763 13.194 22.763 13.433 21.716 C 12.562 21.196 11.352 21.092 10.177 21.527 C 10.568 20.773 11 20.038 11.474 19.324 C 12.009 19.495 12.619 19.545 13.25 19.436 C 14.418 19.234 15.338 18.547 15.756 17.699 C 15.078 17.04 13.98 16.703 12.812 16.905 C 11.984 17.048 11.281 17.436 10.793 17.951 C 11.115 17.318 11.244 16.526 11.101 15.698 C 10.899 14.53 10.212 13.609 9.364 13.192 C 8.705 13.87 8.368 14.968 8.57 16.135 C 8.692 16.843 8.993 17.459 9.399 17.928 C 6.549 22.222 5.045 27.214 5.045 32.398 C 5.045 38.71 7.321 44.808 11.454 49.568 C 15.545 54.281 21.179 57.385 27.319 58.309 L 27.69 55.841 C 24.712 55.393 21.866 54.377 19.295 52.874 C 19.991 51.649 20.309 50.083 20.073 48.426 Z"/>
  </g>
  <g transform="matrix(0.825932, 0, 0, 0.825932, 10.617754, 2.918382)">
    <path style="fill:#FFC82D;" d="M 58.281 55.61 C 57.002 56.929 54.89 57.649 52.61 57.324 C 50.329 57 48.502 55.72 47.641 54.097 C 48.92 52.779 51.032 52.059 53.312 52.383 C 55.593 52.707 57.42 53.987 58.281 55.61 Z"/>
    <path style="fill:#FFC82D;" d="M 63.807 45.394 C 63.203 46.814 61.766 48.016 59.882 48.451 C 57.997 48.887 56.178 48.436 55.013 47.425 C 55.617 46.005 57.054 44.803 58.938 44.367 C 60.823 43.932 62.642 44.383 63.807 45.394 Z"/>
    <path style="fill:#FFC82D;" d="M 65.673 35.285 C 65.557 36.659 64.673 38.082 63.194 38.978 C 61.716 39.875 60.045 40.001 58.773 39.468 C 58.889 38.093 59.773 36.671 61.252 35.774 C 62.731 34.877 64.401 34.751 65.673 35.285 Z"/>
    <path style="fill:#FFC82D;" d="M 63.908 25.002 C 64.313 26.187 64.098 27.694 63.195 28.98 C 62.292 30.266 60.949 30.98 59.696 31.001 C 59.29 29.816 59.506 28.309 60.408 27.024 C 61.311 25.738 62.655 25.023 63.908 25.002 Z"/>
    <path style="fill:#FFC82D;" d="M 60.815 18.408 C 61.365 19.331 61.451 20.632 60.921 21.87 C 60.392 23.109 59.391 23.946 58.345 24.186 C 57.794 23.263 57.709 21.962 58.238 20.723 C 58.767 19.485 59.768 18.648 60.815 18.408 Z"/>
    <path style="fill:#FFE431;" d="M 56.636 13.192 C 57.295 13.87 57.633 14.967 57.431 16.135 C 57.229 17.304 56.542 18.224 55.694 18.641 C 55.035 17.963 54.698 16.866 54.9 15.698 C 55.102 14.53 55.788 13.61 56.636 13.192 Z"/>
    <path style="fill:#FFE431;" d="M 56.327 17.523 L 55.394 18.167 C 54.908 17.545 54.129 17.067 53.188 16.905 C 52.02 16.703 50.923 17.041 50.244 17.699 C 50.662 18.547 51.582 19.234 52.75 19.436 C 53.382 19.545 53.992 19.496 54.527 19.324 C 55 20.038 55.433 20.773 55.823 21.528 C 54.648 21.092 53.439 21.196 52.567 21.716 C 52.807 22.763 53.644 23.763 54.882 24.293 C 55.648 24.62 56.439 24.712 57.148 24.604 C 57.506 25.632 57.791 26.685 58.004 27.757 C 57.898 27.669 57.789 27.584 57.674 27.503 C 56.388 26.6 54.882 26.384 53.696 26.79 C 53.717 28.043 54.432 29.387 55.718 30.289 C 56.576 30.892 57.533 31.187 58.426 31.197 C 58.446 31.596 58.46 31.997 58.46 32.399 C 58.46 33.301 58.408 34.199 58.307 35.087 C 58.299 35.074 58.292 35.06 58.284 35.047 C 57.388 33.568 55.965 32.684 54.591 32.569 C 54.057 33.841 54.183 35.511 55.08 36.99 C 55.695 38.004 56.558 38.739 57.483 39.137 C 57.115 40.378 56.646 41.588 56.08 42.753 C 56.067 42.687 56.056 42.622 56.041 42.557 C 55.605 40.672 54.403 39.235 52.984 38.631 C 51.972 39.796 51.522 41.615 51.957 43.5 C 52.253 44.781 52.904 45.855 53.736 46.601 C 53.395 47.056 53.038 47.501 52.663 47.933 C 52.049 48.64 51.397 49.306 50.711 49.93 C 50.777 49.67 50.83 49.403 50.869 49.129 C 51.193 46.849 50.473 44.737 49.155 43.458 C 47.532 44.319 46.252 46.146 45.928 48.427 C 45.692 50.084 46.01 51.65 46.706 52.874 C 44.135 54.378 41.289 55.394 38.311 55.841 L 38.682 58.309 C 44.822 57.386 50.456 54.282 54.548 49.569 C 58.68 44.809 60.957 38.711 60.957 32.399 C 60.955 27.051 59.355 21.908 56.327 17.523 Z"/>
    <path style="fill:#FFE431;" d="M 53.377 15.304 C 53.567 13.951 53.025 12.382 51.793 11.192 C 50.561 10.001 48.974 9.513 47.628 9.749 C 47.439 11.102 47.981 12.671 49.213 13.861 C 50.445 15.052 52.031 15.54 53.377 15.304 Z"/>
  </g>
  <g id="SVGRepo_bgCarrier" stroke-width="0" transform="matrix(0.336842, 0, 0, 0.336842, 26.161924, -16.288031)"/>
  <g id="SVGRepo_tracerCarrier" stroke-linecap="round" stroke-linejoin="round" transform="matrix(0.336842, 0, 0, 0.336842, 26.161924, -16.288031)"/>
  <g transform="matrix(0.425, 0, 0, 0.425, 12.941278, 33.090504)">
    <rect fill="#919191" x="27.197" y="10.21" width="20" height="20"/>
    <rect fill="#00cf85" x="47.197" y="10.21" width="20" height="20"/>
    <rect fill="#00cf85" x="27.197" y="30.21" width="20" height="20"/>
    <rect fill="#fdcc04" x="47.197" y="30.21" width="20" height="20"/>
    <path d="M 37.197 20.21 L 57.197 40.21" stroke-width="3" stroke="#f00"/>
    <path d="M 57.197 20.21 L 37.197 40.21" stroke-width="3" stroke="#f00"/>
  </g>
  <g id="group-5" fill="#fff" transform="matrix(0.3125, 0, 0, 0.3125, 23.699074, 19.390915)" style="stroke:#000;stroke-width:15">
    <g id="group-8" transform="matrix(0.125, 0, 0, 0.125, -2.237043, -17.309828)">
      <path style="stroke: none; fill: rgb(0, 0, 0);" d="M 74.13 304.252 C 74.144 308.243 76.557 313.714 79.501 316.455 L 91.328 327.505 C 94.272 330.247 99.204 330.451 102.347 327.953 L 119.796 314.108 C 122.939 311.61 125.498 306.342 125.498 302.337 L 125.657 173.255 C 125.657 169.263 123.257 168.232 120.3 170.946 L 79.222 208.821 C 76.278 211.549 73.892 216.992 73.905 220.97 L 74.13 304.252 Z M 75.138 377.664 C 75.165 373.66 77.71 368.324 80.813 365.746 L 92.455 356.107 C 95.558 353.541 100.795 353.284 104.137 355.524 L 119.332 365.746 C 122.7 368.013 125.431 373.077 125.458 377.094 L 126.399 504.888 C 126.426 508.893 123.986 510.02 120.91 507.372 L 80.071 472.213 C 76.994 469.566 74.541 464.217 74.581 460.186 L 75.138 377.664 Z" fill-rule="evenodd"/>
      <path style="fill: rgb(0, 0, 0); stroke: none;" d="M 390.617 306.712 C 390.63 310.359 392.787 315.349 395.458 317.858 L 406.156 327.96 C 408.814 330.468 413.289 330.645 416.122 328.367 L 431.892 315.702 C 434.726 313.424 437.045 308.61 437.045 304.949 L 437.167 186.982 C 437.181 183.322 435.011 182.372 432.353 184.862 L 395.214 219.469 C 392.542 221.964 390.386 226.954 390.4 230.588 L 390.617 306.712 Z M 271.794 325.98 C 274.383 323.39 279.441 321.275 283.102 321.234 L 376.528 320.326 C 380.189 320.285 385.288 322.319 387.918 324.855 L 399.634 336.15 C 402.265 338.686 402.129 342.658 399.349 345.018 L 388.461 354.225 C 385.668 356.598 380.434 358.51 376.799 358.523 L 284.974 358.794 C 281.326 358.794 276.092 356.896 273.285 354.551 L 262.017 345.086 C 259.21 342.726 259.021 338.726 261.61 336.15 L 271.794 325.98 Z M 244.077 353.425 C 246.953 351.174 251.644 351.147 254.559 353.37 L 266.614 362.551 C 269.516 364.774 271.875 369.52 271.862 373.168 L 271.739 448.844 C 271.726 452.491 269.556 457.441 266.858 459.922 L 230.247 493.496 C 227.562 495.964 225.379 495.001 225.379 491.34 L 225.379 374.632 C 225.379 370.985 227.711 366.184 230.599 363.947 L 244.077 353.425 Z M 379.729 462.784 C 383.376 462.797 388.542 464.804 391.227 467.258 L 431.621 504.195 C 434.306 506.649 433.533 508.656 429.872 508.656 L 233.501 508.805 C 229.84 508.805 229.04 506.771 231.698 504.262 L 270.926 467.204 C 273.583 464.682 278.709 462.648 282.37 462.661 L 379.729 462.784 Z M 379.729 215.672 C 383.376 215.672 388.542 213.666 391.227 211.198 L 431.621 174.272 C 434.306 171.812 433.533 169.812 429.885 169.812 L 233.65 169.812 C 229.989 169.812 229.189 171.842 231.834 174.342 L 270.939 211.279 C 273.597 213.788 278.709 215.808 282.37 215.808 L 379.729 215.672 Z M 391.525 373.805 C 391.539 370.144 393.844 365.276 396.651 362.917 L 407.16 354.103 C 409.98 351.743 414.712 351.513 417.736 353.574 L 431.472 362.917 C 434.51 364.978 436.991 369.602 437.004 373.276 L 437.859 490.092 C 437.886 493.754 435.675 494.771 432.896 492.371 L 395.973 460.207 C 393.207 457.807 390.983 452.912 391.01 449.224 L 391.525 373.805 Z M 267.075 220.906 C 269.76 223.388 271.929 228.364 271.929 232.025 L 271.929 305.451 C 271.929 309.098 269.814 314.143 267.21 316.705 L 255.034 328.679 C 252.43 331.228 248.037 331.431 245.217 329.099 L 230.491 316.977 C 227.67 314.658 225.379 309.804 225.379 306.17 L 225.379 188.892 C 225.379 185.232 227.562 184.292 230.233 186.772 L 267.075 220.906 Z" fill-rule="evenodd"/>
    </g>
  </g>
</svg>