<?xml version="1.0" encoding="utf-8"?>
<svg width="81" height="81" viewBox="3 1 60 60" fill="none" xmlns="http://www.w3.org/2000/svg">
  <g transform="matrix(0.825932, 0, 0, 0.825932, 0.870761, 2.918382)">
    <path style="fill:#FFC82D;" d="M 7.719 55.61 C 8.998 56.929 11.11 57.649 13.39 57.324 C 15.671 57 17.498 55.72 18.359 54.097 C 17.08 52.779 14.968 52.059 12.688 52.383 C 10.407 52.707 8.58 53.987 7.719 55.61 Z"/>
    <path style="fill:#FFC82D;" d="M 2.193 45.394 C 2.797 46.814 4.234 48.016 6.119 48.451 C 8.003 48.887 9.822 48.436 10.987 47.425 C 10.383 46.005 8.946 44.803 7.062 44.367 C 5.177 43.932 3.358 44.383 2.193 45.394 Z"/>
    <path style="fill:#FFC82D;" d="M 0.327 35.285 C 0.443 36.659 1.327 38.082 2.806 38.978 C 4.284 39.875 5.955 40.001 7.227 39.468 C 7.111 38.093 6.227 36.671 4.748 35.774 C 3.27 34.877 1.599 34.751 0.327 35.285 Z"/>
    <path style="fill:#FFC82D;" d="M 2.093 25.002 C 1.687 26.187 1.903 27.694 2.805 28.98 C 3.708 30.266 5.051 30.98 6.304 31.001 C 6.71 29.816 6.494 28.309 5.592 27.024 C 4.689 25.738 3.345 25.023 2.093 25.002 Z"/>
    <path style="fill:#FFC82D;" d="M 5.186 18.408 C 4.635 19.331 4.55 20.632 5.079 21.87 C 5.608 23.109 6.609 23.946 7.656 24.186 C 8.206 23.263 8.292 21.962 7.762 20.723 C 7.233 19.485 6.233 18.648 5.186 18.408 Z"/>
    <path style="fill:#FFE431;" d="M 18.372 9.749 C 17.026 9.512 15.439 10.001 14.207 11.191 C 12.975 12.382 12.433 13.951 12.623 15.304 C 13.969 15.54 15.555 15.052 16.787 13.861 C 18.02 12.671 18.562 11.102 18.372 9.749 Z"/>
    <path style="fill:#FFE431;" d="M 20.073 48.426 C 19.749 46.145 18.469 44.318 16.846 43.457 C 15.528 44.737 14.808 46.848 15.132 49.129 C 15.171 49.403 15.224 49.669 15.29 49.929 C 14.604 49.305 13.952 48.639 13.338 47.933 C 12.963 47.501 12.606 47.056 12.265 46.6 C 13.097 45.854 13.748 44.781 14.044 43.499 C 14.479 41.614 14.029 39.796 13.017 38.631 C 11.598 39.235 10.396 40.671 9.96 42.556 C 9.945 42.622 9.934 42.687 9.921 42.752 C 9.355 41.587 8.886 40.378 8.518 39.137 C 9.443 38.738 10.306 38.004 10.921 36.989 C 11.817 35.51 11.943 33.84 11.41 32.568 C 10.036 32.684 8.613 33.568 7.717 35.046 C 7.709 35.06 7.702 35.073 7.694 35.087 C 7.592 34.198 7.54 33.301 7.54 32.398 C 7.54 31.996 7.554 31.596 7.574 31.196 C 8.468 31.186 9.424 30.892 10.282 30.289 C 11.568 29.386 12.283 28.043 12.304 26.79 C 11.119 26.384 9.612 26.6 8.326 27.503 C 8.211 27.583 8.103 27.669 7.997 27.756 C 8.209 26.685 8.494 25.632 8.852 24.604 C 9.562 24.711 10.352 24.62 11.118 24.292 C 12.356 23.763 13.194 22.763 13.433 21.716 C 12.562 21.196 11.352 21.092 10.177 21.527 C 10.568 20.773 11 20.038 11.474 19.324 C 12.009 19.495 12.619 19.545 13.25 19.436 C 14.418 19.234 15.338 18.547 15.756 17.699 C 15.078 17.04 13.98 16.703 12.812 16.905 C 11.984 17.048 11.281 17.436 10.793 17.951 C 11.115 17.318 11.244 16.526 11.101 15.698 C 10.899 14.53 10.212 13.609 9.364 13.192 C 8.705 13.87 8.368 14.968 8.57 16.135 C 8.692 16.843 8.993 17.459 9.399 17.928 C 6.549 22.222 5.045 27.214 5.045 32.398 C 5.045 38.71 7.321 44.808 11.454 49.568 C 15.545 54.281 21.179 57.385 27.319 58.309 L 27.69 55.841 C 24.712 55.393 21.866 54.377 19.295 52.874 C 19.991 51.649 20.309 50.083 20.073 48.426 Z"/>
  </g>
  <g transform="matrix(0.825932, 0, 0, 0.825932, 10.617754, 2.918382)">
    <path style="fill:#FFC82D;" d="M 58.281 55.61 C 57.002 56.929 54.89 57.649 52.61 57.324 C 50.329 57 48.502 55.72 47.641 54.097 C 48.92 52.779 51.032 52.059 53.312 52.383 C 55.593 52.707 57.42 53.987 58.281 55.61 Z"/>
    <path style="fill:#FFC82D;" d="M 63.807 45.394 C 63.203 46.814 61.766 48.016 59.882 48.451 C 57.997 48.887 56.178 48.436 55.013 47.425 C 55.617 46.005 57.054 44.803 58.938 44.367 C 60.823 43.932 62.642 44.383 63.807 45.394 Z"/>
    <path style="fill:#FFC82D;" d="M 65.673 35.285 C 65.557 36.659 64.673 38.082 63.194 38.978 C 61.716 39.875 60.045 40.001 58.773 39.468 C 58.889 38.093 59.773 36.671 61.252 35.774 C 62.731 34.877 64.401 34.751 65.673 35.285 Z"/>
    <path style="fill:#FFC82D;" d="M 63.908 25.002 C 64.313 26.187 64.098 27.694 63.195 28.98 C 62.292 30.266 60.949 30.98 59.696 31.001 C 59.29 29.816 59.506 28.309 60.408 27.024 C 61.311 25.738 62.655 25.023 63.908 25.002 Z"/>
    <path style="fill:#FFC82D;" d="M 60.815 18.408 C 61.365 19.331 61.451 20.632 60.921 21.87 C 60.392 23.109 59.391 23.946 58.345 24.186 C 57.794 23.263 57.709 21.962 58.238 20.723 C 58.767 19.485 59.768 18.648 60.815 18.408 Z"/>
    <path style="fill:#FFE431;" d="M 56.636 13.192 C 57.295 13.87 57.633 14.967 57.431 16.135 C 57.229 17.304 56.542 18.224 55.694 18.641 C 55.035 17.963 54.698 16.866 54.9 15.698 C 55.102 14.53 55.788 13.61 56.636 13.192 Z"/>
    <path style="fill:#FFE431;" d="M 56.327 17.523 L 55.394 18.167 C 54.908 17.545 54.129 17.067 53.188 16.905 C 52.02 16.703 50.923 17.041 50.244 17.699 C 50.662 18.547 51.582 19.234 52.75 19.436 C 53.382 19.545 53.992 19.496 54.527 19.324 C 55 20.038 55.433 20.773 55.823 21.528 C 54.648 21.092 53.439 21.196 52.567 21.716 C 52.807 22.763 53.644 23.763 54.882 24.293 C 55.648 24.62 56.439 24.712 57.148 24.604 C 57.506 25.632 57.791 26.685 58.004 27.757 C 57.898 27.669 57.789 27.584 57.674 27.503 C 56.388 26.6 54.882 26.384 53.696 26.79 C 53.717 28.043 54.432 29.387 55.718 30.289 C 56.576 30.892 57.533 31.187 58.426 31.197 C 58.446 31.596 58.46 31.997 58.46 32.399 C 58.46 33.301 58.408 34.199 58.307 35.087 C 58.299 35.074 58.292 35.06 58.284 35.047 C 57.388 33.568 55.965 32.684 54.591 32.569 C 54.057 33.841 54.183 35.511 55.08 36.99 C 55.695 38.004 56.558 38.739 57.483 39.137 C 57.115 40.378 56.646 41.588 56.08 42.753 C 56.067 42.687 56.056 42.622 56.041 42.557 C 55.605 40.672 54.403 39.235 52.984 38.631 C 51.972 39.796 51.522 41.615 51.957 43.5 C 52.253 44.781 52.904 45.855 53.736 46.601 C 53.395 47.056 53.038 47.501 52.663 47.933 C 52.049 48.64 51.397 49.306 50.711 49.93 C 50.777 49.67 50.83 49.403 50.869 49.129 C 51.193 46.849 50.473 44.737 49.155 43.458 C 47.532 44.319 46.252 46.146 45.928 48.427 C 45.692 50.084 46.01 51.65 46.706 52.874 C 44.135 54.378 41.289 55.394 38.311 55.841 L 38.682 58.309 C 44.822 57.386 50.456 54.282 54.548 49.569 C 58.68 44.809 60.957 38.711 60.957 32.399 C 60.955 27.051 59.355 21.908 56.327 17.523 Z"/>
    <path style="fill:#FFE431;" d="M 53.377 15.304 C 53.567 13.951 53.025 12.382 51.793 11.192 C 50.561 10.001 48.974 9.513 47.628 9.749 C 47.439 11.102 47.981 12.671 49.213 13.861 C 50.445 15.052 52.031 15.54 53.377 15.304 Z"/>
  </g>
  <g id="SVGRepo_bgCarrier" stroke-width="0" transform="matrix(0.336842, 0, 0, 0.336842, 26.161924, -16.288031)"/>
  <g id="SVGRepo_tracerCarrier" stroke-linecap="round" stroke-linejoin="round" transform="matrix(0.336842, 0, 0, 0.336842, 26.161924, -16.288031)"/>
  <g transform="matrix(0.425, 0, 0, 0.425, 12.941278, 33.090504)">
    <rect fill="#919191" x="27.197" y="10.21" width="20" height="20"/>
    <rect fill="#00cf85" x="47.197" y="10.21" width="20" height="20"/>
    <rect fill="#00cf85" x="27.197" y="30.21" width="20" height="20"/>
    <rect fill="#fdcc04" x="47.197" y="30.21" width="20" height="20"/>
    <path d="M 37.197 20.21 L 57.197 40.21" stroke-width="3" stroke="#f00"/>
    <path d="M 57.197 20.21 L 37.197 40.21" stroke-width="3" stroke="#f00"/>
  </g>
  <g transform="matrix(0.039063, 0, 0, 0.039063, 32.117524, 13.783074)">
    <path style="stroke: none; fill: rgb(0, 0, 0);" d="M 217.473 308.965 C 217.487 312.956 219.9 318.427 222.844 321.168 L 234.671 332.218 C 237.615 334.96 242.547 335.164 245.69 332.666 L 263.139 318.821 C 266.282 316.323 268.841 311.055 268.841 307.05 L 269 177.968 C 269 173.976 266.6 172.945 263.643 175.659 L 222.565 213.534 C 219.621 216.262 217.235 221.705 217.248 225.683 L 217.473 308.965 Z M 218.481 382.377 C 218.508 378.373 221.053 373.037 224.156 370.459 L 235.798 360.82 C 238.901 358.254 244.138 357.997 247.48 360.237 L 262.675 370.459 C 266.043 372.726 268.774 377.79 268.801 381.807 L 269.742 509.601 C 269.769 513.606 267.329 514.733 264.253 512.085 L 223.414 476.926 C 220.337 474.279 217.884 468.93 217.924 464.899 L 218.481 382.377 Z" fill-rule="evenodd"/>
    <path style="stroke: none; fill: rgb(0, 0, 0);" d="M -58.783 311.129 C -58.769 314.789 -56.606 319.795 -53.926 322.312 L -43.192 332.447 C -40.526 334.963 -36.037 335.14 -33.193 332.855 L -17.372 320.149 C -14.529 317.863 -12.202 313.034 -12.202 309.361 L -12.08 191.001 C -12.066 187.331 -14.243 186.381 -16.909 188.881 L -54.17 223.601 C -56.851 226.105 -59.014 231.111 -59 234.756 L -58.783 311.129 Z M -177.99 330.46 C -175.4 327.862 -170.32 325.74 -166.65 325.699 L -72.917 324.788 C -69.244 324.747 -64.129 326.787 -61.49 329.332 L -49.736 340.663 C -47.096 343.208 -47.232 347.193 -50.021 349.561 L -60.945 358.797 C -63.748 361.178 -68.999 363.096 -72.645 363.11 L -164.77 363.382 C -168.43 363.382 -173.68 361.477 -176.5 359.124 L -187.8 349.629 C -190.62 347.261 -190.81 343.248 -188.21 340.663 L -177.99 330.46 Z M -205.8 357.995 C -202.92 355.737 -198.21 355.709 -195.28 357.94 L -183.19 367.151 C -180.28 369.381 -177.91 374.143 -177.93 377.802 L -178.05 453.726 C -178.06 457.385 -180.24 462.351 -182.95 464.84 L -219.68 498.524 C -222.37 501 -224.56 500.034 -224.56 496.36 L -224.56 379.271 C -224.56 375.612 -222.22 370.796 -219.32 368.551 L -205.8 357.995 Z M -69.707 467.711 C -66.047 467.724 -60.864 469.738 -58.17 472.2 L -17.644 509.257 C -14.951 511.72 -15.726 513.733 -19.399 513.733 L -216.41 513.882 C -220.09 513.882 -220.89 511.842 -218.22 509.325 L -178.87 472.145 C -176.2 469.615 -171.06 467.575 -167.38 467.588 L -69.707 467.711 Z M -69.707 219.792 C -66.047 219.792 -60.864 217.779 -58.17 215.303 L -17.644 178.261 C -14.951 175.781 -15.726 173.781 -19.385 173.781 L -216.26 173.781 C -219.94 173.781 -220.74 175.821 -218.09 178.331 L -178.85 215.385 C -176.19 217.901 -171.06 219.928 -167.38 219.928 L -69.707 219.792 Z" fill-rule="evenodd"/>
  </g>
</svg>