<?xml version="1.0" encoding="utf-8"?>
<svg width="81" height="81" viewBox="3 1 60 60" fill="none" xmlns="http://www.w3.org/2000/svg">
  <defs>
    <clipPath id="clip0_puzzle_progress_0">
      <rect width="64" height="64" rx="4" fill="white"/>
    </clipPath>
  </defs>
  <text style="fill: rgb(51, 51, 51); font-family: Arial; font-size: 5px; white-space: pre;" x="27.722" y="28.593">SUN</text>
  <g style="stroke: rgb(0, 0, 0); fill: rgb(0, 0, 0);" transform="matrix(0.068429, 0, 0, 0.068429, 12.46747, 9.570835)">
    <g>
      <g>
        <path d="M4.549,110.703v430.77c0,32.059,26.082,58.141,58.14,58.141h474.737c32.057,0,58.139-26.082,58.139-58.141v-430.77 c0-32.059-26.082-58.14-58.139-58.14h-59.838V21.92c0-11.83-9.59-21.42-21.42-21.42s-21.42,9.59-21.42,21.42v30.642H165.366 V21.92c0-11.83-9.59-21.42-21.42-21.42s-21.42,9.59-21.42,21.42v30.642H62.689C30.63,52.563,4.549,78.645,4.549,110.703z M552.725,541.473c0,8.449-6.85,15.301-15.299,15.301H62.688c-8.45,0-15.3-6.852-15.3-15.301V207.399h505.336V541.473 L552.725,541.473z M143.946,141.266c11.83,0,21.42-9.59,21.42-21.42V95.403h269.382v24.443c0,11.83,9.59,21.42,21.42,21.42 s21.42-9.59,21.42-21.42V95.403h59.838c8.449,0,15.299,6.85,15.299,15.3v53.856H47.389v-53.856c0-8.451,6.85-15.3,15.3-15.3 h59.836v24.443C122.526,131.676,132.115,141.266,143.946,141.266z"/>
        <path d="M537.426,600.113H62.688c-32.334,0-58.64-26.306-58.64-58.641v-430.77c0-32.334,26.306-58.64,58.641-58.641h59.336V21.92 c0-12.087,9.833-21.92,21.92-21.92s21.92,9.833,21.92,21.92v30.142h268.382V21.92c0-12.087,9.833-21.92,21.92-21.92 s21.92,9.833,21.92,21.92v30.143h59.338c32.333,0,58.639,26.306,58.639,58.64v430.77 C596.064,573.808,569.759,600.113,537.426,600.113z M62.689,53.062c-31.783,0-57.641,25.858-57.641,57.641v430.77 c0,31.783,25.857,57.641,57.64,57.641h474.737c31.782,0,57.639-25.857,57.639-57.641v-430.77c0-31.783-25.856-57.64-57.639-57.64 h-60.338V21.92c0-11.536-9.385-20.92-20.92-20.92s-20.92,9.385-20.92,20.92v31.142H164.866V21.92 c0-11.536-9.385-20.92-20.92-20.92s-20.92,9.385-20.92,20.92v31.142H62.689z M537.426,557.273H62.688 c-8.712,0-15.8-7.088-15.8-15.801V206.899h506.336v334.574C553.225,550.186,546.138,557.273,537.426,557.273z M47.889,207.899 v333.574c0,8.161,6.639,14.801,14.8,14.801h474.737c8.16,0,14.799-6.64,14.799-14.801V207.899H47.889z M553.225,165.059H46.889 v-54.356c0-8.712,7.088-15.8,15.8-15.8h60.336v24.943c0.001,11.535,9.386,20.92,20.921,20.92c11.535,0,20.92-9.385,20.92-20.92 V94.903h270.382v24.943c0,11.535,9.385,20.92,20.92,20.92s20.92-9.385,20.92-20.92V94.903h60.338 c8.712,0,15.799,7.088,15.799,15.8V165.059z M47.889,164.059h504.336v-53.356c0-8.161-6.639-14.8-14.799-14.8h-59.338v23.943 c0,12.087-9.833,21.92-21.92,21.92s-21.92-9.833-21.92-21.92V95.903H165.866v23.943c0,12.087-9.833,21.92-21.92,21.92 c-12.086,0-21.92-9.833-21.921-21.92V95.903H62.688c-8.161,0-14.8,6.639-14.8,14.8V164.059z"/>
      </g>
    </g>
  </g>
  <g clip-path="url(#clip0_puzzle_progress_0)" transform="matrix(0.266025, 0, 0, 0.266025, 24.4872, 29.703164)" style="">
    <path d="M55.8987 0H8.10133C3.62709 0 0 3.62706 0 8.10127V55.8983C0 60.3725 3.62709 63.9995 8.10133 63.9995H55.8987C60.3729 63.9995 64 60.3725 64 55.8983V8.10127C64 3.62706 60.3729 0 55.8987 0Z" fill="black" stroke="black" stroke-width="0.266667" stroke-miterlimit="10"/>
    <path d="M60.7597 33.3552H48.5323V45.842H60.7597V33.3552Z" fill="white" stroke="black" stroke-width="0.266667" stroke-miterlimit="10"/>
    <path d="M60.7597 48.5422V55.8981C60.7597 58.5769 58.5777 60.7589 55.8989 60.7589H48.5323V48.5422H60.7597Z" fill="white" stroke="black" stroke-width="0.266667" stroke-miterlimit="10"/>
    <path d="M45.8316 48.5422H33.3448V60.7589H45.8316V48.5422Z" fill="white" stroke="black" stroke-width="0.266667" stroke-miterlimit="10"/>
    <path d="M30.6447 48.5422H18.1578V60.7589H30.6447V48.5422Z" fill="white" stroke="black" stroke-width="0.266667" stroke-miterlimit="10"/>
    <path d="M30.6447 33.3552H18.1578V45.842H30.6447V33.3552Z" fill="white" stroke="black" stroke-width="0.266667" stroke-miterlimit="10"/>
    <path d="M15.4573 33.3552H3.2406V45.842H15.4573V33.3552Z" fill="white" stroke="black" stroke-width="0.266667" stroke-miterlimit="10"/>
    <path d="M15.4573 18.1685H3.2406V30.6552H15.4573V18.1685Z" fill="white" stroke="black" stroke-width="0.266667" stroke-miterlimit="10"/>
    <path d="M60.7597 18.1685H48.5323V30.6552H60.7597V18.1685Z" fill="white" stroke="black" stroke-width="0.266667" stroke-miterlimit="10"/>
    <path d="M45.8316 18.1685H33.3448V30.6552H45.8316V18.1685Z" fill="white" stroke="black" stroke-width="0.266667" stroke-miterlimit="10"/>
    <path d="M45.8316 3.24048H33.3448V15.4678H45.8316V3.24048Z" fill="white" stroke="black" stroke-width="0.266667" stroke-miterlimit="10"/>
    <path d="M30.6447 3.24048H18.1578V15.4678H30.6447V3.24048Z" fill="white" stroke="black" stroke-width="0.266667" stroke-miterlimit="10"/>
    <path d="M15.4571 3.24045V15.4678H3.2406V8.101C3.2406 5.42219 5.41169 3.24023 8.1014 3.24023L15.4571 3.24045Z" fill="white" stroke="black" stroke-width="0.266667" stroke-miterlimit="10"/>
  </g>
</svg>