<?xml version="1.0" encoding="utf-8"?>
<svg width="81" height="81" viewBox="3 1 60 60" fill="none" xmlns="http://www.w3.org/2000/svg">
  <text style="fill: rgb(51, 51, 51); font-family: Arial; font-size: 15.5px; white-space: pre;" x="24.38" y="54.356">10</text>
  <g transform="matrix(1, 0, 0, 1, 0.083499, 0)">
    <path d="M 19.802 13.855 L 19.802 19.437 L 27.481 19.437 L 27.481 11.843 L 21.816 11.843 C 21.282 11.843 20.769 12.054 20.392 12.433 C 20.014 12.81 19.802 13.321 19.802 13.855 Z" fill="white" style=""/>
    <path d="M 38.373 38.07 L 44.017 38.07 C 44.148 38.069 44.277 38.057 44.405 38.031 C 44.789 37.95 45.142 37.758 45.421 37.481 C 45.798 37.103 46.011 36.592 46.011 36.058 L 46.011 30.398 L 38.373 30.398 L 38.373 38.07 Z" fill="white" style=""/>
    <path d="M 36.821 30.398 L 29.038 30.398 L 29.038 38.07 L 36.821 38.07 L 36.821 30.398 Z" fill="white" style=""/>
    <path d="M 46.026 20.994 L 38.373 20.994 L 38.373 28.777 L 46.026 28.777 L 46.026 20.994 Z" fill="white" style=""/>
    <path d="M 36.821 11.843 L 29.038 11.843 L 29.038 19.437 L 36.821 19.437 L 36.821 11.843 Z" fill="white" style=""/>
    <path d="M 27.481 20.994 L 19.802 20.994 L 19.802 28.777 L 27.481 28.777 L 27.481 20.994 Z" fill="white" style=""/>
    <path d="M 46.993 11.737 C 46.847 11.54 46.681 11.36 46.497 11.197 C 45.877 10.609 45.069 10.259 44.216 10.206 C 44.141 10.206 44.072 10.206 43.998 10.206 L 21.816 10.206 C 21.741 10.206 21.672 10.206 21.597 10.206 C 20.667 10.259 19.792 10.667 19.151 11.343 C 18.512 12.021 18.155 12.919 18.155 13.852 L 18.155 36.063 C 18.157 37.032 18.543 37.96 19.227 38.647 C 19.912 39.332 20.842 39.717 21.811 39.717 L 44.022 39.717 C 44.993 39.716 45.921 39.328 46.606 38.643 C 47.291 37.956 47.677 37.027 47.678 36.058 L 47.678 13.855 C 47.677 13.095 47.437 12.356 46.993 11.737 Z M 27.481 28.771 L 19.802 28.771 L 19.802 20.994 L 27.481 20.994 L 27.481 28.771 Z M 27.481 19.437 L 19.802 19.437 L 19.802 13.855 C 19.802 13.321 20.014 12.81 20.392 12.433 C 20.769 12.055 21.282 11.843 21.816 11.843 L 27.481 11.843 L 27.481 19.437 Z M 36.821 38.072 L 29.028 38.072 L 29.028 30.398 L 36.821 30.398 L 36.821 38.072 Z M 36.821 19.437 L 29.028 19.437 L 29.028 11.843 L 36.821 11.843 L 36.821 19.437 Z M 46.031 36.058 C 46.03 36.592 45.817 37.103 45.441 37.481 C 45.156 37.763 44.796 37.953 44.405 38.031 C 44.27 38.057 44.134 38.07 43.998 38.072 L 38.373 38.072 L 38.373 30.398 L 46.031 30.398 L 46.031 36.058 Z M 46.031 28.771 L 38.373 28.771 L 38.373 20.994 L 46.031 20.994 L 46.031 28.771 Z" fill="black" style=""/>
  </g>
</svg>