<?xml version="1.0" encoding="utf-8"?>
<svg width="800px" height="800px" viewBox="0 0 16 16" xmlns="http://www.w3.org/2000/svg" fill="#000000" class="bi bi-stopwatch-fill">
  <path d="M 6.5 0 C 6.115 0 5.875 0.417 6.067 0.75 C 6.156 0.905 7 1 7 1 L 7 2.07 C 1.666 2.841 -0.833 9.097 2.502 13.331 C 3.829 15.016 5.855 16 8 16 C 13.389 16 16.756 10.166 14.062 5.5 C 13.839 5.115 13.581 4.752 13.29 4.416 C 13.294 4.412 13.299 4.408 13.303 4.404 L 13.657 4.05 L 14.01 4.404 C 14.277 4.681 14.744 4.564 14.85 4.194 C 14.901 4.017 14.85 3.825 14.717 3.697 L 13.303 2.282 C 13.036 2.005 12.569 2.122 12.463 2.492 C 12.412 2.669 12.463 2.861 12.596 2.989 L 12.95 3.343 L 12.596 3.697 C 12.592 3.701 12.588 3.705 12.584 3.709 C 11.572 2.83 10.327 2.261 9 2.071 L 9 1 L 9.5 1 C 9.885 1 10.125 0.583 9.933 0.25 C 9.844 0.095 9.679 0 9.5 0 L 6.5 0 Z"/>
  <path style="fill:#00ff33" d="M 0.013 0 C 0.014 0 0.015 0.001 0.015 0.002 L 0.015 0.013 C 0.015 0.014 0.014 0.015 0.013 0.015 L 0.002 0.015 C 0.001 0.015 0 0.014 0 0.013 L 0 0.002 C 0 0.001 0.001 0 0.002 0 L 0.013 0 Z M 0.013 0.03 C 0.014 0.03 0.015 0.03 0.015 0.032 L 0.015 0.042 C 0.015 0.043 0.014 0.044 0.013 0.044 L 0.002 0.044 C 0.001 0.044 0 0.043 0 0.042 L 0 0.032 C 0 0.03 0.001 0.03 0.002 0.03 L 0.013 0.03 Z" fill-rule="evenodd"/>
  <g transform="matrix(0.155874, 0, 0, 0.155874, 2.859247, 7.836616)" style="">
    <path d="M 19.802 13.855 L 19.802 19.437 L 27.481 19.437 L 27.481 11.843 L 21.816 11.843 C 21.282 11.843 20.769 12.054 20.392 12.433 C 20.014 12.81 19.802 13.321 19.802 13.855 Z" fill="white" style=""/>
    <path d="M 38.373 38.07 L 44.017 38.07 C 44.148 38.069 44.277 38.057 44.405 38.031 C 44.789 37.95 45.142 37.758 45.421 37.481 C 45.798 37.103 46.011 36.592 46.011 36.058 L 46.011 30.398 L 38.373 30.398 L 38.373 38.07 Z" fill="white" style=""/>
    <path d="M 36.821 30.398 L 29.038 30.398 L 29.038 38.07 L 36.821 38.07 L 36.821 30.398 Z" fill="white" style=""/>
    <path d="M 46.026 20.994 L 38.373 20.994 L 38.373 28.777 L 46.026 28.777 L 46.026 20.994 Z" fill="white" style=""/>
    <path d="M 36.821 11.843 L 29.038 11.843 L 29.038 19.437 L 36.821 19.437 L 36.821 11.843 Z" fill="white" style=""/>
    <path d="M 27.481 20.994 L 19.802 20.994 L 19.802 28.777 L 27.481 28.777 L 27.481 20.994 Z" fill="white" style=""/>
    <path d="M 46.993 11.737 C 46.847 11.54 46.681 11.36 46.497 11.197 C 45.877 10.609 45.069 10.259 44.216 10.206 C 44.141 10.206 44.072 10.206 43.998 10.206 L 21.816 10.206 C 21.741 10.206 21.672 10.206 21.597 10.206 C 20.667 10.259 19.792 10.667 19.151 11.343 C 18.512 12.021 18.155 12.919 18.155 13.852 L 18.155 36.063 C 18.157 37.032 18.543 37.96 19.227 38.647 C 19.912 39.332 20.842 39.717 21.811 39.717 L 44.022 39.717 C 44.993 39.716 45.921 39.328 46.606 38.643 C 47.291 37.956 47.677 37.027 47.678 36.058 L 47.678 13.855 C 47.677 13.095 47.437 12.356 46.993 11.737 Z M 27.481 28.771 L 19.802 28.771 L 19.802 20.994 L 27.481 20.994 L 27.481 28.771 Z M 27.481 19.437 L 19.802 19.437 L 19.802 13.855 C 19.802 13.321 20.014 12.81 20.392 12.433 C 20.769 12.055 21.282 11.843 21.816 11.843 L 27.481 11.843 L 27.481 19.437 Z M 36.821 38.072 L 29.028 38.072 L 29.028 30.398 L 36.821 30.398 L 36.821 38.072 Z M 36.821 19.437 L 29.028 19.437 L 29.028 11.843 L 36.821 11.843 L 36.821 19.437 Z M 46.031 36.058 C 46.03 36.592 45.817 37.103 45.441 37.481 C 45.156 37.763 44.796 37.953 44.405 38.031 C 44.27 38.057 44.134 38.07 43.998 38.072 L 38.373 38.072 L 38.373 30.398 L 46.031 30.398 L 46.031 36.058 Z M 46.031 28.771 L 38.373 28.771 L 38.373 20.994 L 46.031 20.994 L 46.031 28.771 Z" fill="black" style=""/>
  </g>
  <path style="fill: rgb(51, 51, 51);" d="M 6.601 6.214 C 6.601 6.257 6.643 6.299 6.643 6.299 L 6.77 6.384 C 6.77 6.426 6.813 6.426 6.855 6.384 L 6.982 6.299 C 7.025 6.257 7.025 6.214 7.025 6.172 L 7.025 5.111 C 7.025 5.111 7.025 5.069 6.982 5.111 L 6.643 5.408 C 6.643 5.451 6.601 5.493 6.601 5.535 L 6.601 6.214 Z M 5.54 6.384 C 5.583 6.341 5.625 6.341 5.625 6.341 L 6.473 6.341 C 6.516 6.341 6.558 6.341 6.601 6.384 L 6.685 6.469 C 6.728 6.511 6.728 6.511 6.685 6.553 L 6.601 6.638 C 6.558 6.638 6.516 6.681 6.473 6.681 L 5.667 6.681 C 5.625 6.681 5.583 6.638 5.54 6.638 L 5.455 6.553 C 5.413 6.511 5.413 6.511 5.455 6.469 L 5.54 6.384 Z M 5.286 6.638 C 5.328 6.596 5.371 6.596 5.371 6.638 L 5.498 6.723 C 5.54 6.723 5.54 6.766 5.54 6.808 L 5.54 7.487 C 5.54 7.529 5.54 7.571 5.498 7.571 L 5.158 7.868 C 5.158 7.911 5.116 7.911 5.116 7.868 L 5.116 6.808 C 5.116 6.766 5.158 6.723 5.158 6.723 L 5.286 6.638 Z M 6.516 7.614 C 6.558 7.614 6.601 7.614 6.601 7.656 L 6.982 7.996 C 7.025 7.996 6.982 8.038 6.982 8.038 L 5.201 8.038 C 5.158 8.038 5.158 7.996 5.201 7.996 L 5.54 7.656 C 5.54 7.614 5.625 7.614 5.625 7.614 L 6.516 7.614 Z M 6.516 5.366 C 6.558 5.366 6.601 5.366 6.601 5.323 L 6.982 5.026 C 7.025 4.984 6.982 4.984 6.982 4.984 L 5.201 4.984 C 5.158 4.984 5.158 4.984 5.201 5.026 L 5.54 5.366 C 5.54 5.366 5.625 5.366 5.625 5.366 L 6.516 5.366 Z M 6.643 6.808 C 6.643 6.766 6.643 6.723 6.685 6.723 L 6.77 6.638 C 6.77 6.596 6.813 6.596 6.855 6.638 L 6.982 6.723 C 7.025 6.723 7.025 6.766 7.025 6.808 L 7.025 7.868 C 7.025 7.911 7.025 7.911 6.982 7.868 L 6.643 7.571 C 6.643 7.571 6.601 7.529 6.601 7.487 L 6.643 6.808 Z M 5.498 5.451 C 5.54 5.451 5.54 5.493 5.54 5.535 L 5.54 6.214 C 5.54 6.214 5.54 6.257 5.498 6.299 L 5.413 6.384 C 5.371 6.426 5.328 6.426 5.286 6.426 L 5.158 6.299 C 5.158 6.257 5.116 6.214 5.116 6.214 L 5.116 5.154 C 5.116 5.111 5.158 5.111 5.158 5.111 L 5.498 5.451 Z" fill-rule="evenodd"/>
  <path style="fill: rgb(51, 51, 51);" d="M 8.255 5.535 C 8.297 5.535 8.297 5.578 8.297 5.62 L 8.297 6.087 C 8.297 6.129 8.297 6.172 8.255 6.172 L 7.788 6.172 C 7.746 6.172 7.703 6.129 7.703 6.087 L 7.703 5.62 C 7.703 5.578 7.746 5.535 7.788 5.535 L 8.255 5.535 Z M 8.255 6.808 C 8.297 6.808 8.297 6.85 8.297 6.893 L 8.297 7.359 C 8.297 7.402 8.297 7.444 8.255 7.444 L 7.788 7.444 C 7.746 7.444 7.703 7.402 7.703 7.359 L 7.703 6.893 C 7.703 6.85 7.746 6.808 7.788 6.808 L 8.255 6.808 Z" fill-rule="evenodd"/>
  <path style="fill: rgb(51, 51, 51);" d="M 10.461 6.214 C 10.461 6.257 10.461 6.299 10.503 6.299 L 10.588 6.384 C 10.63 6.426 10.673 6.426 10.673 6.384 L 10.842 6.299 C 10.842 6.257 10.885 6.214 10.885 6.172 L 10.885 5.111 C 10.885 5.111 10.842 5.069 10.842 5.111 L 10.503 5.408 C 10.461 5.451 10.461 5.493 10.461 5.535 L 10.461 6.214 Z M 9.4 6.384 C 9.4 6.341 9.443 6.341 9.485 6.341 L 10.333 6.341 C 10.376 6.341 10.418 6.341 10.418 6.384 L 10.545 6.469 C 10.545 6.511 10.545 6.511 10.545 6.553 L 10.418 6.638 C 10.418 6.638 10.376 6.681 10.333 6.681 L 9.485 6.681 C 9.485 6.681 9.443 6.638 9.4 6.638 L 9.315 6.553 C 9.273 6.511 9.273 6.511 9.315 6.469 L 9.4 6.384 Z M 9.146 6.638 C 9.146 6.596 9.188 6.596 9.23 6.638 L 9.358 6.723 C 9.358 6.723 9.4 6.766 9.4 6.808 L 9.4 7.487 C 9.4 7.529 9.358 7.571 9.358 7.571 L 9.018 7.868 C 8.976 7.911 8.976 7.911 8.976 7.868 L 8.976 6.808 C 8.976 6.766 8.976 6.723 9.018 6.723 L 9.146 6.638 Z M 10.376 7.614 C 10.376 7.614 10.418 7.614 10.461 7.656 L 10.842 7.996 C 10.842 7.996 10.842 8.038 10.8 8.038 L 9.061 8.038 C 9.018 8.038 9.018 7.996 9.018 7.996 L 9.4 7.656 C 9.4 7.614 9.443 7.614 9.485 7.614 L 10.376 7.614 Z M 10.376 5.366 C 10.376 5.366 10.418 5.366 10.461 5.323 L 10.842 5.026 C 10.842 4.984 10.842 4.984 10.8 4.984 L 9.061 4.984 C 9.018 4.984 9.018 4.984 9.018 5.026 L 9.4 5.366 C 9.4 5.366 9.443 5.366 9.485 5.366 L 10.376 5.366 Z M 10.461 6.808 C 10.461 6.766 10.503 6.723 10.503 6.723 L 10.588 6.638 C 10.63 6.596 10.673 6.596 10.715 6.638 L 10.842 6.723 C 10.842 6.723 10.885 6.766 10.885 6.808 L 10.885 7.868 C 10.885 7.911 10.885 7.911 10.842 7.868 L 10.503 7.571 C 10.461 7.571 10.461 7.529 10.461 7.487 L 10.461 6.808 Z M 9.358 5.451 C 9.358 5.451 9.4 5.493 9.4 5.535 L 9.4 6.214 C 9.4 6.214 9.358 6.257 9.358 6.299 L 9.23 6.384 C 9.23 6.426 9.188 6.426 9.146 6.426 L 9.018 6.299 C 8.976 6.257 8.976 6.214 8.976 6.214 L 8.976 5.154 C 8.976 5.111 8.976 5.111 9.018 5.111 L 9.358 5.451 Z" fill-rule="evenodd"/>
  <path style="fill: rgb(51, 51, 51);" d="M 13.006 6.214 C 13.006 6.257 13.048 6.299 13.048 6.299 L 13.175 6.384 C 13.175 6.426 13.218 6.426 13.26 6.384 L 13.387 6.299 C 13.43 6.257 13.43 6.214 13.43 6.172 L 13.43 5.111 C 13.43 5.111 13.43 5.069 13.387 5.111 L 13.048 5.408 C 13.048 5.451 13.006 5.493 13.006 5.535 L 13.006 6.214 Z M 11.945 6.384 C 11.988 6.341 12.03 6.341 12.072 6.341 L 12.878 6.341 C 12.921 6.341 12.963 6.341 13.006 6.384 L 13.09 6.469 C 13.133 6.511 13.133 6.511 13.09 6.553 L 13.006 6.638 C 12.963 6.638 12.921 6.681 12.878 6.681 L 12.072 6.681 C 12.03 6.681 11.988 6.638 11.945 6.638 L 11.86 6.553 C 11.818 6.511 11.818 6.511 11.86 6.469 L 11.945 6.384 Z M 11.691 6.638 C 11.733 6.596 11.775 6.596 11.818 6.638 L 11.903 6.723 C 11.945 6.723 11.945 6.766 11.945 6.808 L 11.945 7.487 C 11.945 7.529 11.945 7.571 11.903 7.571 L 11.563 7.868 C 11.563 7.911 11.521 7.911 11.521 7.868 L 11.521 6.808 C 11.521 6.766 11.563 6.723 11.563 6.723 L 11.691 6.638 Z M 12.921 7.614 C 12.963 7.614 13.006 7.614 13.048 7.656 L 13.387 7.996 C 13.43 7.996 13.43 8.038 13.387 8.038 L 11.606 8.038 C 11.563 8.038 11.563 7.996 11.606 7.996 L 11.945 7.656 C 11.988 7.614 12.03 7.614 12.03 7.614 L 12.921 7.614 Z M 12.921 5.366 C 12.963 5.366 13.006 5.366 13.048 5.323 L 13.387 5.026 C 13.43 4.984 13.43 4.984 13.387 4.984 L 11.606 4.984 C 11.563 4.984 11.563 4.984 11.606 5.026 L 11.945 5.366 C 11.988 5.366 12.03 5.366 12.03 5.366 L 12.921 5.366 Z M 13.048 6.808 C 13.048 6.766 13.048 6.723 13.09 6.723 L 13.175 6.638 C 13.218 6.596 13.26 6.596 13.26 6.638 L 13.387 6.723 C 13.43 6.723 13.43 6.766 13.43 6.808 L 13.43 7.868 C 13.43 7.911 13.43 7.911 13.387 7.868 L 13.09 7.571 C 13.048 7.571 13.006 7.529 13.006 7.487 L 13.048 6.808 Z M 11.903 5.451 C 11.945 5.451 11.945 5.493 11.945 5.535 L 11.945 6.214 C 11.945 6.214 11.945 6.257 11.903 6.299 L 11.818 6.384 C 11.775 6.426 11.733 6.426 11.733 6.426 L 11.563 6.299 C 11.563 6.257 11.521 6.214 11.521 6.214 L 11.521 5.154 C 11.521 5.111 11.563 5.111 11.563 5.111 L 11.903 5.451 Z" fill-rule="evenodd"/>
  <path style="fill: rgb(51, 51, 51);" d="M 4.056 6.214 C 4.056 6.257 4.056 6.299 4.098 6.299 L 4.183 6.384 C 4.225 6.426 4.268 6.426 4.268 6.384 L 4.437 6.299 C 4.437 6.257 4.48 6.214 4.48 6.172 L 4.48 5.111 C 4.48 5.111 4.437 5.069 4.437 5.111 L 4.098 5.408 C 4.056 5.451 4.056 5.493 4.056 5.535 L 4.056 6.214 Z M 2.995 6.384 C 2.995 6.341 3.038 6.341 3.08 6.341 L 3.928 6.341 C 3.971 6.341 4.013 6.341 4.013 6.384 L 4.14 6.469 C 4.14 6.511 4.14 6.511 4.14 6.553 L 4.013 6.638 C 4.013 6.638 3.971 6.681 3.928 6.681 L 3.08 6.681 C 3.08 6.681 3.038 6.638 2.995 6.638 L 2.91 6.553 C 2.868 6.511 2.868 6.511 2.868 6.469 L 2.995 6.384 Z M 2.741 6.638 C 2.741 6.596 2.783 6.596 2.825 6.638 L 2.953 6.723 C 2.953 6.723 2.995 6.766 2.995 6.808 L 2.995 7.487 C 2.995 7.529 2.953 7.571 2.953 7.571 L 2.613 7.868 C 2.571 7.911 2.571 7.911 2.571 7.868 L 2.571 6.808 C 2.571 6.766 2.571 6.723 2.613 6.723 L 2.741 6.638 Z M 3.971 7.614 C 3.971 7.614 4.013 7.614 4.056 7.656 L 4.437 7.996 C 4.437 7.996 4.437 8.038 4.395 8.038 L 2.613 8.038 C 2.613 8.038 2.613 7.996 2.613 7.996 L 2.953 7.656 C 2.995 7.614 3.038 7.614 3.08 7.614 L 3.971 7.614 Z M 3.971 5.366 C 3.971 5.366 4.013 5.366 4.056 5.366 L 4.437 5.026 C 4.437 4.984 4.437 4.984 4.395 4.984 L 2.656 4.984 C 2.613 4.984 2.613 4.984 2.613 5.026 L 2.953 5.366 C 2.995 5.366 3.038 5.366 3.08 5.366 L 3.971 5.366 Z M 4.056 6.808 C 4.056 6.766 4.098 6.723 4.098 6.723 L 4.183 6.638 C 4.225 6.596 4.268 6.596 4.31 6.638 L 4.437 6.723 C 4.437 6.723 4.48 6.766 4.48 6.808 L 4.48 7.868 C 4.48 7.911 4.437 7.911 4.437 7.868 L 4.098 7.571 C 4.056 7.571 4.056 7.529 4.056 7.487 L 4.056 6.808 Z M 2.953 5.451 C 2.953 5.451 2.995 5.493 2.995 5.535 L 2.995 6.214 C 2.995 6.214 2.953 6.257 2.953 6.299 L 2.825 6.384 C 2.825 6.426 2.783 6.426 2.741 6.426 L 2.613 6.299 C 2.571 6.257 2.571 6.214 2.571 6.214 L 2.571 5.154 C 2.571 5.111 2.571 5.111 2.613 5.111 L 2.953 5.451 Z" fill-rule="evenodd"/>
  <path style="fill:#00ff33" d="M 13.007 6.249 C 13.007 6.292 13.007 6.335 13.05 6.378 L 13.136 6.464 C 13.179 6.464 13.222 6.464 13.222 6.464 L 13.351 6.335 C 13.394 6.335 13.437 6.292 13.437 6.249 L 13.437 5.172 C 13.437 5.129 13.394 5.129 13.394 5.129 L 13.05 5.474 C 13.007 5.474 13.007 5.517 13.007 5.56 L 13.007 6.249 Z M 11.672 6.679 C 11.672 6.679 11.715 6.679 11.758 6.679 L 11.844 6.765 C 11.887 6.808 11.887 6.851 11.887 6.851 L 11.887 7.54 C 11.887 7.583 11.887 7.626 11.844 7.669 L 11.543 7.971 C 11.5 8.014 11.5 7.971 11.5 7.971 L 11.5 6.894 C 11.5 6.851 11.5 6.808 11.543 6.765 L 11.672 6.679 Z M 12.878 7.669 C 12.921 7.669 12.964 7.712 13.007 7.712 L 13.351 8.057 C 13.394 8.1 13.394 8.1 13.351 8.1 L 11.543 8.1 C 11.543 8.1 11.5 8.1 11.543 8.057 L 11.887 7.712 C 11.931 7.712 11.974 7.669 12.017 7.669 L 12.878 7.669 Z M 12.878 5.431 C 12.921 5.431 12.964 5.431 13.007 5.388 L 13.351 5.043 C 13.394 5.043 13.394 5 13.351 5 L 11.543 5 C 11.543 5 11.5 5.043 11.543 5.043 L 11.887 5.388 C 11.931 5.431 11.974 5.431 12.017 5.431 L 12.878 5.431 Z M 13.007 6.894 C 13.007 6.851 13.007 6.808 13.05 6.765 L 13.136 6.679 C 13.179 6.679 13.222 6.679 13.222 6.679 L 13.351 6.765 C 13.394 6.808 13.437 6.851 13.437 6.851 L 13.437 7.928 C 13.437 7.971 13.394 7.971 13.394 7.971 L 13.05 7.669 C 13.007 7.626 13.007 7.583 13.007 7.583 L 13.007 6.894 Z M 11.844 5.474 C 11.887 5.517 11.887 5.56 11.887 5.56 L 11.887 6.249 C 11.887 6.292 11.887 6.335 11.844 6.335 L 11.758 6.464 C 11.715 6.507 11.672 6.507 11.672 6.464 L 11.543 6.335 C 11.5 6.335 11.5 6.292 11.5 6.249 L 11.5 5.172 C 11.5 5.172 11.5 5.129 11.543 5.172 L 11.844 5.474 Z" fill-rule="evenodd"/>
  <path style="fill:#00ff33" d="M 10.507 6.249 C 10.507 6.292 10.507 6.335 10.55 6.378 L 10.636 6.464 C 10.679 6.464 10.722 6.464 10.722 6.464 L 10.851 6.335 C 10.894 6.335 10.937 6.292 10.937 6.249 L 10.937 5.172 C 10.937 5.129 10.894 5.129 10.894 5.129 L 10.55 5.474 C 10.507 5.474 10.507 5.517 10.507 5.56 L 10.507 6.249 Z M 9.172 6.679 C 9.172 6.679 9.215 6.679 9.258 6.679 L 9.344 6.765 C 9.387 6.808 9.387 6.851 9.387 6.851 L 9.387 7.54 C 9.387 7.583 9.387 7.626 9.344 7.669 L 9.043 7.971 C 9 8.014 9 7.971 9 7.971 L 9 6.894 C 9 6.851 9 6.808 9.043 6.765 L 9.172 6.679 Z M 10.378 7.669 C 10.421 7.669 10.464 7.712 10.507 7.712 L 10.851 8.057 C 10.894 8.1 10.894 8.1 10.851 8.1 L 9.043 8.1 C 9.043 8.1 9 8.1 9.043 8.057 L 9.387 7.712 C 9.431 7.712 9.474 7.669 9.517 7.669 L 10.378 7.669 Z M 10.378 5.431 C 10.421 5.431 10.464 5.431 10.507 5.388 L 10.851 5.043 C 10.894 5.043 10.894 5 10.851 5 L 9.043 5 C 9.043 5 9 5.043 9.043 5.043 L 9.387 5.388 C 9.431 5.431 9.474 5.431 9.517 5.431 L 10.378 5.431 Z M 10.507 6.894 C 10.507 6.851 10.507 6.808 10.55 6.765 L 10.636 6.679 C 10.679 6.679 10.722 6.679 10.722 6.679 L 10.851 6.765 C 10.894 6.808 10.937 6.851 10.937 6.851 L 10.937 7.928 C 10.937 7.971 10.894 7.971 10.894 7.971 L 10.55 7.669 C 10.507 7.626 10.507 7.583 10.507 7.583 L 10.507 6.894 Z M 9.344 5.474 C 9.387 5.517 9.387 5.56 9.387 5.56 L 9.387 6.249 C 9.387 6.292 9.387 6.335 9.344 6.335 L 9.258 6.464 C 9.215 6.507 9.172 6.507 9.172 6.464 L 9.043 6.335 C 9 6.335 9 6.292 9 6.249 L 9 5.172 C 9 5.172 9 5.129 9.043 5.172 L 9.344 5.474 Z" fill-rule="evenodd"/>
  <path style="fill:#00ff33" d="M 5.531 6.421 C 5.531 6.421 5.574 6.378 5.617 6.378 L 6.478 6.378 C 6.521 6.378 6.564 6.378 6.564 6.421 L 6.693 6.507 C 6.693 6.55 6.693 6.593 6.693 6.593 L 6.607 6.679 C 6.564 6.722 6.521 6.722 6.478 6.722 L 5.66 6.722 C 5.617 6.722 5.574 6.722 5.531 6.679 L 5.444 6.593 C 5.401 6.593 5.401 6.55 5.444 6.507 L 5.531 6.421 Z M 6.521 7.669 C 6.521 7.669 6.607 7.712 6.607 7.712 L 6.994 8.057 C 6.994 8.057 6.994 8.1 6.951 8.1 L 5.186 8.1 C 5.143 8.1 5.143 8.057 5.143 8.057 L 5.531 7.712 C 5.531 7.669 5.574 7.669 5.617 7.669 L 6.521 7.669 Z M 6.521 5.431 C 6.521 5.431 6.607 5.387 6.607 5.387 L 6.994 5.043 C 6.994 5 6.994 5 6.951 5 L 5.186 5 C 5.143 5 5.143 5 5.143 5.043 L 5.531 5.387 C 5.531 5.387 5.574 5.431 5.617 5.431 L 6.521 5.431 Z M 6.607 6.851 C 6.607 6.808 6.65 6.765 6.65 6.765 L 6.779 6.679 C 6.779 6.679 6.822 6.636 6.865 6.679 L 6.994 6.765 C 6.994 6.765 7.037 6.808 7.037 6.851 L 7.037 7.928 C 7.037 7.971 7.037 7.971 6.994 7.928 L 6.65 7.669 C 6.65 7.626 6.607 7.583 6.607 7.54 L 6.607 6.851 Z M 5.487 5.474 C 5.487 5.474 5.531 5.517 5.531 5.56 L 5.531 6.249 C 5.531 6.292 5.487 6.335 5.487 6.335 L 5.358 6.464 C 5.358 6.464 5.315 6.464 5.272 6.464 L 5.143 6.335 C 5.1 6.335 5.1 6.292 5.1 6.249 L 5.1 5.172 C 5.1 5.129 5.1 5.129 5.143 5.172 L 5.487 5.474 Z" fill-rule="evenodd"/>
  <path style="fill:#00ff33" d="M 4.005 6.226 C 4.005 6.27 4.005 6.313 4.048 6.313 L 4.135 6.442 C 4.178 6.442 4.221 6.442 4.264 6.442 L 4.394 6.313 C 4.437 6.27 4.48 6.226 4.48 6.183 L 4.48 5.017 C 4.48 4.973 4.437 4.973 4.394 5.017 L 4.048 5.362 C 4.005 5.362 4.005 5.406 4.005 5.449 L 4.005 6.226 Z M 4.005 6.874 C 4.005 6.874 4.005 6.788 4.048 6.788 L 4.178 6.702 C 4.178 6.658 4.221 6.658 4.264 6.702 L 4.394 6.788 C 4.437 6.788 4.48 6.831 4.48 6.874 L 4.48 8.041 C 4.48 8.084 4.437 8.084 4.437 8.084 L 4.048 7.739 C 4.005 7.739 4.005 7.695 4.005 7.652 L 4.005 6.874 Z" fill-rule="evenodd"/>
  <path style="fill:#00ff33" d="M 8.21 5.544 C 8.254 5.544 8.297 5.587 8.297 5.63 L 8.297 6.105 C 8.297 6.149 8.254 6.192 8.21 6.192 L 7.735 6.192 C 7.692 6.192 7.649 6.149 7.649 6.105 L 7.649 5.63 C 7.649 5.587 7.692 5.544 7.735 5.544 L 8.21 5.544 Z M 8.21 6.839 C 8.254 6.839 8.297 6.883 8.297 6.926 L 8.297 7.401 C 8.297 7.444 8.254 7.444 8.21 7.444 L 7.735 7.444 C 7.692 7.444 7.649 7.444 7.649 7.401 L 7.649 6.926 C 7.649 6.883 7.692 6.839 7.735 6.839 L 8.21 6.839 Z" fill-rule="evenodd"/>
</svg>