<?xml version="1.0" encoding="utf-8"?>
<svg xmlns="http://www.w3.org/2000/svg" viewBox="0 0 500 500">
  <g style="" transform="matrix(1.213786, 0, 0, 1.213786, -73.888489, -44.912975)">
    <path fill-rule="evenodd" clip-rule="evenodd" d="M 208.995 172.62 C 228.984 195.283 241.131 225.055 241.131 257.655 C 241.131 290.267 228.984 320.039 208.995 342.689 C 225.475 353.936 245.386 360.493 266.842 360.493 C 288.309 360.493 308.221 353.936 324.7 342.689 C 304.699 320.039 292.551 290.267 292.551 257.655 C 292.551 225.055 304.699 195.283 324.7 172.62 C 308.221 161.386 288.309 154.816 266.842 154.816 C 245.386 154.816 225.475 161.386 208.995 172.62 Z M 343.97 189.639 C 327.966 207.778 318.261 231.573 318.261 257.655 C 318.261 283.736 327.966 307.544 343.97 325.682 C 359.988 307.544 369.68 283.736 369.68 257.655 C 369.68 231.573 359.988 207.778 343.97 189.639 Z M 189.713 325.682 C 205.73 307.544 215.422 283.736 215.422 257.655 C 215.422 231.573 205.73 207.778 189.713 189.639 C 173.709 207.778 164.003 231.573 164.003 257.655 C 164.003 283.736 173.709 307.544 189.713 325.682 Z M 181.138 161.847 C 203.878 141.498 233.934 129.107 266.842 129.107 C 299.762 129.107 329.817 141.498 352.544 161.847 C 378.819 185.372 395.389 219.591 395.389 257.655 C 395.389 295.731 378.819 329.95 352.544 353.474 C 329.817 373.822 299.762 386.202 266.842 386.202 C 233.934 386.202 203.878 373.822 181.138 353.474 C 154.864 329.95 138.294 295.731 138.294 257.655 C 138.294 219.591 154.864 185.372 181.138 161.847 Z" fill="#000000" style=""/>
    <ellipse style="fill: none; stroke-width: 13px; stroke: rgb(255, 250, 0);" cx="266.842" cy="129.265" rx="76.553" ry="29.528"/>
  </g>
</svg>