<?xml version="1.0" encoding="utf-8"?>
<svg width="81" height="81" viewBox="3 1 60 60" fill="none" xmlns="http://www.w3.org/2000/svg">
  <text style="fill: rgb(51, 51, 51); font-family: Arial; font-size: 15.5px; white-space: pre;" x="23.483" y="54.356">1K</text>
  <g transform="matrix(0.174537, 0, 0, 0.174537, 17.295515, 10.123627)" style=""/>
  <path fill="#59d185" d="M 25.972 17.148 C 25.972 18.121 25.184 18.909 24.21 18.909 L 18.925 18.909 C 17.952 18.909 17.164 18.121 17.164 17.148 L 17.164 11.862 C 17.164 10.89 17.952 10.101 18.925 10.101 L 24.21 10.101 C 25.184 10.101 25.972 10.89 25.972 11.862 L 25.972 17.148 Z M 37.422 17.148 C 37.422 18.121 36.634 18.909 35.661 18.909 L 30.376 18.909 C 29.402 18.909 28.614 18.121 28.614 17.148 L 28.614 11.862 C 28.614 10.89 29.402 10.101 30.376 10.101 L 35.661 10.101 C 36.634 10.101 37.422 10.89 37.422 11.862 L 37.422 17.148 Z M 48.873 17.148 C 48.873 18.121 48.085 18.909 47.112 18.909 L 41.826 18.909 C 40.853 18.909 40.065 18.121 40.065 17.148 L 40.065 11.862 C 40.065 10.89 40.853 10.101 41.826 10.101 L 47.112 10.101 C 48.085 10.101 48.873 10.89 48.873 11.862 L 48.873 17.148 Z M 25.972 28.598 C 25.972 29.572 25.184 30.36 24.21 30.36 L 18.925 30.36 C 17.952 30.36 17.164 29.572 17.164 28.598 L 17.164 23.313 C 17.164 22.341 17.952 21.552 18.925 21.552 L 24.21 21.552 C 25.184 21.552 25.972 22.341 25.972 23.313 L 25.972 28.598 Z M 37.422 28.598 C 37.422 29.572 36.634 30.36 35.661 30.36 L 30.376 30.36 C 29.402 30.36 28.614 29.572 28.614 28.598 L 28.614 23.313 C 28.614 22.341 29.402 21.552 30.376 21.552 L 35.661 21.552 C 36.634 21.552 37.422 22.341 37.422 23.313 L 37.422 28.598 Z M 48.873 28.598 C 48.873 29.572 48.085 30.36 47.112 30.36 L 41.826 30.36 C 40.853 30.36 40.065 29.572 40.065 28.598 L 40.065 23.313 C 40.065 22.341 40.853 21.552 41.826 21.552 L 47.112 21.552 C 48.085 21.552 48.873 22.341 48.873 23.313 L 48.873 28.598 Z M 25.972 40.049 C 25.972 41.022 25.184 41.81 24.21 41.81 L 18.925 41.81 C 17.952 41.81 17.164 41.022 17.164 40.049 L 17.164 34.764 C 17.164 33.791 17.952 33.002 18.925 33.002 L 24.21 33.002 C 25.184 33.002 25.972 33.791 25.972 34.764 L 25.972 40.049 Z M 37.422 40.049 C 37.422 41.022 36.634 41.81 35.661 41.81 L 30.376 41.81 C 29.402 41.81 28.614 41.022 28.614 40.049 L 28.614 34.764 C 28.614 33.791 29.402 33.002 30.376 33.002 L 35.661 33.002 C 36.634 33.002 37.422 33.791 37.422 34.764 L 37.422 40.049 Z M 48.873 40.049 C 48.873 41.022 48.085 41.81 47.112 41.81 L 41.826 41.81 C 40.853 41.81 40.065 41.022 40.065 40.049 L 40.065 34.764 C 40.065 33.791 40.853 33.002 41.826 33.002 L 47.112 33.002 C 48.085 33.002 48.873 33.791 48.873 34.764 L 48.873 40.049 Z" style=""/>
</svg>