<?xml version="1.0" encoding="utf-8"?>
<svg xmlns="http://www.w3.org/2000/svg" viewBox="0 0 500 500">
  <g transform="matrix(0.88916, 0, 0, 0.88916, -22.127413, -54.492905)" style="">
    <g>
      <path fill="#231F20" d="M306,584.2c-59.7,0-120.1-8.9-120.1-25.8v-44.2c0-5.9,7.4-11.1,22.1-15.4v-14.6c-0.6-1-0.9-2.1-0.9-3.2 c0-4.8,5.3-8.8,16.1-12.3V202.9c-1.1-1.5-1.7-3.5-1.7-5.8c0-2,0.7-4,2-5.4l-12.3-10.6l14-14c-0.3-0.9-0.3-1.9-0.3-3.1 c0-0.6,0.1-1.1,0.2-1.7l-15.7-9.4l22.8-12.8c-0.2-0.5-0.4-1-0.4-1.6c0-0.9,0.1-1.7,0.4-2.6l-14-6.8l28.4-13.8 c-0.2-0.4-0.3-1-0.3-1.5c0-4.3,3.3-7.9,7.1-7.9c3.7,0,6.9,3.4,7.1,7.6l6.6-3.2c-0.2-0.4-0.3-1-0.3-1.5c0-4.3,3.3-8,7.1-8 s7.1,3.6,7.1,8c0,2-0.8,3.8-1.7,5.6v5.8l13.3-6.5c-0.2-0.4-0.3-1-0.3-1.5c0-4.3,3.3-8,7.1-8s7.1,3.6,7.1,8c0,2-0.8,3.8-1.7,5.6v16 l9.9-4c-0.2-0.4-0.3-0.9-0.3-1.4c0-4.3,3.3-8,7.1-8s7.1,3.6,7.1,8c0,2-0.8,3.8-1.7,5.6v13.9l5.4,1.6c0.4-3.9,3.5-7,7-7 c3.8,0,7.1,3.6,7.1,8c0,2-0.8,3.8-1.7,5.6v11.8l3.7,0.6c0.3-4,3.4-7.3,7.1-7.3c3.8,0,7.1,3.6,7.1,7.9c0,2-0.8,3.8-1.7,5.6v8.4 c0.8,1.1,1.6,2.4,2.4,3.7c1-0.6,2.2-1,3.3-1c3.8,0,7.1,3.6,7.1,8c0,0.2,0,0.4,0,0.6c0,0.1,0,0.2,0,0.2c0,0.7,0,1.9-0.4,3l1,1.9 l7.5,10.5l-4.6,6.1c0.7,1.8,1.5,3.7,2.2,5.5c0.2,0,0.5,0,0.7,0c3.8,0,7.1,3.6,7.1,7.9c0,0.8,0,1.7-0.4,2.8l13.3,10.7l-13.7,13.7 v211.8c11.4,3.6,17,7.7,17,12.6l0.8,17.8c14.7,4.3,22.2,9.5,22.2,15.4v44.2C426.2,574.5,365.1,584.2,306,584.2z"/>
      <path fill="#231F20" d="M273.7,102.8c2.5,0,5.1,2.5,5.1,5.9c0,1.7-0.8,3.4-1.7,5.1v9.5l17.9-8.6c0-0.9-0.9-1.7-0.9-2.6 c0-3.4,2.5-5.9,5.1-5.9c2.5,0,5.1,2.5,5.1,5.9c0,1.7-0.8,3.4-1.7,5.1v19.5l14.5-5.9c0-0.9-0.8-1.7-0.8-2.5c0-3.4,2.5-6,5.1-6 c2.5,0,5.1,2.5,5.1,6c0,1.7-0.9,3.4-1.7,5.1v15.9l9.3,2.8c0-0.9,0-0.9,0-1.7c0-3.4,2.5-5.9,5.1-5.9c2.6,0,5.1,2.5,5.1,5.9 c0,1.7-0.9,3.4-1.7,5.1v14l7.7,1.3c0-0.8,0-1.7,0-1.7c0-3.4,2.5-6,5.1-6c2.5,0,5.1,2.6,5.1,6c0,1.7-0.9,3.4-1.7,5.1v9.5 c1.3,1.9,2.6,3.9,3.9,6.2c1-1.3,2.4-2,3.8-2c2.6,0,5.1,2.5,5.1,5.9c0,0.2,0,0.4,0,0.6c0,0.1,0,0.1,0,0.2c0,0.7,0,2.2-0.6,3.1 l1.5,2.8l6.7,9.4l-4.4,5.8c1.3,3.1,2.4,5.9,3.3,8.3c0.6-0.3,1.3-0.5,1.9-0.5c2.5,0,5.1,2.6,5.1,6c0,0.8,0,1.7-0.8,3.4L397,243 l-12.8,12.8v16.4l-3,0.6l3,0.7v196.4c10.7,3.2,17,7,17,11.1l0.8,19.3c13.9,3.9,22.1,8.7,22.1,13.9v44.2 c0,12.8-52.7,23.8-118.1,23.8s-118.1-10.2-118.1-23.8v-44.2c0-5.2,8.2-10,22.1-13.9v-16.7c-0.6-0.9-0.8-1.7-0.8-2.6 c0-4,6-7.7,16.1-10.9V202.2c-0.9-0.8-1.7-2.5-1.7-5.1c0-2.5,1.3-4.5,3.1-5.4l-12.4-10.7l13.6-13.6v0c-0.8-0.8-0.8-1.7-0.8-3.4 c0-0.9,0.2-1.8,0.5-2.6l-14.1-8.5l21.2-11.9c0-0.8-0.9-1.7-0.9-2.6c0-1.3,0.4-2.5,1-3.5l-12.1-5.8l26.3-12.8c0-0.8-0.8-1.7-0.8-2.5 c0-3.4,2.6-6,5.1-6c2.6,0,5.1,2.6,5.1,6c0,1.1-0.3,2.1-0.8,3.2l11.8-5.7c0-0.8-0.9-1.7-0.9-2.6 C268.6,105.3,271.2,102.8,273.7,102.8 M273.7,98.8c-4.9,0-9.1,4.6-9.1,9.9c0,0.2,0,0.3,0,0.4l-2.8,1.3c-1.3-3.8-4.7-6.6-8.6-6.6 c-4.9,0-9.1,4.6-9.1,10c0,0.2,0,0.3,0,0.4L221,125.5l-7.4,3.6l7.4,3.6l8.9,4.3c-0.1,0.5-0.1,1-0.1,1.4c0,0.2,0,0.4,0,0.7 l-18.4,10.3l-6,3.4l5.9,3.5l11.7,7c0,0.2,0,0.4,0,0.6c0,0.8,0,1.6,0.1,2.5l-11.7,11.7l-3,3l3.2,2.8l9.3,8c-0.8,1.5-1.3,3.3-1.3,5.1 c0,2.4,0.6,4.7,1.7,6.4v263.7c-10.9,3.7-16.1,8.2-16.1,13.8c0,1.2,0.3,2.5,0.8,3.6v12.7c-14.9,4.6-22.1,10.1-22.1,16.9v44.2 c0,9,12.3,15.9,37.8,20.9c22.3,4.4,52.3,6.9,84.4,6.9c31.7,0,61.7-2.6,84.4-7.2c25.4-5.2,37.7-11.9,37.7-20.6v-44.2 c0-6.8-7.3-12.3-22.2-16.9l-0.7-16.4c-0.1-5.6-5.6-10.2-17-13.9V275.5v-3.3v-14.8l11.6-11.6l3.2-3.2l-3.5-2.8l-10.6-8.4 c0.1-0.8,0.2-1.4,0.2-2c0-5.2-3.8-9.6-8.5-9.9c-0.4-1.1-0.8-2.2-1.3-3.2l3-4l1.8-2.3l-1.7-2.4l-6.6-9.2l-0.6-1.1 c0.2-1.1,0.2-2.1,0.2-2.7c0-0.1,0-0.2,0-0.3c0-0.2,0-0.4,0-0.6c0-5.4-4.2-9.9-9.1-9.9c-0.8,0-1.7,0.1-2.5,0.4 c-0.4-0.6-0.8-1.2-1.1-1.8v-7.3c0.9-1.8,1.7-3.8,1.7-6c0-5.4-4.2-10-9.1-10c-4,0-7.5,3-8.7,7l-0.1,0v-9.7c0.9-1.8,1.7-3.8,1.7-6 c0-5.4-4.2-9.9-9.1-9.9c-3.8,0-7.2,2.7-8.5,6.4l-2-0.6v-12c0.9-1.8,1.7-3.8,1.7-6c0-5.4-4.2-10-9.1-10c-4.9,0-9.1,4.6-9.1,10 c0,0.1,0,0.1,0,0.2l-5.6,2.3v-12.6c0.9-1.8,1.7-3.8,1.7-6c0-5.4-4.2-9.9-9.1-9.9c-4.9,0-9.1,4.6-9.1,9.9c0,0.2,0,0.3,0,0.4l-9,4.4 v-2.2c0.9-1.8,1.7-3.8,1.7-6C282.8,103.3,278.6,98.8,273.7,98.8L273.7,98.8z"/>
    </g>
    <g id="_x2E_svg_5785_">
      <path fill="#D4A22A" d="M363,431.7V198.8c-0.9-0.9-1.7-2.6-1.7-5.1c0-3.4,2.5-5.9,5.1-5.9c2.6,0,5.1,2.6,5.1,5.9 c0,0.9,0,2.6-0.9,3.4l6.8,12.8l-8.1,9.4l-0.8,211.6H363V431.7z"/>
    </g>
    <path id="_x2E_svg_5784_" fill="#D4A22A" stroke="#231F20" stroke-width="3" stroke-miterlimit="10" d="M187.9,558.3 c0,13.6,52.7,23.8,118.1,23.8s118.2-11,118.2-23.8v-44.2H187.9V558.3z"/>
    <ellipse id="_x2E_svg_5783_" fill="#FEC662" stroke="#231F20" stroke-width="3" stroke-miterlimit="10" cx="306" cy="514.2" rx="118.2" ry="23.8"/>
    <path id="_x2E_svg_5782_" fill="#D4A22A" stroke="#231F20" stroke-width="3" stroke-miterlimit="10" d="M210,508.2 c0,11,42.5,19.5,96,19.5s96-8.5,96-19.5V481H210V508.2z"/>
    <g id="_x2E_svg_5781_">
      <path fill="#261E1E" d="M305.1,502c-47.3,0-97.5-7.4-97.5-21s50.3-21,97.5-21s97.6,7.4,97.6,21S352.4,502,305.1,502z"/>
      <path fill="#231F20" d="M305.2,461.5c53,0,96,8.8,96,19.5s-43,19.5-96,19.5s-96.1-8.8-96.1-19.5S252.1,461.5,305.2,461.5 M305.2,458.5c-25.9,0-50.2,2.1-68.5,5.8c-20.5,4.2-30.5,9.7-30.5,16.8s10,12.6,30.5,16.8c18.3,3.7,42.7,5.8,68.5,5.8 s50.2-2.1,68.5-5.8c20.5-4.2,30.5-9.7,30.5-16.8s-10-12.6-30.5-16.8C355.3,460.5,331,458.5,305.2,458.5L305.2,458.5z"/>
    </g>
    <g id="_x2E_svg_5780_">
      <path fill="#D4A22A" stroke="#231F20" stroke-width="2" stroke-miterlimit="10" d="M350.2,406.2V194.6l-19.5-27.2l19.5,3.4 c0-0.9,0-1.7,0-1.7c0-3.4,2.5-5.9,5.1-5.9s5.1,2.6,5.1,5.9c0,1.7-0.9,3.4-1.7,5.1V407h-8.5V406.2z"/>
    </g>
    <g id="_x2E_svg_5779_">
      <path fill="#D4A22A" stroke="#231F20" stroke-width="2" stroke-miterlimit="10" d="M334,387.5V175.9l-19.5-29.8l19.5,5.9 c0-0.9,0-0.9,0-1.7c0-3.4,2.5-6,5.1-6c2.5,0,5.1,2.6,5.1,6c0,1.7-0.8,3.4-1.7,5.1v232.1H334z"/>
    </g>
    <g id="_x2E_svg_5778_">
      <path fill="#D4A22A" stroke="#231F20" stroke-width="2" stroke-miterlimit="10" d="M317,260.9V155.4l-23-15.3l23-9.3 c0-0.9-0.8-1.7-0.8-2.6c0-3.4,2.5-6,5.1-6s5.1,2.6,5.1,6c0,1.7-0.9,3.4-1.7,5.1v133.4L317,260.9z"/>
    </g>
    <g id="_x2E_svg_5777_">
      <path fill="#D4A22A" d="M376.5,492V234.5c-0.8-0.9-1.7-2.5-1.7-5.1c0-3.4,2.6-5.9,5.1-5.9s5.1,2.6,5.1,5.9c0,0.9,0,1.7-0.8,3.4 l12.8,10.2l-12.8,12.8V492H376.5z"/>
    </g>
    <path id="_x2E_svg_5776_" fill="#231F20" d="M243.1,138.4c0,0,45.1,159,116.4,120.7h5.1v237.1c0,0-60.4,14.5-136.9-3.4V150.4 L243.1,138.4z"/>
    <g id="_x2E_svg_5775_">
      <path fill="#D4A22A" stroke="#231F20" stroke-width="2" stroke-miterlimit="10" d="M295,240.5V140.1l-26.4-12.7l26.4-12.8 c0-0.8-0.9-1.7-0.9-2.6c0-3.4,2.6-5.9,5.1-5.9s5.1,2.5,5.1,5.9c0,1.7-0.8,3.4-1.7,5.1v132.6L295,240.5z"/>
    </g>
    <g id="_x2E_svg_5772_">
      <path fill="#D4A22A" stroke="#231F20" stroke-width="2" stroke-miterlimit="10" d="M268.6,203.9v-68L243.1,124l26.4-12.8 c0-0.8-0.9-1.7-0.9-2.6c0-3.4,2.5-5.9,5.1-5.9c2.5,0,5.1,2.6,5.1,5.9c0,1.7-0.8,3.4-1.7,5.1v103.7L268.6,203.9z"/>
    </g>
    <g id="_x2E_svg_5771_">
      <path fill="#D4A22A" stroke="#231F20" stroke-width="2" stroke-miterlimit="10" d="M249,162.2v-20.4l-26.3-12.8l26.3-12.8 c0-0.8-0.8-1.7-0.8-2.5c0-3.4,2.5-6,5.1-6c2.6,0,5.1,2.6,5.1,6c0,1.7-0.9,3.4-1.7,5.1v58.7L249,162.2z"/>
    </g>
    <g id="_x2E_svg_5770_">
      <path fill="#D4A22A" stroke="#231F20" stroke-width="2" stroke-miterlimit="10" d="M234.6,214.9v-49.3l-21.2-12.8l21.2-11.9 c0-0.9-0.9-1.7-0.9-2.6c0-3.4,2.5-5.9,5.1-5.9c2.5,0,5.1,2.6,5.1,5.9c0,1.7-0.9,3.4-1.7,5.1v72.2h-7.6V214.9z"/>
    </g>
    <g id="_x2E_svg_5769_">
      <path fill="#D4A22A" stroke="#231F20" stroke-width="2" stroke-miterlimit="10" d="M227,218.4V192l-12.8-11.1l13.6-13.6 c-0.8-0.9-0.8-1.7-0.8-3.4c0-3.4,2.5-5.9,5.1-5.9c2.6,0,5.1,2.6,5.1,5.9c0,1.7-0.9,3.4-1.7,5.1v48.4H227V218.4z"/>
    </g>
    <g id="_x2E_svg_5768_">
      <path fill="#D4A22A" stroke="#231F20" stroke-width="2" stroke-miterlimit="10" d="M361.2,494.6V264.2c-0.8-0.9-1.7-2.5-1.7-5.1 c0-3.4,2.5-5.9,5.1-5.9c2.5,0,5.1,2.5,5.1,5.9c0,0.9,0,1.7-0.8,2.5l16.1,11l-15.3,12.8v209.1H361.2z"/>
    </g>
    <g id="_x2E_svg_5767_">
      <path fill="#D4A22A" stroke="#231F20" stroke-width="2" stroke-miterlimit="10" d="M343.4,498V291.5c-0.9-0.9-1.7-2.5-1.7-5.1 c0-3.4,2.5-6,5.1-6s5.1,2.5,5.1,6c0,0.9,0,1.7-0.9,2.5l20.4,7.6l-19.5,15.3V498H343.4z"/>
    </g>
    <g id="_x2E_svg_5766_">
      <path fill="#D4A22A" stroke="#231F20" stroke-width="2" stroke-miterlimit="10" d="M322.2,499.7V293.1c-0.9-0.9-1.7-2.5-1.7-5.1 c0-3.4,2.5-6,5.1-6s5.1,2.6,5.1,6c0,0.9,0,1.7-0.9,2.5l25.5,11.1l-24.6,15.3v181.9h-8.5V499.7z"/>
    </g>
    <g id="_x2E_svg_5762_">
      <path fill="#D4A22A" stroke="#231F20" stroke-width="2" stroke-miterlimit="10" d="M302.6,499.7V282.1c-0.8-0.9-1.7-2.5-1.7-5.1 c0-3.4,2.5-6,5.1-6s5.1,2.5,5.1,6c0,0.9,0,1.7-0.8,2.5l25.5,11l-24.7,15.3v192.9h-8.5V499.7z"/>
    </g>
    <g id="_x2E_svg_5761_">
      <path fill="#D4A22A" stroke="#231F20" stroke-width="2" stroke-miterlimit="10" d="M284.8,499.7V269.4c-0.8-0.9-1.7-2.5-1.7-5.1 c0-3.4,2.5-6,5.1-6c2.5,0,5.1,2.5,5.1,6c0,0.9,0,1.7-0.8,2.5L323,277l-29.8,17v206.5h-8.5V499.7z"/>
    </g>
    <g id="_x2E_svg_5760_">
      <path fill="#D4A22A" stroke="#231F20" stroke-width="2" stroke-miterlimit="10" d="M265.2,498V247.2c-1.7-0.9-1.7-2.5-1.7-4.2 c0-3.4,2.5-6,5.1-6c2.5,0,5.1,2.6,5.1,6c0,0.9,0,1.7-0.9,2.5l28.9,10.2l-28.9,16.1V498H265.2z"/>
    </g>
    <g id="_x2E_svg_5759_">
      <path fill="#D4A22A" stroke="#231F20" stroke-width="2" stroke-miterlimit="10" d="M244.8,495.5V226.9c-0.8-0.9-1.7-2.6-1.7-5.1 c0-3.4,2.5-5.9,5.1-5.9c2.6,0,5.1,2.6,5.1,5.9c0,0.9,0,1.7-0.8,2.6l26.3,12.7l-25.5,14.5v244H244.8z"/>
    </g>
    <g id="_x2E_svg_5758_">
      <path fill="#D4A22A" stroke="#231F20" stroke-width="2" stroke-miterlimit="10" d="M225.2,487.8V202.2c-0.9-0.9-1.7-2.6-1.7-5.1 c0-3.4,2.6-5.9,5.1-5.9s5.1,2.6,5.1,5.9c0,0.9,0,1.7-0.9,2.6l26.4,12.8l-25.5,14.5v265.2L225.2,487.8z"/>
    </g>
  </g>
</svg>