<?xml version="1.0" encoding="utf-8"?>
<svg width="81" height="81" viewBox="3 1 60 60" fill="none" xmlns="http://www.w3.org/2000/svg">
  <g transform="matrix(1, 0, 0, 1, 0, 5.536417)">
    <text style="fill: rgb(51, 51, 51); font-family: Arial; font-size: 5px; white-space: pre;" x="28" y="23.057">TUE</text>
    <g transform="matrix(0.955889, 0, 0, 0.955889, 23.441116, 22.945311)" style="">
      <path d="M16.5312 2.28405H10.6946L17.7277 9.31713V3.48055C17.7292 3.32299 17.6993 3.1667 17.6398 3.02083C17.5802 2.87496 17.4921 2.74244 17.3807 2.63102C17.2693 2.51961 17.1367 2.43153 16.9909 2.37195C16.845 2.31238 16.6887 2.28249 16.5312 2.28405Z" fill="#6493E6"/>
      <path d="M17.716 16.5311V10.5953L10.5953 17.716H16.5311C16.6887 17.7188 16.8453 17.6911 16.9922 17.6342C17.2082 17.5422 17.3921 17.3884 17.5208 17.1921C17.6496 16.9958 17.7175 16.7659 17.716 16.5311Z" fill="#6493E6"/>
      <path d="M2.28406 3.46888V9.32589L9.32589 2.28406H3.46888C3.15606 2.28858 2.85731 2.41486 2.63609 2.63609C2.41486 2.85731 2.28858 3.15606 2.28406 3.46888Z" fill="#6493E6"/>
      <path d="M2.28406 16.5312C2.28406 16.8454 2.40889 17.1468 2.63108 17.369C2.85328 17.5912 3.15465 17.716 3.46888 17.716H9.41343L2.28406 10.5866V16.5312Z" fill="#6493E6"/>
      <path d="M10.0029 2.97967L6.69714 6.28546L10.0029 9.59125L13.3087 6.28546L10.0029 2.97967Z" fill="white"/>
      <path d="M10.0031 10.3223L6.69727 13.6281L10.0031 16.9339L13.3089 13.6281L10.0031 10.3223Z" fill="white"/>
      <path d="M16.5311 1.31519H3.46888C2.89819 1.31519 2.35083 1.54169 1.94702 1.94496C1.54321 2.34822 1.31596 2.89527 1.31519 3.46596V16.5341C1.31596 17.1042 1.5428 17.6509 1.94599 18.054C2.34917 18.4572 2.89578 18.6841 3.46596 18.6848H16.5341C17.1045 18.6833 17.6511 18.4558 18.0542 18.0522C18.4573 17.6485 18.6841 17.1016 18.6848 16.5311V3.46888C18.6841 2.89792 18.4569 2.35057 18.0532 1.94684C17.6494 1.54311 17.1021 1.31596 16.5311 1.31519ZM10.0029 2.97861L13.3093 6.28503L10.0029 9.59145L6.69651 6.28503L10.0029 2.97861ZM2.28406 3.46888C2.28858 3.15606 2.41486 2.85731 2.63609 2.63609C2.85731 2.41486 3.15606 2.28858 3.46888 2.28406H9.32589L2.28406 9.32589V3.46888ZM9.41343 17.716H3.46888C3.15465 17.716 2.85328 17.5911 2.63108 17.3689C2.40889 17.1467 2.28406 16.8454 2.28406 16.5311V10.5866L9.41343 17.716ZM9.99709 16.9339L6.69943 13.6304L10.0029 10.3385L13.3093 13.6304L10.0029 16.9339H9.99709ZM17.7101 16.5311C17.7122 16.7652 17.6451 16.9947 17.5175 17.1909C17.3898 17.3871 17.2071 17.5413 16.9922 17.6343C16.8461 17.6951 16.6894 17.7268 16.5311 17.7276H10.5953L17.716 10.607L17.7101 16.5311ZM17.7101 9.31713L10.6829 2.28406H16.5195C16.8337 2.28406 17.1351 2.40889 17.3573 2.63108C17.5795 2.85328 17.7043 3.15465 17.7043 3.46888L17.7101 9.31713Z" fill="black"/>
      <path d="M16.5311 2.28406C16.8454 2.28406 17.1467 2.40889 17.3689 2.63108C17.5911 2.85328 17.716 3.15465 17.716 3.46888V9.30546V3.46888C17.716 3.15465 17.5911 2.85328 17.3689 2.63108C17.1467 2.40889 16.8454 2.28406 16.5311 2.28406Z" fill="black"/>
      <path d="M17.7159 16.5311C17.7175 16.7659 17.6496 16.9958 17.5208 17.1921C17.392 17.3884 17.2081 17.5422 16.9922 17.6342C17.2063 17.543 17.389 17.3909 17.5176 17.197C17.6462 17.003 17.7152 16.7756 17.7159 16.5428V10.5953V16.5311Z" fill="black"/>
      <path d="M9.32589 2.28406L2.28406 9.32589L9.32589 2.28406H3.46888C3.28271 2.28558 3.0996 2.3316 2.93484 2.4183C3.0996 2.3316 3.28271 2.28558 3.46888 2.28406H9.32589Z" fill="black"/>
      <path d="M2.28406 10.5866L9.41343 17.716L2.28406 10.5866Z" fill="black"/>
      <path d="M10.0059 9.59142L13.3123 6.285L10.0059 2.97858L13.3094 6.285L10.0059 9.59142Z" fill="black"/>
      <path d="M13.3094 13.6275L10.0059 10.324L13.3094 13.6275L10.0059 16.9339L13.3094 13.6275Z" fill="black"/>
    </g>
    <g style="stroke: rgb(0, 0, 0); fill: rgb(0, 0, 0);" transform="matrix(0.068429, 0, 0, 0.068429, 12.46747, 4.034418)">
      <g>
        <g>
          <path d="M4.549,110.703v430.77c0,32.059,26.082,58.141,58.14,58.141h474.737c32.057,0,58.139-26.082,58.139-58.141v-430.77 c0-32.059-26.082-58.14-58.139-58.14h-59.838V21.92c0-11.83-9.59-21.42-21.42-21.42s-21.42,9.59-21.42,21.42v30.642H165.366 V21.92c0-11.83-9.59-21.42-21.42-21.42s-21.42,9.59-21.42,21.42v30.642H62.689C30.63,52.563,4.549,78.645,4.549,110.703z M552.725,541.473c0,8.449-6.85,15.301-15.299,15.301H62.688c-8.45,0-15.3-6.852-15.3-15.301V207.399h505.336V541.473 L552.725,541.473z M143.946,141.266c11.83,0,21.42-9.59,21.42-21.42V95.403h269.382v24.443c0,11.83,9.59,21.42,21.42,21.42 s21.42-9.59,21.42-21.42V95.403h59.838c8.449,0,15.299,6.85,15.299,15.3v53.856H47.389v-53.856c0-8.451,6.85-15.3,15.3-15.3 h59.836v24.443C122.526,131.676,132.115,141.266,143.946,141.266z"/>
          <path d="M537.426,600.113H62.688c-32.334,0-58.64-26.306-58.64-58.641v-430.77c0-32.334,26.306-58.64,58.641-58.641h59.336V21.92 c0-12.087,9.833-21.92,21.92-21.92s21.92,9.833,21.92,21.92v30.142h268.382V21.92c0-12.087,9.833-21.92,21.92-21.92 s21.92,9.833,21.92,21.92v30.143h59.338c32.333,0,58.639,26.306,58.639,58.64v430.77 C596.064,573.808,569.759,600.113,537.426,600.113z M62.689,53.062c-31.783,0-57.641,25.858-57.641,57.641v430.77 c0,31.783,25.857,57.641,57.64,57.641h474.737c31.782,0,57.639-25.857,57.639-57.641v-430.77c0-31.783-25.856-57.64-57.639-57.64 h-60.338V21.92c0-11.536-9.385-20.92-20.92-20.92s-20.92,9.385-20.92,20.92v31.142H164.866V21.92 c0-11.536-9.385-20.92-20.92-20.92s-20.92,9.385-20.92,20.92v31.142H62.689z M537.426,557.273H62.688 c-8.712,0-15.8-7.088-15.8-15.801V206.899h506.336v334.574C553.225,550.186,546.138,557.273,537.426,557.273z M47.889,207.899 v333.574c0,8.161,6.639,14.801,14.8,14.801h474.737c8.16,0,14.799-6.64,14.799-14.801V207.899H47.889z M553.225,165.059H46.889 v-54.356c0-8.712,7.088-15.8,15.8-15.8h60.336v24.943c0.001,11.535,9.386,20.92,20.921,20.92c11.535,0,20.92-9.385,20.92-20.92 V94.903h270.382v24.943c0,11.535,9.385,20.92,20.92,20.92s20.92-9.385,20.92-20.92V94.903h60.338 c8.712,0,15.799,7.088,15.799,15.8V165.059z M47.889,164.059h504.336v-53.356c0-8.161-6.639-14.8-14.799-14.8h-59.338v23.943 c0,12.087-9.833,21.92-21.92,21.92s-21.92-9.833-21.92-21.92V95.903H165.866v23.943c0,12.087-9.833,21.92-21.92,21.92 c-12.086,0-21.92-9.833-21.921-21.92V95.903H62.688c-8.161,0-14.8,6.639-14.8,14.8V164.059z"/>
        </g>
      </g>
    </g>
  </g>
</svg>