<?xml version="1.0" encoding="utf-8"?>
<svg width="800px" height="800px" viewBox="0 0 16 16" xmlns="http://www.w3.org/2000/svg" fill="#000000" class="bi bi-stopwatch-fill">
  <path d="M 6.5 0 C 6.115 0 5.875 0.417 6.067 0.75 C 6.156 0.905 7 1 7 1 L 7 2.07 C 1.666 2.841 -0.833 9.097 2.502 13.331 C 3.829 15.016 5.855 16 8 16 C 13.389 16 16.756 10.166 14.062 5.5 C 13.839 5.115 13.581 4.752 13.29 4.416 C 13.294 4.412 13.299 4.408 13.303 4.404 L 13.657 4.05 L 14.01 4.404 C 14.277 4.681 14.744 4.564 14.85 4.194 C 14.901 4.017 14.85 3.825 14.717 3.697 L 13.303 2.282 C 13.036 2.005 12.569 2.122 12.463 2.492 C 12.412 2.669 12.463 2.861 12.596 2.989 L 12.95 3.343 L 12.596 3.697 C 12.592 3.701 12.588 3.705 12.584 3.709 C 11.572 2.83 10.327 2.261 9 2.071 L 9 1 L 9.5 1 C 9.885 1 10.125 0.583 9.933 0.25 C 9.844 0.095 9.679 0 9.5 0 L 6.5 0 Z"/>
  <g transform="matrix(0.164777, 0, 0, 0.164777, 16.771689, 7.36175)" style="">
    <g transform="matrix(1.614793, 0, 0, 1.614793, -69.381623, 10.280851)" style="">
      <path d="M16.5312 2.28405H10.6946L17.7277 9.31713V3.48055C17.7292 3.32299 17.6993 3.1667 17.6398 3.02083C17.5802 2.87496 17.4921 2.74244 17.3807 2.63102C17.2693 2.51961 17.1367 2.43153 16.9909 2.37195C16.845 2.31238 16.6887 2.28249 16.5312 2.28405Z" fill="#6493E6"/>
      <path d="M17.716 16.5311V10.5953L10.5953 17.716H16.5311C16.6887 17.7188 16.8453 17.6911 16.9922 17.6342C17.2082 17.5422 17.3921 17.3884 17.5208 17.1921C17.6496 16.9958 17.7175 16.7659 17.716 16.5311Z" fill="#6493E6"/>
      <path d="M2.28406 3.46888V9.32589L9.32589 2.28406H3.46888C3.15606 2.28858 2.85731 2.41486 2.63609 2.63609C2.41486 2.85731 2.28858 3.15606 2.28406 3.46888Z" fill="#6493E6"/>
      <path d="M2.28406 16.5312C2.28406 16.8454 2.40889 17.1468 2.63108 17.369C2.85328 17.5912 3.15465 17.716 3.46888 17.716H9.41343L2.28406 10.5866V16.5312Z" fill="#6493E6"/>
      <path d="M10.0029 2.97967L6.69714 6.28546L10.0029 9.59125L13.3087 6.28546L10.0029 2.97967Z" fill="white"/>
      <path d="M10.0031 10.3223L6.69727 13.6281L10.0031 16.9339L13.3089 13.6281L10.0031 10.3223Z" fill="white"/>
      <path d="M16.5311 1.31519H3.46888C2.89819 1.31519 2.35083 1.54169 1.94702 1.94496C1.54321 2.34822 1.31596 2.89527 1.31519 3.46596V16.5341C1.31596 17.1042 1.5428 17.6509 1.94599 18.054C2.34917 18.4572 2.89578 18.6841 3.46596 18.6848H16.5341C17.1045 18.6833 17.6511 18.4558 18.0542 18.0522C18.4573 17.6485 18.6841 17.1016 18.6848 16.5311V3.46888C18.6841 2.89792 18.4569 2.35057 18.0532 1.94684C17.6494 1.54311 17.1021 1.31596 16.5311 1.31519ZM10.0029 2.97861L13.3093 6.28503L10.0029 9.59145L6.69651 6.28503L10.0029 2.97861ZM2.28406 3.46888C2.28858 3.15606 2.41486 2.85731 2.63609 2.63609C2.85731 2.41486 3.15606 2.28858 3.46888 2.28406H9.32589L2.28406 9.32589V3.46888ZM9.41343 17.716H3.46888C3.15465 17.716 2.85328 17.5911 2.63108 17.3689C2.40889 17.1467 2.28406 16.8454 2.28406 16.5311V10.5866L9.41343 17.716ZM9.99709 16.9339L6.69943 13.6304L10.0029 10.3385L13.3093 13.6304L10.0029 16.9339H9.99709ZM17.7101 16.5311C17.7122 16.7652 17.6451 16.9947 17.5175 17.1909C17.3898 17.3871 17.2071 17.5413 16.9922 17.6343C16.8461 17.6951 16.6894 17.7268 16.5311 17.7276H10.5953L17.716 10.607L17.7101 16.5311ZM17.7101 9.31713L10.6829 2.28406H16.5195C16.8337 2.28406 17.1351 2.40889 17.3573 2.63108C17.5795 2.85328 17.7043 3.15465 17.7043 3.46888L17.7101 9.31713Z" fill="black"/>
      <path d="M16.5311 2.28406C16.8454 2.28406 17.1467 2.40889 17.3689 2.63108C17.5911 2.85328 17.716 3.15465 17.716 3.46888V9.30546V3.46888C17.716 3.15465 17.5911 2.85328 17.3689 2.63108C17.1467 2.40889 16.8454 2.28406 16.5311 2.28406Z" fill="black"/>
      <path d="M17.7159 16.5311C17.7175 16.7659 17.6496 16.9958 17.5208 17.1921C17.392 17.3884 17.2081 17.5422 16.9922 17.6342C17.2063 17.543 17.389 17.3909 17.5176 17.197C17.6462 17.003 17.7152 16.7756 17.7159 16.5428V10.5953V16.5311Z" fill="black"/>
      <path d="M9.32589 2.28406L2.28406 9.32589L9.32589 2.28406H3.46888C3.28271 2.28558 3.0996 2.3316 2.93484 2.4183C3.0996 2.3316 3.28271 2.28558 3.46888 2.28406H9.32589Z" fill="black"/>
      <path d="M2.28406 10.5866L9.41343 17.716L2.28406 10.5866Z" fill="black"/>
      <path d="M10.0059 9.59142L13.3123 6.285L10.0059 2.97858L13.3094 6.285L10.0059 9.59142Z" fill="black"/>
      <path d="M13.3094 13.6275L10.0059 10.324L13.3094 13.6275L10.0059 16.9339L13.3094 13.6275Z" fill="black"/>
    </g>
  </g>
  <path style="fill: rgb(51, 51, 51);" d="M 4.815 6.546 C 4.815 6.585 4.838 6.638 4.867 6.665 L 4.981 6.773 C 5.01 6.8 5.057 6.801 5.088 6.777 L 5.257 6.642 C 5.287 6.618 5.312 6.566 5.312 6.527 L 5.313 5.266 C 5.313 5.226 5.29 5.216 5.262 5.242 L 4.864 5.613 C 4.836 5.639 4.812 5.693 4.813 5.732 L 4.815 6.546 Z M 3.544 6.751 C 3.572 6.724 3.626 6.701 3.665 6.701 L 4.664 6.692 C 4.704 6.691 4.758 6.713 4.786 6.739 L 4.912 6.861 C 4.94 6.887 4.938 6.93 4.908 6.956 L 4.792 7.054 C 4.762 7.079 4.706 7.1 4.667 7.1 L 3.685 7.103 C 3.646 7.103 3.59 7.082 3.56 7.058 L 3.44 6.956 C 3.41 6.931 3.407 6.888 3.436 6.861 L 3.544 6.751 Z M 3.248 7.045 C 3.279 7.021 3.329 7.021 3.36 7.044 L 3.489 7.143 C 3.52 7.167 3.545 7.218 3.545 7.256 L 3.544 8.065 C 3.543 8.105 3.52 8.158 3.491 8.184 L 3.1 8.544 C 3.072 8.57 3.048 8.559 3.048 8.52 L 3.048 7.272 C 3.048 7.233 3.073 7.182 3.104 7.158 L 3.248 7.045 Z M 4.699 8.215 C 4.738 8.215 4.793 8.237 4.822 8.263 L 5.254 8.658 C 5.282 8.684 5.274 8.706 5.235 8.706 L 3.135 8.707 C 3.095 8.707 3.087 8.685 3.115 8.658 L 3.535 8.262 C 3.564 8.235 3.618 8.213 3.657 8.213 L 4.699 8.215 Z M 4.699 5.572 C 4.738 5.572 4.793 5.551 4.822 5.524 L 5.254 5.13 C 5.282 5.103 5.274 5.082 5.235 5.082 L 3.136 5.082 C 3.097 5.082 3.088 5.104 3.117 5.13 L 3.535 5.525 C 3.564 5.551 3.618 5.573 3.657 5.573 L 4.699 5.572 Z M 4.825 7.263 C 4.825 7.224 4.85 7.172 4.879 7.147 L 4.992 7.052 C 5.022 7.027 5.073 7.025 5.105 7.047 L 5.252 7.147 C 5.285 7.169 5.311 7.218 5.311 7.258 L 5.32 8.507 C 5.321 8.546 5.297 8.557 5.267 8.532 L 4.872 8.187 C 4.843 8.162 4.819 8.109 4.819 8.07 L 4.825 7.263 Z M 3.494 5.628 C 3.523 5.655 3.545 5.708 3.545 5.747 L 3.545 6.532 C 3.545 6.571 3.523 6.625 3.495 6.652 L 3.365 6.78 C 3.337 6.808 3.291 6.81 3.26 6.785 L 3.103 6.656 C 3.072 6.631 3.048 6.579 3.048 6.54 L 3.048 5.285 C 3.048 5.247 3.072 5.237 3.1 5.263 L 3.494 5.628 Z" fill-rule="evenodd"/>
  <path style="fill: rgb(51, 51, 51);" d="M 6.752 5.776 C 6.805 5.776 6.846 5.818 6.846 5.87 L 6.846 6.422 C 6.846 6.473 6.805 6.516 6.752 6.516 L 6.195 6.516 C 6.143 6.516 6.101 6.473 6.101 6.422 L 6.101 5.87 C 6.101 5.818 6.143 5.776 6.195 5.776 L 6.752 5.776 Z M 6.752 7.273 C 6.805 7.273 6.846 7.315 6.846 7.367 L 6.846 7.919 C 6.846 7.97 6.805 8.013 6.752 8.013 L 6.195 8.013 C 6.143 8.013 6.101 7.97 6.101 7.919 L 6.101 7.367 C 6.101 7.315 6.143 7.273 6.195 7.273 L 6.752 7.273 Z" fill-rule="evenodd"/>
  <path style="fill: rgb(51, 51, 51);" d="M 9.395 6.546 C 9.395 6.585 9.418 6.638 9.446 6.665 L 9.561 6.773 C 9.589 6.8 9.637 6.801 9.667 6.777 L 9.836 6.642 C 9.866 6.618 9.891 6.566 9.891 6.527 L 9.893 5.266 C 9.893 5.226 9.869 5.216 9.841 5.242 L 9.444 5.613 C 9.415 5.639 9.392 5.693 9.392 5.732 L 9.395 6.546 Z M 8.124 6.751 C 8.151 6.724 8.205 6.701 8.245 6.701 L 9.244 6.692 C 9.283 6.691 9.338 6.713 9.366 6.739 L 9.491 6.861 C 9.519 6.887 9.518 6.93 9.488 6.956 L 9.371 7.054 C 9.341 7.079 9.285 7.1 9.247 7.1 L 8.264 7.103 C 8.226 7.103 8.169 7.082 8.14 7.058 L 8.019 6.956 C 7.989 6.931 7.987 6.888 8.015 6.861 L 8.124 6.751 Z M 7.827 7.045 C 7.858 7.021 7.908 7.021 7.94 7.044 L 8.068 7.143 C 8.1 7.167 8.124 7.218 8.124 7.256 L 8.123 8.065 C 8.123 8.105 8.1 8.158 8.071 8.184 L 7.679 8.544 C 7.651 8.57 7.627 8.559 7.627 8.52 L 7.627 7.272 C 7.627 7.233 7.652 7.182 7.683 7.158 L 7.827 7.045 Z M 9.278 8.215 C 9.317 8.215 9.372 8.237 9.401 8.263 L 9.833 8.658 C 9.862 8.684 9.853 8.706 9.814 8.706 L 7.714 8.707 C 7.675 8.707 7.667 8.685 7.695 8.658 L 8.114 8.262 C 8.143 8.235 8.197 8.213 8.237 8.213 L 9.278 8.215 Z M 9.278 5.572 C 9.317 5.572 9.372 5.551 9.401 5.524 L 9.833 5.13 C 9.862 5.103 9.853 5.082 9.814 5.082 L 7.716 5.082 C 7.676 5.082 7.668 5.104 7.696 5.13 L 8.114 5.525 C 8.143 5.551 8.197 5.573 8.237 5.573 L 9.278 5.572 Z M 9.404 7.263 C 9.404 7.224 9.429 7.172 9.459 7.147 L 9.571 7.052 C 9.602 7.027 9.652 7.025 9.684 7.047 L 9.831 7.147 C 9.864 7.169 9.89 7.218 9.89 7.258 L 9.9 8.507 C 9.9 8.546 9.876 8.557 9.847 8.532 L 9.452 8.187 C 9.422 8.162 9.398 8.109 9.399 8.07 L 9.404 7.263 Z M 8.073 5.628 C 8.102 5.655 8.125 5.708 8.125 5.747 L 8.125 6.532 C 8.125 6.571 8.102 6.625 8.074 6.652 L 7.945 6.78 C 7.917 6.808 7.87 6.81 7.84 6.785 L 7.682 6.656 C 7.652 6.631 7.627 6.579 7.627 6.54 L 7.627 5.285 C 7.627 5.247 7.651 5.237 7.679 5.263 L 8.073 5.628 Z" fill-rule="evenodd"/>
  <path style="fill: rgb(51, 51, 51);" d="M 12.447 6.546 C 12.448 6.585 12.471 6.638 12.499 6.665 L 12.614 6.773 C 12.642 6.8 12.69 6.801 12.721 6.777 L 12.889 6.642 C 12.919 6.618 12.945 6.566 12.945 6.527 L 12.945 5.266 C 12.946 5.226 12.923 5.216 12.894 5.242 L 12.497 5.613 C 12.469 5.639 12.445 5.693 12.445 5.732 L 12.447 6.546 Z M 11.177 6.751 C 11.204 6.724 11.259 6.701 11.298 6.701 L 12.297 6.692 C 12.336 6.691 12.391 6.713 12.419 6.739 L 12.544 6.861 C 12.572 6.887 12.571 6.93 12.541 6.956 L 12.425 7.054 C 12.395 7.079 12.339 7.1 12.3 7.1 L 11.318 7.103 C 11.279 7.103 11.223 7.082 11.193 7.058 L 11.073 6.956 C 11.042 6.931 11.04 6.888 11.068 6.861 L 11.177 6.751 Z M 10.881 7.045 C 10.911 7.021 10.961 7.021 10.992 7.044 L 11.121 7.143 C 11.153 7.167 11.178 7.218 11.178 7.256 L 11.176 8.065 C 11.176 8.105 11.153 8.158 11.124 8.184 L 10.733 8.544 C 10.704 8.57 10.681 8.559 10.681 8.52 L 10.681 7.272 C 10.681 7.233 10.706 7.182 10.736 7.158 L 10.881 7.045 Z M 12.331 8.215 C 12.371 8.215 12.426 8.237 12.454 8.263 L 12.886 8.658 C 12.915 8.684 12.907 8.706 12.868 8.706 L 10.768 8.707 C 10.728 8.707 10.72 8.685 10.748 8.658 L 11.168 8.262 C 11.196 8.235 11.251 8.213 11.29 8.213 L 12.331 8.215 Z M 12.331 5.572 C 12.371 5.572 12.426 5.551 12.454 5.524 L 12.886 5.13 C 12.915 5.103 12.907 5.082 12.868 5.082 L 10.769 5.082 C 10.73 5.082 10.721 5.104 10.75 5.13 L 11.168 5.525 C 11.197 5.551 11.251 5.573 11.29 5.573 L 12.331 5.572 Z M 12.457 7.263 C 12.458 7.224 12.482 7.172 12.512 7.147 L 12.625 7.052 C 12.655 7.027 12.705 7.025 12.738 7.047 L 12.885 7.147 C 12.917 7.169 12.944 7.218 12.944 7.258 L 12.953 8.507 C 12.953 8.546 12.93 8.557 12.9 8.532 L 12.505 8.187 C 12.476 8.162 12.452 8.109 12.452 8.07 L 12.457 7.263 Z M 11.126 5.628 C 11.155 5.655 11.178 5.708 11.178 5.747 L 11.178 6.532 C 11.178 6.571 11.156 6.625 11.128 6.652 L 10.997 6.78 C 10.97 6.808 10.923 6.81 10.893 6.785 L 10.735 6.656 C 10.705 6.631 10.681 6.579 10.681 6.54 L 10.681 5.285 C 10.681 5.247 10.704 5.237 10.733 5.263 L 11.126 5.628 Z" fill-rule="evenodd"/>
  <path style="fill: rgb(0, 255, 51);" d="M 4.755 6.554 C 4.755 6.592 4.778 6.646 4.806 6.672 L 4.92 6.779 C 4.948 6.806 4.996 6.808 5.026 6.784 L 5.193 6.649 C 5.223 6.625 5.248 6.574 5.248 6.535 L 5.249 5.282 C 5.249 5.243 5.226 5.233 5.198 5.26 L 4.804 5.627 C 4.775 5.654 4.752 5.707 4.753 5.745 L 4.755 6.554 Z M 3.199 7.05 C 3.229 7.026 3.279 7.026 3.31 7.049 L 3.438 7.147 C 3.469 7.17 3.494 7.221 3.494 7.26 L 3.492 8.063 C 3.492 8.102 3.469 8.155 3.44 8.181 L 3.052 8.538 C 3.023 8.564 3 8.553 3 8.514 L 3 7.275 C 3 7.236 3.025 7.186 3.055 7.162 L 3.199 7.05 Z M 4.639 8.211 C 4.678 8.211 4.733 8.233 4.761 8.259 L 5.19 8.651 C 5.219 8.677 5.211 8.698 5.172 8.698 L 3.086 8.7 C 3.047 8.7 3.039 8.678 3.067 8.652 L 3.484 8.258 C 3.512 8.231 3.566 8.21 3.605 8.21 L 4.639 8.211 Z M 4.639 5.587 C 4.678 5.587 4.733 5.566 4.761 5.54 L 5.19 5.147 C 5.219 5.121 5.211 5.1 5.172 5.1 L 3.088 5.1 C 3.049 5.1 3.04 5.122 3.069 5.148 L 3.484 5.54 C 3.512 5.567 3.566 5.588 3.605 5.588 L 4.639 5.587 Z M 4.765 7.266 C 4.765 7.227 4.789 7.176 4.819 7.151 L 4.931 7.057 C 4.96 7.032 5.011 7.03 5.043 7.051 L 5.189 7.151 C 5.221 7.173 5.247 7.222 5.248 7.261 L 5.256 8.501 C 5.257 8.54 5.233 8.551 5.204 8.525 L 4.812 8.184 C 4.782 8.158 4.759 8.106 4.759 8.067 L 4.765 7.266 Z M 3.443 5.642 C 3.471 5.669 3.494 5.722 3.494 5.761 L 3.494 6.54 C 3.494 6.579 3.472 6.633 3.444 6.66 L 3.315 6.787 C 3.287 6.814 3.241 6.816 3.211 6.792 L 3.054 6.663 C 3.024 6.638 3 6.587 3 6.548 L 3 5.302 C 3 5.264 3.023 5.254 3.051 5.28 L 3.443 5.642 Z" fill-rule="evenodd"/>
  <path style="fill:#00ff33" d="M 0.013 0 C 0.014 0 0.015 0.001 0.015 0.002 L 0.015 0.013 C 0.015 0.014 0.014 0.015 0.013 0.015 L 0.002 0.015 C 0.001 0.015 0 0.014 0 0.013 L 0 0.002 C 0 0.001 0.001 0 0.002 0 L 0.013 0 Z M 0.013 0.03 C 0.014 0.03 0.015 0.03 0.015 0.032 L 0.015 0.042 C 0.015 0.043 0.014 0.044 0.013 0.044 L 0.002 0.044 C 0.001 0.044 0 0.043 0 0.042 L 0 0.032 C 0 0.03 0.001 0.03 0.002 0.03 L 0.013 0.03 Z" fill-rule="evenodd"/>
  <path style="fill: rgb(0, 255, 51); transform-box: fill-box; transform-origin: 50% 50%;" d="M 6.75 5.8 C 6.8 5.8 6.85 5.85 6.85 5.9 L 6.85 6.45 C 6.85 6.5 6.8 6.55 6.75 6.55 L 6.2 6.55 C 6.15 6.55 6.1 6.5 6.1 6.45 L 6.1 5.9 C 6.1 5.85 6.15 5.8 6.2 5.8 L 6.75 5.8 Z M 6.75 7.3 C 6.8 7.3 6.85 7.3 6.85 7.4 L 6.85 7.9 C 6.85 7.95 6.8 8 6.75 8 L 6.2 8 C 6.15 8 6.1 7.95 6.1 7.9 L 6.1 7.4 C 6.1 7.3 6.15 7.3 6.2 7.3 L 6.75 7.3 Z" fill-rule="evenodd"/>
  <path style="fill:#00ff33" d="M 12.45 6.548 C 12.45 6.598 12.5 6.648 12.5 6.648 L 12.6 6.748 C 12.65 6.798 12.7 6.798 12.75 6.798 L 12.9 6.648 C 12.95 6.598 12.95 6.548 12.95 6.548 L 12.95 5.248 C 12.95 5.248 12.95 5.248 12.9 5.248 L 12.5 5.598 C 12.5 5.648 12.45 5.698 12.45 5.748 L 12.45 6.548 Z M 10.9 7.048 C 10.95 6.998 11 6.998 11 7.048 L 11.15 7.148 C 11.15 7.148 11.2 7.198 11.2 7.248 L 11.2 8.048 C 11.2 8.098 11.15 8.148 11.15 8.148 L 10.75 8.548 C 10.75 8.548 10.7 8.548 10.7 8.498 L 10.7 7.248 C 10.7 7.248 10.75 7.198 10.75 7.148 L 10.9 7.048 Z M 12.35 8.198 C 12.4 8.198 12.45 8.248 12.45 8.248 L 12.9 8.648 C 12.9 8.648 12.9 8.698 12.9 8.698 L 10.8 8.698 C 10.75 8.698 10.75 8.648 10.75 8.648 L 11.2 8.248 C 11.2 8.198 11.25 8.198 11.3 8.198 L 12.35 8.198 Z M 12.35 5.598 C 12.4 5.598 12.45 5.548 12.45 5.548 L 12.9 5.148 C 12.9 5.098 12.9 5.098 12.9 5.098 L 10.8 5.098 C 10.75 5.098 10.75 5.098 10.75 5.148 L 11.2 5.548 C 11.2 5.548 11.25 5.598 11.3 5.598 L 12.35 5.598 Z M 12.45 7.248 C 12.45 7.198 12.5 7.148 12.5 7.148 L 12.65 7.048 C 12.65 6.998 12.7 6.998 12.75 7.048 L 12.9 7.148 C 12.9 7.148 12.95 7.198 12.95 7.248 L 12.95 8.498 C 12.95 8.548 12.95 8.548 12.9 8.498 L 12.5 8.198 C 12.5 8.148 12.45 8.098 12.45 8.048 L 12.45 7.248 Z M 11.15 5.648 C 11.15 5.648 11.2 5.698 11.2 5.748 L 11.2 6.548 C 11.2 6.548 11.2 6.648 11.15 6.648 L 11 6.798 C 11 6.798 10.95 6.798 10.9 6.798 L 10.75 6.648 C 10.75 6.648 10.7 6.598 10.7 6.548 L 10.7 5.298 C 10.7 5.248 10.75 5.248 10.75 5.248 L 11.15 5.648 Z" fill-rule="evenodd"/>
  <path style="fill:#00ff33" d="M 9.3 6.55 C 9.3 6.6 9.35 6.65 9.35 6.7 L 9.45 6.8 C 9.5 6.8 9.55 6.8 9.6 6.8 L 9.75 6.65 C 9.8 6.65 9.8 6.6 9.8 6.55 L 9.8 5.3 C 9.8 5.25 9.8 5.25 9.75 5.25 L 9.35 5.65 C 9.35 5.65 9.3 5.7 9.3 5.75 L 9.3 6.55 Z M 8.05 6.75 C 8.1 6.75 8.15 6.7 8.15 6.7 L 9.15 6.7 C 9.2 6.7 9.25 6.75 9.3 6.75 L 9.4 6.9 C 9.45 6.9 9.45 6.95 9.4 6.95 L 9.3 7.05 C 9.25 7.1 9.2 7.1 9.15 7.1 L 8.2 7.1 C 8.15 7.1 8.1 7.1 8.05 7.05 L 7.95 6.95 C 7.9 6.95 7.9 6.9 7.95 6.9 L 8.05 6.75 Z M 9.2 8.2 C 9.25 8.2 9.3 8.25 9.3 8.25 L 9.75 8.65 C 9.75 8.7 9.75 8.7 9.7 8.7 L 7.65 8.7 C 7.6 8.7 7.6 8.7 7.6 8.65 L 8.05 8.25 C 8.05 8.25 8.1 8.2 8.15 8.2 L 9.2 8.2 Z M 9.2 5.6 C 9.25 5.6 9.3 5.6 9.3 5.55 L 9.75 5.15 C 9.75 5.15 9.75 5.1 9.7 5.1 L 7.65 5.1 C 7.6 5.1 7.6 5.15 7.6 5.15 L 8.05 5.55 C 8.05 5.6 8.1 5.6 8.15 5.6 L 9.2 5.6 Z M 9.3 7.3 C 9.3 7.25 9.35 7.2 9.35 7.15 L 9.5 7.05 C 9.5 7.05 9.55 7.05 9.6 7.05 L 9.75 7.15 C 9.75 7.2 9.8 7.25 9.8 7.25 L 9.8 8.5 C 9.8 8.55 9.8 8.55 9.75 8.55 L 9.35 8.2 C 9.35 8.15 9.3 8.1 9.3 8.1 L 9.3 7.3 Z" fill-rule="evenodd"/>
</svg>